<svg xml:space="preserve" style="enable-background:new 0 0 300 300;" viewBox="0 0 300 300" y="0px" x="0px" xmlns:xlink="http://www.w3.org/1999/xlink" xmlns="http://www.w3.org/2000/svg" id="Layer_1" version="1.1">
<style type="text/css">
	.st0{fill:#354554;}
	.st1{fill:#212D38;}
	.st2{fill-rule:evenodd;clip-rule:evenodd;fill:#FFFFFF;}
	.st3{fill:none;}
</style>
<polygon points="20.1,75 20.1,225 150,300 279.9,225 279.9,75 150,0" class="st0"/>
<polygon points="20.1,224.9 150,299.9 279.9,224.9 279.9,74.9" class="st1"/>
<path d="M231.4,185.8h-99.7c-15.9-3.4-28-18.1-28-35.7c0-20.1,15.7-36.4,35-36.4s35,16.3,35,36.4  c0,6.6-1.7,12.7-4.7,18.1c-1,1.7,0.1,3.7,2,3.7h32.6c1.1,0,2-0.7,2.3-1.8c1.8-6.3,2.6-13.1,2.6-20c0-40.3-31.4-72.8-70-72.8  s-70.1,32.6-70.1,72.8c0,37.7,27.7,68.8,63,72.5l0,0h99.7" class="st2"/>
<rect height="30.3" width="57.6" class="st3" y="184.6" x="165.3"/>
<rect height="80.2" width="130.4" class="st3" y="142.4" x="391.2"/>
<text style="font-family:'Gilroy-Bold'; font-size:40px;" transform="matrix(1 0 0 1 391.2354 170.4172)">SP</text>
</svg>