<svg xml:space="preserve" style="enable-background:new 0 0 300 300;" viewBox="0 0 300 300" y="0px" x="0px" xmlns:xlink="http://www.w3.org/1999/xlink" xmlns="http://www.w3.org/2000/svg" id="Layer_1" version="1.1">
<style type="text/css">
	.st0{fill:#354554;}
	.st1{fill:#212D38;}
	.st2{fill:#FFFFFF;}
</style>
<polygon points="20.1,75 20.1,225 150,300 279.9,225 279.9,75 150,0" class="st0"/>
<polygon points="20.1,224.9 150,299.9 279.9,224.9 279.9,74.9" class="st1"/>
<path d="M153.2,90.4c2.6-1.1,5.4-1.6,8.2-1.6v21.4h0V144H140v-33.9l0,0c0-2.8,0.6-5.6,1.6-8.2c1.1-2.6,2.6-5,4.6-6.9  C148.2,93,150.6,91.5,153.2,90.4z" class="st2"/>
<path d="M196,132.7V188c-2.8,0-5.6-0.5-8.2-1.6s-5-2.7-6.9-4.6c-2-2-3.6-4.3-4.6-6.9c-1.1-2.6-1.6-5.4-1.6-8.2h0v-33.8  h0v-21.4c2.8,0,5.6,0.5,8.2,1.6c2.6,1.1,5,2.7,6.9,4.6c2,2,3.6,4.3,4.6,6.9C195.5,127.2,196,129.9,196,132.7z" class="st2"/>
<path d="M161.4,189.8c0,2.8-0.5,5.6-1.6,8.2c-1.1,2.6-2.6,5-4.6,6.9c-2,2-4.3,3.6-6.9,4.6c-2.6,1.1-5.4,1.6-8.2,1.6  v-21.4h0V156h21.4L161.4,189.8L161.4,189.8z" class="st2"/>
<path d="M125.4,111.3v55.2c0,2.8-0.5,5.6-1.6,8.2c-1.1,2.6-2.6,5-4.6,6.9c-2,2-4.4,3.6-6.9,4.6  c-2.6,1.1-5.4,1.6-8.2,1.6v-21.4h0v-33.8h0c0-2.8,0.5-5.6,1.6-8.2c1.1-2.6,2.6-5,4.6-6.9c2-2,4.4-3.6,6.9-4.6  C119.8,111.9,122.6,111.3,125.4,111.3z" class="st2"/>
</svg>