<svg width="300" height="300" viewBox="0 0 300 300" fill="none" xmlns="http://www.w3.org/2000/svg">
<g clip-path="url(#clip0_602_36085)">
<path d="M20 74.8V224.9L150 300L280 224.9V74.8L150 -0.199951L20 74.8Z" fill="#364555"/>
<path d="M20 224.9L150 299.9L280 224.9V74.8L20 224.9Z" fill="#212E38"/>
<path d="M145.516 225.833C145.335 225.833 145.173 225.833 145.052 225.833H89.3333V74.1775H140.892V102.34H117.142V197.661H145.446C149.434 197.833 184.735 198.832 189.471 163.885L218.906 165.763C215.493 190.926 199.811 209.505 177.112 219.169C162.44 225.419 148.859 225.833 145.506 225.833H145.516Z" fill="white"/>
<path d="M175.355 112.74C164.641 102.37 151.454 102.33 151.07 102.33H151.332L151.201 74.1877C153.463 74.0867 175.233 73.6626 194.57 92.3735L175.355 112.74Z" fill="white"/>
<path d="M218.825 154.312L189.986 152.757C190.027 151.747 190.057 150.727 190.057 149.677C190.057 137.57 187.442 127.654 182.282 120.223L202.235 100.24C210.757 112.518 218.926 131.976 218.926 150C218.926 151.465 218.896 152.909 218.835 154.312H218.825Z" fill="white"/>
</g>
<defs>
<clipPath id="clip0_602_36085">
<rect width="300" height="300" fill="white"/>
</clipPath>
</defs>
</svg>
