<svg xml:space="preserve" style="enable-background:new 0 0 300 300;" viewBox="0 0 300 300" y="0px" x="0px" xmlns:xlink="http://www.w3.org/1999/xlink" xmlns="http://www.w3.org/2000/svg" id="Layer_1" version="1.1">
<style type="text/css">
	.st0{fill:#364555;}
	.st1{fill:#212E38;}
	.st2{fill:#FFFFFF;}
</style>
<g>
	<g>
		<g>
			<polygon points="20.5,75.3 20.5,225.4 150.5,300.5 280.5,225.4 280.5,75.3 150.5,0.3" class="st0"/>
			<polygon points="20.5,225.4 150.5,300.4 280.5,225.4 280.5,75.3" class="st1"/>
		</g>
	</g>
</g>
<g>
	<path d="M94.1,136.1c5.6-25.9,28.6-45.2,56.2-45.2c0,0,10.9-0.8,11.1-12.1c0.2-11.3-11.9-11.9-11.9-11.9   c-40,0-73.3,29.1-79.6,67.3c0,0,12.5-8.7,22.5,0.8L94.1,136.1z" class="st2"/>
	<path d="M230.2,147.6c0-39.9-29-73.1-67.1-79.6c0,0,10.4,12.6-1.8,22.4l-1.5,1.3c27.2,4.6,47.9,28.2,47.9,56.7   c0,0,0.8,10.7,12.2,10.5C231.4,158.6,230.2,147.6,230.2,147.6z" class="st2"/>
	<path d="M210.9,199.9c9.1-10.7,15.4-23.7,18-38.1l-2.2,0.8c-11,5.7-19.9-3.8-19.9-3.8c-1.6,8.7-5.1,16.7-10.1,23.5   L210.9,199.9z" class="st2"/>
	<path d="M92.7,148.4c0,31.8,25.7,57.5,57.5,57.5c7.1,0,13.8-1.3,20.1-3.6l15.2,17.6c-10.9,5.4-23.1,8.5-36.1,8.5   c-44.6,0-80.7-36.2-80.7-80.7c0,0,0.8-11.5,13.1-11.5S92.7,148.4,92.7,148.4z" class="st2"/>
	<path d="M209.6,233.9c-3.2,0-6.5-1.4-8.7-4L147.7,168c-4.1-4.8-3.6-12.1,1.2-16.2c4.8-4.1,12.1-3.6,16.2,1.2l53.2,61.9   c4.1,4.8,3.6,12.1-1.2,16.2C214.9,233,212.2,233.9,209.6,233.9z" class="st2"/>
</g>
</svg>