<svg xml:space="preserve" style="enable-background:new 0 0 300 300;" viewBox="0 0 300 300" y="0px" x="0px" xmlns:xlink="http://www.w3.org/1999/xlink" xmlns="http://www.w3.org/2000/svg" id="Layer_1" version="1.1">
<style type="text/css">
	.st0{fill:#364555;}
	.st1{fill:#212E38;}
	.st2{fill:#FFFFFF;}
</style>
<g>
	<g>
		<g>
			<polygon points="20.5,75.3 20.5,225.4 150.5,300.5 280.5,225.4 280.5,75.3 150.5,0.3" class="st0"/>
			<polygon points="20.5,225.4 150.5,300.4 280.5,225.4 280.5,75.3" class="st1"/>
		</g>
	</g>
</g>
<path d="M140.2,239.7v-17.5c39.7,0,72.1-32.3,72.1-72.1c0-39.7-32.3-72.1-72.1-72.1V60.7c49.4,0,89.5,40.2,89.5,89.5  S189.5,239.7,140.2,239.7z" class="st2"/>
<path d="M140.2,221.7c-39.4,0-71.5-32.1-71.5-71.5s32.1-71.5,71.5-71.5v8.7c-34.6,0-62.8,28.2-62.8,62.8  s28.2,62.8,62.8,62.8V221.7z" class="st2"/>
<g>
	<circle r="27.5" cy="164.3" cx="140.6" class="st2"/>
	<polygon points="140.2,108 114.4,155.9 166.7,155.9" class="st2"/>
</g>
</svg>