<svg width="40" height="40" viewBox="0 0 40 40" fill="none" xmlns="http://www.w3.org/2000/svg">
<g clip-path="url(#clip0_109_35493)">
<mask id="mask0_109_35493" style="mask-type:luminance" maskUnits="userSpaceOnUse" x="0" y="0" width="40" height="40">
<path d="M40 0H0V40H40V0Z" fill="white"/>
</mask>
<g mask="url(#mask0_109_35493)">
<path d="M2.6665 9.97339V29.9867L19.9998 40.0001L37.3332 29.9867V9.97339L19.9998 -0.0266113L2.6665 9.97339Z" fill="#364555"/>
<path d="M2.6665 29.9867L19.9998 39.9867L37.3332 29.9867V9.97339L2.6665 29.9867Z" fill="#212D38"/>
</g>
<path fill-rule="evenodd" clip-rule="evenodd" d="M26.7318 17.8028V17.8555H25.3919V11.353L15.776 11.353V15.977L15.763 15.977L14.331 15.977L14.318 15.977V15.7668V11.0772C14.318 10.3547 14.6727 10 15.3952 10H15.4082H25.7071H25.7201C26.4164 10 26.7448 10.3284 26.7448 11.0246V17.619C26.7345 17.6803 26.7323 17.7415 26.7318 17.8028ZM28.8401 26.4007C28.8336 26.4433 28.827 26.486 28.8204 26.5254L28.8203 26.5249L28.8203 26.5254C28.749 26.0672 28.6765 25.6091 28.6039 25.1507L28.6038 25.15L28.6038 25.1499L28.6038 25.1499L28.6038 25.1499C28.2082 22.6513 27.8115 20.1455 27.6117 17.5927H28.6626H29.1487L29.1488 17.5927H29.162C29.177 17.5935 29.1918 17.5946 29.2066 17.596C29.2906 17.6033 29.3704 17.6218 29.4447 17.65C29.816 17.7877 30.0533 18.1527 29.9896 18.578C29.8189 19.733 29.6483 20.9011 29.4777 22.0692L29.4772 22.0722C29.3721 22.775 29.2703 23.4745 29.1685 24.174C29.0667 24.8735 28.9649 25.573 28.8598 26.2758C28.8533 26.3152 28.8467 26.3579 28.8401 26.4006L28.8401 26.4007ZM20.5313 12.8243L20.5315 12.8243H20.5315L23.2636 12.8243C23.473 12.8243 23.6429 12.8934 23.7672 13.0196C23.8522 13.1009 23.9171 13.2078 23.96 13.3366C24.052 13.6256 23.96 13.954 23.7104 14.1248C23.5922 14.2036 23.4346 14.2693 23.2901 14.2693H17.7991C17.5989 14.2693 17.4241 14.1899 17.2981 14.0624C17.1599 13.9297 17.0764 13.7407 17.0764 13.5336C17.0764 13.1396 17.3786 12.8243 17.7858 12.8112C18.2472 12.8112 18.7086 12.8145 19.1684 12.8178H19.1684H19.1684H19.1684H19.1684C19.6249 12.821 20.0797 12.8243 20.5313 12.8243ZM18.4034 16.8834L18.3912 16.8694C18.0422 16.5014 17.6567 16.217 17.1795 16.0824C17.1628 16.0778 17.1461 16.0733 17.1292 16.0689C17.1949 15.7011 17.4576 15.4778 17.8385 15.4647H20.006H23.2244C23.4945 15.4647 23.7068 15.5611 23.8447 15.7706C23.8721 15.8091 23.8975 15.8516 23.9208 15.8982C24.0522 16.1609 24.0127 16.4236 23.842 16.6601C23.7106 16.844 23.5136 16.9359 23.2771 16.9359H18.5612C18.5087 16.9359 18.443 16.9359 18.4167 16.8965L18.4092 16.8885C18.4071 16.8869 18.4052 16.8852 18.4034 16.8834ZM27.5199 30.151H12.3607C11.809 29.9802 11.4937 29.6255 11.4017 29.0344C11.2535 27.9965 11.0913 26.9631 10.9289 25.929L10.9289 25.9289C10.818 25.2223 10.7071 24.5153 10.6004 23.8062C10.5019 23.1627 10.4034 22.5225 10.3049 21.8823L10.3049 21.8817L10.3048 21.8811C10.2063 21.2409 10.1078 20.6007 10.0093 19.9573C9.94362 19.4975 10.2326 19.0771 10.6661 18.9852C10.7306 18.9668 10.7887 18.9613 10.8539 18.9551L10.8539 18.9551C10.8816 18.9525 10.9106 18.9497 10.942 18.9458C10.9258 18.8485 10.9118 18.7557 10.8982 18.6655L10.8982 18.6655C10.8787 18.5364 10.8601 18.4127 10.8369 18.289C10.7055 17.5402 11.2178 16.9228 11.9797 16.9228H16.4461C16.8533 16.9228 17.2211 17.0542 17.5101 17.3563C17.6816 17.5434 17.8484 17.7397 18.0161 17.937L18.0162 17.9371L18.0162 17.9371C18.1311 18.0723 18.2464 18.208 18.3639 18.3415C18.416 18.4015 18.4655 18.4701 18.5156 18.5394C18.63 18.6975 18.7472 18.8596 18.9025 18.9326C19.0636 19.0085 19.2657 18.9954 19.4694 18.9822C19.5481 18.9772 19.627 18.9721 19.7038 18.9721H25.8385C26.377 18.9721 26.7317 19.2479 26.8105 19.734C26.9094 20.3539 26.9959 20.9677 27.0828 21.5837C27.1229 21.8684 27.1631 22.1535 27.2046 22.44C27.3229 23.261 27.4444 24.0853 27.5659 24.9096C27.6874 25.7339 27.8089 26.5582 27.9271 27.3792L27.9272 27.3795C28.0191 27.9968 28.111 28.6141 28.1898 29.2315C28.2293 29.6518 28.0059 29.9671 27.6119 30.1247C27.5943 30.116 27.5768 30.1247 27.5554 30.1354C27.5447 30.1408 27.533 30.1466 27.5199 30.151ZM25.9697 28.6666C26.2744 28.6666 26.5214 28.3137 26.5214 27.8784C26.5214 27.4431 26.2744 27.0902 25.9697 27.0902C25.665 27.0902 25.418 27.4431 25.418 27.8784C25.418 28.3137 25.665 28.6666 25.9697 28.6666ZM24.6823 27.8784C24.6823 28.3137 24.4353 28.6666 24.1306 28.6666C23.8259 28.6666 23.5789 28.3137 23.5789 27.8784C23.5789 27.4431 23.8259 27.0902 24.1306 27.0902C24.4353 27.0902 24.6823 27.4431 24.6823 27.8784ZM22.2785 28.6666C22.5832 28.6666 22.8302 28.3137 22.8302 27.8784C22.8302 27.4431 22.5832 27.0902 22.2785 27.0902C21.9738 27.0902 21.7268 27.4431 21.7268 27.8784C21.7268 28.3137 21.9738 28.6666 22.2785 28.6666Z" fill="white"/>
</g>
<defs>
<clipPath id="clip0_109_35493">
<rect width="40" height="40" fill="white"/>
</clipPath>
</defs>
</svg>
