<svg xmlns="http://www.w3.org/2000/svg" fill="none" viewBox="0 0 300 300" height="300" width="300">
<g clip-path="url(#clip0_124_35540)">
<path fill="#364555" d="M20 74.8V224.9L150 300L280 224.9V74.8L150 -0.199951L20 74.8Z"/>
<path fill="#212E38" d="M20 224.9L150 299.9L280 224.9V74.8L20 224.9Z"/>
<path fill="white" d="M110.928 176.119L98.9189 203.636L98.7298 203.542C98.4461 204.298 97.6897 204.771 96.8386 204.771H76.2244C74.7114 204.771 73.7658 203.258 74.3332 201.84L86.1533 174.701L96.1767 151.533L109.037 122.031L118.588 100.187C118.871 99.4306 119.628 98.9578 120.479 98.9578H143.079C143.835 98.9578 144.592 99.4306 144.97 100.187L154.521 122.031L163.22 141.983C163.882 143.401 162.842 144.914 161.329 144.914H140.715C139.958 144.914 139.202 144.441 138.824 143.685L133.812 132.149C133.055 130.446 130.691 130.446 129.935 132.149L122.748 148.697C122.086 150.115 123.126 151.628 124.639 151.628H187.144C192.912 151.628 197.829 148.413 200.288 143.685C200.577 143.107 200.829 142.843 201.043 142.619C201.599 142.037 201.895 141.727 201.895 136.877C201.895 130.163 197.357 124.395 191.116 122.692C189.886 122.314 188.562 122.125 187.144 122.125H163.126C162.369 122.125 161.613 121.652 161.234 120.896L153.008 101.984C152.346 100.565 153.386 99.0523 154.899 99.0523H187.144C192.25 99.0523 197.262 100.092 201.895 102.078C206.34 103.969 210.406 106.712 213.905 110.21C217.403 113.615 220.146 117.681 222.037 122.22C224.023 126.948 225.063 131.865 225.063 136.971C225.063 142.077 224.023 147.089 222.037 151.723C220.146 156.167 217.403 160.233 213.905 163.732C213.148 164.488 212.203 165.339 211.541 165.907C210.879 166.474 210.595 167.514 210.973 168.365L225.63 201.934C226.292 203.353 225.252 204.866 223.739 204.866H203.125C202.368 204.866 201.612 204.393 201.234 203.636L189.224 176.119C188.846 175.363 188.09 174.89 187.239 174.89H112.819C112.063 174.89 111.306 175.363 110.928 176.119ZM181.09 182.928L189.222 201.462C189.884 203.07 188.749 204.866 186.952 204.866H167.095C166.054 204.866 165.203 204.299 164.825 203.448L156.693 184.914C156.031 183.306 157.166 181.51 158.962 181.51H178.82C179.86 181.51 180.711 182.077 181.09 182.928Z" clip-rule="evenodd" fill-rule="evenodd"/>
</g>
<defs>
<clipPath id="clip0_124_35540">
<rect fill="white" height="300" width="300"/>
</clipPath>
</defs>
</svg>