<svg xmlns="http://www.w3.org/2000/svg" fill="none" viewBox="0 0 40 40" height="40" width="40">
<path fill="#354554" d="M2.67993 10V30L19.9999 40L37.3199 30V10L19.9999 0L2.67993 10Z"/>
<path fill="#212D38" d="M2.67993 29.992L19.9999 39.992L37.3199 29.992V9.992L2.67993 29.992Z"/>
<path fill="white" d="M27.1693 27.824C27.052 27.6653 26.988 27.5573 26.904 27.468C25.9987 26.4987 25.0907 25.5333 24.1827 24.5667C23.8693 24.2333 23.8733 24.2387 24.192 23.9147C25.616 22.4733 26.02 20.7573 25.4067 18.852C24.7787 16.8973 22.9213 15.592 20.8333 15.5747C18.192 15.552 15.5493 15.568 12.908 15.5747C12.7893 15.5747 12.6707 15.6387 12.552 15.672C12.604 15.7827 12.632 15.9147 12.7107 16C13.2387 16.576 13.7893 17.1307 14.308 17.7147C14.5333 17.968 14.7733 18.0733 15.1093 18.0707C17.028 18.06 18.948 18.0613 20.8667 18.0707C21.7947 18.0747 22.6773 18.6773 23.0133 19.5107C23.376 20.408 23.1573 21.4667 22.4867 22.14C22.264 22.364 22.092 22.376 21.8733 22.132C21.3907 21.5947 20.896 21.068 20.3893 20.5533C20.256 20.4173 20.068 20.2507 19.9 20.2453C18.9893 20.2147 18.0773 20.2227 17.1653 20.2347C16.9133 20.2387 16.8453 20.38 17.0293 20.5787C17.2867 20.856 17.5547 21.124 17.8147 21.4C19.7707 23.4773 21.724 25.5587 23.6907 27.624C23.8267 27.7667 24.072 27.868 24.2707 27.8747C25.0747 27.9027 25.8813 27.888 26.6867 27.8827C26.8213 27.8827 26.956 27.8507 27.1667 27.8253L27.1693 27.824ZM27.4493 13.7067C27.4427 12.8053 26.748 12.1067 25.86 12.1093C24.9827 12.112 24.272 12.8413 24.2827 13.728C24.2933 14.596 25.036 15.3107 25.9187 15.304C26.7387 15.2973 27.4547 14.5507 27.448 13.7067H27.4493Z"/>
<path fill="white" d="M25.3761 28.1653C25.0054 28.1653 24.6334 28.1613 24.2627 28.1493C23.9841 28.14 23.6747 28.004 23.4934 27.8133C21.9694 26.2133 20.4307 24.5773 18.9427 22.996L17.6161 21.5867C17.5041 21.468 17.3907 21.3507 17.2761 21.232C17.1254 21.076 16.9761 20.9213 16.8294 20.7627C16.6041 20.52 16.6414 20.32 16.6827 20.2227C16.7241 20.1253 16.8414 19.9627 17.1627 19.9573C18.0374 19.9453 18.9694 19.9373 19.9107 19.968C20.1827 19.9773 20.4267 20.1947 20.5867 20.3587C21.0947 20.876 21.5961 21.4107 22.0787 21.9467C22.1427 22.0173 22.1761 22.0333 22.1827 22.036C22.1827 22.0333 22.2201 22.0187 22.2934 21.9453C22.8921 21.3427 23.0801 20.4053 22.7601 19.612C22.4601 18.8693 21.6814 18.348 20.8667 18.344C18.6787 18.3347 16.8494 18.3347 15.1121 18.344C14.6974 18.3493 14.3814 18.208 14.1041 17.896C13.8014 17.556 13.4827 17.2187 13.1734 16.892C12.9507 16.6573 12.7281 16.4227 12.5094 16.184C12.4201 16.0867 12.3761 15.9693 12.3401 15.876C12.3281 15.8453 12.3174 15.8147 12.3041 15.7867C12.2694 15.7133 12.2694 15.6293 12.3041 15.556C12.3374 15.4827 12.4014 15.428 12.4787 15.4053C12.5107 15.396 12.5414 15.3853 12.5734 15.3733C12.6654 15.34 12.7801 15.2987 12.9094 15.2973L14.5561 15.2933C16.6147 15.2867 18.7441 15.2813 20.8374 15.2987C23.0667 15.3173 25.0081 16.7107 25.6694 18.7667C26.3201 20.7907 25.8894 22.5867 24.3881 24.1053C24.3387 24.1547 24.2907 24.2027 24.2574 24.24C24.2907 24.2787 24.3374 24.3293 24.3814 24.3747C25.2974 25.3493 26.2027 26.3133 27.1054 27.2787C27.1734 27.3507 27.2267 27.428 27.2881 27.516C27.3174 27.5587 27.3507 27.6053 27.3907 27.6587C27.4481 27.7373 27.4601 27.84 27.4227 27.9293C27.3841 28.0187 27.3014 28.0813 27.2041 28.0933C27.1334 28.1027 27.0707 28.112 27.0147 28.12C26.8987 28.1373 26.7987 28.1533 26.6921 28.1533L26.2414 28.1573C25.9561 28.16 25.6681 28.1613 25.3774 28.1613L25.3761 28.1653ZM17.3387 20.5053C17.4481 20.6213 17.5601 20.736 17.6707 20.8507C17.7854 20.9707 17.9014 21.0893 18.0147 21.2107L19.3414 22.62C20.8294 24.2013 22.3681 25.836 23.8907 27.4347C23.9734 27.5213 24.1494 27.596 24.2814 27.6013C24.9307 27.624 25.5934 27.6173 26.2347 27.6133L26.6574 27.6107C25.7694 26.6613 24.8801 25.7147 23.9894 24.7667C23.5721 24.3227 23.5721 24.152 23.9814 23.7387C25.3401 22.3627 25.7267 20.7533 25.1441 18.9387C24.5561 17.1093 22.8227 15.868 20.8307 15.852C18.7387 15.8347 16.6121 15.84 14.5561 15.8467L12.9441 15.8507C13.1507 16.0747 13.3601 16.296 13.5707 16.5173C13.8827 16.8467 14.2054 17.188 14.5134 17.5333C14.6841 17.7253 14.8507 17.796 15.1081 17.7973C16.8494 17.788 18.6801 17.7867 20.8681 17.7973C21.9001 17.8013 22.8867 18.464 23.2681 19.408C23.6694 20.4013 23.4334 21.5773 22.6827 22.3333C22.5747 22.4427 22.4054 22.5853 22.1787 22.5853C22.1747 22.5853 22.1694 22.5853 22.1654 22.5853C21.9921 22.5813 21.8294 22.492 21.6694 22.3147C21.1934 21.784 20.6961 21.256 20.1947 20.744C19.9801 20.5253 19.8947 20.5173 19.8907 20.5173C19.0214 20.488 18.1561 20.4947 17.3374 20.504L17.3387 20.5053ZM25.9041 15.58C24.8694 15.58 24.0201 14.7547 24.0081 13.7333C24.0014 13.228 24.1934 12.7507 24.5481 12.3907C24.8974 12.0347 25.3627 11.8387 25.8587 11.836H25.8641C26.8987 11.836 27.7147 12.656 27.7227 13.7053C27.7294 14.696 26.8881 15.5707 25.9214 15.58H25.9054H25.9041ZM25.8641 12.3853H25.8601C25.5134 12.3853 25.1854 12.5253 24.9387 12.776C24.6881 13.0307 24.5521 13.3693 24.5561 13.7267C24.5654 14.436 25.1814 15.032 25.9041 15.032H25.9147C26.5894 15.0267 27.1774 14.4093 27.1721 13.7107C27.1667 12.9667 26.5921 12.3853 25.8627 12.3853H25.8641Z"/>
</svg>