<svg width="300" height="300" viewBox="0 0 300 300" fill="none" xmlns="http://www.w3.org/2000/svg">
<g clip-path="url(#clip0_602_36121)">
<path d="M20 74.8V224.9L150 300L280 224.9V74.8L150 -0.199951L20 74.8Z" fill="#364555"/>
<path d="M20 224.9L150 299.9L280 224.9V74.8L20 224.9Z" fill="#212E38"/>
<path d="M150 74.167C191.903 74.167 225.833 108.097 225.833 150C225.833 191.903 191.903 225.833 150 225.833C140.432 225.833 131.308 224.061 122.892 220.872L122.979 190.574C130.687 195.712 139.989 198.725 149.911 198.725C176.843 198.725 198.636 176.931 198.636 150C198.636 123.069 176.843 101.275 149.911 101.275C122.98 101.276 101.187 123.069 101.187 150V208.115C84.7088 194.118 74.167 173.299 74.167 150C74.167 108.097 108.097 74.167 150 74.167ZM149.999 123.954C164.384 123.954 176.045 135.615 176.045 150C176.045 164.384 164.383 176.045 149.999 176.045C135.615 176.045 123.953 164.384 123.953 150C123.953 135.615 135.614 123.954 149.999 123.954Z" fill="white"/>
</g>
<defs>
<clipPath id="clip0_602_36121">
<rect width="300" height="300" fill="white"/>
</clipPath>
</defs>
</svg>
