<svg xml:space="preserve" style="enable-background:new 0 0 300 300;" viewBox="0 0 300 300" y="0px" x="0px" xmlns:xlink="http://www.w3.org/1999/xlink" xmlns="http://www.w3.org/2000/svg" id="Layer_1" version="1.1">
<style type="text/css">
	.st0{fill:#364555;}
	.st1{fill:#212E38;}
	.st2{fill:#FFFFFF;}
</style>
<g>
	<g>
		<g>
			<polygon points="20.5,75.3 20.5,225.4 150.5,300.5 280.5,225.4 280.5,75.3 150.5,0.3" class="st0"/>
			<polygon points="20.5,225.4 150.5,300.4 280.5,225.4 280.5,75.3" class="st1"/>
		</g>
	</g>
</g>
<g>
	<path d="M154.9,175.9c-28,1.2-28.1,1.2-47.8-18.5c-4.4-4.4-8.8-8.8-13.2-13.2c-6.3-6.3-8.2-13.5-4.9-22   c6.2-16.1,12.4-32.1,18.5-48.2c3.1-8.2,9.2-12.4,17.8-12.9c12.8-0.8,25.7-1.9,38.5-1.6c5.2,0.1,11.3,2.7,15.2,6.1   c9.4,8.1,17.7,17.4,26.5,26.1c6.7,6.6,8,14.1,4.6,22.7c-5.9,15.2-11.8,30.4-17.5,45.7c-3.6,9.8-10.1,14.8-20.7,14.8   C166.4,174.8,160.6,175.5,154.9,175.9z M116.2,85.2c-5.9,15.5-11.2,29.1-16.2,42.9c-0.4,1.2,0,3.4,0.9,4.3   c8.4,8.7,17,17.2,26.3,26.4c5.7-14.8,11-28.4,16-42.2c0.5-1.4-0.6-4.1-1.8-5.3C133.6,102.8,125.5,94.7,116.2,85.2z M139.4,163.2   c13.4-0.6,25.2-1,37.1-1.9c1.6-0.1,3.6-2.6,4.4-4.4c3.4-8.2,6.5-16.6,9.7-25c1.8-4.8,3.5-9.6,5.5-15.2c-12.9,0.6-24.6,1-36.2,1.8   c-1.6,0.1-3.8,1.9-4.4,3.4C150.1,135.1,145.1,148.3,139.4,163.2z M122,74c11,10.9,20.5,20.4,30.2,29.8c1.2,1.2,3.2,2.2,4.8,2.1   c13.6-0.6,27.2-1.5,43-2.5c-11.3-11.2-21.1-21-31.1-30.7c-1.1-1.1-3.4-1.4-5.1-1.3C150.5,72.2,137.3,73.1,122,74z" class="st2"/>
	<path d="M88.9,143.6c1.9,3.6,4.4,7.1,5.6,10.9c4.5,14.7,8.5,29.6,12.7,44.3c2.7,9.5,11.5,13,19.9,7.8   c13.1-8.1,26-16.5,39.2-24.4c3.5-2.1,7.7-3.2,11.6-4.7c0.4,0.6,0.8,1.2,1.2,1.8c-1,1.2-1.9,2.6-3.2,3.6   c-19.7,16.2-39.5,32.3-59.3,48.3c-7.8,6.3-16.3,3.5-17.9-6.3c-4.1-25.4-7.9-50.8-11.7-76.2c-0.2-1.4,0-3,0-4.4   C87.6,144.1,88.3,143.8,88.9,143.6z" class="st2"/>
	<path d="M110,238c15.8-4.8,84.1-4.4,91.4,1C169.6,242.5,139.8,239.6,110,238z" class="st2"/>
</g>
</svg>