<svg xmlns="http://www.w3.org/2000/svg" fill="none" viewBox="0 0 40 40" height="40" width="40">
<g clip-path="url(#clip0_2_3234)">
<path fill="#364555" d="M2.73334 10.04V30.0534L20.0667 40.0667L37.4 30.0534V10.04L20.0667 0.0400391L2.73334 10.04Z"/>
<path fill="#212D38" d="M2.73334 30.0534L20.0667 40.0534L37.4 30.0534V10.04L2.73334 30.0534Z"/>
<path fill="white" d="M20.4133 30.6666C24.84 27.3733 29.0133 24.2666 33.3067 21.0666C30.88 19.2666 28.6 17.5733 26.32 15.8799C24.44 17.2799 22.6267 18.6133 20.84 19.9599C20.64 20.1066 20.4267 20.3733 20.4267 20.5999C20.4 23.8666 20.4133 27.1199 20.4133 30.6666ZM6.54666 21.0799C10.88 24.3066 15.0667 27.4133 19.44 30.6666C19.44 27.1333 19.44 23.8799 19.4267 20.6266C19.4267 20.4266 19.2667 20.1733 19.0933 20.0533C17.2533 18.6666 15.4 17.2933 13.5333 15.9066C11.2133 17.5999 8.95999 19.2799 6.54666 21.0799ZM20.4667 19.0266C22.6933 17.3866 24.7733 15.8399 26.96 14.2266C24.7467 12.5999 22.6667 11.0666 20.4667 9.43994C20.4667 12.7199 20.4667 15.7599 20.4667 19.0266ZM19.3467 18.9999C19.3467 15.7333 19.3467 12.6799 19.3467 9.46661C17.1733 11.0933 15.1467 12.6133 12.9867 14.2266C15.1333 15.8399 17.1733 17.3733 19.3467 18.9999Z"/>
</g>
<defs>
<clipPath id="clip0_2_3234">
<rect fill="white" height="40" width="40"/>
</clipPath>
</defs>
</svg>