<svg viewBox="0 0 256 256.17" xmlns:xlink="http://www.w3.org/1999/xlink" xmlns="http://www.w3.org/2000/svg" data-name="Layer 2" id="Layer_2">
  <defs>
    <style>
      .cls-1 {
        fill: #fff;
      }

      .cls-2 {
        fill: #212d38;
      }

      .cls-3 {
        clip-path: url(#clippath);
      }

      .cls-4 {
        fill: #354554;
      }

      .cls-5 {
        fill: none;
      }
    </style>
    <clipPath id="clippath">
      <rect height="256" width="256" y=".17" class="cls-5"/>
    </clipPath>
  </defs>
  <g data-name="Layer 6" id="Layer_6">
    <g class="cls-3">
      <g>
        <path d="m17.07,64v128.09l110.93,64.09,110.93-64.09V64L128,0,17.07,64Z" class="cls-4"/>
        <path d="m17.07,192.09l110.93,64,110.93-64V64L17.07,192.09Z" class="cls-2"/>
        <path d="m183.38,79.7v8.79h-88.92c-1.88,0-3.75,0-5.46,1.19-3.75,2.65-4.18,7.77-.85,10.92,9.22,8.7,18.52,17.41,27.65,26.11,3.75,3.5,7.42,7.17,10.92,10.84,2.13,2.22,3.07,5.21,4.01,8.02,1.11,3.58,1.79,7.34,1.54,11.18-.94,13.14-7.17,22.87-18.94,28.93-4.44,2.3-9.22,3.41-14.25,3.24-2.13-.09-4.27,0-6.57,0v-19.97c0-.85.34-1.19,1.19-1.19,1.88,0,3.75-.09,5.72-.09,5.12,0,9.3-3.67,10.84-7.85,1.79-5.03.43-10.15-3.33-13.57-8.53-7.68-16.98-15.36-25.43-23.13-3.33-3.07-6.74-6.14-9.9-9.39-3.5-3.67-5.55-8.19-6.49-13.14-2.3-12.46,3.41-24.15,14.34-30.12,3.93-2.13,8.19-3.24,12.71-3.24h91.14v6.31" class="cls-1"/>
        <path d="m115.54,117.59h67.75v21.08h-45.23c-1.37,0-2.22-.34-2.9-1.54-2.3-3.93-5.8-6.83-9.13-9.81-3.16-2.9-6.4-5.72-9.56-8.62-.26-.26-.51-.6-.94-1.11Z" class="cls-1"/>
      </g>
    </g>
  </g>
</svg>