<svg viewBox="0 0 300 300" xmlns="http://www.w3.org/2000/svg" id="Layer_1"><defs><style>.cls-1{fill:#fff;}.cls-2{fill:#212d38;}.cls-3{fill:#354554;}</style></defs><polygon points="20.1 75 20.1 225 150 300 279.9 225 279.9 75 150 0 20.1 75" class="cls-3"/><polygon points="20.1 224.94 150 299.94 279.9 224.94 279.9 74.94 20.1 224.94" class="cls-2"/><path d="m125.41,182.49c1.34,1.01,2.73,1.93,4.18,2.77,9.02,5.21,20.03,6.98,30.89,4.07,10.86-2.91,19.51-9.95,24.72-18.97.6-1.04,1.16-2.12,1.67-3.21.37-.8,1.06-1.41,1.92-1.64l16.58-4.44c2.15-.58,4.17,1.36,3.64,3.52-1.38,5.57-3.54,10.9-6.39,15.83-7.78,13.48-20.71,24-36.93,28.34-16.22,4.35-32.67,1.7-46.16-6.08-4.93-2.85-9.47-6.38-13.45-10.52-1.54-1.6-.76-4.29,1.39-4.87l17.93-4.81h0Z" class="cls-1"/><path d="m134.2,91.24c16.22-4.35,32.67-1.7,46.16,6.08,13.48,7.78,24,20.71,28.34,36.93.76,2.84,1.31,5.68,1.65,8.51.13,1.05-.56,2.03-1.59,2.31l-4.03,1.08-14.07,3.77-94.12,25.22c-1.02.27-2.11-.23-2.53-1.2-1.12-2.62-2.07-5.36-2.83-8.2-.68-2.56-1.19-5.12-1.54-7.67-.14-1.06.55-2.06,1.58-2.33l91.69-24.57c1.41-.38,2.04-2.03,1.24-3.26-3.54-5.49-8.33-9.98-13.86-13.17-9.02-5.21-20.03-6.98-30.89-4.07-10.86,2.91-19.51,9.95-24.72,18.97-.83,1.44-1.58,2.93-2.23,4.47-.26.61-.77,1.07-1.41,1.24l-18.02,4.83c-1.55.42-2.99-.96-2.66-2.54,1.33-6.38,3.67-12.47,6.9-18.06,7.78-13.48,20.71-24,36.93-28.35h0Z" class="cls-1"/></svg>