<svg xmlns="http://www.w3.org/2000/svg" fill="none" viewBox="0 0 40 40" height="40" width="40">
<g clip-path="url(#clip0_15905_4724)">
<path fill="#364555" d="M2.6665 9.97339V29.9867L19.9998 40.0001L37.3332 29.9867V9.97339L19.9998 -0.0266113L2.6665 9.97339Z"/>
<path fill="#212D38" d="M2.6665 29.9867L19.9998 39.9867L37.3332 29.9867V9.97339L2.6665 29.9867Z"/>
<path fill="white" d="M25.8265 32.12L18.4665 24.76C18.9065 24.8533 19.4398 24.9333 19.9465 24.9333C23.5331 24.9333 26.5065 21.9466 26.5065 18.3733C26.5065 14.8 23.5198 11.8933 19.9465 11.8933C16.3731 11.8933 13.3865 14.88 13.3865 18.4533C13.3865 18.9866 13.4798 19.5066 13.5598 19.9333L9.53312 15.9066C10.6665 11.1733 14.8665 7.77332 19.9465 7.77332C25.8931 7.77332 30.6265 12.5866 30.6265 18.4533C30.6265 21.8533 28.9731 24.9333 26.4265 26.9466L29.4131 29.9333L25.8265 32.12ZM20.3998 29.16C20.2265 29.16 20.1331 29.16 19.9598 29.16C14.0131 29.16 9.27979 24.3466 9.27979 18.48C9.27979 18.3067 9.27979 18.2133 9.27979 18.04L20.3998 29.16Z"/>
</g>
<defs>
<clipPath id="clip0_15905_4724">
<rect fill="white" height="40" width="40"/>
</clipPath>
</defs>
</svg>