<svg xml:space="preserve" style="enable-background:new 0 0 300 300;" viewBox="0 0 300 300" y="0px" x="0px" xmlns:xlink="http://www.w3.org/1999/xlink" xmlns="http://www.w3.org/2000/svg" id="Layer_1" version="1.1">
<style type="text/css">
	.st0{fill:#364555;}
	.st1{fill:#212E38;}
	.st2{fill:#FFFFFF;}
</style>
<g>
	<polygon points="20,74.8 20,224.9 150,300 280,224.9 280,74.8 150,-0.2" class="st0"/>
	<polygon points="20,224.9 150,299.9 280,224.9 280,74.8" class="st1"/>
</g>
<path d="M228.5,126.1c0-6.5,0-12.6,0-19.1c-17.3,0-34.3,0-51.4,0c2.7-22.4-14.3-33.7-27.9-33.8  c-13.5-0.1-30.8,10.7-28.6,34c-16.8,0-33.6,0-50.6,0c0,5.6,0.2,10.8-0.1,16v3.1h3.2c17.3-0.1,34.6,0,51.9,0c1,0,2.1,0,3.1,0  c0,26.4,0,52.4,0,78.8c-9.2-3.8-16.4-9.7-21.9-17.5c-10.1-14.2-12.8-30-7.9-47.2c-4.2,0-8,0-11.9,0l-6.5-0.1  c-1.8,3.4-2.1,7.7-2.1,7.7c-2.4,22.1,4,41.3,19,57.7c9.9,10.8,22.3,17.6,36.5,21c3.5,0.8,7.1,1.5,10.8,1.8v-116c-4.1-1.9-7-6-7-10.8  c0-6.6,5.3-11.9,11.9-11.9s11.9,5.3,11.9,11.9c0,4.8-2.9,8.9-7,10.8v115.8c10.6-1,20.4-3.5,29.5-8.5c16.9-9.3,28.5-23.1,34.5-41.5  c3.9-11.6,4.1-23.5,2.4-35.5l-0.5-2.4h-1.1c-6-0.2-12-0.1-18.4-0.1c4,13.3,3.1,26.1-2.6,38.2c-5.7,12.1-14.6,20.9-27.2,26.4  c0-26.5,0-52.6,0-79C190,126.1,209.3,126.1,228.5,126.1z" class="st2"/>
</svg>