<svg xml:space="preserve" style="enable-background:new 0 0 300 300;" viewBox="0 0 300 300" y="0px" x="0px" xmlns:xlink="http://www.w3.org/1999/xlink" xmlns="http://www.w3.org/2000/svg" id="Layer_1" version="1.1">
<style type="text/css">
	.st0{fill:#364555;}
	.st1{fill:#212E38;}
	.st2{fill:#FFFFFF;}
	.st3{fill:none;}
</style>
<polygon points="20,74.8 20,224.9 150,300 280,224.9 280,74.8 150,-0.2" class="st0"/>
<polygon points="20,224.9 150,299.9 280,224.9 280,74.8" class="st1"/>
<g>
	<path d="M193.7,240.9l-55.2-55.2c3.3,0.7,7.3,1.3,11.1,1.3c26.9,0,49.2-22.4,49.2-49.2s-22.4-48.6-49.2-48.6   s-49.2,22.4-49.2,49.2c0,4,0.7,7.9,1.3,11.1l-30.2-30.2c8.5-35.5,40-61,78.1-61c44.6,0,80.1,36.1,80.1,80.1   c0,25.5-12.4,48.6-31.5,63.7l22.4,22.4L193.7,240.9z M153,218.7c-1.3,0-2,0-3.3,0c-44.6,0-80.1-36.1-80.1-80.1c0-1.3,0-2,0-3.3   L153,218.7z" class="st2"/>
</g>
<rect height="52.8" width="74.3" class="st3" y="131.8" x="112.6"/>
<g>
	<path d="M142,138.9c4.9-4.9,9.8-9.8,14.7-14.7c-4.5-4.5-9.1-9.1-13.6-13.6c-4.9,4.9-9.8,9.8-14.7,14.7   C132.9,129.8,137.4,134.4,142,138.9z M148,135.4c0.2,0.2,0.3,0.4,0.5,0.6c5.1,5.8,10.3,11.6,15.4,17.4c2.3,2.6,4.6,5.3,7,7.8   c2.6,2.8,6.9,2.5,9-0.6c1.6-2.4,1.1-5.4-1.1-7.4c-8.4-7.5-16.9-15-25.3-22.5c-0.2-0.1-0.3-0.3-0.5-0.3   C151.3,132.1,149.7,133.7,148,135.4z M133.7,172.4c1.9,0,3.8,0,5.7,0c3,0,6.1,0,9.1,0c4.7,0,4.5,0.3,4.5-4.5c0-0.3,0-0.7,0-1   c-0.1-2.5-2.1-4.4-4.5-4.4c-9.9,0-19.7,0-29.6,0c-2.4,0-4.4,2-4.5,4.4c0,1.1,0,2.3,0,3.4c0,1.7,0.5,2.1,2.1,2.1   C122.2,172.4,128,172.4,133.7,172.4z M147.9,161c0-0.7,0-1.4,0-2c0-2.6-2-4.7-4.7-4.7c-6.4,0-12.8,0-19.1,0c-2,0-3.8,1.2-4.3,3.1   c-0.3,1.1-0.3,2.4-0.4,3.6C129,161,138.4,161,147.9,161z M124.4,125.1c-1.5,0.1-2.6,0.7-3.2,2.1c-0.6,1.4-0.4,2.7,0.7,3.8   c4.8,4.8,9.6,9.6,14.4,14.4c1.4,1.4,3.5,1.3,4.9,0c1.4-1.4,1.4-3.5,0-4.9c-4.8-4.8-9.6-9.6-14.4-14.4   C126.2,125.4,125.4,125.1,124.4,125.1z M146.2,103.3c-1.5,0-2.6,0.7-3.2,2.1c-0.6,1.4-0.4,2.7,0.7,3.7c4.8,4.8,9.6,9.7,14.5,14.5   c1.4,1.4,3.5,1.3,4.9,0c1.4-1.4,1.4-3.5,0.1-4.9c-4.8-4.8-9.6-9.7-14.5-14.5C147.9,103.6,147.1,103.3,146.2,103.3z" class="st2"/>
	<path d="M142,138.9c-4.5-4.5-9.1-9.1-13.6-13.6c4.9-4.9,9.8-9.8,14.7-14.7c4.5,4.5,9.1,9.1,13.6,13.6   C151.7,129.1,146.8,134.1,142,138.9z" class="st2"/>
	<path d="M148,135.4c1.7-1.7,3.3-3.3,5-5c0.1,0.1,0.3,0.2,0.5,0.3c8.4,7.5,16.9,15,25.3,22.5c2.2,2,2.7,5,1.1,7.4   c-2,3.1-6.4,3.5-9,0.6c-2.3-2.6-4.7-5.2-7-7.8c-5.1-5.8-10.3-11.6-15.4-17.4C148.3,135.8,148.1,135.6,148,135.4z" class="st2"/>
	<path d="M133.7,172.4c-5.7,0-11.5,0-17.2,0c-1.7,0-2.1-0.5-2.1-2.1c0-1.1,0-2.3,0-3.4c0.1-2.4,2.1-4.4,4.5-4.4   c9.9,0,19.7,0,29.6,0c2.4,0,4.4,2,4.5,4.4c0,0.3,0,0.7,0,1c0.1,4.8,0.2,4.6-4.5,4.5c-3,0-6.1,0-9.1,0   C137.5,172.4,135.6,172.4,133.7,172.4z" class="st2"/>
	<path d="M147.9,161c-9.5,0-18.9,0-28.5,0c0.1-1.2,0.1-2.5,0.4-3.6c0.5-1.9,2.3-3.1,4.3-3.1c6.4,0,12.8,0,19.1,0   c2.6,0,4.6,2,4.7,4.7C147.9,159.6,147.9,160.2,147.9,161z" class="st2"/>
	<path d="M124.4,125.1c1,0,1.8,0.3,2.4,1c4.8,4.8,9.6,9.6,14.4,14.4c1.4,1.4,1.3,3.6,0,4.9c-1.4,1.3-3.5,1.4-4.9,0   c-4.8-4.8-9.6-9.6-14.4-14.4c-1.1-1.1-1.3-2.4-0.7-3.8C121.8,125.8,122.9,125.1,124.4,125.1z" class="st2"/>
	<path d="M146.2,103.3c1,0,1.8,0.3,2.4,1c4.8,4.8,9.7,9.6,14.5,14.5c1.4,1.4,1.3,3.5-0.1,4.9c-1.3,1.3-3.5,1.4-4.9,0   c-4.8-4.8-9.7-9.6-14.5-14.5c-1.1-1.1-1.3-2.4-0.7-3.7C143.6,104,144.7,103.3,146.2,103.3z" class="st2"/>
</g>
</svg>