<svg xml:space="preserve" style="enable-background:new 0 0 300 300;" viewBox="0 0 300 300" y="0px" x="0px" xmlns:xlink="http://www.w3.org/1999/xlink" xmlns="http://www.w3.org/2000/svg" id="Layer_1" version="1.1">
<style type="text/css">
	.st0{fill:#364555;}
	.st1{fill:#212E38;}
	.st2{fill:#FFFFFF;}
</style>
<g>
	<g>
		<g>
			<polygon points="20.5,75.3 20.5,225.4 150.5,300.5 280.5,225.4 280.5,75.3 150.5,0.3" class="st0"/>
			<polygon points="20.5,225.4 150.5,300.4 280.5,225.4 280.5,75.3" class="st1"/>
		</g>
	</g>
</g>
<g>
	<g>
		<path d="M144.4,65.7c3.7,0,7.5,0,11.2,0c1,0.2,1.9,0.6,2.9,0.7c35.1,4,62.5,26.9,72.4,60.8c1.6,5.6,2.3,11.4,3.4,17.1    c0,3.7,0,7.5,0,11.2c-0.3,1.1-0.6,2.1-0.7,3.2c-3.9,34.6-27,62.2-60.4,71.9c-5.7,1.6-11.7,2.4-17.5,3.6c-3.7,0-7.5,0-11.2,0    c-1.1-0.3-2.1-0.6-3.2-0.7c-21.8-2.4-40-11.9-54.4-28.3c-4.1-4.7-7.4-10.1-11.1-15.1c4.9-2.7,9.5-4.2,12.9-7.1    c7.4-6.3,14.3-13.1,21.2-19.9c8.2-8.1,15.7-16.8,26-22.4c10.4-5.6,21.2-8,32.6-3.3c8.6,3.6,13.7,11.9,12.1,19.3    c-8.5-11.5-19.7-10-27.5-4.2c-12.2,9.1-17.1,21.5-14.9,36.4c1.8,11.9,9.2,17.9,21.2,17.8c15.9-0.2,27.8-8.3,36.7-20.6    c11.4-15.7,13.5-33.6,9-52.1c-6.7-27.9-30.2-42.7-56.7-41.9c-15.7,0.5-29,7.1-40.1,17.9c-8.5,8.3-15.9,17.8-24.2,26.4    c-5.8,6-12.2,11.3-18.3,16.9c0-3,0-6,0-9c0.3-1.1,0.6-2.1,0.7-3.2c3.9-34.5,27-62.2,60.4-71.9C132.6,67.6,138.5,66.9,144.4,65.7z" class="st2"/>
	</g>
	<path d="M68.2,160.7c0,0,7.2-2.3,16.9-14.2s39.3-45.9,69-29.4c0,0,7,4,9.3,13.3c0,0-20.5-8.5-40,8.7   s-23.7,23.3-23.7,23.3s-11.4,14-26.4,19.7C73.3,182,69.5,174,68.2,160.7z" class="st2"/>
</g>
</svg>