<svg viewBox="0 0 300 300" xmlns="http://www.w3.org/2000/svg" id="Layer_1"><defs><style>.cls-1{fill:#fff;}.cls-2{fill:#212d38;}.cls-3{fill:#354554;}</style></defs><polygon points="20.1 75 20.1 225 150 300 279.9 225 279.9 75 150 0 20.1 75" class="cls-3"/><polygon points="20.1 224.94 150 299.94 279.9 224.94 279.9 74.94 20.1 224.94" class="cls-2"/><path d="m180.42,179.79c0-6.46-.02-12.54,0-18.62.05-9.3-.41-18.62,2.49-27.69,6.53-20.41,26.49-35.38,47.86-35.75.45,0,.91.07,1.65.13v21.85c-.4.1-.91.31-1.44.36-16.91,1.64-28,13.6-28.12,30.58-.11,15.8-.02,31.6-.03,47.4,0,1.24,0,2.49,0,3.91-1.08.13-1.85.33-2.61.3-10.58-.38-21.41.49-31.69-1.48-18.88-3.61-31.63-15.74-37.9-33.77-2.24-6.45-2.52-13.76-2.72-20.71-.41-14.52-.18-29.05-.21-43.58,0-.42,0-.83,0-1.26,0-1.94,1.57-3.51,3.5-3.51h18.91c0,1.15,0,2.47,0,3.79-.09,15.91-.31,31.81-.23,47.72.09,16.26,12.7,29.64,28.21,30.31.57.02,1.14,0,2.33,0Z" class="cls-1"/><path d="m200.37,204.62c-.07,0-.15,0-.22,0-3.2-.11-6.49-.13-9.69-.11-7.4,0-15.01,0-22.37-1.4-19.2-3.67-32.92-15.88-39.68-35.31-2.44-7.01-2.67-15-2.85-21.42-.3-10.34-.26-20.84-.23-30.99.01-4.22.03-8.43.02-12.65v-1.26c0-1.56.61-3.03,1.71-4.14,1.11-1.11,2.58-1.72,4.14-1.72h18.91c1.3,0,2.35,1.05,2.35,2.35v1.06c0,.87,0,1.81,0,2.74-.03,4.93-.07,9.86-.11,14.79-.09,10.79-.18,21.94-.12,32.91.08,14.76,11.66,27.28,25.83,27.96v-3.58c0-4.31-.01-8.51,0-12.7,0-1.2,0-2.41,0-3.61-.02-8.13-.04-16.54,2.6-24.79,6.8-21.28,27.86-37,50.06-37.39.38,0,.77.03,1.26.08l.63.06c1.22.1,2.15,1.12,2.15,2.34v21.85c0,1.07-.73,2.01-1.77,2.28l-.28.08c-.39.12-.91.28-1.52.34-15.69,1.52-25.89,12.61-25.99,28.26-.07,10.94-.06,22.06-.04,32.82,0,4.86.01,9.71.01,14.57v3.91c0,1.19-.89,2.19-2.07,2.34-.34.04-.64.09-.93.13-.61.09-1.19.19-1.83.19Zm-9.17-4.82c3,0,6.07,0,9.11.12.06,0,.11,0,.18,0v-1.85c0-4.85,0-9.71-.01-14.56-.02-10.77-.03-21.9.04-32.86.12-18,11.7-30.82,29.56-32.84v-17.71c-19.98.68-38.79,14.91-44.92,34.09-2.41,7.54-2.39,15.21-2.38,23.34,0,1.21,0,2.43,0,3.64-.02,4.18-.02,8.36-.01,12.67v5.94c0,1.3-1.05,2.35-2.35,2.35h-1.04c-.58,0-.99.01-1.39,0-16.98-.73-30.36-15.07-30.46-32.64-.06-10.99.03-22.17.12-32.97.04-4.92.08-9.85.11-14.78,0-.48,0-.96,0-1.42h-16.56c-.41,0-.69.21-.81.34-.13.13-.34.4-.34.82v1.25c.01,4.23,0,8.45-.02,12.68-.03,10.12-.07,20.58.23,30.84.17,6.09.39,13.68,2.59,20,6.17,17.75,18.66,28.89,36.12,32.23,6.91,1.32,14.34,1.32,21.48,1.32h.75Z" class="cls-1"/><path d="m86.45,97.84c1.93,0,3.5,1.58,3.5,3.52,0,7.2.02,14.13,0,21.06-.03,8.64.31,17.31-.24,25.92-1.09,17.07,13.91,31.35,28.36,31.49.44,0,.88.16,1.74.32v18.48c0,2.09-1.83,3.71-3.91,3.48-3.19-.36-6.26-.68-9.2-1.48-16.97-4.57-28.76-15.15-35.41-31.13-1.72-4.12-3.11-11.19-3.21-15.66-.37-18.28-.38-36.57-.51-54.86,0-.32.16-.65.3-1.17h18.58Z" class="cls-1"/><path d="m116.3,204.49c-.22,0-.44-.01-.66-.04l-.43-.05c-3.16-.36-6.14-.69-9.12-1.49-17.53-4.72-29.97-15.65-36.97-32.49-1.77-4.25-3.29-11.65-3.39-16.51-.28-13.6-.35-27.43-.43-40.79-.03-4.7-.05-9.4-.09-14.09,0-.6.15-1.06.27-1.43.03-.11.07-.22.11-.36.28-1.03,1.21-1.74,2.27-1.74h18.58c3.23,0,5.85,2.63,5.86,5.87v3.53c0,5.95.01,11.74,0,17.54,0,2.51.02,5.03.04,7.54.06,6.07.11,12.34-.28,18.52-.46,7.26,2.21,14.4,7.51,20.11,5.11,5.5,12.03,8.82,18.53,8.88.54,0,.98.11,1.45.21.2.05.43.1.71.15,1.11.21,1.91,1.18,1.91,2.31v18.48c0,1.66-.71,3.25-1.95,4.36-1.08.96-2.48,1.49-3.91,1.49Zm-46.37-104.3c.03,4.29.05,8.6.08,12.9.07,13.35.15,27.16.43,40.72.09,4.29,1.47,11.07,3.03,14.8,6.42,15.42,17.81,25.44,33.85,29.76,2.64.71,5.45,1.03,8.43,1.36l.43.05c.45.04.76-.16.91-.29.14-.13.38-.41.38-.85v-16.47c-7.57-.26-15.52-4.1-21.34-10.37-6.19-6.67-9.31-15.06-8.76-23.61.38-6.01.33-12.2.27-18.18-.02-2.53-.05-5.07-.04-7.6.02-5.79.01-11.57,0-17.52v-3.53c0-.64-.52-1.17-1.15-1.17h-16.52Z" class="cls-1"/></svg>