<svg width="300" height="300" viewBox="0 0 300 300" fill="none" xmlns="http://www.w3.org/2000/svg">
<g clip-path="url(#clip0_154_35615)">
<path d="M20 74.8V224.9L150 300L280 224.9V74.8L150 -0.199951L20 74.8Z" fill="#364555"/>
<path d="M20 224.9L150 299.9L280 224.9V74.8L20 224.9Z" fill="#212E38"/>
<path fill-rule="evenodd" clip-rule="evenodd" d="M164.32 223.165C178.684 182.459 198.743 167.117 225.489 155.487C225.985 155.115 225.985 154.62 225.242 154.497C199.858 159.322 180.17 170.705 164.444 184.686V173.056C164.444 171.571 163.206 170.334 161.72 170.334H138.689C137.203 170.334 135.965 171.571 135.965 173.056V193.223C121.477 188.645 110.209 176.891 106.371 162.168C98.5698 131.978 121.23 104.758 150.204 104.758C169.769 104.758 186.361 117.131 192.8 134.329C193.171 135.319 194.286 135.938 195.276 135.69L221.155 129.628C222.27 129.38 223.013 128.143 222.641 126.906C212.612 95.6026 182.77 73.208 147.976 74.1978C107.485 75.4351 74.7957 108.594 74.1765 149.053C73.5574 190.13 105.628 223.908 145.994 226.011C146.734 226.011 147.546 226.023 148.406 226.036C150.28 226.064 152.377 226.096 154.414 226.011C159.367 225.887 163.825 225.145 164.32 223.165ZM164.442 149.547C164.442 157.542 157.956 164.024 149.955 164.024C141.953 164.024 135.467 157.542 135.467 149.547C135.467 141.553 141.953 135.071 149.955 135.071C157.956 135.071 164.442 141.553 164.442 149.547Z" fill="white"/>
</g>
<defs>
<clipPath id="clip0_154_35615">
<rect width="300" height="300" fill="white"/>
</clipPath>
</defs>
</svg>
