<svg width="300" height="300" viewBox="0 0 300 300" fill="none" xmlns="http://www.w3.org/2000/svg">
<g clip-path="url(#clip0_602_35990)">
<path d="M20 74.8V224.9L150 300L280 224.9V74.8L150 -0.199951L20 74.8Z" fill="#364555"/>
<path d="M20 224.9L150 299.9L280 224.9V74.8L20 224.9Z" fill="#212E38"/>
<path d="M221.653 132.728C216.283 104.639 199.686 86.2625 172.319 78.1266C165.088 75.9706 156.637 74.74 147.2 74.4553C134.579 74.079 121.734 74.1502 109.307 74.2316C104.141 74.2621 98.9743 74.2926 93.8181 74.2926C89.7502 74.2926 89.3333 74.7095 89.3333 78.7368V225.183L90.1367 225.305C92.1096 225.62 93.5232 225.833 94.5809 225.833C95.547 225.833 96.2182 225.65 96.7674 225.183C97.8759 224.237 97.8759 222.559 97.8759 219.233V86.4354C97.8759 85.4285 97.8759 84.3912 98.0183 84.198C98.2217 84.0455 99.3099 84.0455 100.357 84.0455C104.7 84.0455 109.032 84.0353 113.375 84.0251C124.124 83.9946 135.24 83.9641 146.162 84.1166C151.491 84.1878 157.766 84.4217 163.838 85.6421C185.031 89.8728 200.052 101.314 208.473 119.65C213.416 130.41 215.419 142.227 214.595 155.794C212.632 188.246 190.767 211.585 158.905 215.247C152.407 215.999 145.674 216.03 139.176 216.05C136.165 216.06 133.155 216.081 130.155 216.152C129.423 216.172 128.691 216.162 127.928 216.152H125.873V225.62H126.829C129.708 225.589 132.596 225.62 135.474 225.64C146.935 225.742 158.793 225.844 170.245 222.691C192.7 216.508 208.442 203.185 217.036 183.09C223.575 167.794 225.141 150.851 221.673 132.718L221.653 132.728Z" fill="white"/>
<path d="M126.697 208.026C126.952 208.138 127.236 208.291 127.592 208.26C130.664 208.22 133.735 208.24 136.816 208.26C143.712 208.301 150.861 208.352 157.827 207.681C175.096 206.023 188.418 197.968 197.408 183.761C203.897 173.51 206.754 161.255 206.154 146.285C205.636 133.288 202.158 122.579 195.537 113.559C185.235 99.5041 170.367 92.2326 151.359 91.9479C142.033 91.8055 132.565 91.8462 123.392 91.8767C119.304 91.8869 115.205 91.9072 111.117 91.9072H107.334V225.468L109.144 225.559C109.744 225.6 110.283 225.63 110.822 225.62C111.087 225.62 111.331 225.62 111.565 225.62C112.154 225.62 112.653 225.62 113.1 225.62C114.483 225.62 115.246 225.549 115.816 224.98C116.456 224.329 116.446 223.413 116.416 221.756C116.416 221.308 116.395 220.8 116.395 220.2C116.416 182.449 116.426 142.238 116.355 102.26C116.355 101.192 116.477 100.582 116.741 100.318C117.006 100.063 117.595 99.9414 118.551 99.9515C124.907 100.033 131.365 100.023 137.599 100.013C141.922 100.013 146.254 100.002 150.566 100.013C171.028 100.124 186.557 110.365 193.167 128.122C197.561 139.929 198.334 152.153 195.446 164.459C190.513 185.49 176.174 198.06 155.071 199.87C149.366 200.358 143.498 200.287 137.813 200.226C135.179 200.196 132.545 200.165 129.911 200.186C129.219 200.186 128.528 200.186 127.796 200.186H125.782V207.671L126.413 207.894C126.514 207.935 126.606 207.976 126.697 208.006V208.026Z" fill="white"/>
<path d="M133.735 166.644C135.251 166.085 136.023 166.411 137.193 167.367C140.274 169.889 143.376 172.401 146.478 174.913C151.065 178.625 155.651 182.337 160.187 186.099C161.275 187.004 162.302 187.452 163.431 187.452C164.174 187.452 164.947 187.259 165.821 186.893C173.662 183.526 179.347 178.004 182.703 170.478C188.266 158.01 188.622 145.145 183.761 132.26C178.859 119.263 168.842 111.839 154.777 110.792C150.007 110.436 145.146 110.487 140.437 110.537C138.342 110.558 136.247 110.578 134.162 110.568C132.515 110.558 130.867 110.568 129.118 110.568H125.62V111.514C125.62 112.704 125.61 113.853 125.589 114.971C125.559 117.717 125.528 120.321 125.691 122.914C125.803 124.602 126.586 126.453 127.633 127.521C133.064 133.003 138.779 138.454 143.712 143.122C144.637 143.996 144.831 144.606 144.566 145.837C143.447 151.003 145.827 156.353 150.363 158.854C155.153 161.498 161.285 160.614 164.936 156.749C168.781 152.681 169.431 146.569 166.523 141.881C163.604 137.172 157.939 135.108 152.743 136.847C151.4 137.294 150.81 137.172 149.854 136.216C145.553 131.914 141.129 127.653 136.705 123.565C135.505 122.456 135.139 121.358 135.495 119.812C137.386 119.812 139.268 119.792 141.149 119.772C145.807 119.731 150.638 119.68 155.346 119.863C162.648 120.148 168.394 123.677 171.964 130.084C179.255 143.172 179.286 156.556 172.065 169.878C171.059 171.74 169.401 173.265 167.652 174.892C166.95 175.543 166.248 176.194 165.587 176.865C164.926 177.547 164.407 177.689 163.279 176.753C156.119 170.834 148.929 165.068 142.847 160.207C141.739 159.322 141.454 158.57 141.708 157.115C142.644 151.542 139.98 146.61 134.742 144.24C129.84 142.023 124.186 143.335 120.647 147.505C117.158 151.634 116.833 157.431 119.853 161.936C123.057 166.726 128.488 168.577 133.715 166.655L133.735 166.644ZM133.898 155.386C133.827 157.563 131.854 159.322 129.728 159.261C127.491 159.19 125.864 157.39 125.935 155.081C125.965 153.932 126.403 152.915 127.155 152.213C127.847 151.563 128.793 151.217 129.82 151.217C129.881 151.217 129.942 151.217 130.013 151.217C132.261 151.308 133.959 153.139 133.888 155.376L133.898 155.386ZM156.383 152.325H156.322C154.207 152.325 152.305 150.515 152.244 148.41C152.214 147.342 152.621 146.315 153.404 145.522C154.187 144.728 155.244 144.271 156.333 144.271H156.363C158.539 144.291 160.401 146.122 160.411 148.278C160.421 150.393 158.55 152.285 156.394 152.325H156.383Z" fill="white"/>
</g>
<defs>
<clipPath id="clip0_602_35990">
<rect width="300" height="300" fill="white"/>
</clipPath>
</defs>
</svg>
