<svg xml:space="preserve" style="enable-background:new 0 0 300 300;" viewBox="0 0 300 300" y="0px" x="0px" xmlns:xlink="http://www.w3.org/1999/xlink" xmlns="http://www.w3.org/2000/svg" id="Layer_1" version="1.1">
<style type="text/css">
	.st0{fill:#364555;}
	.st1{fill:#212E38;}
	.st2{fill:none;}
	.st3{fill:#FFFFFF;}
</style>
<polygon points="20,74.8 20,224.9 150,300 280,224.9 280,74.8 150,-0.2" class="st0"/>
<polygon points="20,224.9 150,299.9 280,224.9 280,74.8" class="st1"/>
<rect height="52.8" width="74.3" class="st2" y="131.8" x="112.6"/>
<g>
	<path d="M149,188c-21.6-23.7-46.4-42.2-76.2-54.5c-1.3-0.6-2.8,0.4-2.8,1.9v34.1c0,1.4,1.1,2.6,2.5,2.8   c8.8,0.9,17.4,2.6,25.6,6c1,0.4,1.4,1.6,1,2.5c-4.2,10-8.3,19.6-12.5,29.5c-0.4,0.9,0.3,1.8,1.2,1.8c7.7,0,14.9-0.1,22,0.1   c2.5,0.1,3.8-0.7,4.7-3.1c2.2-6,4.8-11.8,7.4-18.2c0.3-0.6,1.1-0.9,1.7-0.5c7.9,5.4,15.5,10.5,23.1,15.7c2.2,1.5,5.1,1.5,7.3,0   c7.3-5,14.7-10,22.4-15.2c0.7-0.5,1.7-0.2,2,0.6c2.5,6.1,4.9,11.6,7,17.3c0.9,2.5,2.1,3.6,4.9,3.4c5.7-0.3,11.5-0.1,17.3-0.1l4.8,0   c1.2,0,2.1-1.3,1.6-2.4c-4.3-10.1-8.3-19.7-12.7-29.9c-0.4-0.9,0.1-1.9,1.1-2.1c9-2.1,17.6-4,26.4-6c1.2-0.3,2.1-1.4,2.1-2.6l0-34   c0-1.3-1.3-2.2-2.5-1.7c-29.9,12.3-54.8,30.9-76.5,54.7C151.2,188.9,149.8,188.9,149,188z M165.2,158.6c0.4,0.9,1.6,1.2,2.4,0.6   c5.8-4.7,11.4-9.1,16.8-13.7c0.8-0.7,1.1-2.9,0.6-3.9c-6.9-16.5-14-33-20.9-49.5c-1.2-3-3.1-3.2-7.2-2.6c-4.2,0.6-8.4,0.6-12.6,0   c-4.5-0.7-6.4-0.1-7.8,3.2c-6.7,16.1-13.7,32.2-20.5,48.3l-0.4,0.8c-0.5,1.3-0.2,2.7,0.9,3.6l16.4,13.5c0.7,0.6,1.8,0.3,2.1-0.5   c4.6-11.1,9-22,13.7-33.4c0.5-1.1,2.1-1.1,2.6,0C156.1,136.5,160.6,147.5,165.2,158.6z" class="st3"/>
</g>
</svg>