<svg viewBox="0 0 300 300" xmlns="http://www.w3.org/2000/svg" id="Layer_1"><defs><style>.cls-1{fill:#212d38;}.cls-2{fill:#354554;}.cls-3{fill:#fff;fill-rule:evenodd;}</style></defs><polygon points="20.1 75 20.1 225 150 300 279.9 225 279.9 75 150 0 20.1 75" class="cls-2"/><polygon points="20.1 224.94 150 299.94 279.9 224.94 279.9 74.94 20.1 224.94" class="cls-1"/><path d="m151.93,90.63c-.8-1.59-3.07-1.59-3.87,0l-58.4,116.81c-.72,1.44.33,3.13,1.93,3.13h26.68c.82,0,1.58-.47,1.94-1.21l27.84-56.74c.79-1.61,3.09-1.61,3.88,0l27.84,56.74c.36.74,1.12,1.21,1.94,1.21h26.68c1.61,0,2.65-1.69,1.93-3.13l-58.4-116.81Z" class="cls-3"/><path d="m160.82,207.44c.72,1.44-.33,3.13-1.93,3.13h-17.76c-1.61,0-2.65-1.69-1.93-3.13l8.88-17.76c.8-1.59,3.07-1.59,3.87,0l8.88,17.76Z" class="cls-3"/></svg>