<svg viewBox="0 0 300 300" xmlns="http://www.w3.org/2000/svg" id="Layer_1"><defs><style>.cls-1{fill:#212d38;}.cls-2{fill:#354554;}.cls-3{fill:#fff;fill-rule:evenodd;}</style></defs><polygon points="20.1 75 20.1 225 150 300 279.9 225 279.9 75 150 0 20.1 75" class="cls-2"/><polygon points="20.1 224.94 150 299.94 279.9 224.94 279.9 74.94 20.1 224.94" class="cls-1"/><path d="m126.62,178.09c0,5.12,1.28,8.97,5.12,12.81,11.53,11.53,24.34,16.65,40.99,15.37,15.37,0,28.82-5.76,39.71-16.65,10.89-11.53,16.65-24.34,16.65-39.71s-5.76-28.82-16.65-39.71c-11.53-10.89-24.34-16.65-39.71-16.65s-28.82,5.76-39.71,16.65l-56.36,56.36c-3.84,3.84-5.76,8.33-5.76,12.81,0,5.12,1.28,8.97,5.12,12.81,3.84,3.84,8.33,5.76,12.81,5.76,5.12,0,8.97-1.92,12.81-5.76l56.36-56.36c3.84-3.84,8.33-5.76,14.09-5.76,5.12,0,10.25,1.92,14.09,5.76,3.84,3.84,5.76,8.33,5.76,14.09s-1.92,10.89-5.76,14.73c-4.48,3.84-8.97,5.76-14.73,5.76s-10.89-1.92-14.73-5.76c-3.2-3.2-7.69-5.12-12.17-5.12s-8.33,1.92-12.17,5.76c-3.84,3.84-5.76,8.33-5.76,12.81Z" class="cls-3"/><polygon points="76.02 155.03 122.14 107.63 77.3 110.83 76.02 155.03" class="cls-3"/></svg>