<svg xml:space="preserve" style="enable-background:new 0 0 300 300;" viewBox="0 0 300 300" y="0px" x="0px" xmlns:xlink="http://www.w3.org/1999/xlink" xmlns="http://www.w3.org/2000/svg" id="Layer_1" version="1.1">
<style type="text/css">
	.st0{fill:#364555;}
	.st1{fill:#212E38;}
	.st2{fill:#FFFFFF;}
	.st3{fill:none;}
</style>
<polygon points="20,74.8 20,224.9 150,300 280,224.9 280,74.8 150,-0.2" class="st0"/>
<polygon points="20,224.9 150,299.9 280,224.9 280,74.8" class="st1"/>
<g>
	<path d="M193.7,240.9l-55.2-55.2c3.3,0.7,7.3,1.3,11.1,1.3c26.9,0,49.2-22.4,49.2-49.2s-22.4-48.6-49.2-48.6   s-49.2,22.4-49.2,49.2c0,4,0.7,7.9,1.3,11.1l-30.2-30.2c8.5-35.5,40-61,78.1-61c44.6,0,80.1,36.1,80.1,80.1   c0,25.5-12.4,48.6-31.5,63.7l22.4,22.4L193.7,240.9z M153,218.7c-1.3,0-2,0-3.3,0c-44.6,0-80.1-36.1-80.1-80.1c0-1.3,0-2,0-3.3   L153,218.7z" class="st2"/>
</g>
<rect height="52.8" width="74.3" class="st3" y="131.8" x="112.6"/>
<g>
	<path d="M120.7,127.8C120.7,127.8,120.7,127.8,120.7,127.8c0,3.8-0.1,7.6,0,11.4c0.1,6.4,1.9,12.3,5.7,17.6   c5.7,7.9,13.7,12.6,22.8,15.4c0.4,0.1,0.8,0.1,1.2,0c5-1.4,9.7-3.7,13.9-6.7c9.5-6.8,14.6-15.8,14.5-27.6c0-7.4,0-14.8,0-22.3   c0-0.6-0.2-0.9-0.8-1.1c-9.3-3.3-18.5-6.7-27.8-10.1c-0.3-0.1-0.8-0.1-1.1,0c-9.3,3.4-18.6,6.7-27.9,10.1c-0.5,0.2-0.7,0.4-0.7,1   C120.7,119.6,120.7,123.7,120.7,127.8z" class="st2"/>
	<path d="M120.7,127.8c0-4.1,0-8.2,0-12.3c0-0.5,0.2-0.8,0.7-1c9.3-3.4,18.6-6.7,27.9-10.1c0.3-0.1,0.8-0.1,1.1,0   c9.3,3.3,18.5,6.7,27.8,10.1c0.6,0.2,0.8,0.4,0.8,1.1c0,7.4,0,14.8,0,22.3c0.1,11.8-5.1,20.8-14.5,27.6c-4.2,3-8.9,5.3-13.9,6.7   c-0.4,0.1-0.8,0.2-1.2,0c-9.2-2.8-17.1-7.5-22.8-15.4c-3.8-5.2-5.6-11.1-5.7-17.6C120.6,135.4,120.7,131.6,120.7,127.8   C120.7,127.8,120.7,127.8,120.7,127.8z M162.5,127c-5.8,5.8-11.7,11.7-17.6,17.6c-2.6-2.6-5.3-5.3-7.8-7.8   c-1.1,1.1-2.3,2.3-3.2,3.2c3.7,3.7,7.5,7.5,11.2,11.2c6.9-6.9,13.9-13.9,20.9-20.9C164.8,129.3,163.6,128.2,162.5,127z" class="st2"/>
	<path d="M162.5,127c1.2,1.2,2.3,2.3,3.4,3.4c-7,7-13.9,13.9-20.9,20.9c-3.7-3.7-7.5-7.5-11.2-11.2c1-1,2.1-2.1,3.2-3.2   c2.5,2.5,5.2,5.2,7.8,7.8C150.8,138.7,156.6,132.8,162.5,127z" class="st0"/>
</g>
</svg>