<svg xml:space="preserve" style="enable-background:new 0 0 300 300;" viewBox="0 0 300 300" y="0px" x="0px" xmlns:xlink="http://www.w3.org/1999/xlink" xmlns="http://www.w3.org/2000/svg" id="Layer_1" version="1.1">
<style type="text/css">
	.st0{fill:#364555;}
	.st1{fill:#212E38;}
	.st2{fill:#FFFFFF;}
</style>
<g>
	<g>
		<g>
			<polygon points="20.5,75.3 20.5,225.4 150.5,300.5 280.5,225.4 280.5,75.3 150.5,0.3" class="st0"/>
			<polygon points="20.5,225.4 150.5,300.4 280.5,225.4 280.5,75.3" class="st1"/>
		</g>
	</g>
</g>
<g>
	<path d="M229.9,88.1c-8.7,0-16.1,0.1-23.6-0.1c-2.9-0.1-4.6,1-6.4,3.2c-18.1,22.1-36.3,44-54.5,66   c-1.1,1.3-2.3,2.5-3.7,4.1c-1.8-2.1-3.2-3.6-4.5-5.2c-12.3-14.8-24.6-29.7-37-44.5c-1-1.2-2.4-2.8-3.7-2.8   c-8.8-0.2-17.5-0.1-26.9-0.1c0,2.2,0,4,0,5.8c0,20.6,0,41.3,0,61.9c0,9.3-0.1,18.5,0.1,27.8c0,1.3,1.1,3.7,1.8,3.7   c7.2,0.3,14.5,0.2,22.2,0.2c0-23.8,0-46.9,0-70c0.3-0.1,0.7-0.3,1-0.4c15.7,18.8,31.3,37.6,47.2,56.7   C171.2,158.9,200.2,123.9,229.9,88.1z M213.9,126.2c-8.1,10.1-15.6,19.3-23,28.7c-0.7,0.9-0.7,2.5-0.7,3.8   c-0.1,15.4-0.1,30.8,0,46.1c0,1,0.3,2,0.4,3.1c7.9,0,15.5,0,23.4,0C213.9,180.8,213.9,154.1,213.9,126.2z" class="st2"/>
	<path d="M229.9,88.1c-29.7,35.8-58.6,70.8-88,106.2c-15.9-19.1-31.6-37.9-47.2-56.7c-0.3,0.1-0.7,0.3-1,0.4   c0,23.1,0,46.2,0,70c-7.7,0-14.9,0.1-22.2-0.2c-0.7,0-1.8-2.4-1.8-3.7c-0.1-9.3-0.1-18.5-0.1-27.8c0-20.6,0-41.3,0-61.9   c0-1.8,0-3.5,0-5.8c9.3,0,18.1-0.1,26.9,0.1c1.3,0,2.7,1.6,3.7,2.8c12.4,14.8,24.7,29.6,37,44.5c1.3,1.6,2.7,3.1,4.5,5.2   c1.4-1.5,2.6-2.7,3.7-4.1c18.2-22,36.4-44,54.5-66c1.7-2.1,3.5-3.2,6.4-3.2C213.7,88.2,221.2,88.1,229.9,88.1z" class="st2"/>
	<path d="M213.9,126.2c0,27.9,0,54.7,0,81.7c-7.8,0-15.5,0-23.4,0c-0.2-1.1-0.4-2.1-0.4-3.1c0-15.4,0-30.8,0-46.1   c0-1.3,0-2.9,0.7-3.8C198.2,145.5,205.7,136.3,213.9,126.2z" class="st2"/>
</g>
</svg>