<svg xmlns="http://www.w3.org/2000/svg" fill="none" viewBox="0 0 40 40" height="40" width="40">
<path fill="#354554" d="M2.67993 10V30L19.9999 40L37.3199 30V10L19.9999 0L2.67993 10Z"/>
<path fill="#212D38" d="M2.67993 29.992L19.9999 39.992L37.3199 29.992V9.992L2.67993 29.992Z"/>
<path fill="white" d="M17.0134 14.46C16.9321 14.6653 17.0841 14.888 17.3041 14.888H20.4374C20.5654 14.888 20.6814 14.8093 20.7281 14.6893L21.6748 12.2893C21.7561 12.084 21.6041 11.8613 21.3841 11.8613H18.2508C18.1228 11.8613 18.0068 11.94 17.9601 12.06L17.0134 14.46Z" clip-rule="evenodd" fill-rule="evenodd"/>
<path fill="white" d="M21.8999 21.3547C21.9813 21.56 21.8293 21.7827 21.6093 21.7827H19.8293C19.7013 21.7827 19.5853 21.8613 19.5386 21.9813L18.1773 25.4333C18.0959 25.6387 18.2479 25.8613 18.4679 25.8613H23.4653C23.5933 25.8613 23.7093 25.94 23.7559 26.06L24.4986 27.9413C24.5453 28.0613 24.6613 28.14 24.7893 28.14H27.9226C28.1439 28.14 28.2946 27.9173 28.2133 27.712L22.8933 14.2253C22.7893 13.9613 22.4146 13.9613 22.3106 14.2253L20.7439 18.1973C20.7146 18.2707 20.7146 18.3533 20.7439 18.4267L21.8986 21.3547H21.8999Z" clip-rule="evenodd" fill-rule="evenodd"/>
<path fill="white" d="M11.7866 27.7107C11.7053 27.916 11.8573 28.1387 12.0773 28.1387H15.2106C15.3386 28.1387 15.4546 28.06 15.5013 27.94L19.7026 17.2907C19.784 17.0853 19.632 16.8627 19.412 16.8627H16.2786C16.1506 16.8627 16.0346 16.9413 15.988 17.0613L11.7866 27.7107Z" clip-rule="evenodd" fill-rule="evenodd"/>
</svg>