<svg width="300" height="300" viewBox="0 0 300 300" fill="none" xmlns="http://www.w3.org/2000/svg">
<g clip-path="url(#clip0_119_35510)">
<path d="M20 74.8V224.9L150 300L280 224.9V74.8L150 -0.199951L20 74.8Z" fill="#364555"/>
<path d="M20 224.9L150 299.9L280 224.9V74.8L20 224.9Z" fill="#212E38"/>
<path fill-rule="evenodd" clip-rule="evenodd" d="M129.779 117.078V91.9651L170.223 66.5833L210.668 91.9651L210.668 91.9648V137.652L170.223 163.034V117.347L170.223 117.347L131.657 93.1381L131.645 117.073L129.779 117.078ZM89.3334 163.035V188.147L91.1989 188.143L91.2113 164.208L129.778 188.417L129.778 188.416V234.104L170.222 208.722V163.034L170.222 163.035L129.778 137.653L89.3334 163.035Z" fill="white"/>
</g>
<defs>
<clipPath id="clip0_119_35510">
<rect width="300" height="300" fill="white"/>
</clipPath>
</defs>
</svg>
