<svg width="85" height="89" viewBox="0 0 85 89" fill="none" xmlns="http://www.w3.org/2000/svg">
<path d="M0 12C0 5.37259 5.37258 0 12 0H73C79.6274 0 85 5.37258 85 12V89H0V12Z" fill="white"/>
<rect x="12" y="19" width="40" height="4" rx="2" fill="#D9D9D9"/>
<rect x="12" y="28" width="63" height="19" rx="4" fill="#D9D9D9"/>
<rect x="12" y="63" width="63" height="19" rx="4" fill="#D9D9D9"/>
<rect x="12" y="54" width="43" height="4" rx="2" fill="#D9D9D9"/>
<path fill-rule="evenodd" clip-rule="evenodd" d="M70.7119 7C70.1509 7 69.5909 7.214 69.1629 7.642L58.6299 18.175L58.0069 23.783C57.9339 24.44 58.4499 25 59.0929 25C59.1339 25 59.1749 24.998 59.2159 24.993L64.8259 24.37L75.3579 13.837C76.2139 12.982 76.2139 11.595 75.3579 10.739L72.2609 7.642C71.8329 7.214 71.2719 7 70.7119 7ZM62.0131 22.67L60.3301 20.986L60.5401 19.093L67.0741 12.559L68.4041 13.889L62.8891 19.403L63.5961 20.111L69.1111 14.596L70.4401 15.926L63.9081 22.46L62.0131 22.67ZM68.4878 11.145L71.8548 14.512L73.9438 12.423C73.9808 12.386 73.9998 12.34 73.9998 12.288C73.9998 12.236 73.9808 12.191 73.9438 12.153L70.8458 9.056C70.8088 9.019 70.7638 9 70.7118 9C70.6588 9 70.6138 9.019 70.5768 9.056L68.4878 11.145Z" fill="#E30072"/>
</svg>
