<svg width="85" height="89" viewBox="0 0 85 89" fill="none" xmlns="http://www.w3.org/2000/svg">
<path d="M0 12C0 5.37259 5.37258 0 12 0H73C79.6274 0 85 5.37258 85 12V89H0V12Z" fill="white"/>
<path d="M12 21C12 19.8954 12.8954 19 14 19H48C49.1046 19 50 19.8954 50 21V21C50 22.1046 49.1046 23 48 23H14C12.8954 23 12 22.1046 12 21V21Z" fill="#D9D9D9"/>
<rect x="12" y="28" width="43" height="4" rx="2" fill="#D9D9D9"/>
<rect x="12" y="36" width="56" height="4" rx="2" fill="#D9D9D9"/>
<rect x="12" y="45" width="28" height="4" rx="2" fill="#D9D9D9"/>
<rect x="12" y="54" width="43" height="4" rx="2" fill="#D9D9D9"/>
<rect x="12" y="62" width="60" height="4" rx="2" fill="#D9D9D9"/>
<rect x="12" y="71" width="56" height="4" rx="2" fill="#D9D9D9"/>
<rect x="12" y="80" width="49" height="4" rx="2" fill="#D9D9D9"/>
<path fill-rule="evenodd" clip-rule="evenodd" d="M67 6C61.477 6 57 10.477 57 16C57 21.522 61.477 26 67 26C72.522 26 77 21.522 77 16C77 10.477 72.522 6 67 6ZM67 8C71.411 8 75 11.589 75 16C75 20.411 71.411 24 67 24C62.589 24 59 20.411 59 16C59 11.589 62.589 8 67 8ZM65.757 17.609V17.119C65.757 16.695 65.846 16.327 66.024 16.013C66.202 15.7 66.528 15.366 67 15.013C67.456 14.682 67.756 14.413 67.902 14.205C68.047 13.998 68.119 13.766 68.119 13.51C68.119 13.223 68.016 13.004 67.807 12.854C67.599 12.704 67.308 12.629 66.935 12.629C66.284 12.629 65.543 12.846 64.71 13.278L64 11.828C64.967 11.276 65.994 11 67.078 11C67.972 11 68.683 11.219 69.209 11.656C69.736 12.093 70 12.675 70 13.404C70 13.89 69.892 14.309 69.675 14.662C69.458 15.016 69.046 15.413 68.439 15.854C68.022 16.168 67.758 16.406 67.648 16.569C67.537 16.733 67.482 16.947 67.482 17.212V17.609H65.757ZM65.5488 19.874C65.5488 19.503 65.6468 19.223 65.8418 19.033C66.0368 18.844 66.3208 18.748 66.6948 18.748C67.0538 18.748 67.3328 18.846 67.5298 19.04C67.7278 19.234 67.8268 19.512 67.8268 19.874C67.8268 20.223 67.7268 20.498 67.5278 20.698C67.3278 20.899 67.0498 21 66.6948 21C66.3298 21 66.0478 20.901 65.8478 20.705C65.6488 20.509 65.5488 20.231 65.5488 19.874Z" fill="#E30072"/>
</svg>
