<svg width="85" height="89" viewBox="0 0 85 89" fill="none" xmlns="http://www.w3.org/2000/svg">
<path d="M0 12C0 5.37259 5.37258 0 12 0H73C79.6274 0 85 5.37258 85 12V89H0V12Z" fill="white"/>
<path d="M12 21C12 19.8954 12.8954 19 14 19H54.5C55.6046 19 56.5 19.8954 56.5 21V21C56.5 22.1046 55.6046 23 54.5 23H14C12.8954 23 12 22.1046 12 21V21Z" fill="#D9D9D9"/>
<rect x="12" y="28" width="49" height="4" rx="2" fill="#D9D9D9"/>
<rect x="12" y="36" width="56" height="4" rx="2" fill="#D9D9D9"/>
<rect x="12" y="45" width="28" height="4" rx="2" fill="#D9D9D9"/>
<rect x="12" y="54" width="43" height="4" rx="2" fill="#D9D9D9"/>
<rect x="12" y="62" width="60" height="4" rx="2" fill="#D9D9D9"/>
<rect x="12" y="71" width="56" height="4" rx="2" fill="#D9D9D9"/>
<rect x="12" y="80" width="49" height="4" rx="2" fill="#D9D9D9"/>
<path fill-rule="evenodd" clip-rule="evenodd" d="M70.4997 8.58301C66.1273 8.58301 62.583 12.1273 62.583 16.4997C62.583 20.8713 66.1273 24.4163 70.4997 24.4163C74.8713 24.4163 78.4163 20.8713 78.4163 16.4997C78.4163 12.1273 74.8713 8.58301 70.4997 8.58301ZM70.4997 10.1663C73.9917 10.1663 76.833 13.0076 76.833 16.4997C76.833 19.9917 73.9917 22.833 70.4997 22.833C67.0076 22.833 64.1663 19.9917 64.1663 16.4997C64.1663 13.0076 67.0076 10.1663 70.4997 10.1663ZM69.5156 17.7735V17.3856C69.5156 17.0499 69.5861 16.7585 69.727 16.51C69.8679 16.2622 70.126 15.9978 70.4997 15.7183C70.8607 15.4563 71.0982 15.2433 71.2138 15.0786C71.3285 14.9148 71.3855 14.7311 71.3855 14.5284C71.3855 14.3012 71.304 14.1278 71.1385 14.0091C70.9739 13.8903 70.7435 13.831 70.4482 13.831C69.9328 13.831 69.3462 14.0028 68.6868 14.3448L68.1247 13.1968C68.8902 12.7598 69.7033 12.5413 70.5614 12.5413C71.2692 12.5413 71.832 12.7147 72.2485 13.0607C72.6657 13.4066 72.8747 13.8674 72.8747 14.4445C72.8747 14.8293 72.7892 15.161 72.6174 15.4404C72.4456 15.7207 72.1194 16.035 71.6389 16.3841C71.3088 16.6327 71.0998 16.8211 71.0127 16.9501C70.9248 17.08 70.8813 17.2494 70.8813 17.4592V17.7735H69.5156ZM69.3508 19.5666C69.3508 19.2729 69.4284 19.0512 69.5828 18.9008C69.7372 18.7512 69.962 18.6752 70.2581 18.6752C70.5423 18.6752 70.7632 18.7527 70.9191 18.9063C71.0759 19.0599 71.1542 19.28 71.1542 19.5666C71.1542 19.8429 71.0751 20.0606 70.9175 20.2189C70.7592 20.378 70.5391 20.458 70.2581 20.458C69.9691 20.458 69.7459 20.3796 69.5875 20.2245C69.43 20.0693 69.3508 19.8492 69.3508 19.5666Z" fill="#E30072"/>
</svg>
