<svg width="40" height="40" viewBox="0 0 40 40" fill="none" xmlns="http://www.w3.org/2000/svg">
<g clip-path="url(#clip0_18018_1541)">
<path fill-rule="evenodd" clip-rule="evenodd" d="M2.67993 30V10L19.9999 0L37.3199 10V30L19.9999 40L2.67993 30ZM25.5687 28.031C25.1847 28.031 24.7993 28.0268 24.4152 28.0144C24.1265 28.0047 23.8061 27.8638 23.6182 27.6663C22.1006 26.073 20.569 24.4453 19.0834 22.8665L19.0832 22.8663L18.9037 22.6755L17.5292 21.2154C17.4132 21.0925 17.2958 20.9709 17.177 20.848C17.0209 20.6864 16.8662 20.5261 16.7142 20.3618C16.4808 20.1104 16.5195 19.9032 16.5623 19.8023C16.6051 19.7015 16.7267 19.5329 17.0596 19.5274C17.9657 19.515 18.9313 19.5067 19.9065 19.5385C20.1883 19.5481 20.4411 19.7733 20.6069 19.9432C21.1332 20.4792 21.6526 21.0331 22.1526 21.5884C22.2189 21.6616 22.2534 21.6782 22.2603 21.6809C22.2603 21.6803 22.2625 21.6789 22.2668 21.6762C22.2808 21.6676 22.317 21.645 22.375 21.587C22.9952 20.9626 23.19 19.9916 22.8585 19.1697C22.5477 18.4002 21.741 17.8601 20.897 17.856C18.6302 17.8463 16.735 17.8463 14.9351 17.856C14.5055 17.8615 14.1781 17.7151 13.8908 17.3919C13.5772 17.0396 13.2471 16.6901 12.9266 16.3517L12.9265 16.3516C12.6959 16.1085 12.4652 15.8654 12.2387 15.6182C12.1483 15.5197 12.1027 15.4014 12.0658 15.3059L12.0658 15.3058L12.0633 15.2991L12.0536 15.2738C12.0448 15.2507 12.0361 15.2279 12.026 15.2066C11.99 15.1306 11.99 15.0436 12.026 14.9676C12.0605 14.8916 12.1268 14.835 12.2069 14.8115C12.2401 14.8018 12.2718 14.7908 12.305 14.7784C12.4003 14.7438 12.5191 14.701 12.6531 14.6996L14.3591 14.6955C16.4918 14.6886 18.6979 14.683 20.8666 14.701C23.1762 14.7203 25.1874 16.1638 25.8726 18.2939C26.5467 20.3908 26.1005 22.2514 24.5451 23.8248C24.494 23.8759 24.4443 23.9256 24.4097 23.9643C24.4443 24.0044 24.4926 24.0569 24.5382 24.1038C25.4872 25.1136 26.4251 26.1123 27.3603 27.1124C27.4286 27.1848 27.4827 27.2623 27.5438 27.3501L27.5495 27.3583C27.5799 27.4025 27.6144 27.4508 27.6559 27.5061C27.7153 27.5876 27.7277 27.6939 27.689 27.7865C27.649 27.879 27.5633 27.944 27.4625 27.9564C27.407 27.9637 27.3563 27.9711 27.3097 27.9778L27.2663 27.984L27.2452 27.9872L27.2452 27.9872C27.1339 28.0039 27.036 28.0186 26.9321 28.0186L26.4652 28.0227C26.1696 28.0255 25.8712 28.0268 25.5701 28.0268L25.5687 28.031ZM26.1157 14.9925C25.0438 14.9925 24.1638 14.1374 24.1514 13.0793C24.1445 12.5558 24.3434 12.0613 24.7109 11.6883C25.0728 11.3195 25.5549 11.1164 26.0687 11.1136H26.0742C27.1462 11.1136 27.9916 11.9632 27.9998 13.0503C28.0067 14.0766 27.1351 14.9828 26.1336 14.9925H26.1171H26.1157Z" fill="white"/>
</g>
<defs>
<clipPath id="clip0_18018_1541">
<rect width="40" height="40" fill="white"/>
</clipPath>
</defs>
</svg>
