<svg width="40" height="40" viewBox="0 0 40 40" fill="none" xmlns="http://www.w3.org/2000/svg">
<g clip-path="url(#clip0_18018_1616)">
<path fill-rule="evenodd" clip-rule="evenodd" d="M2.66675 29.9867V9.97339L20.0001 -0.0266113L37.3334 9.97339V29.9867L20.0001 40.0001L2.66675 29.9867ZM30.4667 14.2666V16.8133C27.9067 16.8133 25.3334 16.8133 22.7334 16.7866V27.32C24.4134 26.5866 25.6001 25.4133 26.3601 23.8C27.1201 22.1866 27.2401 20.48 26.7067 18.7066C26.9226 18.7066 27.1351 18.7058 27.3451 18.7049C27.9649 18.7025 28.5625 18.7001 29.1601 18.72H29.3067L29.3734 19.04C29.6001 20.64 29.5734 22.2266 29.0534 23.7733C28.2534 26.2266 26.7067 28.0666 24.4534 29.3066C23.2401 29.9733 21.9334 30.3066 20.5201 30.44V15C21.0667 14.7466 21.4534 14.2 21.4534 13.56C21.4534 12.68 20.7467 11.9733 19.8667 11.9733C18.9867 11.9733 18.2801 12.68 18.2801 13.56C18.2801 14.2 18.6667 14.7466 19.2134 15V30.4666C18.7201 30.4266 18.2401 30.3333 17.7734 30.2266C15.8801 29.7733 14.2267 28.8666 12.9067 27.4266C10.9067 25.24 10.0534 22.68 10.3734 19.7333C10.3734 19.7333 10.4134 19.16 10.6534 18.7066L11.5201 18.72H13.1067C12.4534 21.0133 12.8134 23.12 14.1601 25.0133C14.8934 26.0533 15.8534 26.84 17.0801 27.3466V16.84H16.6667C15.8978 16.84 15.129 16.8385 14.3601 16.837C12.8223 16.8341 11.2845 16.8311 9.74673 16.84H9.32007V16.4266C9.34847 15.9344 9.34326 15.4421 9.33785 14.9308C9.33564 14.7219 9.3334 14.5098 9.3334 14.2933H16.0801C15.7867 11.1866 18.0934 9.74665 19.8934 9.75998C21.7067 9.77331 23.9734 11.28 23.6134 14.2666H30.4667Z" fill="white"/>
</g>
<defs>
<clipPath id="clip0_18018_1616">
<rect width="40" height="40" fill="white"/>
</clipPath>
</defs>
</svg>
