<svg width="40" height="40" viewBox="0 0 40 40" fill="none" xmlns="http://www.w3.org/2000/svg">
<g clip-path="url(#clip0_18018_1177)">
<path fill-rule="evenodd" clip-rule="evenodd" d="M2.7334 30.0533V10.04L20.0667 0.039978L37.4001 10.04V30.0533L20.0667 40.0666L2.7334 30.0533ZM23.9068 12.6666C23.9068 13.6666 23.5201 14.5866 22.8934 15.28L17.1201 15.2666C16.4935 14.5866 16.1201 13.6666 16.1201 12.6666C16.1201 10.52 17.8668 8.77332 20.0135 8.77332C22.1601 8.77332 23.9068 10.52 23.9068 12.6666ZM14.1466 17.3467H8.98657V19.88H13.6266C17.7732 20.48 17.8132 24.3467 17.8132 24.3467V31.3333H20.2532V24.0533C20.2532 18 14.1466 17.3467 14.1466 17.3467ZM18.3467 17.3467H30.8667V19.8667H20.8267C20.8267 19.8667 19.88 18.4533 18.3467 17.3467ZM21.8799 22.76H26.4799V25.4H21.8799V22.76ZM24.6001 28.7333H22.0801V31.3333H24.6001V28.7333Z" fill="white"/>
</g>
<defs>
<clipPath id="clip0_18018_1177">
<rect width="40" height="40" fill="white"/>
</clipPath>
</defs>
</svg>
