<svg width="40" height="40" viewBox="0 0 40 40" fill="none" xmlns="http://www.w3.org/2000/svg">
<g clip-path="url(#clip0_18018_1353)">
<path fill-rule="evenodd" clip-rule="evenodd" d="M2.67993 30V10L19.9999 0L37.3199 10V30L19.9999 40L2.67993 30ZM17.3041 14.888C17.0841 14.888 16.9321 14.6653 17.0134 14.46L17.9601 12.06C18.0068 11.94 18.1228 11.8613 18.2508 11.8613H21.3841C21.6041 11.8613 21.7561 12.084 21.6748 12.2893L20.7281 14.6893C20.6814 14.8093 20.5654 14.888 20.4374 14.888H17.3041ZM21.6093 21.7827C21.8293 21.7827 21.9813 21.56 21.8999 21.3547H21.8986L20.7439 18.4267C20.7146 18.3533 20.7146 18.2707 20.7439 18.1973L22.3106 14.2253C22.4146 13.9613 22.7893 13.9613 22.8933 14.2253L28.2133 27.712C28.2946 27.9173 28.1439 28.14 27.9226 28.14H24.7893C24.6613 28.14 24.5453 28.0613 24.4986 27.9413L23.7559 26.06C23.7093 25.94 23.5933 25.8613 23.4653 25.8613H18.4679C18.2479 25.8613 18.0959 25.6387 18.1773 25.4333L19.5386 21.9813C19.5853 21.8613 19.7013 21.7827 19.8293 21.7827H21.6093ZM11.7866 27.7107C11.7053 27.916 11.8573 28.1387 12.0773 28.1387H15.2106C15.3386 28.1387 15.4546 28.06 15.5013 27.94L19.7026 17.2907C19.784 17.0853 19.632 16.8627 19.412 16.8627H16.2786C16.1506 16.8627 16.0346 16.9413 15.988 17.0613L11.7866 27.7107Z" fill="white"/>
</g>
<defs>
<clipPath id="clip0_18018_1353">
<rect width="40" height="40" fill="white"/>
</clipPath>
</defs>
</svg>
