<svg width="40" height="40" viewBox="0 0 40 40" fill="none" xmlns="http://www.w3.org/2000/svg">
<g clip-path="url(#clip0_18018_1701)">
<path fill-rule="evenodd" clip-rule="evenodd" d="M2.67993 10V30L19.9999 40L37.3199 30V10L19.9999 0L2.67993 10ZM13.08 26.9866L14.7733 23.1066C14.8266 22.9999 14.9333 22.9332 15.04 22.9332H25.5333C25.6533 22.9332 25.76 22.9999 25.8133 23.1066L27.5066 26.9866C27.56 27.0932 27.6666 27.1599 27.7733 27.1599H30.68C30.8933 27.1599 31.04 26.9466 30.9466 26.7466L28.88 22.0132C28.8266 21.8932 28.8666 21.7466 28.96 21.6666C29.0533 21.5866 29.1866 21.4666 29.2933 21.3599C29.7866 20.8666 30.1733 20.2932 30.44 19.6666C30.72 19.0132 30.8666 18.3066 30.8666 17.5866C30.8666 16.8666 30.72 16.1732 30.44 15.5066C30.1733 14.8666 29.7866 14.2932 29.2933 13.8132C28.8 13.3199 28.2266 12.9332 27.6 12.6666C26.9466 12.3866 26.24 12.2399 25.52 12.2399H20.9733C20.76 12.2399 20.6133 12.4532 20.7066 12.6532L21.8666 15.3199C21.92 15.4266 22.0266 15.4932 22.1333 15.4932H25.52C25.72 15.4932 25.9066 15.5199 26.08 15.5732C26.96 15.8132 27.6 16.6266 27.6 17.5732C27.6 18.2571 27.5582 18.3008 27.4798 18.383C27.4496 18.4146 27.414 18.4518 27.3733 18.5332C27.0266 19.1999 26.3333 19.6532 25.52 19.6532H16.7066C16.4933 19.6532 16.3466 19.4399 16.44 19.2399L17.4533 16.9066C17.56 16.6666 17.8933 16.6666 18 16.9066L18.7066 18.5332C18.76 18.6399 18.8666 18.7066 18.9733 18.7066H21.88C22.0933 18.7066 22.24 18.4932 22.1466 18.2932L20.92 15.4799L19.5733 12.3999C19.52 12.2932 19.4133 12.2266 19.3066 12.2266H16.12C16 12.2266 15.8933 12.2932 15.8533 12.3999L14.5066 15.4799L12.6933 19.6399L11.28 22.9066L9.61331 26.7332C9.53331 26.9332 9.66664 27.1466 9.87998 27.1466H12.7866C12.9066 27.1466 13.0133 27.0799 13.0533 26.9732L13.08 26.9866ZM24.6666 24.0666L25.8133 26.6799C25.9066 26.9066 25.7466 27.1599 25.4933 27.1599H22.6933C22.5466 27.1599 22.4266 27.0799 22.3733 26.9599L21.2266 24.3466C21.1333 24.1199 21.2933 23.8666 21.5466 23.8666H24.3466C24.4933 23.8666 24.6133 23.9466 24.6666 24.0666Z" fill="white"/>
</g>
<defs>
<clipPath id="clip0_18018_1701">
<rect width="40" height="40" fill="white"/>
</clipPath>
</defs>
</svg>
