<svg width="40" height="40" viewBox="0 0 40 40" fill="none" xmlns="http://www.w3.org/2000/svg">
<g clip-path="url(#clip0_18018_1210)">
<path fill-rule="evenodd" clip-rule="evenodd" d="M2.7334 30.0133V10L20.0667 0L37.4001 10V30.0133L20.0667 40.0267L2.7334 30.0133ZM14.2801 20.9467C16.9068 23.5733 16.9201 23.5733 20.6534 23.4133C20.8613 23.3988 21.0701 23.3812 21.2788 23.3636C21.8334 23.3169 22.3873 23.2703 22.9201 23.28C24.3334 23.28 25.2001 22.6133 25.6801 21.3067C26.4401 19.2667 27.2268 17.24 28.0134 15.2133C28.4668 14.0667 28.2934 13.0667 27.4001 12.1867C27.0207 11.8115 26.6482 11.4281 26.2755 11.0443C25.4957 10.2414 24.7148 9.43742 23.8668 8.70667C23.3468 8.25333 22.5334 7.90667 21.8401 7.89334C20.4303 7.86029 19.0114 7.95463 17.5984 8.04857L17.5983 8.04857L17.5983 8.04858C17.3008 8.06836 17.0036 8.08812 16.7068 8.10667C15.5601 8.17334 14.7468 8.73334 14.3334 9.82667C13.6972 11.506 13.0528 13.1771 12.4066 14.8528L12.4065 14.853C12.2267 15.3193 12.0467 15.786 11.8668 16.2533C11.4268 17.3867 11.6801 18.3467 12.5201 19.1867L14.2801 20.9467ZM14.9123 12.8413C15.1013 12.3473 15.2948 11.8417 15.4934 11.32C15.7443 11.5762 15.9886 11.8248 16.2273 12.0678C17.1687 13.0258 18.0238 13.8959 18.8534 14.8C19.0134 14.96 19.1601 15.32 19.0934 15.5067C18.522 17.0837 17.9213 18.6412 17.2827 20.2966L17.2808 20.3016L17.2768 20.312C17.1722 20.583 17.0667 20.8566 16.9601 21.1333L16.8912 21.0651L16.8911 21.065C15.6775 19.8645 14.5526 18.7518 13.4534 17.6133C13.3334 17.4933 13.2801 17.2 13.3334 17.04C13.8318 15.6645 14.3525 14.3039 14.9123 12.8413ZM19.6854 21.6723L19.6843 21.6723L19.6758 21.6727C19.3207 21.6879 18.9583 21.7034 18.5868 21.72L18.8382 21.0623L18.8383 21.0621L18.8383 21.0621C19.4965 19.3399 20.0939 17.7766 20.7334 16.2133C20.8134 16.0133 21.1068 15.7733 21.3201 15.76C22.4526 15.6819 23.5923 15.6324 24.7966 15.5801C25.2371 15.5609 25.6862 15.5414 26.1468 15.52L26.0471 15.7993C25.8224 16.4291 25.623 16.9879 25.4134 17.5467C25.3238 17.782 25.2348 18.0172 25.1458 18.2523L25.1456 18.2527C24.8112 19.1364 24.4781 20.0165 24.1201 20.88C24.0134 21.12 23.7468 21.4533 23.5334 21.4667C22.2797 21.5615 21.0343 21.6147 19.6854 21.6723ZM17.2496 10.8018C16.9308 10.4852 16.6041 10.1609 16.2668 9.82667C17.4031 9.75983 18.4526 9.69298 19.4658 9.62844L19.4659 9.62844L19.466 9.62843C20.2718 9.57711 21.0546 9.52725 21.8401 9.48C22.0668 9.46667 22.3734 9.50667 22.5201 9.65334C23.546 10.6484 24.556 11.6514 25.6535 12.7412L25.6538 12.7414C25.9827 13.068 26.3194 13.4024 26.6668 13.7467L25.9367 13.793L25.9366 13.793C24.1344 13.9076 22.5339 14.0094 20.9334 14.08C20.7201 14.0933 20.4534 13.96 20.2934 13.8C19.2977 12.835 18.3177 11.8622 17.2502 10.8023L17.2497 10.8019L17.2496 10.8018ZM12.1033 19.5488L12.1032 19.5488L12.1032 19.5488C12.0173 19.4016 11.9315 19.2548 11.8533 19.1067C11.8133 19.12 11.77 19.1367 11.7267 19.1533C11.6833 19.17 11.64 19.1867 11.6 19.2C11.6 19.2612 11.5971 19.3253 11.5942 19.3905L11.5942 19.3905V19.3905V19.3905C11.5882 19.5238 11.5821 19.6613 11.6 19.7867C12.1067 23.1733 12.6133 26.56 13.16 29.9467C13.3733 31.2533 14.5067 31.6267 15.5467 30.7867C18.1867 28.6533 20.8267 26.5067 23.4533 24.3467C23.5808 24.2486 23.6795 24.1216 23.7758 23.9977L23.7759 23.9975L23.7759 23.9975C23.8105 23.953 23.8448 23.9089 23.88 23.8667L23.72 23.6267C23.57 23.6844 23.4166 23.7376 23.2632 23.7909L23.2631 23.791C22.8846 23.9224 22.5053 24.0541 22.1733 24.2533C21.0858 24.9042 20.0136 25.5805 18.9409 26.2571L18.9408 26.2572L18.9407 26.2572L18.9404 26.2574L18.9402 26.2575C18.2771 26.6758 17.6138 27.0941 16.9467 27.5067C15.8267 28.2 14.6533 27.7333 14.2933 26.4667C14.1168 25.8487 13.9428 25.2281 13.7686 24.6064C13.3904 23.2565 13.0108 21.902 12.6 20.56C12.4894 20.2097 12.2959 19.8785 12.1033 19.5488L12.1033 19.5488ZM14.6667 31.6933C16.7734 31.0533 25.8801 31.1067 26.8534 31.8267C23.3181 32.2158 19.9682 32.0116 16.6491 31.8093L16.6491 31.8093L16.6482 31.8093C15.9869 31.769 15.3268 31.7288 14.6667 31.6933Z" fill="white"/>
</g>
<defs>
<clipPath id="clip0_18018_1210">
<rect width="40" height="40" fill="white"/>
</clipPath>
</defs>
</svg>
