<svg width="40" height="40" viewBox="0 0 40 40" fill="none" xmlns="http://www.w3.org/2000/svg">
<g clip-path="url(#clip0_18018_1478)">
<path fill-rule="evenodd" clip-rule="evenodd" d="M2.7334 30.0534V10.04L20.0667 0.0400391L37.4001 10.04V30.0534L20.0667 40.0667L2.7334 30.0534ZM18.4401 25.3468H31.6934L31.6801 31.9468H18.3734C12.0534 31.2801 7.08008 25.7068 7.08008 18.9468C7.08008 11.7334 12.7201 5.89343 19.6534 5.89343C26.5867 5.89343 32.2134 11.7201 32.2134 18.9468C32.2134 20.1868 32.0667 21.4001 31.7467 22.5334C31.6934 22.7334 31.5334 22.8534 31.3334 22.8534H25.4934C25.1467 22.8534 24.9601 22.4934 25.1334 22.1868C25.6667 21.2268 25.9734 20.1334 25.9734 18.9468C25.9734 15.3334 23.1601 12.4134 19.6934 12.4134C16.2267 12.4134 13.4134 15.3468 13.4134 18.9468C13.4134 22.1068 15.5867 24.7334 18.4401 25.3468Z" fill="white"/>
</g>
<defs>
<clipPath id="clip0_18018_1478">
<rect width="40" height="40" fill="white"/>
</clipPath>
</defs>
</svg>
