<svg width="40" height="40" viewBox="0 0 40 40" fill="none" xmlns="http://www.w3.org/2000/svg">
<path fill-rule="evenodd" clip-rule="evenodd" d="M2.67188 29.9922V9.99219L20 0L37.3281 9.99219V29.9922L20 40L2.67188 29.9922ZM29.4999 20.687C26.1249 22.1546 23.5936 24.0905 21.7811 29.2272C21.7186 29.477 21.1561 29.5706 20.5311 29.5863C20.274 29.597 20.0096 29.593 19.773 29.5894H19.7729C19.6645 29.5878 19.5619 29.5863 19.4686 29.5863C14.3749 29.3208 10.328 25.0585 10.4061 19.8751C10.4843 14.7697 14.6093 10.5855 19.7186 10.4294C24.1093 10.3044 27.8749 13.1304 29.1405 17.0804C29.1874 17.2365 29.0936 17.3927 28.953 17.4239L25.6874 18.1889C25.5624 18.2201 25.4218 18.1421 25.3749 18.0172C24.5624 15.847 22.4686 14.2857 19.9999 14.2857C16.3436 14.2857 13.4843 17.7205 14.4686 21.5301C14.953 23.388 16.3749 24.8712 18.203 25.4489V22.904C18.203 22.7166 18.3593 22.5605 18.5468 22.5605H21.453C21.6405 22.5605 21.7968 22.7166 21.7968 22.904V24.3716C23.7811 22.6073 26.2655 21.171 29.4686 20.5621C29.5624 20.5777 29.5624 20.6401 29.4999 20.687ZM19.9688 21.7642C20.9784 21.7642 21.7969 20.9464 21.7969 19.9376C21.7969 18.9287 20.9784 18.1109 19.9688 18.1109C18.9591 18.1109 18.1406 18.9287 18.1406 19.9376C18.1406 20.9464 18.9591 21.7642 19.9688 21.7642Z" fill="white"/>
</svg>
