<svg width="40" height="40" viewBox="0 0 40 40" fill="none" xmlns="http://www.w3.org/2000/svg">
<g clip-path="url(#clip0_18018_1433)">
<path fill-rule="evenodd" clip-rule="evenodd" d="M2.67993 30V10L19.9999 0L37.3199 10V30L19.9999 40L2.67993 30ZM16.8827 23.7453C16.8827 24.428 17.0534 24.9413 17.5654 25.4533C19.1027 26.9907 20.8107 27.6733 23.0307 27.5027C25.08 27.5027 26.8734 26.7347 28.3254 25.2827C29.7774 23.7453 30.5454 22.0373 30.5454 19.988C30.5454 17.9387 29.7774 16.1453 28.3254 14.6933C26.788 13.2413 25.08 12.4733 23.0307 12.4733C20.9814 12.4733 19.188 13.2413 17.736 14.6933L10.2214 22.208C9.70937 22.72 9.45337 23.3187 9.45337 23.916C9.45337 24.5987 9.62403 25.112 10.136 25.624C10.648 26.136 11.2467 26.392 11.844 26.392C12.5267 26.392 13.04 26.136 13.552 25.624L21.0667 18.1093C21.5787 17.5973 22.1774 17.3413 22.9454 17.3413C23.628 17.3413 24.312 17.5973 24.824 18.1093C25.336 18.6213 25.592 19.22 25.592 19.988C25.592 20.756 25.336 21.44 24.824 21.952C24.2267 22.464 23.628 22.72 22.86 22.72C22.092 22.72 21.408 22.464 20.896 21.952C20.4694 21.5253 19.8707 21.2693 19.2734 21.2693C18.676 21.2693 18.1627 21.5253 17.6507 22.0373C17.1387 22.5493 16.8827 23.148 16.8827 23.7453ZM10.136 20.6706L16.2853 14.3506L10.3067 14.7773L10.136 20.6706Z" fill="white"/>
</g>
<defs>
<clipPath id="clip0_18018_1433">
<rect width="40" height="40" fill="white"/>
</clipPath>
</defs>
</svg>
