<svg width="300" height="300" viewBox="0 0 300 300" fill="none" xmlns="http://www.w3.org/2000/svg">
<g clip-path="url(#clip0_602_36069)">
<path d="M280 74.7998V224.9L150 300L20 224.9V74.7998L150 -0.200195L280 74.7998ZM147.2 74.4551C134.579 74.0788 121.734 74.1501 109.307 74.2314C104.14 74.262 98.9743 74.293 93.8184 74.293C89.7506 74.293 89.333 74.7094 89.333 78.7363V225.183L90.1367 225.305C92.1097 225.62 93.5234 225.833 94.5811 225.833C95.5471 225.833 96.2184 225.65 96.7676 225.183C97.8761 224.237 97.876 222.559 97.876 219.233V86.4355C97.876 85.429 97.8763 84.3918 98.0186 84.1982C98.222 84.0457 99.3099 84.0449 100.357 84.0449C104.7 84.0449 109.032 84.0356 113.375 84.0254C124.124 83.9949 135.24 83.9637 146.162 84.1162C151.491 84.1874 157.766 84.4212 163.838 85.6416C185.032 89.8723 200.052 101.314 208.473 119.65C213.415 130.41 215.419 142.227 214.596 155.794C212.633 188.246 190.767 211.585 158.905 215.246C152.407 215.999 145.674 216.029 139.176 216.05C136.166 216.06 133.155 216.08 130.155 216.151C129.423 216.172 128.69 216.162 127.928 216.151H125.874V225.62H126.829C129.707 225.59 132.596 225.619 135.474 225.64C146.935 225.741 158.793 225.843 170.244 222.69C192.699 216.507 208.443 203.185 217.036 183.09C223.575 167.794 225.142 150.851 221.674 132.718L221.653 132.729C216.284 104.639 199.686 86.2629 172.319 78.127C165.089 75.971 156.638 74.7399 147.2 74.4551ZM151.359 91.9482C142.034 91.8059 132.566 91.8464 123.393 91.877C119.304 91.8871 115.205 91.9072 111.117 91.9072H107.334V225.468L109.145 225.56C109.744 225.6 110.283 225.63 110.822 225.62H113.101C114.483 225.62 115.246 225.549 115.815 224.979C116.456 224.329 116.447 223.413 116.416 221.756C116.416 221.308 116.396 220.8 116.396 220.2C116.416 182.45 116.426 142.237 116.354 102.26C116.355 101.192 116.477 100.582 116.741 100.317C117.006 100.063 117.596 99.941 118.552 99.9512C124.908 100.033 131.366 100.023 137.6 100.013C141.922 100.013 146.254 100.003 150.566 100.013C171.028 100.125 186.558 110.366 193.168 128.122C197.561 139.929 198.334 152.154 195.445 164.459C190.513 185.49 176.174 198.06 155.071 199.87C149.366 200.358 143.498 200.288 137.813 200.227C135.179 200.196 132.545 200.165 129.911 200.186H125.782V207.671L126.413 207.895C126.515 207.935 126.606 207.975 126.697 208.006V208.026C126.952 208.138 127.237 208.291 127.593 208.261C130.664 208.22 133.735 208.24 136.816 208.261C143.712 208.301 150.861 208.352 157.827 207.681C175.096 206.023 188.418 197.968 197.408 183.761C203.896 173.51 206.754 161.255 206.154 146.285C205.636 133.288 202.158 122.579 195.537 113.559C185.235 99.504 170.367 92.233 151.359 91.9482ZM154.776 110.792C150.007 110.436 145.146 110.486 140.438 110.537C138.343 110.557 136.247 110.578 134.162 110.567C132.515 110.557 130.867 110.567 129.118 110.567H125.62V111.514C125.62 112.704 125.609 113.853 125.589 114.972C125.558 117.717 125.528 120.321 125.69 122.914C125.802 124.602 126.586 126.453 127.634 127.521C133.064 133.002 138.78 138.453 143.712 143.121C144.637 143.996 144.831 144.606 144.566 145.837C143.448 151.003 145.828 156.353 150.363 158.854C155.153 161.498 161.286 160.613 164.937 156.749C168.781 152.681 169.431 146.569 166.522 141.881C163.604 137.172 157.94 135.108 152.743 136.847C151.401 137.294 150.81 137.172 149.854 136.216C145.553 131.914 141.129 127.653 136.705 123.564C135.505 122.456 135.139 121.358 135.495 119.812C137.387 119.812 139.268 119.792 141.149 119.771C145.807 119.731 150.637 119.68 155.346 119.863C162.648 120.148 168.394 123.677 171.964 130.084C179.255 143.172 179.286 156.556 172.065 169.878C171.059 171.739 169.401 173.264 167.651 174.892C166.95 175.542 166.248 176.194 165.587 176.865C164.926 177.546 164.407 177.688 163.278 176.753C156.119 170.834 148.929 165.068 142.848 160.207C141.739 159.322 141.454 158.569 141.708 157.115C142.644 151.542 139.98 146.61 134.742 144.24C129.84 142.023 124.186 143.335 120.646 147.505C117.158 151.634 116.833 157.43 119.854 161.936C123.057 166.726 128.488 168.576 133.715 166.654L133.735 166.645C135.251 166.085 136.024 166.41 137.193 167.366C140.275 169.888 143.377 172.4 146.479 174.912C151.065 178.624 155.651 182.337 160.187 186.1C161.275 187.005 162.303 187.452 163.432 187.452C164.174 187.452 164.947 187.259 165.821 186.893C173.662 183.526 179.347 178.004 182.703 170.479C188.266 158.01 188.622 145.145 183.761 132.26C178.859 119.263 168.841 111.839 154.776 110.792ZM130.013 151.217C132.26 151.308 133.959 153.139 133.888 155.376L133.898 155.387C133.827 157.563 131.854 159.322 129.729 159.261C127.491 159.19 125.863 157.39 125.935 155.081C125.965 153.932 126.403 152.915 127.155 152.213C127.847 151.562 128.793 151.217 129.82 151.217H130.013ZM156.363 144.271C158.539 144.291 160.401 146.121 160.411 148.277C160.421 150.393 158.55 152.285 156.394 152.325H156.322C154.207 152.325 152.305 150.515 152.244 148.41C152.214 147.342 152.62 146.315 153.403 145.521C154.186 144.728 155.245 144.271 156.333 144.271H156.363Z" fill="white"/>
</g>
<defs>
<clipPath id="clip0_602_36069">
<rect width="300" height="300" fill="white"/>
</clipPath>
</defs>
</svg>
