<svg width="40" height="40" viewBox="0 0 40 40" fill="none" xmlns="http://www.w3.org/2000/svg">
<g clip-path="url(#clip0_18018_1189)">
<path fill-rule="evenodd" clip-rule="evenodd" d="M2.7334 30.0533V10.04L20.0667 0.039978L37.4001 10.04V30.0533L20.0667 40.0666L2.7334 30.0533ZM18.6934 31.96V29.6267C23.9867 29.6267 28.3067 25.32 28.3067 20.0133C28.3067 14.72 24 10.4 18.6934 10.4V8.09332C25.28 8.09332 30.6267 13.4533 30.6267 20.0267C30.6267 26.6 25.2667 31.96 18.6934 31.96ZM18.6932 29.56C13.4399 29.56 9.15991 25.28 9.15991 20.0267C9.15991 14.7733 13.4399 10.4933 18.6932 10.4933V11.6533C14.0799 11.6533 10.3199 15.4133 10.3199 20.0267C10.3199 24.64 14.0799 28.4 18.6932 28.4V29.56ZM22.4134 21.9067C22.4134 23.9317 20.7718 25.5733 18.7467 25.5733C16.7217 25.5733 15.0801 23.9317 15.0801 21.9067C15.0801 21.5161 15.1412 21.1397 15.2543 20.7867H15.2534L15.2555 20.7828C15.3937 20.3532 15.609 19.9582 15.885 19.6141L18.6934 14.4L21.518 19.5056C22.0758 20.1489 22.4134 20.9884 22.4134 21.9067Z" fill="white"/>
</g>
<defs>
<clipPath id="clip0_18018_1189">
<rect width="40" height="40" fill="white"/>
</clipPath>
</defs>
</svg>
