<svg width="40" height="40" viewBox="0 0 40 40" fill="none" xmlns="http://www.w3.org/2000/svg">
<g clip-path="url(#clip0_18018_1359)">
<path fill-rule="evenodd" clip-rule="evenodd" d="M2.67993 30V10L19.9999 0L37.3199 10V30L19.9999 40L2.67993 30ZM12.1294 26.8987V12.284C12.1294 11.88 12.5907 11.6493 12.9134 11.892L19.7534 17.0187C19.9281 17.1493 20.1694 17.1493 20.3441 17.0173L27.0841 11.9013C27.4067 11.656 27.8707 11.8867 27.8707 12.292V16.0107C27.8707 16.1627 27.8001 16.3067 27.6801 16.3987L20.3334 22.06C20.1654 22.1893 19.9321 22.196 19.7561 22.076L16.9454 20.1467C16.6201 19.9227 16.1774 20.156 16.1774 20.5507V24.384C16.1774 24.5307 16.1121 24.6707 15.9974 24.7627L12.9307 27.2773C12.6107 27.54 12.1294 27.312 12.1294 26.8987ZM24.06 21.3307L21.8134 22.984C21.556 23.1733 21.5454 23.5547 21.792 23.7573L27.068 28.0947C27.388 28.3573 27.8694 28.1307 27.8694 27.716V24.1333C27.8694 23.984 27.8014 23.8427 27.684 23.7493L24.6547 21.3413C24.4814 21.204 24.2374 21.1987 24.0587 21.3307H24.06Z" fill="white"/>
</g>
<defs>
<clipPath id="clip0_18018_1359">
<rect width="40" height="40" fill="white"/>
</clipPath>
</defs>
</svg>
