<svg width="40" height="40" viewBox="0 0 40 40" fill="none" xmlns="http://www.w3.org/2000/svg">
<g clip-path="url(#clip0_18018_1570)">
<path fill-rule="evenodd" clip-rule="evenodd" d="M2.66724 29.9941V9.99336L20 0L37.3329 9.99336V29.9941L20 40.0016L2.66724 29.9941ZM28.6531 12.4448V13.8174H14.7594C14.4656 13.8174 14.1735 13.8174 13.9063 14.0032C13.3203 14.417 13.2531 15.2164 13.7735 15.7083C14.2104 16.1203 14.6484 16.5324 15.0866 16.9446C16.0931 17.8916 17.0999 18.8388 18.0938 19.7853C18.6797 20.3318 19.2531 20.9048 19.8 21.4779C20.1196 21.8107 20.2677 22.2544 20.409 22.6776L20.4266 22.7302C20.6 23.2892 20.7063 23.8763 20.6672 24.4759C20.5203 26.5277 19.5469 28.047 17.7078 28.9932C17.0141 29.3523 16.2672 29.5257 15.4813 29.4991C15.2612 29.4898 15.0405 29.4928 14.8123 29.4959C14.6954 29.4975 14.5765 29.4991 14.4547 29.4991V26.3809C14.4547 26.2482 14.5078 26.1951 14.6406 26.1951C14.7858 26.1951 14.9306 26.1916 15.0771 26.1882C15.227 26.1846 15.3787 26.181 15.5344 26.181C16.3344 26.181 16.9875 25.608 17.2281 24.9553C17.5078 24.1699 17.2953 23.3704 16.7078 22.8364C15.375 21.6372 14.0547 20.438 12.7344 19.2247C12.6553 19.1518 12.5759 19.079 12.4965 19.006L12.4962 19.0058L12.4962 19.0058C12.0528 18.5988 11.6061 18.1887 11.1875 17.7585C10.6406 17.1854 10.3203 16.4796 10.1735 15.7067C9.81409 13.7611 10.7063 11.9358 12.4141 11.0036C13.0281 10.671 13.6938 10.4977 14.4 10.4977H28.6406V11.483L28.6531 12.4448ZM18.0531 18.3612H28.639V21.6528H21.5718C21.3578 21.6528 21.225 21.5997 21.1187 21.4123C20.795 20.8596 20.3192 20.4373 19.8477 20.0189L19.8476 20.0188C19.7957 19.9727 19.7438 19.9267 19.6921 19.8805C19.4453 19.6541 19.1953 19.4308 18.9453 19.2075C18.6953 18.9842 18.4453 18.7609 18.1984 18.5345C18.1723 18.5084 18.1468 18.4771 18.114 18.4369L18.114 18.4369C18.0958 18.4146 18.0755 18.3896 18.0515 18.3612H18.0531Z" fill="white"/>
</g>
<defs>
<clipPath id="clip0_18018_1570">
<rect width="40" height="40" fill="white"/>
</clipPath>
</defs>
</svg>
