<svg width="300" height="300" viewBox="0 0 300 300" fill="none" xmlns="http://www.w3.org/2000/svg">
<g clip-path="url(#clip0_602_36126)">
<path d="M280 74.7998V224.9L150 300L20 224.9V74.7998L150 -0.200195L280 74.7998ZM150 74.167C108.097 74.167 74.167 108.097 74.167 150C74.167 173.299 84.7088 194.118 101.187 208.115V150C101.187 123.069 122.98 101.276 149.911 101.275C176.843 101.275 198.636 123.069 198.636 150C198.636 176.931 176.843 198.725 149.911 198.725C139.989 198.725 130.687 195.712 122.979 190.574L122.892 220.872C131.308 224.061 140.432 225.833 150 225.833C191.903 225.833 225.833 191.903 225.833 150C225.833 108.097 191.903 74.167 150 74.167ZM149.999 123.954C135.614 123.954 123.953 135.615 123.953 150C123.953 164.384 135.615 176.045 149.999 176.045C164.383 176.045 176.045 164.384 176.045 150C176.045 135.615 164.384 123.954 149.999 123.954Z" fill="white"/>
</g>
<defs>
<clipPath id="clip0_602_36126">
<rect width="300" height="300" fill="white"/>
</clipPath>
</defs>
</svg>
