<svg width="40" height="40" viewBox="0 0 40 40" fill="none" xmlns="http://www.w3.org/2000/svg">
<g clip-path="url(#clip0_18018_1628)">
<path fill-rule="evenodd" clip-rule="evenodd" d="M2.66675 29.9867V9.97339L20.0001 -0.0266113L37.3334 9.97339V29.9867L20.0001 40.0001L2.66675 29.9867ZM9.70659 17.7999C13.6799 19.4399 16.9866 21.9066 19.8666 25.0666C19.9733 25.1866 20.1599 25.1866 20.2533 25.0799C23.1466 21.9066 26.4666 19.4266 30.4533 17.7866C30.6133 17.7199 30.7866 17.8399 30.7866 18.0132V22.5466C30.7866 22.7066 30.6666 22.8532 30.5066 22.8932C30.1155 22.9821 29.7274 23.0695 29.3392 23.1569C28.5629 23.3317 27.7866 23.5066 26.9866 23.6932C26.8533 23.7199 26.7866 23.8532 26.8399 23.9732C27.2052 24.8201 27.5499 25.6359 27.8964 26.4562C28.1063 26.9532 28.3169 27.4518 28.5333 27.9599C28.5999 28.1066 28.4799 28.2799 28.3199 28.2799H27.6799C27.4587 28.2799 27.2374 28.2777 27.0164 28.2755C26.4651 28.2701 25.9158 28.2647 25.3733 28.2932C24.9999 28.3199 24.8399 28.1732 24.7199 27.8399C24.5187 27.2937 24.2968 26.7612 24.0641 26.203C23.9731 25.9845 23.8804 25.762 23.7866 25.5332C23.7466 25.4266 23.6133 25.3866 23.5199 25.4532C22.4933 26.1466 21.5066 26.8132 20.5333 27.4799C20.2399 27.6799 19.8533 27.6799 19.5599 27.4799C19.0448 27.1275 18.5297 26.7785 18.0093 26.4259C17.506 26.0849 16.9978 25.7406 16.4799 25.3866C16.3999 25.3332 16.2933 25.3732 16.2533 25.4532C16.1346 25.7453 16.0159 26.028 15.8994 26.3056C15.6755 26.8391 15.4595 27.3537 15.2666 27.8799C15.1466 28.1999 14.9733 28.3066 14.6399 28.2932C13.9331 28.2733 13.2188 28.2757 12.4749 28.2782C12.2225 28.279 11.9667 28.2799 11.7066 28.2799C11.5866 28.2799 11.4933 28.1599 11.5466 28.0399C11.7045 27.6676 11.8614 27.2985 12.0178 26.9304C12.416 25.9936 12.8112 25.0638 13.2133 24.1066C13.2666 23.9866 13.2133 23.8266 13.0799 23.7732C11.9866 23.3199 10.8399 23.0932 9.66658 22.9732C9.47992 22.9466 9.33325 22.7866 9.33325 22.5999V18.0532C9.33325 17.8532 9.53325 17.7199 9.70659 17.7999ZM22.3466 21.2266C22.2399 21.3066 22.0799 21.2666 22.0266 21.1466C21.7904 20.5766 21.5561 20.0086 21.3208 19.438C20.9452 18.527 20.5668 17.6094 20.1733 16.6666C20.1066 16.5199 19.8933 16.5199 19.8266 16.6666C19.5463 17.3465 19.274 18.0131 19.0037 18.6747C18.6697 19.4921 18.3389 20.3019 17.9999 21.1199C17.9599 21.2266 17.8133 21.2666 17.7199 21.1866L15.5333 19.3866C15.3866 19.2666 15.3466 19.0799 15.4133 18.9066L15.4666 18.7999C15.8292 17.9413 16.1962 17.0826 16.5631 16.224C17.1135 14.9359 17.6639 13.6479 18.1999 12.3599C18.3866 11.9199 18.6399 11.8399 19.2399 11.9332C19.7999 12.0132 20.3599 12.0132 20.9199 11.9332C21.4666 11.8532 21.7199 11.8799 21.8799 12.2799C22.3399 13.3799 22.8066 14.48 23.2733 15.58C23.7399 16.68 24.2066 17.7799 24.6666 18.8799C24.7333 19.0132 24.6933 19.3066 24.5866 19.3999C24.0672 19.8424 23.5338 20.271 22.9866 20.7107C22.7754 20.8805 22.562 21.052 22.3466 21.2266Z" fill="white"/>
</g>
<defs>
<clipPath id="clip0_18018_1628">
<rect width="40" height="40" fill="white"/>
</clipPath>
</defs>
</svg>
