<svg width="40" height="40" viewBox="0 0 40 40" fill="none" xmlns="http://www.w3.org/2000/svg">
<g clip-path="url(#clip0_18018_1331)">
<path fill-rule="evenodd" clip-rule="evenodd" d="M2.7334 30.0533V10.04L20.0667 0.0399933L37.4001 10.04V30.0533L20.0667 40.0667L2.7334 30.0533ZM33.3066 21.0667C29.0133 24.2667 24.84 27.3733 20.4133 30.6667C20.4133 29.766 20.4124 28.8842 20.4116 28.0163C20.4091 25.4667 20.4067 23.0371 20.4266 20.6C20.4266 20.3733 20.64 20.1067 20.84 19.96C22.0151 19.0743 23.2017 18.1943 24.4113 17.2974C25.0408 16.8306 25.6765 16.3592 26.32 15.88L26.3214 15.8811C28.601 17.5741 30.8805 19.2671 33.3066 21.0667ZM14.0114 26.6311C11.5291 24.7864 9.06258 22.9534 6.54663 21.08C8.95996 19.28 11.2133 17.6 13.5333 15.9067C13.7735 16.0851 14.0135 16.2633 14.2532 16.4413C15.8767 17.647 17.4901 18.8451 19.0933 20.0533C19.2666 20.1733 19.4266 20.4267 19.4266 20.6267C19.44 23.88 19.44 27.1333 19.44 30.6667C17.6058 29.3022 15.8045 27.9636 14.0114 26.6311ZM24.0719 16.3623C22.8864 17.2399 21.699 18.119 20.4666 19.0267V9.44C22.6666 11.0667 24.7466 12.6 26.96 14.2267C25.9835 14.9471 25.0283 15.6542 24.0719 16.3623ZM19.3466 9.46667V19C17.2249 17.412 15.2302 15.9129 13.1394 14.3415L12.9866 14.2267C14.4388 13.142 15.8308 12.0995 17.2475 11.0384C17.9381 10.5213 18.6345 9.9997 19.3466 9.46667Z" fill="white"/>
</g>
<defs>
<clipPath id="clip0_18018_1331">
<rect width="40" height="40" fill="white"/>
</clipPath>
</defs>
</svg>
