<svg width="40" height="40" viewBox="0 0 40 40" fill="none" xmlns="http://www.w3.org/2000/svg">
<g clip-path="url(#clip0_18018_1200)">
<path fill-rule="evenodd" clip-rule="evenodd" d="M2.7334 30.0533V10.04L20.0667 0.039978L37.4001 10.04V30.0533L20.0667 40.0666L2.7334 30.0533ZM25.3652 18.1297C27.1169 16.0139 28.8743 13.891 30.6534 11.7466C30.416 11.7466 30.1854 11.7472 29.9602 11.7477H29.96H29.9598H29.9597C29.0844 11.7499 28.2914 11.7518 27.5067 11.72C27.12 11.72 26.88 11.8666 26.6534 12.1466C24.24 15.08 21.8134 18.0133 19.3867 20.9466C19.273 21.0914 19.1512 21.2201 19.0153 21.3638C18.9759 21.4055 18.9353 21.4484 18.8934 21.4933C18.7958 21.3795 18.707 21.2788 18.6244 21.1852L18.6241 21.1849L18.6239 21.1847C18.5035 21.0482 18.3961 20.9264 18.2934 20.8C16.6534 18.8133 15.0134 16.84 13.36 14.8666C13.2267 14.7066 13.04 14.4933 12.8667 14.4933C11.9898 14.4734 11.1128 14.4758 10.208 14.4783H10.208H10.2079C9.90218 14.4791 9.59323 14.48 9.28003 14.48V14.4933H9.27994V15.2667V23.52C9.27994 23.8304 9.27911 24.14 9.27827 24.4491V24.4492C9.27578 25.375 9.27329 26.2971 9.29328 27.2267C9.29328 27.4 9.43995 27.72 9.53328 27.72C10.2995 27.7519 11.0743 27.7499 11.8779 27.7477H11.878H11.8789H11.8799C12.0824 27.7472 12.2868 27.7467 12.4933 27.7467V27.7333H12.4934V18.4133C12.5133 18.4066 12.5366 18.3966 12.5599 18.3867L12.56 18.3866L12.56 18.3866C12.5833 18.3766 12.6066 18.3666 12.6266 18.36C14.0173 20.0252 15.402 21.6905 16.7965 23.3674C17.5012 24.2148 18.2083 25.0651 18.9199 25.92C19.7565 24.9064 20.5912 23.8959 21.4254 22.8867C22.7398 21.3009 24.0509 19.7173 25.3652 18.1297ZM25.4 27.72H28.52L28.5333 27.72C28.5222 24.7248 28.5203 21.7662 28.52 18.7228V16.8267L28.5199 16.8267V16.8267L28.5139 16.8342L28.1769 17.2491C27.2158 18.4325 26.3226 19.5323 25.44 20.6533C25.3467 20.7733 25.3467 20.9867 25.3467 21.16V27.3067C25.3467 27.4288 25.3691 27.5509 25.3933 27.6833L25.4 27.72Z" fill="white"/>
</g>
<defs>
<clipPath id="clip0_18018_1200">
<rect width="40" height="40" fill="white"/>
</clipPath>
</defs>
</svg>
