<svg width="40" height="40" viewBox="0 0 40 40" fill="none" xmlns="http://www.w3.org/2000/svg">
<g clip-path="url(#clip0_18018_1621)">
<path fill-rule="evenodd" clip-rule="evenodd" d="M2.67993 30V10L19.9999 0L37.3199 10V30L19.9999 40L2.67993 30ZM26.7161 27.2826H26.6867C26.2601 27.2679 25.8214 27.2653 25.3947 27.2679H25.3947C24.4081 27.2679 23.3934 27.2679 22.4121 27.0813C19.8521 26.5919 18.0227 24.9639 17.1214 22.3733C16.7961 21.4386 16.7654 20.3733 16.7414 19.5173C16.7024 18.1741 16.7065 16.8107 16.7104 15.4899V15.4899V15.4898L16.7107 15.3853L16.7119 14.9629V14.9628V14.9627C16.7131 14.5413 16.7144 14.1203 16.7134 13.6986V13.5306C16.7134 13.3226 16.7947 13.1266 16.9414 12.9786C17.0894 12.8306 17.2854 12.7493 17.4934 12.7493H20.0147C20.1881 12.7493 20.3281 12.8893 20.3281 13.0626V13.2039V13.5693C20.3241 14.2266 20.3187 14.8839 20.3134 15.5413C20.3014 16.9799 20.2894 18.4666 20.2974 19.9293C20.3081 21.8973 21.8521 23.5666 23.7414 23.6573V23.1799C23.7414 22.9872 23.7412 22.7962 23.7411 22.6063C23.7408 22.2298 23.7405 21.8579 23.7414 21.4866V21.0053C23.7387 19.9213 23.7361 18.7999 24.0881 17.6999C24.9947 14.8626 27.8027 12.7666 30.7627 12.7146C30.8134 12.7146 30.8654 12.7186 30.9307 12.7253L31.0147 12.7333C31.1774 12.7466 31.3014 12.8826 31.3014 13.0453V15.9586C31.3014 16.1013 31.2041 16.2266 31.0654 16.2626L31.0281 16.2733C30.9761 16.2893 30.9067 16.3106 30.8254 16.3186C28.7334 16.5213 27.3734 17.9999 27.3601 20.0866C27.3507 21.5453 27.3521 23.0279 27.3547 24.4626C27.3547 24.7866 27.3551 25.1103 27.3554 25.4339C27.3557 25.7576 27.3561 26.0813 27.3561 26.4053V26.9266C27.3561 27.0853 27.2374 27.2186 27.0801 27.2386C27.0507 27.2421 27.0235 27.2461 26.9975 27.2499L26.9971 27.25L26.9561 27.2559L26.9276 27.2602C26.8565 27.2709 26.7874 27.2813 26.7121 27.2813L26.7161 27.2826ZM15.5066 27.2654C15.4772 27.2654 15.4479 27.2641 15.4186 27.2601L15.3612 27.2534L15.3362 27.2505L15.3362 27.2505C14.9241 27.2036 14.5347 27.1593 14.1452 27.0547C11.8079 26.4254 10.1492 24.9681 9.21591 22.7227C8.97991 22.1561 8.77725 21.1694 8.76391 20.5214C8.72871 18.8116 8.71841 17.0745 8.7084 15.3885V15.3882L8.70658 15.0827L8.70288 14.4574C8.70051 14.0393 8.69814 13.6214 8.69458 13.2041C8.69458 13.1244 8.71441 13.0632 8.73038 13.014L8.73058 13.0134C8.73262 13.0059 8.73502 12.9984 8.73758 12.9904L8.73758 12.9904C8.74004 12.9827 8.74264 12.9745 8.74525 12.9654C8.78258 12.8281 8.90658 12.7334 9.04791 12.7334H11.5252C11.9559 12.7334 12.3052 13.0841 12.3066 13.5161V13.9867C12.3066 14.2523 12.3067 14.5155 12.3069 14.7772V14.7776V14.778V14.7784V14.7785V14.7787C12.3072 15.2981 12.3075 15.8115 12.3066 16.3254C12.3066 16.6601 12.3092 16.9961 12.3119 17.3307C12.3199 18.1401 12.3266 18.9761 12.2746 19.8001C12.2132 20.7681 12.5692 21.7201 13.2759 22.4814C13.9572 23.2147 14.8799 23.6574 15.7466 23.6654C15.8106 23.6654 15.864 23.677 15.9191 23.6889L15.9399 23.6934C15.9666 23.7001 15.9972 23.7067 16.0346 23.7134C16.1826 23.7414 16.2892 23.8707 16.2892 24.0214V26.4854C16.2892 26.7067 16.1946 26.9187 16.0292 27.0667C15.8852 27.1947 15.6986 27.2654 15.5079 27.2654H15.5066Z" fill="white"/>
</g>
<defs>
<clipPath id="clip0_18018_1621">
<rect width="40" height="40" fill="white"/>
</clipPath>
</defs>
</svg>
