<svg width="40" height="40" viewBox="0 0 40 40" fill="none" xmlns="http://www.w3.org/2000/svg">
<g clip-path="url(#clip0_18018_1650)">
<path fill-rule="evenodd" clip-rule="evenodd" d="M2.66675 29.9867V9.97339L20.0001 -0.0266113L37.3334 9.97339V29.9867L20.0001 40.0001L2.66675 29.9867ZM25.8267 32.1201L18.4667 24.7601C18.9067 24.8534 19.44 24.9334 19.9467 24.9334C23.5334 24.9334 26.5067 21.9468 26.5067 18.3734C26.5067 14.8001 23.52 11.8934 19.9467 11.8934C16.3734 11.8934 13.3867 14.8801 13.3867 18.4534C13.3867 18.9868 13.48 19.5068 13.56 19.9334L9.53336 15.9068C10.6667 11.1734 14.8667 7.77344 19.9467 7.77344C25.8934 7.77344 30.6267 12.5868 30.6267 18.4534C30.6267 21.8534 28.9734 24.9334 26.4267 26.9468L29.4134 29.9334L25.8267 32.1201ZM20.4 29.1601H19.96C14.0134 29.1601 9.28003 24.3468 9.28003 18.4801V18.0401L20.4 29.1601ZM19.8134 13.9068C19.7334 13.8134 19.6267 13.7734 19.4934 13.7734C19.2934 13.7734 19.1467 13.8668 19.0534 14.0668C18.9734 14.2401 19 14.4134 19.1467 14.5601C19.5736 14.9959 20.0064 15.4258 20.4373 15.8536L20.4377 15.8541L20.438 15.8544C20.6528 16.0677 20.8672 16.2806 21.08 16.4934C21.2667 16.6801 21.56 16.6668 21.7334 16.4934C21.92 16.3068 21.9334 16.0268 21.7467 15.8401C21.3195 15.404 20.8864 14.9739 20.4553 14.5458C20.2405 14.3324 20.0262 14.1196 19.8134 13.9068ZM17.1201 16.7066L18.9335 18.5199C19.1428 18.3106 19.3536 18.0983 19.5658 17.8847L19.5659 17.8846L19.5677 17.8828L19.5704 17.8801L19.5731 17.8773L19.5733 17.8771L19.5735 17.8769L19.5736 17.8768L19.5744 17.876C20.0081 17.4393 20.4478 16.9966 20.8935 16.5599L19.0801 14.7466L17.1201 16.7066ZM20.4001 17.3867L19.7334 18.0534C19.7467 18.0801 19.7734 18.1067 19.8001 18.1334C20.1401 18.5201 20.4834 18.9068 20.8268 19.2935C21.1701 19.6801 21.5134 20.0667 21.8534 20.4534C22.0067 20.6267 22.1634 20.8001 22.3201 20.9734C22.4768 21.1467 22.6334 21.3201 22.7867 21.4934C23.1334 21.8801 23.7201 21.8267 23.9867 21.4134C24.2001 21.0934 24.1334 20.6934 23.8401 20.4267C23.2801 19.9267 22.7167 19.4267 22.1534 18.9267C21.5901 18.4267 21.0267 17.9267 20.4667 17.4267L20.4667 17.4267C20.4401 17.4134 20.4134 17.4 20.4001 17.3867ZM17.8267 22.9867H15.5334C15.3068 22.9867 15.2534 22.9201 15.2534 22.7067V22.2534C15.2668 21.9334 15.5334 21.6667 15.8534 21.6667H19.8001C20.1201 21.6667 20.3868 21.9334 20.4001 22.2534V22.3867L20.4009 22.4275C20.4072 22.7198 20.4102 22.8631 20.3402 22.9317C20.2728 22.9976 20.1378 22.9945 19.873 22.9884L19.8001 22.9867H18.5868H17.8267ZM15.9199 21.4666H19.7199V21.1999C19.7066 20.8399 19.4399 20.5732 19.0933 20.5732H16.5466C16.2799 20.5732 16.0399 20.7332 15.9733 20.9866C15.9434 21.096 15.9358 21.2204 15.9284 21.3429C15.9258 21.3846 15.9233 21.426 15.9199 21.4666ZM16.5867 16.6799C16.72 16.6799 16.8267 16.7199 16.9067 16.8133L18.8267 18.7333C19.0134 18.9199 19 19.2133 18.8267 19.3866C18.64 19.5599 18.36 19.5733 18.1734 19.3866L16.2534 17.4666C16.1067 17.3199 16.08 17.1466 16.16 16.9599C16.24 16.7733 16.3867 16.6799 16.5867 16.6799Z" fill="white"/>
</g>
<defs>
<clipPath id="clip0_18018_1650">
<rect width="40" height="40" fill="white"/>
</clipPath>
</defs>
</svg>
