<svg width="40" height="40" viewBox="0 0 40 40" fill="none" xmlns="http://www.w3.org/2000/svg">
<g clip-path="url(#clip0_18018_1640)">
<path fill-rule="evenodd" clip-rule="evenodd" d="M2.66675 9.97339V29.9867L20.0001 40.0001L37.3334 29.9867V9.97339L20.0001 -0.0266113L2.66675 9.97339ZM25.8267 32.1201L18.4667 24.7601C18.9067 24.8534 19.44 24.9334 19.9467 24.9334C23.5334 24.9334 26.5067 21.9468 26.5067 18.3734C26.5067 14.8001 23.52 11.8934 19.9467 11.8934C16.3734 11.8934 13.3867 14.8801 13.3867 18.4534C13.3867 18.9868 13.48 19.5068 13.56 19.9334L9.53336 15.9068C10.6667 11.1734 14.8667 7.77344 19.9467 7.77344C25.8934 7.77344 30.6267 12.5868 30.6267 18.4534C30.6267 21.8534 28.9734 24.9334 26.4267 26.9468L29.4134 29.9334L25.8267 32.1201ZM20.4 29.1601H19.96C14.0134 29.1601 9.28003 24.3468 9.28003 18.4801V18.0401L20.4 29.1601ZM16.0904 17.5458C16.0917 17.3946 16.093 17.2434 16.0933 17.0922L16.0933 17.0399L16.0933 16.9859C16.0933 16.4572 16.0924 15.9286 16.0667 15.3999C16.0667 15.3199 16.0933 15.2932 16.16 15.2666C16.78 15.0399 17.4001 14.8166 18.0201 14.5932C18.6401 14.3699 19.26 14.1466 19.88 13.9199C19.9033 13.9121 19.9357 13.9089 19.9667 13.9102C19.9976 13.9089 20.03 13.9121 20.0533 13.9199C21.0312 14.2669 22.0007 14.6222 22.975 14.9792C23.2363 15.0749 23.4978 15.1707 23.76 15.2666C23.84 15.2932 23.8666 15.3199 23.8666 15.4132V18.3866C23.88 19.9599 23.1866 21.1599 21.9333 22.0666C21.3733 22.4666 20.7467 22.7732 20.08 22.9599C20.0334 22.9716 19.9868 22.9832 19.9403 22.9682C19.9246 22.9666 19.909 22.9638 19.8933 22.9599C18.68 22.5866 17.6133 21.9599 16.8533 20.9066C16.3467 20.1999 16.1067 19.4132 16.0933 18.5599C16.0844 18.2221 16.0874 17.8844 16.0904 17.5466L16.0904 17.5458ZM22.1201 17.3867L21.6668 16.9333C21.1438 17.4475 20.6267 17.9675 20.1037 18.4934C19.84 18.7586 19.5749 19.0252 19.3068 19.2934L18.2668 18.2533L17.8401 18.68L19.3334 20.1733L22.1201 17.3867Z" fill="white"/>
</g>
<defs>
<clipPath id="clip0_18018_1640">
<rect width="40" height="40" fill="white"/>
</clipPath>
</defs>
</svg>
