<svg width="300" height="300" viewBox="0 0 300 300" fill="none" xmlns="http://www.w3.org/2000/svg">
<g clip-path="url(#clip0_602_36090)">
<path d="M280 74.7998V224.9L150 300L20 224.9V74.7998L150 -0.200195L280 74.7998ZM89.333 225.833H145.506C148.858 225.833 162.44 225.419 177.111 219.169C199.811 209.506 215.492 190.926 218.905 165.763L189.472 163.885C184.736 198.832 149.434 197.833 145.445 197.661H117.143V102.34H140.892V74.1777H89.333V225.833ZM182.282 120.223C187.442 127.654 190.057 137.571 190.057 149.678C190.057 150.728 190.027 151.747 189.986 152.757L218.825 154.312H218.835C218.896 152.909 218.926 151.464 218.926 150C218.926 131.976 210.757 112.518 202.234 100.239L182.282 120.223ZM194.57 92.373C175.233 73.6624 153.463 74.0865 151.201 74.1875L151.332 102.33H151.07C151.462 102.33 164.644 102.373 175.354 112.74L194.57 92.373Z" fill="white"/>
</g>
<defs>
<clipPath id="clip0_602_36090">
<rect width="300" height="300" fill="white"/>
</clipPath>
</defs>
</svg>
