<svg width="40" height="40" viewBox="0 0 40 40" fill="none" xmlns="http://www.w3.org/2000/svg">
<g clip-path="url(#clip0_18018_1220)">
<path fill-rule="evenodd" clip-rule="evenodd" d="M2.7334 30.0533V10.04L20.0667 0.0400085L37.4001 10.04V30.0533L20.0667 40.0667L2.7334 30.0533ZM19.2534 8.76001H20.7468C20.8015 8.77096 20.854 8.7864 20.9061 8.80172C20.9809 8.82373 21.0548 8.84548 21.1334 8.85334C25.8134 9.38668 29.4668 12.44 30.7868 16.96C30.9343 17.4762 31.0244 18.0052 31.1144 18.5336L31.1145 18.5338C31.1547 18.7697 31.1948 19.0055 31.2401 19.24V20.7333L31.2272 20.7804L31.2272 20.7804C31.1918 20.909 31.1587 21.0292 31.1468 21.16C30.6268 25.7733 27.5468 29.4533 23.0934 30.7467C22.5903 30.8879 22.0697 30.9824 21.5509 31.0765L21.5509 31.0765L21.5508 31.0765C21.2859 31.1246 21.0215 31.1726 20.7601 31.2267H19.2668L19.2197 31.2138C19.0912 31.1783 18.9709 31.1452 18.8401 31.1333C15.9334 30.8133 13.5068 29.5467 11.5868 27.36C11.2288 26.9496 10.9165 26.4992 10.605 26.0499C10.4409 25.8132 10.277 25.5767 10.1068 25.3467C10.3349 25.221 10.5581 25.1148 10.7713 25.0134L10.7714 25.0133C11.1689 24.8243 11.5317 24.6517 11.8268 24.4C12.8134 23.56 13.7334 22.6533 14.6534 21.7467C14.851 21.5515 15.0456 21.3537 15.2398 21.1562C16.1204 20.2609 16.995 19.3717 18.1201 18.76C19.5068 18.0133 20.9468 17.6933 22.4668 18.32C23.6134 18.8 24.2934 19.9067 24.0801 20.8933C22.9468 19.36 21.4534 19.56 20.4134 20.3333C18.7868 21.5467 18.1334 23.2 18.4268 25.1867C18.6668 26.7733 19.6534 27.5733 21.2534 27.56C23.3734 27.5333 24.9601 26.4533 26.1468 24.8133C27.6668 22.72 27.9468 20.3333 27.3468 17.8667C26.4534 14.1467 23.3201 12.1733 19.7868 12.28C17.6934 12.3467 15.9201 13.2267 14.4401 14.6667C13.8051 15.2867 13.2162 15.957 12.6264 16.6283C12.1635 17.1551 11.7001 17.6825 11.2134 18.1867C10.6836 18.7348 10.1161 19.2391 9.54974 19.7425L9.54972 19.7426L9.54965 19.7426C9.28944 19.9739 9.02946 20.205 8.77344 20.44V19.24L8.78636 19.1929C8.82176 19.0644 8.85488 18.9442 8.86677 18.8133C9.38677 14.2133 12.4668 10.52 16.9201 9.22668C17.4153 9.08769 17.9217 8.99963 18.4321 8.91089C18.7052 8.86343 18.9793 8.81577 19.2534 8.76001ZM9.09326 21.4267C9.09326 21.4267 10.0533 21.12 11.3466 19.5333C12.6399 17.9467 16.5866 13.4133 20.5466 15.6133C20.5466 15.6133 21.4799 16.1467 21.7866 17.3867C21.7866 17.3867 19.0533 16.2533 16.4533 18.5467C13.8533 20.84 13.2933 21.6533 13.2933 21.6533C13.2933 21.6533 11.7733 23.52 9.77326 24.28C9.77326 24.2788 9.76917 24.2691 9.76158 24.2511L9.76156 24.2511C9.68474 24.0689 9.25099 23.0404 9.09326 21.4267Z" fill="white"/>
</g>
<defs>
<clipPath id="clip0_18018_1220">
<rect width="40" height="40" fill="white"/>
</clipPath>
</defs>
</svg>
