<svg width="40" height="40" viewBox="0 0 40 40" fill="none" xmlns="http://www.w3.org/2000/svg">
<g clip-path="url(#clip0_18018_1344)">
<path fill-rule="evenodd" clip-rule="evenodd" d="M2.67993 30V10L19.9999 0L37.3199 10V30L19.9999 40L2.67993 30ZM17.8934 12.1653C20.0561 11.5853 22.2494 11.9387 24.0481 12.976C25.8454 14.0133 27.2481 15.7373 27.8268 17.9C27.9281 18.2787 28.0014 18.6573 28.0468 19.0347C28.0641 19.1747 27.9721 19.3053 27.8348 19.3427L27.2974 19.4867L25.4214 19.9893L12.8721 23.352C12.7361 23.388 12.5908 23.3213 12.5348 23.192C12.3854 22.8427 12.2588 22.4773 12.1574 22.0987C12.0668 21.7573 11.9988 21.416 11.9521 21.076C11.9334 20.9347 12.0254 20.8013 12.1628 20.7653L24.3881 17.4893C24.5761 17.4387 24.6601 17.2187 24.5534 17.0547C24.0814 16.3227 23.4428 15.724 22.7054 15.2987C21.5028 14.604 20.0348 14.368 18.5868 14.756C17.1388 15.144 15.9854 16.0827 15.2908 17.2853C15.1801 17.4773 15.0801 17.676 14.9934 17.8813C14.9588 17.9627 14.8908 18.024 14.8054 18.0467L12.4028 18.6907C12.1961 18.7467 12.0041 18.5627 12.0481 18.352C12.2254 17.5013 12.5374 16.6893 12.9681 15.944C14.0054 14.1467 15.7294 12.744 17.8921 12.164L17.8934 12.1653ZM16.7214 24.332C16.9 24.4667 17.0854 24.5893 17.2787 24.7013C18.4814 25.396 19.9494 25.632 21.3974 25.244C22.8454 24.856 23.9987 23.9173 24.6934 22.7147C24.7734 22.576 24.848 22.432 24.916 22.2867C24.9654 22.18 25.0574 22.0987 25.172 22.068L27.3827 21.476C27.6694 21.3987 27.9387 21.6573 27.868 21.9453C27.684 22.688 27.396 23.3987 27.016 24.056C25.9787 25.8533 24.2547 27.256 22.092 27.8347C19.9294 28.4147 17.736 28.0613 15.9374 27.024C15.28 26.644 14.6747 26.1733 14.144 25.6213C13.9387 25.408 14.0427 25.0493 14.3294 24.972L16.72 24.3307L16.7214 24.332Z" fill="white"/>
</g>
<defs>
<clipPath id="clip0_18018_1344">
<rect width="40" height="40" fill="white"/>
</clipPath>
</defs>
</svg>
