<svg width="40" height="40" viewBox="0 0 40 40" fill="none" xmlns="http://www.w3.org/2000/svg">
<g clip-path="url(#clip0_18018_1252)">
<path fill-rule="evenodd" clip-rule="evenodd" d="M2.67993 30V10L19.9999 0L37.3199 10V30L19.9999 40L2.67993 30ZM20.2573 12.084C20.1507 11.872 19.848 11.872 19.7413 12.084L11.9547 27.6587C11.8587 27.8507 11.9987 28.076 12.212 28.076H15.7693C15.8787 28.076 15.98 28.0133 16.028 27.9147L19.74 20.3493C19.8453 20.1347 20.152 20.1347 20.2573 20.3493L23.9693 27.9147C24.0173 28.0133 24.1187 28.076 24.228 28.076H27.7853C28 28.076 28.1387 27.8507 28.0427 27.6587L20.256 12.084H20.2573ZM21.4427 27.6587C21.5387 27.8507 21.3987 28.076 21.1854 28.076H18.8174C18.6027 28.076 18.464 27.8507 18.56 27.6587L19.744 25.2907C19.8507 25.0787 20.1534 25.0787 20.26 25.2907L21.444 27.6587H21.4427Z" fill="white"/>
</g>
<defs>
<clipPath id="clip0_18018_1252">
<rect width="40" height="40" fill="white"/>
</clipPath>
</defs>
</svg>
