<svg width="40" height="40" viewBox="0 0 40 40" fill="none" xmlns="http://www.w3.org/2000/svg">
<g clip-path="url(#clip0_18018_1349)">
<path fill-rule="evenodd" clip-rule="evenodd" d="M2.67993 30V10L19.9999 0L37.3199 10V30L19.9999 40L2.67993 30ZM21.5147 11.8333C21.1401 11.8333 20.7694 11.9067 20.4227 12.0507C20.0774 12.1947 19.7627 12.404 19.4974 12.6693C19.2321 12.9333 19.0227 13.248 18.8787 13.5947C18.7347 13.9413 18.6614 14.312 18.6614 14.6867V19.2027H21.5121V14.6867H21.5147V11.8333ZM16.7227 14.8453C16.3481 14.8453 15.9774 14.9187 15.6307 15.0627C15.2854 15.2067 14.9707 15.416 14.7054 15.6813C14.4401 15.9453 14.2307 16.26 14.0867 16.6067C13.9427 16.9533 13.8694 17.324 13.8694 17.6987H13.8721V22.2067H13.8694V25.06C14.2441 25.06 14.6147 24.9867 14.9614 24.8427C15.3067 24.6987 15.6214 24.4893 15.8867 24.224C16.1521 23.96 16.3614 23.6453 16.5054 23.2987C16.6494 22.952 16.7227 22.5813 16.7227 22.2067V17.6987V14.8453ZM25.9161 16.6067C26.0601 16.9533 26.1334 17.324 26.1334 17.6987V22.2147V25.06C25.7587 25.06 25.3881 24.9867 25.0414 24.8427C24.6947 24.6987 24.3801 24.4893 24.1161 24.224C23.8507 23.9587 23.6414 23.644 23.4974 23.2987C23.3534 22.952 23.2801 22.5813 23.2801 22.2067H23.2827V17.6987H23.2801V14.8453C23.6547 14.8453 24.0254 14.9187 24.3721 15.0627C24.7174 15.2067 25.0321 15.416 25.2974 15.6813C25.5627 15.9453 25.7721 16.26 25.9161 16.6067ZM21.2987 26.4053C21.1547 26.7507 20.9454 27.0653 20.6801 27.3307C20.4161 27.596 20.1014 27.8053 19.7547 27.9493C19.4081 28.0933 19.0374 28.1667 18.6627 28.1667V25.3133H18.6614V20.7973H21.5121V25.3133H21.5161C21.5161 25.688 21.4427 26.0587 21.2987 26.4053Z" fill="white"/>
</g>
<defs>
<clipPath id="clip0_18018_1349">
<rect width="40" height="40" fill="white"/>
</clipPath>
</defs>
</svg>
