<svg width="40" height="40" viewBox="0 0 40 40" fill="none" xmlns="http://www.w3.org/2000/svg">
<path fill-rule="evenodd" clip-rule="evenodd" d="M2.67993 30V10L19.9999 0L37.3199 10V30L19.9999 40L2.67993 30ZM12.82 11.8253H19.288C23.952 11.8253 27.4333 15.4173 27.4333 20.0427C27.4333 24.1573 24.6787 27.4533 20.788 28.132C20.7093 28.1453 20.6293 28.12 20.572 28.064L18.0533 25.592C17.892 25.4347 18.004 25.1613 18.2293 25.1613H19.2893C22.2133 25.1613 24.244 23.072 24.244 20.044C24.244 17.016 22.2133 14.9253 19.2893 14.9253H16.1573C16.0187 14.9253 15.9053 15.0373 15.9053 15.1773V22.8853C15.9053 23.108 15.6373 23.2213 15.4773 23.0653L12.5693 20.212V12.0787C12.5693 11.94 12.6813 11.8267 12.8213 11.8267L12.82 11.8253ZM18.5974 27.7427C18.7588 27.9 18.6481 28.1747 18.4228 28.1747H12.8201C12.6814 28.1747 12.5681 28.0627 12.5681 27.9227V22.4813C12.5681 22.2587 12.8348 22.1453 12.9948 22.3013L18.5974 27.7427Z" fill="white"/>
</svg>
