<svg width="40" height="40" viewBox="0 0 40 40" fill="none" xmlns="http://www.w3.org/2000/svg">
<g clip-path="url(#clip0_18018_1230)">
<path fill-rule="evenodd" clip-rule="evenodd" d="M2.7334 30.0533V10.04L20.0667 0.0400085L37.4001 10.04V30.0533L20.0667 40.0667L2.7334 30.0533ZM20.0401 12.12C16.3601 12.12 13.2934 14.6933 12.5467 18.1467L12.3201 18C10.9867 16.7333 9.32007 17.8933 9.32007 17.8933C10.1601 12.8 14.6001 8.92001 19.9334 8.92001C19.9334 8.92001 21.5467 9.00001 21.5201 10.5067C21.4934 12.0133 20.0401 12.12 20.0401 12.12ZM21.7466 9.06668C26.8266 9.93335 30.6933 14.36 30.6933 19.68C30.6933 19.68 30.8533 21.1467 29.32 21.1867C27.8 21.2133 27.6933 19.7867 27.6933 19.7867C27.6933 15.9867 24.9333 12.84 21.3066 12.2267L21.5066 12.0533C23.1333 10.7467 21.7466 9.06668 21.7466 9.06668ZM28.1199 26.6533C29.3332 25.2267 30.1732 23.4933 30.5199 21.5733L30.2266 21.68C28.7599 22.44 27.5732 21.1733 27.5732 21.1733C27.3599 22.3333 26.8932 23.4 26.2266 24.3067L28.1199 26.6533ZM20.0266 27.4533C15.7866 27.4533 12.3599 24.0267 12.3599 19.7867C12.3599 19.7867 12.5466 18.16 10.9066 18.16C9.26658 18.16 9.15991 19.6933 9.15991 19.6933C9.15991 25.6267 13.9732 30.4533 19.9199 30.4533C21.6532 30.4533 23.2799 30.04 24.7332 29.32L22.7066 26.9733C21.8666 27.28 20.9732 27.4533 20.0266 27.4533ZM27.9466 31.1867C27.5199 31.1867 27.0799 31 26.7866 30.6533L19.6933 22.4C19.1466 21.76 19.2133 20.7867 19.8533 20.24C20.4933 19.6933 21.4666 19.76 22.0133 20.4L29.1066 28.6533C29.6533 29.2933 29.5866 30.2667 28.9466 30.8133C28.6533 31.0667 28.2933 31.1867 27.9466 31.1867Z" fill="white"/>
</g>
<defs>
<clipPath id="clip0_18018_1230">
<rect width="40" height="40" fill="white"/>
</clipPath>
</defs>
</svg>
