<svg width="36" height="40" viewBox="0 0 36 40" fill="none" xmlns="http://www.w3.org/2000/svg">
<path fill-rule="evenodd" clip-rule="evenodd" d="M0.666016 29.9867V9.97339L17.9993 -0.0266113L35.3327 9.97339V29.9867L17.9993 40.0001L0.666016 29.9867ZM16.466 24.7601L23.826 32.1201L27.4126 29.9334L24.426 26.9467C26.9726 24.9334 28.626 21.8534 28.626 18.4534C28.626 12.5867 23.8926 7.77344 17.946 7.77344C12.866 7.77344 8.66601 11.1734 7.53263 15.9067L11.5593 19.9334C11.4793 19.5067 11.386 18.9867 11.386 18.4534C11.386 14.8801 14.3726 11.8934 17.946 11.8934C21.5193 11.8934 24.506 14.8001 24.506 18.3734C24.506 21.9467 21.5326 24.9334 17.946 24.9334C17.4393 24.9334 16.906 24.8534 16.466 24.7601ZM17.9593 29.1601H18.3993L7.2793 18.0401V18.4801C7.2793 24.3467 12.0126 29.1601 17.9593 29.1601Z" fill="white"/>
</svg>
