<?xml version="1.0" encoding="UTF-8"?>
<svg id="Layer_6" data-name="Layer 6" xmlns="http://www.w3.org/2000/svg" viewBox="0 0 72 72">
  <defs>
    <style>
      .cls-1 {
        fill: #e2408e;
      }

      .cls-2 {
        fill: #039db7;
      }
    </style>
  </defs>
  <path class="cls-2" d="M36.00408,58.6499c12.51189,0,22.6499-10.13801,22.6499-22.6499s-10.13801-22.6499-22.6499-22.6499-22.6499,10.13801-22.6499,22.6499c0,.59892.02178,1.18694.06534,1.77497l-5.09623,1.50274c-.13067-1.07805-.19601-2.16698-.19601-3.2777,0-15.39758,12.47922-27.8768,27.8768-27.8768s27.8768,12.47922,27.8768,27.8768-12.47922,27.8768-27.8768,27.8768c-1.11072,0-2.19965-.06534-3.2777-.19601l1.50273-5.10712c.58803.04356,1.17605.06534,1.77497.06534v.01089ZM35.74274,53.423l1.55718-5.29224c6.13072-.65336,10.90026-5.83671,10.90026-12.13076,0-6.74052-5.45558-12.1961-12.1961-12.1961-6.29406,0-11.4774,4.76955-12.13076,10.90026l-5.29224,1.55718v-.26134c0-9.62621,7.79679-17.423,17.423-17.423s17.423,7.79679,17.423,17.423-7.79679,17.423-17.423,17.423h-.26134Z"/>
  <path class="cls-1" d="M12.37414,41.71692l22.30144-6.5554c1.31762-.39202,2.54811.83848,2.16699,2.16699l-6.5554,22.30144c-.44647,1.51362-2.52633,1.69874-3.23414.28312l-3.12525-6.23961c-.07623-.14156-.16334-.28312-.27223-.40291l-9.58265,9.58265c-1.36117,1.36117-3.57171,1.36117-4.93289,0s-1.36117-3.57171,0-4.93289l9.58265-9.58265c-.11978-.10889-.25046-.2069-.40291-.27223l-6.22872-3.11436c-1.41562-.70781-1.2305-2.78768.28312-3.23415Z"/>
</svg>