<?xml version="1.0" encoding="UTF-8"?>
<svg id="Layer_8" data-name="Layer 8" xmlns="http://www.w3.org/2000/svg" viewBox="0 0 72 72">
  <defs>
    <style>
      .cls-1 {
        fill: #e2408e;
      }

      .cls-2 {
        fill: #039db7;
      }
    </style>
  </defs>
  <path class="cls-1" d="M46.37866,44.64008h-3.89197l-.65948-1.77307c-.37836-1.01624-1.35138-1.68652-2.4325-1.68652h-6.77863c-1.08112,0-2.05408.67029-2.43256,1.68652l-.67023,1.77307h-3.89203c-1.91351,0-3.45953,1.54596-3.45953,3.45953v13.83826c0,1.91357,1.54602,3.45959,3.45953,3.45959h20.75739c1.91364,0,3.45959-1.54602,3.45959-3.45959v-13.83826c0-1.91357-1.54596-3.45953-3.45959-3.45953ZM36,60.20807c-2.86603,0-5.18933-2.32336-5.18933-5.18927,0-2.86609,2.3233-5.18939,5.18933-5.18939s5.18933,2.3233,5.18933,5.18939c0,2.86591-2.3233,5.18927-5.18933,5.18927Z"/>
  <path class="cls-2" d="M19.70797,56.25737c0,1.35171-1.08748,2.4392-2.4392,2.4392h-8.13077c-3.14049,0-5.69151-2.55102-5.69151-5.69151v-8.13077c0-1.35171,1.08748-2.4392,2.4392-2.4392s2.43925,1.08748,2.43925,2.4392v8.13077c0,.44719.36587.81307.81307.81307h8.13077c1.35171,0,2.4392,1.08748,2.4392,2.43925ZM3.44649,38.06238v-1.96396c0-1.36291,1.10489-2.4678,2.4678-2.4678s2.46785,1.10489,2.46785,2.4678v1.96396c0,1.36296-1.10489,2.46785-2.46785,2.46785s-2.4678-1.10489-2.4678-2.46785ZM42.42107,9.07042c0-1.36296,1.10489-2.46785,2.46785-2.46785h1.96396c1.36291,0,2.4678,1.10489,2.4678,2.46785s-1.10489,2.4678-2.4678,2.4678h-1.96396c-1.36296,0-2.46785-1.10489-2.46785-2.4678ZM3.44649,29.25792v-1.96396c0-1.36291,1.10489-2.4678,2.4678-2.4678s2.46785,1.10489,2.46785,2.4678v1.96396c0,1.36296-1.10489,2.46785-2.46785,2.46785s-2.4678-1.10489-2.4678-2.46785ZM22.67926,9.07042c0-1.36296,1.10489-2.46785,2.46785-2.46785h1.96396c1.36291,0,2.4678,1.10489,2.4678,2.46785s-1.10489,2.4678-2.4678,2.4678h-1.96396c-1.36296,0-2.46785-1.10489-2.46785-2.4678ZM32.55017,9.07042c0-1.36296,1.10489-2.46785,2.46785-2.46785h1.96396c1.36291,0,2.4678,1.10489,2.4678,2.46785s-1.10489,2.4678-2.4678,2.4678h-1.96396c-1.36296,0-2.46785-1.10489-2.46785-2.4678ZM19.70797,9.09902c0,1.35171-1.08748,2.4392-2.4392,2.4392h-8.13077c-.44719,0-.81307.36587-.81307.81307v8.13077c0,1.35177-1.08748,2.43925-2.43925,2.43925s-2.4392-1.08748-2.4392-2.43925v-8.13077c0-3.14049,2.55102-5.69151,5.69151-5.69151h8.13077c1.35171,0,2.4392,1.08748,2.4392,2.43925ZM68.55351,12.35128v8.13077c0,1.35177-1.08748,2.43925-2.43925,2.43925s-2.4392-1.08748-2.4392-2.43925v-8.13077c0-.44719-.36593-.81307-.81307-.81307h-8.13077c-1.35177,0-2.43925-1.08748-2.43925-2.4392s1.08748-2.43925,2.43925-2.43925h8.13077c3.14049,0,5.69151,2.55102,5.69151,5.69151ZM68.55351,27.29395v1.96396c0,1.36296-1.10489,2.46785-2.46785,2.46785s-2.4678-1.10489-2.4678-2.46785v-1.96396c0-1.36291,1.10489-2.4678,2.4678-2.4678s2.46785,1.10489,2.46785,2.4678ZM68.55351,44.87429v8.13077c0,3.14049-2.55102,5.69151-5.69151,5.69151h-8.13077c-1.35177,0-2.43925-1.08748-2.43925-2.4392s1.08748-2.43925,2.43925-2.43925h8.13077c.44714,0,.81307-.36587.81307-.81307v-8.13077c0-1.35171,1.08748-2.4392,2.4392-2.4392s2.43925,1.08748,2.43925,2.4392ZM68.55351,36.09842v1.96396c0,1.36296-1.10489,2.46785-2.46785,2.46785s-2.4678-1.10489-2.4678-2.46785v-1.96396c0-1.36291,1.10489-2.4678,2.4678-2.4678s2.46785,1.10489,2.46785,2.4678Z"/>
</svg>