<?xml version="1.0" encoding="UTF-8"?>
<svg id="Layer_9" data-name="Layer 9" xmlns="http://www.w3.org/2000/svg" viewBox="0 0 72 72">
  <defs>
    <style>
      .cls-1 {
        fill: #e2408e;
      }

      .cls-2 {
        fill: #039db7;
      }
    </style>
  </defs>
  <path class="cls-2" d="M61.19436,44.14674h-.8186c-1.39385,0-2.74349.37616-3.92712,1.10623l-7.17946,4.42496v-.22128c0-3.90499-3.17487-7.07986-7.07986-7.07986h-17.32352c-1.92483,0-3.80545.56418-5.40945,1.63721l-8.16401,5.44265h-4.50232c-1.47132,0-2.65495,1.18369-2.65495,2.65495s1.18364,2.65495,2.65495,2.65495h5.30991c.51991,0,1.03983-.15488,1.47126-.4425l8.83874-5.89617c.73012-.48677,1.58193-.74119,2.45586-.74119l-.01107-.01107h17.32352c.97348,0,1.77001.79647,1.77001,1.76995s-.79652,1.77001-1.77001,1.77001h-9.73481c-1.47126,0-2.6549,1.18364-2.6549,2.6549s1.18364,2.65495,2.6549,2.65495h15.04472c.49783,0,.97348-.14381,1.39385-.39823l10.34326-6.3608c.3429-.21021.74119-.32082,1.13943-.32082h.8186c.7522,0,1.36065.60845,1.36065,1.36065,0,.46463-.23229.885-.61946,1.13943l-10.57555,6.84757c-1.28324.84074-2.7877,1.28324-4.32536,1.28324H6.79003c-1.47132,0-2.65495,1.18364-2.65495,2.65495s1.18364,2.65495,2.65495,2.65495l40.24462.01107c2.55535,0,5.0665-.74119,7.2126-2.13504l10.57555-6.84757c1.89163-1.2279,3.04212-3.34081,3.04212-5.59753,0-3.68371-2.98684-6.67056-6.67056-6.67056Z"/>
  <path class="cls-1" d="M40.14418,22.10795c-2.52319-3.36733-1.86572-8.18767,1.46721-10.75612,3.33287-2.5685,8.07355-1.92187,10.59675,1.4454l1.51832,2.03314,2.00734-1.55223c3.33287-2.5685,8.07355-1.92187,10.59675,1.4454,2.52325,3.36733,1.86572,8.18767-1.46715,10.75617l-11.5207,8.89786c-.70306.5432-1.55185.7419-2.36854.63052-.81669-.11143-1.58127-.53021-2.11318-1.24187l-8.71679-11.65827ZM31.67869,29.20392c.10075.1437.2376.04438.96417-.17537.73889-.22933,2.77439-.93042,3.33621-.4522.57152.49049.01353,3.46145-.10124,3.94915-.11472.4877.18474.55514.49893.16962.29776-.36076.79526-1.24801,1.01994-2.42239.22183-1.18808.1677-2.74842-.1574-3.04639-.43385-.37572-2.18265-.09029-3.23403.25283-1.05549.35824-2.56406,1.36607-2.32657,1.72475ZM7.86383,33.71369c2.09275,1.68005,8.579,5.46347,15.74471,4.00119s10.64014-6.24263,11.02818-7.03608c.39495-.79488-.08251-1.10458-.54506-.7459-11.44077,8.58454-20.31786,5.16045-25.96684,3.13471-.35057-.14277-.83504.21322-.261.64608ZM28.93597,21.01379l-2.05841-10.08685c-.354-1.73486-2.8316-5.3006-8.85217-4.07208-6.0343,1.23145-8.46698,5.65637-7.77716,9.03693l5.13519-.56219c.42505-3.62244,3.02393-4.15271,3.02393-4.15271,2.78949-.57635,2.85126,1.54669,3.40125,4.24152-3.31427.80487-11.40601,3.43463-9.97876,10.42902,1.53223,7.50854,11.07867,5.8819,13.18738.39453.5885.60846,2.95221,2.07611,3.76123,2.57526l3.11121-4.63483s-2.56885-1.2829-2.95367-3.16858ZM17.49011,23.72809c-.66046-3.23663,2.66949-4.59473,4.9649-5.14166l.56812,2.78394c1.11945,5.48578-4.8222,5.84113-5.53302,2.35773Z"/>
</svg>