<?xml version="1.0" encoding="UTF-8"?>
<svg id="Layer_7" data-name="Layer 7" xmlns="http://www.w3.org/2000/svg" viewBox="0 0 72 72">
  <defs>
    <style>
      .cls-1 {
        fill: #e2408e;
      }

      .cls-2 {
        fill: #039db7;
      }
    </style>
  </defs>
  <path class="cls-2" d="M71.28679,62.78494c-.43263.98731-1.38667,1.61963-2.45162,1.61963-4.77015,0-9.59576-1.47542-13.61158-3.29473-.53246-.24406-1.06495-.4992-1.57525-.75435-1.67508.3328-3.42784.4992-5.22496.4992-9.30708,0-17.32361-4.66123-20.97269-11.37408,1.8859-.14696,3.70605-.63534,5.38741-1.43525,2.86897,4.25536,8.41606,7.48452,15.58529,7.48452,1.45321,0,2.86207-.14421,4.19327-.39936,1.15373-.22187,2.35182-.06656,3.40569.46592.45481.23296.92073.45483,1.39775.6656,1.77494.79872,3.64973,1.4976,5.53561,1.99681-.31062-.5103-.59906-1.0095-.87639-1.5087-.12201-.21077-.24405-.43264-.35498-.6545h-.0111c-1.08713-2.03008-.75433-4.52609.832-6.1901,2.36289-2.48492,3.62755-5.46904,3.62755-8.57518,0-5.39113-4.1455-10.84716-10.87494-13.11112-.03157-2.0015-.39274-3.95175-1.05753-5.7872,9.92888,2.18145,17.25728,9.8155,17.25728,18.89832,0,4.63703-1.90808,8.88579-5.09187,12.23598.09986.18859.21079.38827.31062.56577,1.14262,2.04118,2.47383,4.04908,4.06018,5.77964.73215.77654.92073,1.90806.51028,2.87318Z"/>
  <path class="cls-1" d="M3.71708,52.63451c-1.77673,0-3.21708,1.44033-3.21708,3.21708s1.44035,3.21708,3.21708,3.21708,3.21708-1.44033,3.21708-3.21708-1.44032-3.21708-3.21708-3.21708ZM14.97684,46.20035c-2.6651,0-4.82561,2.1605-4.82561,4.82561s2.16051,4.82561,4.82561,4.82561,4.82561-2.1605,4.82561-4.82561-2.1605-4.82561-4.82561-4.82561ZM37.8382,14.0296c-2.41278-3.86053-6.70557-6.43414-11.60156-6.43414s-9.18878,2.57361-11.60162,6.43414c-7.84161.19098-14.13501,6.59497-14.13501,14.47681,0,7.99243,6.48444,14.47687,14.47687,14.47687.94501,0,1.87994-.09045,2.77472-.27142,2.18158,2.15143,5.17749,3.48853,8.48505,3.48853s6.30347-1.3371,8.48505-3.48853c.90479.1709,1.82971.27142,2.77472.27142,7.99243,0,14.47681-6.48444,14.47681-14.47687,0-7.88184-6.2934-14.28583-14.13501-14.47681ZM37.4964,38.15765c-1.00537,0-1.98053-.15082-2.88531-.44232-.96515-.30164-2.01068.03015-2.63397.83441-1.32709,1.71912-3.40808,2.82501-5.74048,2.82501s-4.41345-1.1059-5.74048-2.82501c-.61328-.80426-1.66888-1.13605-2.63397-.83441-.90479.28149-1.88.44232-2.88531.44232-5.32831,0-9.65125-4.32294-9.65125-9.65125s4.32294-9.65118,9.65125-9.65118c.2915,0,.57306.01001.85449.04016,1.00537.09052,1.96045-.4624,2.39276-1.37726,1.41748-3.01605,4.47369-5.09711,8.01251-5.09711s6.59497,2.08105,8.01251,5.09711c.43231.91486,1.38739,1.46777,2.3927,1.37726.28149-.02008.56299-.04016.85455-.04016,5.32825,0,9.65118,4.32294,9.65118,9.65118s-4.32294,9.65125-9.65118,9.65125Z"/>
</svg>