<?xml version="1.0" encoding="UTF-8"?>
<svg id="Layer_1" data-name="Layer 1" xmlns="http://www.w3.org/2000/svg" viewBox="0 0 169.8 100">
  <defs>
    <style>
      .cls-1 {
        fill: none;
      }

      .cls-2 {
        fill: #e13f8d;
      }

      .cls-3 {
        fill: #029cb6;
      }

      .cls-4 {
        fill: #0d2661;
      }
    </style>
  </defs>
  <circle class="cls-1" cx="84.84" cy="25" r="14.1"/>
  <path class="cls-3" d="M69.84,45c4.19,3.12,9.38,5,15,5s10.81-1.88,15-5c6.06-4.56,10-11.81,10-20,0-13.81-11.19-25-25-25s-25,11.19-25,25c0,8.19,3.94,15.44,10,20ZM84.84,10.9c7.79,0,14.1,6.31,14.1,14.1s-6.31,14.1-14.1,14.1-14.1-6.31-14.1-14.1,6.31-14.1,14.1-14.1Z"/>
  <path class="cls-3" d="M100.72,79.98c0-5.9,2.21-11.27,5.85-15.35.96-1.08,2.04-2.06,3.19-2.94-1.73-.61-3.53-1.06-5.39-1.34-.19-.03-.41-.06-.59-.09-1.28-.16-2.59-.25-3.91-.25h-30c-1.31,0-2.62.09-3.91.25-.53.06-1.06.16-1.59.25-1.51.28-2.98.68-4.4,1.18,1.16.88,2.24,1.86,3.21,2.95h.05c3.65,4.08,5.85,9.45,5.85,15.35,0,4.25-3.43,7.68-7.68,7.68h-21.41c-.06.77-.1,1.56-.1,2.35,0,5.53,4.47,10,10,10h70c5.53,0,10-4.47,10-10,0-.79-.04-1.57-.1-2.35h-21.41c-4.25,0-7.68-3.43-7.68-7.68Z"/>
  <path class="cls-2" d="M22.98,45.44c3.21,2.4,7.2,3.84,11.51,3.84s8.3-1.44,11.51-3.84c4.65-3.5,7.68-9.07,7.68-15.35,0-10.6-8.59-19.19-19.19-19.19S15.3,19.49,15.3,30.09c0,6.28,3.02,11.85,7.68,15.35Z"/>
  <path class="cls-2" d="M59.97,61.68c-3.01-2.3-6.59-3.87-10.49-4.46-.14-.02-.31-.05-.46-.07-.98-.12-1.99-.19-3-.19h-23.03c-1.01,0-2.01.07-3,.19-.41.05-.82.12-1.22.19-5.11.94-9.62,3.57-12.93,7.29C2.21,68.7,0,74.08,0,79.98,0,84.22,3.43,87.65,7.68,87.65h32.32c.52-6.76,3.27-12.89,7.53-17.65,3.33-3.74,7.6-6.63,12.44-8.32Z"/>
  <path class="cls-4" d="M69.08,79.98c0-5.9-2.21-11.27-5.85-15.35h-.05c-.97-1.09-2.05-2.07-3.21-2.95-4.84,1.69-9.11,4.58-12.44,8.32-4.26,4.77-7.01,10.89-7.53,17.65h21.41c4.25,0,7.68-3.43,7.68-7.68Z"/>
  <path class="cls-2" d="M123.7,45.44c3.21,2.4,7.2,3.84,11.51,3.84s8.3-1.44,11.51-3.84c4.65-3.5,7.68-9.07,7.68-15.35,0-10.6-8.59-19.19-19.19-19.19s-19.19,8.59-19.19,19.19c0,6.28,3.02,11.85,7.68,15.35Z"/>
  <path class="cls-2" d="M163.95,64.63h-.05c-3.5-3.91-8.3-6.6-13.7-7.41-.14-.02-.31-.05-.46-.07-.98-.12-1.99-.19-3-.19h-23.03c-1.01,0-2.01.07-3,.19-.41.05-.82.12-1.22.19-3.62.66-6.93,2.2-9.74,4.35,4.82,1.69,9.09,4.57,12.45,8.31h.06c4.26,4.77,7.01,10.89,7.53,17.65h32.32c4.25,0,7.68-3.43,7.68-7.68,0-5.9-2.21-11.27-5.85-15.35Z"/>
  <path class="cls-4" d="M122.21,70c-3.36-3.75-7.63-6.63-12.45-8.31-1.15.88-2.23,1.86-3.19,2.94-3.65,4.08-5.85,9.45-5.85,15.35,0,4.25,3.43,7.68,7.68,7.68h21.41c-.52-6.76-3.27-12.89-7.53-17.65h-.06Z"/>
</svg>