<?xml version="1.0" encoding="UTF-8"?>
<svg id="Layer_1" data-name="Layer 1" xmlns="http://www.w3.org/2000/svg" viewBox="0 0 111.36 100">
  <defs>
    <style>
      .cls-1 {
        fill: none;
      }

      .cls-2 {
        fill: #e13f8d;
      }

      .cls-3 {
        fill: #029cb6;
      }

      .cls-4 {
        fill: #0d2661;
      }
    </style>
  </defs>
  <path class="cls-1" d="M41.58,35.47c0,7.79,6.31,14.1,14.1,14.1s14.1-6.31,14.1-14.1c0-5-2.61-9.38-6.54-11.89l-6.65,1.33c-.61.12-1.23.12-1.84,0l-6.64-1.33c-3.93,2.5-6.54,6.89-6.54,11.89Z"/>
  <path class="cls-2" d="M56.6,24.91l6.65-1.33c-2.19-1.39-4.78-2.21-7.56-2.21s-5.38.82-7.56,2.21l6.64,1.33c.61.12,1.23.12,1.84,0Z"/>
  <path class="cls-3" d="M69.78,35.47c0,7.79-6.31,14.1-14.1,14.1s-14.1-6.31-14.1-14.1c0-5,2.61-9.39,6.54-11.89l-12.83-2.57c-2.9,4.08-4.61,9.07-4.61,14.46,0,8.19,3.94,15.44,10,20,4.19,3.12,9.38,5,15,5s10.81-1.88,15-5c6.06-4.56,10-11.81,10-20,0-5.39-1.71-10.37-4.61-14.45l-12.83,2.57c3.93,2.5,6.54,6.89,6.54,11.89Z"/>
  <path class="cls-2" d="M15.05,16.91v14.02l-3.07,15.33c-.18.92.06,1.88.64,2.6.59.72,1.48,1.15,2.42,1.15h6.25c.94,0,1.82-.41,2.42-1.15.61-.74.84-1.68.64-2.6l-3.07-15.33v-12.72l13.99,2.8c4.53-6.38,11.97-10.54,20.39-10.54s15.87,4.17,20.39,10.55l19.59-3.92c2.19-.45,3.77-2.38,3.77-4.61s-1.58-4.16-3.77-4.59L56.6.09c-.61-.12-1.23-.12-1.84,0L15.69,7.9c-2.19.43-3.77,2.36-3.77,4.59,0,2.01,1.27,3.77,3.13,4.41Z"/>
  <path class="cls-3" d="M78.03,64.16c-2.13-.72-4.43.08-5.92,1.76l-14.08,15.82c-1.25,1.41-3.44,1.41-4.67,0l-14.08-15.84c-1.48-1.68-3.79-2.48-5.92-1.76h-.02c-12.44,4.22-21.41,16-21.41,29.87,0,3.32,2.7,6,6,6h75.52c3.32,0,6-2.7,6-6,0-13.87-8.97-25.65-21.41-29.85Z"/>
  <path class="cls-4" d="M55.68,10.47c-8.42,0-15.86,4.16-20.39,10.54l12.83,2.57c2.19-1.39,4.78-2.21,7.56-2.21s5.38.82,7.56,2.21l12.83-2.57c-4.53-6.38-11.97-10.55-20.39-10.55Z"/>
</svg>