<?xml version="1.0" encoding="UTF-8"?>
<svg id="Layer_1" data-name="Layer 1" xmlns="http://www.w3.org/2000/svg" viewBox="0 0 111.36 100">
  <defs>
    <style>
      .cls-1 {
        fill: none;
      }

      .cls-2 {
        fill: #304050;
      }

      .cls-3 {
        fill: #e13f8d;
      }

      .cls-4 {
        fill: #029cb6;
      }

      .cls-5 {
        fill: #0d2661;
      }
    </style>
  </defs>
  <circle class="cls-1" cx="63.52" cy="65.19" r="4.65" transform="translate(-13.28 16.34) rotate(-13.28)"/>
  <circle class="cls-1" cx="78.68" cy="65.19" r="4.65" transform="translate(-23.05 74.73) rotate(-45)"/>
  <circle class="cls-1" cx="93.84" cy="65.19" r="4.65" transform="translate(-18.61 85.45) rotate(-45)"/>
  <path class="cls-1" d="M59.65,8.02H14.41c-3.33,0-6.05,2.71-6.05,6.05v30.16c0,3.33,2.71,6.05,6.05,6.05h9.04v8.56l11.42-8.56h11.14v-.54c0-5.55,4.51-10.05,10.05-10.05h9.64V14.06c0-3.33-2.71-6.05-6.05-6.05ZM35.74,45.7c-1.85,0-3.31-1.5-3.31-3.3s1.46-3.31,3.31-3.31,3.3,1.46,3.3,3.31-1.5,3.3-3.3,3.3ZM38.25,35.47h-5.07c0-6.48,7.76-8.15,7.76-12.96,0-2.56-1.89-3.83-4.72-3.83s-4.85,1.45-5.73,4.05l-4.36-2.47c1.68-4.32,5.73-6.52,10.23-6.52,4.89,0,9.65,2.91,9.65,8.46,0,6.7-7.75,8.51-7.75,13.26Z"/>
  <path class="cls-4" d="M34.86,50.27l-11.42,8.56v-8.56h-9.04c-3.33,0-6.05-2.71-6.05-6.05V14.06c0-3.33,2.71-6.05,6.05-6.05h45.25c3.33,0,6.05,2.71,6.05,6.05v25.61h8.02V14.06C73.72,6.31,67.41,0,59.65,0H14.41C6.65,0,.34,6.31.34,14.06v30.16c0,7.75,6.31,14.06,14.06,14.06h1.02v3.53c0,2.51,1.39,4.75,3.62,5.84.93.45,1.92.68,2.9.68,1.38,0,2.75-.44,3.91-1.31l11.67-8.75h8.47v-8.02h-11.14Z"/>
  <path class="cls-2" d="M36.35,13.75c-4.5,0-8.55,2.2-10.23,6.52l4.36,2.47c.88-2.6,2.95-4.05,5.73-4.05s4.72,1.28,4.72,3.83c0,4.8-7.76,6.48-7.76,12.96h5.07c0-4.76,7.75-6.57,7.75-13.26,0-5.55-4.76-8.46-9.65-8.46Z"/>
  <path class="cls-2" d="M35.74,39.09c-1.85,0-3.31,1.46-3.31,3.31s1.46,3.3,3.31,3.3,3.3-1.5,3.3-3.3-1.5-3.31-3.3-3.31Z"/>
  <path class="cls-3" d="M46,49.73v.54h13.65c3.33,0,6.05-2.71,6.05-6.05v-4.55h-9.64c-5.55,0-10.05,4.51-10.05,10.05Z"/>
  <path class="cls-3" d="M101.3,39.67h-27.59v4.55c0,7.75-6.31,14.06-14.06,14.06h-13.65v21.6c0,5.55,4.51,10.05,10.05,10.05h23.46l12.74,9.55c.75.57,1.78.66,2.64.24.86-.42,1.38-1.29,1.38-2.25v-7.54h5.03c5.55,0,10.05-4.51,10.05-10.05v-30.16c0-5.55-4.51-10.05-10.05-10.05ZM63.52,69.84c-2.57,0-4.65-2.08-4.65-4.65s2.08-4.65,4.65-4.65,4.65,2.08,4.65,4.65-2.08,4.65-4.65,4.65ZM78.68,69.84c-2.57,0-4.65-2.08-4.65-4.65s2.08-4.65,4.65-4.65,4.65,2.08,4.65,4.65-2.08,4.65-4.65,4.65ZM93.84,69.84c-2.57,0-4.65-2.08-4.65-4.65s2.08-4.65,4.65-4.65,4.65,2.08,4.65,4.65-2.08,4.65-4.65,4.65Z"/>
  <path class="cls-5" d="M73.72,44.23v-4.55h-8.02v4.55c0,3.33-2.71,6.05-6.05,6.05h-13.65v8.02h13.65c7.75,0,14.06-6.31,14.06-14.06Z"/>
</svg>