<?xml version="1.0" encoding="UTF-8"?>
<svg id="Layer_1" data-name="Layer 1" xmlns="http://www.w3.org/2000/svg" viewBox="0 0 111.36 100">
  <defs>
    <style>
      .cls-1 {
        fill: none;
      }

      .cls-2 {
        fill: #e13f8d;
      }

      .cls-3 {
        fill: #029cb6;
      }

      .cls-4 {
        fill: #0d2661;
      }
    </style>
  </defs>
  <path class="cls-3" d="M55.68,68.75h17.5c14.49,0,26.25,11.76,26.25,26.25,0,2.75-2.25,5-5,5H16.93c-2.75,0-5-2.25-5-5,0-14.49,11.76-26.25,26.25-26.25h17.5Z"/>
  <g>
    <path class="cls-1" d="M69.78,36.04c0-7.79-6.31-14.1-14.1-14.1s-14.1,6.31-14.1,14.1c0,7.15,5.32,13.04,12.22,13.96h3.76c6.9-.92,12.22-6.81,12.22-13.96Z"/>
    <path class="cls-3" d="M52.55,50h1.24c-6.9-.92-12.22-6.81-12.22-13.96,0-7.79,6.31-14.1,14.1-14.1s14.1,6.31,14.1,14.1c0,7.15-5.32,13.04-12.22,13.96h1.24c3.46,0,6.25,2.79,6.25,6.25h5.32c.1-.07.21-.14.31-.21,6.06-4.56,10-11.81,10-20,0-13.81-11.19-25-25-25s-25,11.19-25,25c0,8.19,3.94,15.44,10,20,1.99,1.48,4.2,2.67,6.58,3.52-.6-.96-.95-2.09-.95-3.31,0-3.46,2.79-6.25,6.25-6.25Z"/>
    <path class="cls-2" d="M55.68,0C34.98,0,18.18,16.8,18.18,37.5v3.12c0,1.72,1.41,3.12,3.12,3.12s3.12-1.41,3.12-3.12v-3.12c0-17.27,13.98-31.25,31.25-31.25s31.25,13.98,31.25,31.25v3.12c0,8.63-6.99,15.62-15.62,15.62h-.93c-4.13,2.99-9.2,4.79-14.69,4.79-2.96,0-5.79-.53-8.42-1.48,1.1,1.76,3.06,2.94,5.3,2.94h18.75c12.09,0,21.88-9.79,21.88-21.88v-3.12C93.18,16.8,76.38,0,55.68,0Z"/>
    <path class="cls-4" d="M55.68,50.14c.64,0,1.26-.06,1.88-.14h-3.76c.62.08,1.24.14,1.88.14Z"/>
    <path class="cls-4" d="M70.37,56.25h-5.32c0-3.46-2.79-6.25-6.25-6.25h-1.24c-.62.08-1.24.14-1.88.14s-1.26-.06-1.88-.14h-1.24c-3.46,0-6.25,2.79-6.25,6.25,0,1.22.35,2.35.95,3.31,2.63.95,5.46,1.48,8.42,1.48,5.49,0,10.56-1.8,14.69-4.79Z"/>
  </g>
</svg>