<svg viewBox="0 0 261.19 116.69" xmlns="http://www.w3.org/2000/svg" id="Layer_1"><defs><style>.cls-1{fill:#039db7;}.cls-2{fill:#304050;}.cls-3{fill:#e2408e;}.cls-4{fill:#45bbce;}</style></defs><polygon points="165.29 30.26 165.29 35.31 165.68 35.31 165.68 30.49 173.8 35.33 182.21 30.26 173.8 25.2 165.29 30.26" class="cls-4"/><polygon points="173.8 35.33 173.8 45.46 182.21 40.39 182.21 30.26 173.8 35.33" class="cls-1"/><polygon points="173.7 15.07 173.7 20.08 174.09 20.08 174.09 15.3 182.21 20.13 190.62 15.07 182.21 10 173.7 15.07" class="cls-3"/><polygon points="182.21 20.13 182.21 30.26 190.62 25.2 190.62 15.07 182.21 20.13" class="cls-2"/><path d="m14.22,27.77v31.74h-4.22v-31.74h4.22Z" class="cls-2"/><path d="m41.06,27.77v31.74h-3.94v-3.9c-1.81,2.77-4.72,4.49-8.57,4.49-6.3,0-11.47-5.21-11.47-11.92s5.17-11.93,11.47-11.93c3.85,0,6.76,1.72,8.57,4.49v-12.97h3.94Zm-3.94,20.4c0-4.62-3.49-8.12-8.07-8.12s-8.03,3.49-8.03,8.12,3.49,8.12,8.03,8.12,8.07-3.49,8.07-8.12Z" class="cls-2"/><path d="m55.75,56.38c3.13,0,5.4-1.45,6.53-3.31l3.36,1.9c-2,3.08-5.44,5.12-9.98,5.12-7.3,0-12.15-5.12-12.15-11.92s4.81-11.93,11.88-11.93,11.29,5.62,11.29,11.97c0,.59-.05,1.18-.14,1.77h-19c.77,4.08,3.99,6.39,8.21,6.39Zm-8.21-9.84h15.14c-.68-4.49-3.9-6.57-7.3-6.57-4.26,0-7.21,2.63-7.84,6.57Z" class="cls-2"/><path d="m91.62,36.84v22.67h-3.94v-3.9c-1.81,2.77-4.72,4.49-8.57,4.49-6.3,0-11.47-5.21-11.47-11.92s5.17-11.93,11.47-11.93c3.85,0,6.76,1.72,8.57,4.49v-3.9h3.94Zm-3.94,11.34c0-4.62-3.49-8.12-8.07-8.12s-8.03,3.49-8.03,8.12,3.49,8.12,8.03,8.12,8.07-3.49,8.07-8.12Z" class="cls-2"/><path d="m118.05,36.84v21.72c0,7.07-5.67,10.61-11.56,10.61-5.08,0-8.89-1.95-10.75-5.53l3.45-1.95c1.04,2.13,2.95,3.81,7.39,3.81,4.72,0,7.57-2.67,7.57-6.94v-3.22c-1.81,2.77-4.72,4.53-8.52,4.53-6.44,0-11.56-5.21-11.56-11.83s5.12-11.79,11.56-11.79c3.81,0,6.71,1.72,8.52,4.49v-3.9h3.9Zm-3.9,11.2c0-4.53-3.49-8.03-8.07-8.03s-8.07,3.49-8.07,8.03,3.49,8.07,8.07,8.07,8.07-3.49,8.07-8.07Z" class="cls-2"/><path d="m132.74,56.38c3.13,0,5.4-1.45,6.53-3.31l3.36,1.9c-2,3.08-5.44,5.12-9.98,5.12-7.3,0-12.15-5.12-12.15-11.92s4.81-11.93,11.88-11.93,11.29,5.62,11.29,11.97c0,.59-.05,1.18-.14,1.77h-19c.77,4.08,3.99,6.39,8.21,6.39Zm-8.21-9.84h15.14c-.68-4.49-3.9-6.57-7.3-6.57-4.26,0-7.21,2.63-7.84,6.57Z" class="cls-2"/><path d="m166.02,45.59v13.92h-3.95v-13.69c0-3.72-2.13-5.8-5.62-5.8s-6.57,2.13-6.57,7.48v12.02h-3.94v-22.67h3.94v3.26c1.68-2.68,4.17-3.85,7.35-3.85,5.31,0,8.8,3.54,8.8,9.34Z" class="cls-2"/><path d="m18.12,91.54h-5.2v8.44h-2.93v-22.05h8.82c3.78,0,6.87,3.05,6.87,6.83,0,2.9-1.92,5.45-4.57,6.39l5.2,8.82h-3.24l-4.95-8.44Zm-5.2-2.65h5.89c2.17,0,3.94-1.86,3.94-4.13s-1.76-4.09-3.94-4.09h-5.89v8.22Z" class="cls-1"/><path d="m27.39,79.54c0-1.01.82-1.86,1.86-1.86s1.83.85,1.83,1.86-.82,1.83-1.83,1.83-1.86-.82-1.86-1.83Zm.47,4.69h2.74v15.75h-2.74v-15.75Z" class="cls-1"/><path d="m44.84,95.66c0,2.93-2.52,4.72-5.89,4.72-3.15,0-5.35-1.51-6.27-3.68l2.36-1.35c.5,1.51,1.95,2.46,3.91,2.46,1.67,0,3.12-.6,3.12-2.14,0-3.37-8.82-1.45-8.82-7.15,0-2.77,2.39-4.69,5.57-4.69,2.58,0,4.66,1.23,5.67,3.28l-2.3,1.29c-.6-1.42-1.98-2.02-3.37-2.02s-2.8.69-2.8,2.11c0,3.37,8.82,1.39,8.82,7.18Z" class="cls-1"/><path d="m56.74,99.98l-7.18-7.46v7.46h-2.74v-22.05h2.74v13.26l6.8-6.96h3.53l-7.53,7.62,7.78,8.13h-3.4Z" class="cls-1"/><path d="m89.28,99.98h-2.9v-17.23l-7.21,12h-.38l-7.21-11.97v17.2h-2.93v-22.05h3.31l7.02,11.65,6.99-11.65h3.31v22.05Z" class="cls-1"/><path d="m108.4,84.23v15.75h-2.74v-2.71c-1.26,1.92-3.28,3.12-5.95,3.12-4.38,0-7.97-3.62-7.97-8.28s3.59-8.28,7.97-8.28c2.68,0,4.69,1.2,5.95,3.12v-2.71h2.74Zm-2.74,7.87c0-3.21-2.42-5.64-5.61-5.64s-5.58,2.42-5.58,5.64,2.42,5.64,5.58,5.64,5.61-2.42,5.61-5.64Z" class="cls-1"/><path d="m125.41,90.31v9.67h-2.74v-9.51c0-2.58-1.48-4.03-3.9-4.03s-4.57,1.48-4.57,5.2v8.35h-2.74v-15.75h2.74v2.27c1.17-1.86,2.9-2.68,5.1-2.68,3.68,0,6.11,2.46,6.11,6.49Z" class="cls-1"/><path d="m143.9,84.23v15.75h-2.74v-2.71c-1.26,1.92-3.28,3.12-5.95,3.12-4.38,0-7.97-3.62-7.97-8.28s3.59-8.28,7.97-8.28c2.68,0,4.69,1.2,5.95,3.12v-2.71h2.74Zm-2.74,7.87c0-3.21-2.42-5.64-5.61-5.64s-5.58,2.42-5.58,5.64,2.42,5.64,5.58,5.64,5.61-2.42,5.61-5.64Z" class="cls-1"/><path d="m162.74,84.23v15.09c0,4.91-3.94,7.37-8.03,7.37-3.53,0-6.17-1.35-7.46-3.84l2.39-1.35c.72,1.48,2.05,2.65,5.13,2.65,3.28,0,5.26-1.86,5.26-4.82v-2.24c-1.26,1.92-3.28,3.15-5.92,3.15-4.47,0-8.03-3.62-8.03-8.22s3.56-8.19,8.03-8.19c2.65,0,4.66,1.2,5.92,3.12v-2.71h2.71Zm-2.71,7.78c0-3.15-2.42-5.57-5.61-5.57s-5.61,2.42-5.61,5.57,2.43,5.61,5.61,5.61,5.61-2.42,5.61-5.61Z" class="cls-1"/><path d="m173.42,97.8c2.17,0,3.75-1.01,4.54-2.3l2.33,1.32c-1.39,2.14-3.78,3.56-6.93,3.56-5.07,0-8.44-3.56-8.44-8.28s3.34-8.28,8.25-8.28,7.84,3.91,7.84,8.31c0,.41-.03.82-.09,1.23h-13.2c.54,2.83,2.77,4.44,5.7,4.44Zm-5.7-6.83h10.52c-.47-3.12-2.71-4.57-5.07-4.57-2.96,0-5.01,1.83-5.45,4.57Z" class="cls-1"/><path d="m205.99,90.18v9.79h-2.74v-9.7c0-2.49-1.39-3.84-3.46-3.84-2.2,0-3.87,1.38-3.87,4.79v8.75h-2.74v-9.7c0-2.49-1.29-3.84-3.34-3.84s-4.03,1.38-4.03,4.79v8.75h-2.74v-15.75h2.74v2.11c1.13-1.76,2.77-2.52,4.69-2.52,2.14,0,3.72.98,4.63,2.68,1.1-1.79,2.9-2.68,4.95-2.68,3.5,0,5.92,2.42,5.92,6.36Z" class="cls-1"/><path d="m216.32,97.8c2.17,0,3.75-1.01,4.54-2.3l2.33,1.32c-1.38,2.14-3.78,3.56-6.93,3.56-5.07,0-8.44-3.56-8.44-8.28s3.34-8.28,8.25-8.28,7.84,3.91,7.84,8.31c0,.41-.03.82-.09,1.23h-13.2c.54,2.83,2.77,4.44,5.7,4.44Zm-5.7-6.83h10.52c-.47-3.12-2.71-4.57-5.07-4.57-2.96,0-5.01,1.83-5.45,4.57Z" class="cls-1"/><path d="m239.91,90.31v9.67h-2.74v-9.51c0-2.58-1.48-4.03-3.9-4.03s-4.57,1.48-4.57,5.2v8.35h-2.74v-15.75h2.74v2.27c1.17-1.86,2.9-2.68,5.1-2.68,3.68,0,6.11,2.46,6.11,6.49Z" class="cls-1"/><path d="m247,86.88v8.54c0,2.39,1.39,2.24,4.19,2.11v2.46c-4.72.63-6.93-.63-6.93-4.57v-8.54h-3.12v-2.65h3.12v-3.59l2.74-.82v4.41h4.19v2.65h-4.19Z" class="cls-1"/></svg>