<svg viewBox="0 0 203.12 116.29" xmlns="http://www.w3.org/2000/svg" id="Layer_1"><defs><style>.cls-1{fill:#039db7;}.cls-2{fill:#304050;}.cls-3{fill:#e2408e;}.cls-4{fill:#45bbce;}</style></defs><polygon points="165.29 30.26 165.29 35.31 165.68 35.31 165.68 30.49 173.8 35.33 182.21 30.26 173.8 25.2 165.29 30.26" class="cls-4"/><polygon points="173.8 35.33 173.8 45.46 182.21 40.39 182.21 30.26 173.8 35.33" class="cls-1"/><polygon points="173.7 15.07 173.7 20.08 174.09 20.08 174.09 15.3 182.21 20.13 190.62 15.07 182.21 10 173.7 15.07" class="cls-3"/><polygon points="182.21 20.13 182.21 30.26 190.62 25.2 190.62 15.07 182.21 20.13" class="cls-2"/><path d="m14.22,27.77v31.74h-4.22v-31.74h4.22Z" class="cls-2"/><path d="m41.06,27.77v31.74h-3.94v-3.9c-1.81,2.77-4.72,4.49-8.57,4.49-6.3,0-11.47-5.21-11.47-11.92s5.17-11.93,11.47-11.93c3.85,0,6.76,1.72,8.57,4.49v-12.97h3.94Zm-3.94,20.4c0-4.62-3.49-8.12-8.07-8.12s-8.03,3.49-8.03,8.12,3.49,8.12,8.03,8.12,8.07-3.49,8.07-8.12Z" class="cls-2"/><path d="m55.75,56.38c3.13,0,5.4-1.45,6.53-3.31l3.36,1.9c-2,3.08-5.44,5.12-9.98,5.12-7.3,0-12.15-5.12-12.15-11.92s4.81-11.93,11.88-11.93,11.29,5.62,11.29,11.97c0,.59-.05,1.18-.14,1.77h-19c.77,4.08,3.99,6.39,8.21,6.39Zm-8.21-9.84h15.14c-.68-4.49-3.9-6.57-7.3-6.57-4.26,0-7.21,2.63-7.84,6.57Z" class="cls-2"/><path d="m91.62,36.84v22.67h-3.94v-3.9c-1.81,2.77-4.72,4.49-8.57,4.49-6.3,0-11.47-5.21-11.47-11.92s5.17-11.93,11.47-11.93c3.85,0,6.76,1.72,8.57,4.49v-3.9h3.94Zm-3.94,11.34c0-4.62-3.49-8.12-8.07-8.12s-8.03,3.49-8.03,8.12,3.49,8.12,8.03,8.12,8.07-3.49,8.07-8.12Z" class="cls-2"/><path d="m118.05,36.84v21.72c0,7.07-5.67,10.61-11.56,10.61-5.08,0-8.89-1.95-10.75-5.53l3.45-1.95c1.04,2.13,2.95,3.81,7.39,3.81,4.72,0,7.57-2.67,7.57-6.94v-3.22c-1.81,2.77-4.72,4.53-8.52,4.53-6.44,0-11.56-5.21-11.56-11.83s5.12-11.79,11.56-11.79c3.81,0,6.71,1.72,8.52,4.49v-3.9h3.9Zm-3.9,11.2c0-4.53-3.49-8.03-8.07-8.03s-8.07,3.49-8.07,8.03,3.49,8.07,8.07,8.07,8.07-3.49,8.07-8.07Z" class="cls-2"/><path d="m132.74,56.38c3.13,0,5.4-1.45,6.53-3.31l3.36,1.9c-2,3.08-5.44,5.12-9.98,5.12-7.3,0-12.15-5.12-12.15-11.92s4.81-11.93,11.88-11.93,11.29,5.62,11.29,11.97c0,.59-.05,1.18-.14,1.77h-19c.77,4.08,3.99,6.39,8.21,6.39Zm-8.21-9.84h15.14c-.68-4.49-3.9-6.57-7.3-6.57-4.26,0-7.21,2.63-7.84,6.57Z" class="cls-2"/><path d="m166.02,45.59v13.92h-3.95v-13.69c0-3.72-2.13-5.8-5.62-5.8s-6.57,2.13-6.57,7.48v12.02h-3.94v-22.67h3.94v3.26c1.68-2.68,4.17-3.85,7.35-3.85,5.31,0,8.8,3.54,8.8,9.34Z" class="cls-2"/><path d="m10,88.97c0-6.36,4.79-11.43,11.53-11.43,4.06,0,7.65,2.11,9.51,5.35l-2.55,1.48c-1.26-2.43-3.94-4-6.96-4-5.17,0-8.63,3.75-8.63,8.6s3.46,8.57,8.63,8.57c3.02,0,5.7-1.57,6.96-3.97l2.55,1.45c-1.83,3.24-5.42,5.39-9.51,5.39-6.74,0-11.53-5.1-11.53-11.43Z" class="cls-1"/><path d="m32.02,92.12c0-4.66,3.69-8.28,8.28-8.28s8.31,3.62,8.31,8.28-3.72,8.28-8.31,8.28-8.28-3.62-8.28-8.28Zm13.86,0c0-3.18-2.42-5.61-5.57-5.61s-5.54,2.43-5.54,5.61,2.43,5.61,5.54,5.61,5.57-2.43,5.57-5.61Z" class="cls-1"/><path d="m73.69,90.2v9.79h-2.74v-9.7c0-2.49-1.39-3.84-3.46-3.84-2.2,0-3.87,1.39-3.87,4.79v8.76h-2.74v-9.7c0-2.49-1.29-3.84-3.34-3.84s-4.03,1.39-4.03,4.79v8.76h-2.74v-15.75h2.74v2.11c1.13-1.76,2.77-2.52,4.69-2.52,2.14,0,3.72.98,4.63,2.68,1.1-1.8,2.9-2.68,4.95-2.68,3.5,0,5.92,2.43,5.92,6.36Z" class="cls-1"/><path d="m93.06,92.12c0,4.66-3.59,8.28-7.97,8.28-2.68,0-4.69-1.2-5.95-3.12v9.01h-2.74v-22.05h2.74v2.71c1.26-1.92,3.28-3.12,5.95-3.12,4.38,0,7.97,3.62,7.97,8.28Zm-2.74,0c0-3.21-2.42-5.64-5.57-5.64s-5.61,2.43-5.61,5.64,2.43,5.64,5.61,5.64,5.57-2.43,5.57-5.64Z" class="cls-1"/><path d="m95.24,77h2.74v22.99h-2.74v-22.99Z" class="cls-1"/><path d="m100.59,79.55c0-1.01.82-1.86,1.86-1.86s1.83.85,1.83,1.86-.82,1.83-1.83,1.83-1.86-.82-1.86-1.83Zm.47,4.69h2.74v15.75h-2.74v-15.75Z" class="cls-1"/><path d="m105.95,94.99l2.52-1.45c.79,2.43,2.68,4,5.89,4s4.66-1.42,4.66-3.4c0-2.27-1.95-3.02-5.2-4.03-3.53-1.13-6.93-2.24-6.93-6.33s3.24-6.24,6.93-6.24,6.24,2.05,7.46,4.82l-2.46,1.42c-.79-1.89-2.33-3.4-5.01-3.4-2.36,0-4,1.26-4,3.28s1.54,2.8,4.63,3.78c3.84,1.26,7.46,2.39,7.46,6.65,0,3.87-3.12,6.33-7.62,6.33-4.19,0-7.18-2.11-8.35-5.42Z" class="cls-1"/><path d="m140.66,92.12c0,4.66-3.59,8.28-7.97,8.28-2.68,0-4.69-1.2-5.95-3.12v9.01h-2.74v-22.05h2.74v2.71c1.26-1.92,3.28-3.12,5.95-3.12,4.38,0,7.97,3.62,7.97,8.28Zm-2.74,0c0-3.21-2.42-5.64-5.57-5.64s-5.61,2.43-5.61,5.64,2.43,5.64,5.61,5.64,5.57-2.43,5.57-5.64Z" class="cls-1"/><path d="m158.98,84.25v15.75h-2.74v-2.71c-1.26,1.92-3.28,3.12-5.95,3.12-4.38,0-7.97-3.62-7.97-8.28s3.59-8.28,7.97-8.28c2.68,0,4.69,1.2,5.95,3.12v-2.71h2.74Zm-2.74,7.87c0-3.21-2.42-5.64-5.61-5.64s-5.57,2.43-5.57,5.64,2.43,5.64,5.57,5.64,5.61-2.43,5.61-5.64Z" class="cls-1"/><path d="m161.16,92.12c0-4.66,3.53-8.28,8.28-8.28,3.12,0,5.76,1.64,6.96,4.13l-2.3,1.32c-.79-1.67-2.55-2.77-4.66-2.77-3.15,0-5.54,2.43-5.54,5.61s2.39,5.57,5.54,5.57c2.14,0,3.87-1.1,4.76-2.74l2.33,1.35c-1.32,2.46-4,4.09-7.09,4.09-4.75,0-8.28-3.62-8.28-8.28Z" class="cls-1"/><path d="m185.53,97.82c2.17,0,3.75-1.01,4.54-2.3l2.33,1.32c-1.38,2.14-3.78,3.56-6.93,3.56-5.07,0-8.44-3.56-8.44-8.28s3.34-8.28,8.25-8.28,7.84,3.91,7.84,8.31c0,.41-.03.82-.09,1.23h-13.2c.54,2.83,2.77,4.44,5.7,4.44Zm-5.7-6.83h10.52c-.47-3.12-2.71-4.57-5.07-4.57-2.96,0-5.01,1.83-5.45,4.57Z" class="cls-1"/></svg>
