<svg width="400" height="400" viewBox="0 0 400 400" fill="none" xmlns="http://www.w3.org/2000/svg">
<path d="M267.504 284.094H94.1707V174.541H116.341L125.457 185.945H267.504V284.094Z" fill="#E30072"/>
<path opacity="0.1" d="M267.504 284.094H94.1707V174.541H116.341L125.457 185.945H267.504V284.094Z" fill="black"/>
<path d="M204.433 129.058L126.435 157.609L170.368 280.466L248.366 251.915L204.433 129.058Z" fill="#DDE0E3"/>
<path d="M163.22 157.813L141.176 165.882L143.054 171.134L165.097 163.064L163.22 157.813Z" fill="white"/>
<path d="M198.776 161.491L150.286 179.008L151.986 183.824L200.476 166.306L198.776 161.491Z" fill="white"/>
<path d="M202.409 171.797L153.919 189.315L155.618 194.131L204.108 176.613L202.409 171.797Z" fill="white"/>
<path d="M206.036 182.089L157.546 199.607L159.246 204.423L207.736 186.905L206.036 182.089Z" fill="white"/>
<path d="M209.678 192.376L161.188 209.894L162.888 214.709L211.378 197.192L209.678 192.376Z" fill="white"/>
<path d="M213.305 202.668L164.815 220.185L166.515 225.001L215.005 207.483L213.305 202.668Z" fill="white"/>
<path d="M216.938 212.974L168.448 230.492L170.148 235.308L218.638 217.79L216.938 212.974Z" fill="white"/>
<path d="M226.401 230.063L213.844 234.599L218.328 247.304L230.885 242.767L226.401 230.063Z" fill="white"/>
<path d="M110.582 135.867L66.8317 210.359L181.442 279.264L225.192 204.773L110.582 135.867Z" fill="url(#paint0_linear_150_35579)"/>
<path d="M111.682 138.079L69.2856 210.265L180.35 277.039L222.746 204.853L111.682 138.079Z" fill="#DDE0E3"/>
<path d="M97.7716 186.824L85.7965 207.214L90.5414 210.066L102.516 189.677L97.7716 186.824Z" fill="white"/>
<path d="M127.083 166.029L100.78 210.813L105.125 213.425L131.428 168.641L127.083 166.029Z" fill="white"/>
<path d="M136.383 171.62L110.081 216.404L114.426 219.017L140.728 174.233L136.383 171.62Z" fill="white"/>
<path d="M145.592 177.029L119.328 221.836L123.675 224.444L149.939 179.637L145.592 177.029Z" fill="white"/>
<path d="M154.867 182.55L128.608 227.351L132.955 229.959L159.214 185.158L154.867 182.55Z" fill="white"/>
<path d="M164.149 188.141L137.89 232.942L142.237 235.55L168.496 190.749L164.149 188.141Z" fill="white"/>
<path d="M173.533 193.968L147.231 238.752L151.576 241.364L177.878 196.58L173.533 193.968Z" fill="white"/>
<path d="M191.463 200.839L184.662 212.442L196.13 219.323L202.931 207.72L191.463 200.839Z" fill="white"/>
<path d="M360.698 137.506C360.714 137.349 360.714 137.192 360.698 137.035C360.698 136.878 360.666 136.706 360.604 136.518C360.604 136.173 360.48 135.843 360.403 135.529C360.325 135.216 360.31 135.216 360.279 135.059C359.787 133.329 358.936 131.724 357.783 130.353L357.581 130.118L357.194 129.71C357.07 129.569 356.93 129.459 356.806 129.333L356.449 129.02C356.201 128.831 355.984 128.659 355.783 128.533L355.38 128.267C355.098 128.105 354.787 128.003 354.465 127.969L352.418 127.765L349.659 127.498L339.69 123.592L339.287 123.733C338.997 122.927 338.754 122.105 338.558 121.271C338.853 121.133 339.117 120.936 339.333 120.69C339.578 120.513 339.766 120.268 339.876 119.984C340.139 119.404 339.659 118.165 339.752 117.443C340 116.296 340.413 115.191 340.977 114.165C342.101 111.954 342.671 109.498 342.635 107.012C342.606 105.78 342.293 104.572 341.723 103.483C341.152 102.394 340.34 101.454 339.349 100.737C338.294 100.031 337.039 99.6549 335.953 99.0118C334.868 98.3686 334.403 97.851 333.519 97.2863C331.503 95.9436 329.179 95.1477 326.771 94.9746C324.363 94.8016 321.951 95.2573 319.767 96.298C317.69 97.3333 315.922 98.8706 313.969 100.094C312.056 101.489 309.715 102.151 307.364 101.961C307.357 102.055 307.357 102.149 307.364 102.243H307.178C306.775 103.31 307.752 104.376 308.635 105.129C310.211 106.698 312.255 107.696 314.449 107.969C315.296 107.864 316.154 107.928 316.977 108.157C317.143 108.238 317.299 108.338 317.442 108.455C316.954 110.428 317.017 112.5 317.625 114.438C318.233 116.377 319.361 118.107 320.884 119.435L315.798 117.584C315.798 117.584 315.581 117.694 315.256 117.898L308.186 113.192C308.186 113.192 294 107.984 290.062 116.047C286.124 124.11 307.116 119.937 307.116 119.937L311.628 122.353C311.479 123.283 311.654 124.237 312.124 125.051L324.372 132.675C321.983 133.483 319.55 134.154 317.085 134.682C316.031 134.682 313.147 135.718 311.302 139.89C309.457 144.063 302.899 164.314 297.132 167.686C291.364 171.059 276.108 193.678 276.108 193.678V193.851L275.302 194.086C272.105 195.201 269.334 197.302 267.38 200.094C266.991 200.644 266.832 201.327 266.94 201.994C267.047 202.662 267.412 203.259 267.953 203.655C268.312 203.907 268.728 204.063 269.163 204.11C275.178 204.878 278.465 202.102 280.015 199.984L280.31 199.592C280.81 199.78 281.36 199.78 281.86 199.592L289.209 193.616C289.209 193.616 283.457 199.31 286.837 204.502L286.573 204.863C280.867 213.015 276.664 222.145 274.17 231.812C274.17 231.812 271.07 234.165 270.76 243.498C270.449 252.831 267.349 267.937 267.349 267.937C267.349 267.937 265.24 285.867 266.558 291.326C266.558 291.326 266.713 291.545 266.992 291.875L266.666 292.251C265.519 293.49 263.442 295.216 261.039 294.698C257.349 293.914 257.349 300.408 262.589 300.973C267.415 301.684 272.202 302.647 276.93 303.859C277.313 303.96 277.712 303.983 278.103 303.927C278.495 303.871 278.872 303.738 279.212 303.533C279.553 303.329 279.85 303.059 280.086 302.738C280.322 302.416 280.493 302.051 280.589 301.663C280.681 301.326 280.713 300.975 280.682 300.627C280.483 298.184 279.961 295.778 279.132 293.475L278.961 293.098C279.124 292.955 279.279 292.803 279.426 292.643C279.426 292.643 279.426 281.208 281.271 278.102C281.271 278.102 286.263 254.447 285.922 248.471C285.721 243.765 298.868 225.584 304.527 217.898V217.6C305.984 215.639 306.915 214.463 306.915 214.463L311.38 242.776C312.545 246.181 314.15 249.414 316.155 252.392C316.155 252.392 327.442 273.961 328.76 280.722C329.33 284.103 330.691 287.297 332.729 290.039L332.403 290.369C331.773 291.044 330.993 291.558 330.127 291.869C329.262 292.18 328.336 292.279 327.426 292.157C323.767 291.373 323.767 297.867 328.977 298.431C333.804 299.141 338.592 300.11 343.318 301.333C344.091 301.508 344.902 301.376 345.582 300.964C346.263 300.553 346.762 299.894 346.977 299.122C347.039 298.779 347.039 298.429 346.977 298.086C346.792 295.308 346.109 292.586 344.961 290.055C344.872 289.887 344.774 289.725 344.666 289.569C345.068 289.414 345.425 289.161 345.705 288.831C345.705 288.831 338.868 272.455 338.868 268.031C338.868 268.031 335.984 251.137 326.263 244.91C326.263 244.91 327.194 223.78 329.953 211.969C329.953 211.671 330.093 211.388 330.17 211.106C332.651 210.714 335.209 210.196 337.829 209.537L338.093 201.694L339.411 207.969L354.108 198.855C354.108 198.855 353.984 197.286 353.736 194.714C353.597 193.459 353.457 191.984 353.271 190.384C353.116 189.098 352.946 187.749 352.775 186.369C352.775 186.008 352.682 185.663 352.62 185.318C352.434 183.922 352.217 182.494 352 181.114C351.907 180.596 351.814 180.078 351.736 179.545C351.659 179.012 351.488 178.212 351.349 177.569L351.163 176.596C351.085 176.282 351.023 175.984 350.946 175.686C350.868 175.388 350.822 175.075 350.744 174.792L350.635 174.369C350.558 174.086 350.496 173.804 350.418 173.537C350.112 172.427 349.935 171.285 349.891 170.133C349.86 169.674 349.86 169.213 349.891 168.753C349.908 168.296 349.949 167.841 350.015 167.388C350.015 167.169 350.093 166.949 350.124 166.714C350.296 165.81 350.545 164.923 350.868 164.063C351.033 163.644 351.219 163.221 351.426 162.792C351.907 161.804 352.418 160.737 352.977 159.655L353.783 157.929C354.046 157.349 354.31 156.753 354.589 156.157C357.147 150.416 359.659 144.031 360.341 139.843C360.341 139.404 360.465 138.98 360.496 138.588C360.587 138.232 360.654 137.871 360.698 137.506Z" fill="url(#paint1_linear_150_35579)"/>
<path d="M316.822 120.439L308.17 114.51C308.17 114.51 294.403 109.349 290.589 117.349C286.775 125.349 307.147 121.208 307.147 121.208L315.798 126.102L316.822 120.439Z" fill="#FCAEB3"/>
<path d="M266.831 96.3634L222.325 167.237L331.37 237.335L375.876 166.461L266.831 96.3634Z" fill="#DDE0E3"/>
<path d="M317.886 148.21L290.275 192.18L294.541 194.922L322.152 150.953L317.886 148.21Z" fill="white"/>
<path d="M327.778 155.874L299.965 199.64L304.216 202.405L332.029 158.64L327.778 155.874Z" fill="white"/>
<path d="M342.45 301.177C337.851 299.974 333.194 299.016 328.496 298.306C323.395 297.788 323.395 291.357 326.946 292.126C327.829 292.246 328.728 292.147 329.565 291.839C330.402 291.53 331.152 291.02 331.752 290.353C332.112 290.01 332.448 289.643 332.76 289.255C333.18 288.743 333.759 288.39 334.403 288.251C336.326 287.828 340.295 287.2 342.744 288.533C343.316 288.878 343.774 289.385 344.062 289.992C345.168 292.519 345.834 295.22 346.031 297.977C346.072 298.367 346.036 298.762 345.925 299.138C345.815 299.515 345.632 299.866 345.387 300.17C345.142 300.475 344.84 300.728 344.498 300.914C344.156 301.1 343.782 301.216 343.395 301.255C343.078 301.285 342.758 301.258 342.45 301.177Z" fill="#004F58"/>
<path d="M278 303.749C273.402 302.542 268.745 301.584 264.046 300.878C258.946 300.361 258.946 293.914 262.496 294.682C264.821 295.2 266.837 293.49 267.953 292.251L268.31 291.827C268.737 291.315 269.321 290.962 269.969 290.824C271.876 290.4 275.86 289.757 278.31 291.106C279.13 291.667 279.742 292.49 280.046 293.443C280.867 295.728 281.388 298.112 281.597 300.533C281.638 300.923 281.602 301.316 281.493 301.692C281.383 302.067 281.201 302.417 280.958 302.722C280.715 303.026 280.414 303.279 280.074 303.466C279.734 303.653 279.361 303.771 278.977 303.812C278.65 303.848 278.319 303.827 278 303.749Z" fill="#004F58"/>
<path opacity="0.1" d="M280.093 293.443C274.016 299.718 268.806 293.318 268.016 292.251L268.372 291.828C268.799 291.315 269.383 290.962 270.031 290.824C271.938 290.4 275.923 289.757 278.372 291.09C279.187 291.66 279.792 292.488 280.093 293.443Z" fill="black"/>
<path opacity="0.1" d="M344.186 289.961C341.535 291.78 332.682 291.341 332.682 291.341C332.392 291.025 332.123 290.689 331.876 290.337C332.235 289.994 332.572 289.627 332.883 289.239C333.304 288.727 333.883 288.374 334.527 288.235C336.449 287.812 340.418 287.184 342.868 288.518C343.432 288.865 343.888 289.365 344.186 289.961Z" fill="black"/>
<path d="M344.589 288.753C342.806 291.074 332.62 290.572 332.62 290.572C330.315 287.769 328.818 284.377 328.295 280.769C327.008 274.071 316.062 252.674 316.062 252.674C314.107 249.714 312.543 246.508 311.411 243.137L307.085 215.043C307.085 215.043 286.186 242.871 286.45 248.8C286.713 254.729 281.799 278.18 281.799 278.18C280.016 281.318 280.016 292.612 280.016 292.612C273.395 299.576 267.783 291.325 267.783 291.325C266.512 285.914 268.543 268.125 268.543 268.125C268.543 268.125 271.643 253.176 271.861 243.906C272.078 234.635 275.178 232.298 275.178 232.298C277.557 222.758 281.606 213.727 287.132 205.631C288.682 203.388 289.69 202.212 289.69 202.212L331.085 207.059C330.289 208.83 329.696 210.688 329.318 212.596C326.636 224.251 325.737 245.208 325.737 245.208C335.163 251.404 337.969 268.157 337.969 268.157C337.985 272.518 344.589 288.753 344.589 288.753Z" fill="#2F4051"/>
<g opacity="0.05">
<path opacity="0.05" d="M304.868 218.463L304.341 215.043C304.341 215.043 283.442 242.871 283.721 248.8C284 254.729 279.07 278.18 279.07 278.18C277.287 281.318 277.287 292.612 277.287 292.612C276.226 293.83 274.852 294.726 273.318 295.2C275.318 295.733 277.767 295.357 280.357 292.612C280.357 292.612 280.357 281.271 282.14 278.18C282.14 278.18 286.992 254.651 286.791 248.8C286.558 244.157 299.318 226.102 304.868 218.463Z" fill="black"/>
<path opacity="0.05" d="M338.217 268.141C338.217 268.141 335.426 251.388 326 245.192C326 245.192 326.884 224.235 329.566 212.58C329.959 210.674 330.556 208.818 331.349 207.043L290.077 202.133L289.798 202.463L328.295 207.059C327.499 208.827 326.901 210.679 326.512 212.58C323.829 224.251 322.946 245.208 322.946 245.208C332.372 251.404 335.163 268.157 335.163 268.157C335.163 272.533 341.783 288.769 341.783 288.769C340.744 290.133 336.76 290.526 333.674 290.604C336.124 290.604 343.364 290.698 344.853 288.769C344.853 288.753 338.217 272.518 338.217 268.141Z" fill="black"/>
</g>
<path d="M282.17 198.541C281.863 199.303 281.456 200.021 280.961 200.675C279.76 202.288 278.134 203.528 276.27 204.252C274.406 204.975 272.378 205.155 270.419 204.769C270.091 204.728 269.775 204.622 269.488 204.457C269.201 204.292 268.95 204.071 268.748 203.807C268.546 203.543 268.398 203.241 268.312 202.919C268.226 202.597 268.205 202.26 268.248 201.929C268.305 201.517 268.459 201.124 268.698 200.784C270.569 198.027 273.256 195.94 276.372 194.824C277.427 194.472 278.52 194.251 279.628 194.165L282.17 198.541Z" fill="#FCAEB3"/>
<path d="M335.985 126.447L315.551 118.886C315.551 118.886 309.69 122.024 311.985 126.369L331.845 138.918L335.985 126.447Z" fill="#22A3AF"/>
<path d="M336.698 113.992C336.698 113.992 336.434 126.102 341.798 130.196C347.163 134.29 326.294 136.643 326.294 136.643C326.294 136.643 329.612 124.267 326.294 117.82C322.977 111.372 336.698 113.992 336.698 113.992Z" fill="#FCAEB3"/>
<path opacity="0.1" d="M331.085 207.059C330.298 208.834 329.706 210.691 329.318 212.596C304.682 216.392 287.457 206.023 287.457 206.023L287.194 205.584C288.744 203.357 289.752 202.165 289.752 202.165L331.085 207.059Z" fill="black"/>
<path opacity="0.1" d="M282.17 198.541C281.863 199.303 281.456 200.021 280.961 200.675C278.605 200.282 276.729 195.718 276.31 194.824C277.366 194.474 278.459 194.248 279.566 194.149L282.17 198.541Z" fill="black"/>
<path d="M338.728 124.816L329.566 128.173L325.736 133.333C325.736 133.333 317.845 135.922 316.822 135.922C315.798 135.922 313.008 136.941 311.209 141.067C309.411 145.192 303.07 165.302 297.457 168.643C291.845 171.984 277.085 194.51 277.085 194.51C277.085 194.51 279.628 201.459 282.682 200.439L289.814 194.51C289.814 194.51 284.217 200.173 287.519 205.333C287.519 205.333 308.418 217.961 337.132 210.227L337.395 202.494L338.666 208.675L352.961 199.655C352.961 199.655 351.674 183.012 349.38 174.557C348.421 170.997 348.774 167.207 350.372 163.89C354.062 156.047 359.767 143.059 359.085 138.322C358.925 136.565 358.38 134.867 357.489 133.35C356.599 131.833 355.386 130.536 353.938 129.553C353.666 129.382 353.358 129.28 353.039 129.255L348.387 128.769L338.728 124.816Z" fill="#3BB7C2"/>
<path opacity="0.05" d="M323.07 150.729C323.07 150.729 317.969 174.698 312.372 178.557C306.775 182.416 291.736 194.808 291.225 196.863" fill="black"/>
<path d="M320.775 149.945C320.775 149.945 315.675 173.929 310.078 177.788C304.481 181.647 289.442 194.024 288.93 196.078" fill="#22A3AF"/>
<path opacity="0.1" d="M325.581 133.192C325.581 133.192 343.163 127.263 348.264 128.816L325.581 133.192Z" fill="black"/>
<g opacity="0.05">
<path opacity="0.05" d="M350.387 163.796C354.093 155.953 359.798 142.98 359.1 138.227C358.94 136.471 358.395 134.772 357.505 133.256C356.614 131.739 355.401 130.442 353.953 129.459C353.686 129.29 353.383 129.188 353.069 129.161L351.069 128.957C351.281 128.998 351.482 129.084 351.659 129.208C353.115 130.198 354.334 131.505 355.227 133.033C356.12 134.561 356.665 136.271 356.821 138.039C357.519 142.745 351.814 155.827 348.108 163.624C346.517 166.942 346.165 170.73 347.116 174.29C349.426 182.761 350.697 199.388 350.697 199.388L338.403 207.231L338.713 208.8L353.023 199.78C353.023 199.78 351.736 183.137 349.442 174.682C348.421 171.06 348.758 167.183 350.387 163.796Z" fill="black"/>
<path opacity="0.05" d="M346.124 128.424L348.325 128.659L338.729 124.816L337.876 125.129L346.124 128.424Z" fill="black"/>
</g>
<path opacity="0.05" d="M320.775 174.949C320.775 174.949 328.667 170.573 331.225 171.608C333.783 172.643 343.194 171.341 343.194 171.341" fill="black"/>
<path opacity="0.05" d="M335.798 117.224C335.504 114.635 336.682 115.028 336.682 115.028C336.682 115.028 322.93 112.455 326.248 118.886C327.076 120.669 327.55 122.598 327.643 124.565H327.767C331.612 124.565 333.845 120.235 335.798 117.224Z" fill="black"/>
<path d="M327.783 123.529C333.836 123.529 338.744 118.564 338.744 112.439C338.744 106.314 333.836 101.349 327.783 101.349C321.729 101.349 316.822 106.314 316.822 112.439C316.822 118.564 321.729 123.529 327.783 123.529Z" fill="#FCAEB3"/>
<path opacity="0.1" d="M339.736 115.733C340.799 113.544 341.33 111.129 341.287 108.69C341.278 107.474 340.995 106.276 340.457 105.188C339.919 104.101 339.142 103.152 338.186 102.416C337.163 101.71 335.953 101.333 334.868 100.69C334.046 100.204 333.318 99.5451 332.511 98.9804C330.57 97.6452 328.315 96.8521 325.974 96.6813C323.633 96.5106 321.288 96.9682 319.178 98.0078C317.237 99.1602 315.358 100.417 313.55 101.773C311.71 103.117 309.456 103.752 307.194 103.561C306.806 104.643 307.752 105.694 308.62 106.431C310.126 107.99 312.11 108.985 314.248 109.255C315.069 109.152 315.902 109.216 316.698 109.443C317.2 109.732 317.63 110.135 317.953 110.62C318.975 112.004 319.844 113.498 320.542 115.075C320.76 115.754 321.163 116.358 321.705 116.816C322.698 117.459 323.969 116.925 325.132 116.816C326.967 116.957 328.675 117.818 329.891 119.216C331.112 120.577 332.574 121.694 334.201 122.51C335.473 122.996 338 122.98 338.635 121.443C338.884 120.878 338.418 119.639 338.511 118.933C338.783 117.818 339.195 116.743 339.736 115.733Z" fill="black"/>
<path d="M339.985 115.467C341.049 113.283 341.58 110.873 341.535 108.439C341.535 107.222 341.255 106.021 340.717 104.932C340.179 103.843 339.397 102.895 338.434 102.165C337.411 101.459 336.202 101.098 335.132 100.455C334.295 99.9529 333.582 99.3097 332.775 98.745C330.831 97.4119 328.574 96.619 326.232 96.4456C323.889 96.2721 321.542 96.7243 319.427 97.7568C317.427 98.7607 315.706 100.314 313.799 101.522C311.966 102.882 309.707 103.523 307.442 103.325C307.07 104.392 308 105.459 308.868 106.196C310.382 107.743 312.363 108.737 314.496 109.02C315.317 108.906 316.152 108.971 316.946 109.208C317.455 109.488 317.886 109.893 318.202 110.384C319.232 111.766 320.106 113.26 320.806 114.839C321.022 115.515 321.426 116.114 321.969 116.565C322.961 117.208 324.233 116.674 325.396 116.565C327.258 116.701 328.993 117.568 330.233 118.98C331.423 120.356 332.852 121.499 334.45 122.353C335.721 122.839 338.248 122.823 338.899 121.286C339.132 120.706 338.667 119.467 338.775 118.761C339.03 117.612 339.437 116.504 339.985 115.467Z" fill="#9B6C7A"/>
<path d="M267.504 288.737H94.1707V179.2H116.341L125.457 190.588H267.504V288.737Z" fill="#98E5EC"/>
<path d="M198.387 230.62H159.969V237.318H198.387V230.62Z" fill="#E30072"/>
<path d="M277.624 134.448L250.058 178.448L254.326 181.185L281.893 137.186L277.624 134.448Z" fill="white"/>
<path d="M286.69 140.146L259.124 184.146L263.393 186.883L290.959 142.884L286.69 140.146Z" fill="white"/>
<path d="M296.21 145.365L268.644 189.364L272.912 192.102L300.478 148.103L296.21 145.365Z" fill="white"/>
<defs>
<linearGradient id="paint0_linear_150_35579" x1="203.317" y1="242.019" x2="88.0111" y2="174.298" gradientUnits="userSpaceOnUse">
<stop stop-color="#808080" stop-opacity="0.25"/>
<stop offset="0.54" stop-color="#808080" stop-opacity="0.12"/>
<stop offset="1" stop-color="#808080" stop-opacity="0.1"/>
</linearGradient>
<linearGradient id="paint1_linear_150_35579" x1="30553.4" y1="-67668.4" x2="30553.4" y2="-95528.5" gradientUnits="userSpaceOnUse">
<stop stop-color="#808080" stop-opacity="0.25"/>
<stop offset="0.54" stop-color="#808080" stop-opacity="0.12"/>
<stop offset="1" stop-color="#808080" stop-opacity="0.1"/>
</linearGradient>
</defs>
</svg>
