<svg width="400" height="400" viewBox="0 0 400 400" fill="none" xmlns="http://www.w3.org/2000/svg">
<path d="M290.683 198.447C286.995 179.408 277.543 162.002 263.638 148.642C249.733 135.282 232.064 126.631 213.081 123.888C194.098 121.145 174.742 124.447 157.696 133.335C140.651 142.223 126.762 156.256 117.954 173.49C99.1188 175.526 81.7742 184.799 69.4984 199.395C57.2226 213.991 50.952 232.798 51.9802 251.935C53.0083 271.072 61.2568 289.08 75.0241 302.244C88.7914 315.408 107.027 322.724 125.97 322.682H286.373C302.719 322.633 318.381 316.041 329.94 304.346C341.498 292.652 348.014 276.805 348.063 260.267C348.129 244.492 342.218 229.291 331.544 217.792C320.871 206.293 306.248 199.37 290.683 198.447Z" fill="#5CC7D0"/>
<path d="M139.657 228.142C139.053 224.66 139.347 220.926 137.781 217.789C137.63 217.417 137.377 217.096 137.053 216.864C136.667 216.64 136.225 216.536 135.781 216.566C134.355 216.503 132.929 216.503 131.502 216.566C131.303 216.538 131.1 216.562 130.913 216.637C130.726 216.711 130.56 216.832 130.433 216.989C130.421 217.025 130.421 217.063 130.433 217.099C128.789 215.279 127.564 212.973 125.781 211.264L126.541 211.028C126.525 210.858 126.494 210.69 126.448 210.526C126.457 210.474 126.457 210.421 126.448 210.369C126.431 210.253 126.405 210.137 126.371 210.024C126.364 209.967 126.364 209.909 126.371 209.852C126.371 209.742 126.371 209.632 126.262 209.522C126.273 209.471 126.273 209.417 126.262 209.366L126.138 209.036V208.895L125.983 208.566V208.44C125.933 208.317 125.876 208.196 125.812 208.079V207.969L125.611 207.609C125.611 207.468 125.456 207.326 125.363 207.185C124.681 206.056 123.921 204.942 123.363 203.781C122.385 201.63 121.571 199.407 120.929 197.13C120.427 194.891 119.08 192.938 117.177 191.687C116.231 191.201 114.975 190.777 114.882 189.695C114.879 189.35 114.947 189.008 115.084 188.691C115.361 187.996 115.693 187.325 116.076 186.683C116.216 186.448 116.371 186.213 116.526 185.977L116.634 185.82L117.006 185.318L117.161 185.115L117.564 184.66L117.719 184.487L118.293 183.875C118.478 183.733 118.622 183.544 118.712 183.326C118.758 183.115 118.758 182.895 118.712 182.683C118.779 180.953 119.417 179.296 120.526 177.977C121.638 176.661 122.561 175.193 123.27 173.617C123.27 173.428 123.394 173.24 123.44 173.052V172.848C123.44 172.722 123.44 172.597 123.44 172.471V172.252C123.432 172.132 123.432 172.011 123.44 171.891V170.464C123.453 170.333 123.453 170.202 123.44 170.071V169.868C123.448 169.721 123.448 169.575 123.44 169.428V169.287C123.44 169.083 123.44 168.879 123.332 168.675C123.047 167.38 122.674 166.107 122.216 164.864C121.979 164.094 121.673 163.349 121.301 162.636C121.531 162.606 121.759 162.559 121.983 162.495C121.812 162.213 121.642 161.93 121.487 161.632C122.885 159.569 123.933 157.284 124.588 154.871C124.928 153.15 125.131 151.403 125.192 149.648C125.704 144.368 125.834 139.057 125.58 133.758V133.554C125.722 132.439 125.722 131.311 125.58 130.197C125.434 127.986 124.787 125.839 123.688 123.922C123.137 122.955 122.384 122.122 121.482 121.48C120.58 120.838 119.549 120.402 118.464 120.205C118.105 120.607 117.711 120.974 117.285 121.303C116.643 120.727 116.171 119.984 115.921 119.154C118.429 118.747 120.734 117.515 122.48 115.65C124.226 113.784 125.315 111.388 125.58 108.832C125.58 108.644 125.58 108.44 125.58 108.252V106.668C125.593 106.537 125.593 106.406 125.58 106.275V106.134V105.711V105.617C125.601 105.445 125.601 105.271 125.58 105.099C125.58 104.942 125.58 104.785 125.471 104.613C125.2 103.51 124.772 102.453 124.2 101.475C124.676 100.4 124.984 99.2575 125.115 98.0871C125.115 97.8832 125.115 97.6793 125.115 97.4911V96.3146C125.029 93.3821 123.868 90.5868 121.859 88.4714C122.096 88.093 122.289 87.6876 122.433 87.2636C122.483 87.1361 122.525 87.005 122.557 86.8714C122.6 86.7482 122.636 86.6225 122.665 86.495V86.1499C122.65 86.0143 122.65 85.8776 122.665 85.742C122.658 85.5957 122.658 85.4491 122.665 85.3028V84.2989C122.565 82.4891 121.794 80.7842 120.505 79.5246C119.217 78.265 117.507 77.5433 115.716 77.5037C113.925 77.4641 112.185 78.1094 110.843 79.3109C109.502 80.5124 108.658 82.1816 108.479 83.9852C108.363 84.7177 108.363 85.4644 108.479 86.1969C106.728 87.0596 105.218 88.3531 104.088 89.959C102.959 91.565 102.246 93.432 102.014 95.3891C101.96 96.0415 101.96 96.6974 102.014 97.3499C100.972 99 100.354 100.887 100.216 102.84V103.06C100.216 103.295 100.216 103.546 100.216 103.797C100.197 105.61 100.594 107.403 101.374 109.036C102.154 110.668 103.296 112.097 104.712 113.209C105.294 114.172 106.064 115.004 106.975 115.656C107.149 116.165 107.274 116.691 107.347 117.224C107.393 117.874 107.305 118.525 107.088 119.138C106.872 119.751 106.533 120.312 106.092 120.785C105.828 121.005 105.533 121.177 105.27 121.397C104.996 121.319 104.706 121.319 104.433 121.397C102.85 121.819 101.369 122.563 100.079 123.582C98.7889 124.601 97.7172 125.875 96.9288 127.326C96.5869 127.974 96.3166 128.658 96.1226 129.366L95.952 129.617C94.0655 132.609 92.7069 135.911 91.9365 139.373C91.674 141.171 91.1842 142.926 90.4792 144.597C90.2836 144.933 90.1275 145.291 90.0141 145.664C89.9578 146.258 89.9526 146.856 89.9985 147.452C89.7632 148.457 89.4681 149.447 89.1148 150.417C89.0063 151.028 89.0218 151.64 88.9288 152.252C88.6345 153.296 88.256 154.314 87.797 155.295C87.1613 157.083 87.1613 159.044 86.6962 160.895C86.6351 161.2 86.5021 161.485 86.3086 161.726C85.9366 162.025 85.5172 162.259 85.0683 162.417C84.7379 162.625 84.4551 162.902 84.2386 163.229C84.022 163.556 83.8768 163.926 83.8125 164.315C83.6963 165.1 83.6963 165.898 83.8125 166.683L84.0451 169.82L80.6187 170.871L74.9753 172.55C73.3309 172.962 71.7611 173.634 70.3241 174.542C69.0393 175.444 68.0253 176.687 67.3939 178.134C66.8213 179.646 66.4511 181.229 66.2931 182.84C65.7495 187.336 64.7839 191.769 63.4094 196.079C63.2854 196.409 63.1613 196.738 63.0528 197.068L62.6652 198.04C62.6301 198.104 62.604 198.173 62.5877 198.244L62.2621 199.013L61.8125 199.985L74.9443 204.424C74.9309 204.597 74.9309 204.77 74.9443 204.942C75.3939 208.205 75.1768 211.515 75.5954 214.777C75.6449 215.315 75.7702 215.844 75.9675 216.346C75.6318 216.633 75.3888 217.016 75.2699 217.444C75.1386 218.144 75.1386 218.862 75.2699 219.562C75.4094 221.24 75.5644 222.903 75.704 224.581C75.7816 225.185 75.7816 225.797 75.704 226.401C75.4248 227.48 75.0459 228.531 74.5722 229.538C74.3478 230.041 74.2796 230.602 74.3765 231.145C74.4734 231.688 74.7308 232.189 75.1148 232.581C75.4159 232.791 75.7652 232.918 76.1292 232.951C76.4931 232.984 76.8593 232.922 77.1923 232.769C77.8562 232.466 78.4403 232.01 78.8978 231.436C81.5489 228.471 82.7272 224.456 84.7737 221.02C85.3124 220.236 85.7843 219.407 86.1846 218.542C86.4792 217.883 86.6497 217.177 86.8823 216.487C87.1983 215.573 87.5764 214.682 88.0141 213.82C88.2621 213.318 89.2234 212.142 89.0063 211.593C88.6652 210.652 85.0528 209.82 84.1846 209.522C83.6168 209.295 82.9849 209.295 82.4172 209.522C82.3339 209.565 82.2559 209.618 82.1846 209.679L81.8745 205.664C82.4172 205.664 82.9443 205.538 83.4249 205.444C83.4249 204.691 83.4249 203.875 83.4249 203.169C83.4249 202.464 83.4249 201.773 83.4249 201.068C83.4249 199.373 83.3474 197.664 83.3009 195.985C83.3012 194.999 83.2391 194.014 83.1148 193.036C82.9133 191.468 82.4637 190.087 82.3241 188.581C82.5394 188.405 82.7955 188.286 83.0683 188.236C83.4908 188.189 83.9171 188.189 84.3396 188.236H84.6807C86.5294 188.163 88.3307 187.624 89.921 186.668C91.5799 185.805 93.1148 184.707 94.7272 183.813L95.3319 183.483L95.5644 183.373L95.952 183.185L96.2621 183.028C97.2234 182.558 98.1846 182.103 99.1148 181.601C99.173 181.706 99.2404 181.806 99.3164 181.899C99.5395 182.209 99.849 182.445 100.205 182.576C100.561 182.707 100.948 182.728 101.316 182.636C99.9975 185.309 99.0531 188.155 98.5102 191.091C98.014 195.42 99.7195 199.609 101.409 203.64L106.758 216.424C107.363 217.836 108.138 219.42 109.595 219.766C110.525 219.894 111.47 219.701 112.278 219.217C114.694 217.925 117.002 216.435 119.177 214.762H119.27C121.136 216.504 122.707 218.544 123.921 220.801L127.673 227.075C127.655 227.392 127.708 227.708 127.828 228.001C128.106 228.514 128.462 228.979 128.882 229.381C131.28 231.993 132.851 235.271 133.394 238.793C133.445 239.687 133.7 240.556 134.138 241.334C135.146 242.746 137.239 242.652 138.789 241.852C139.254 241.636 139.655 241.301 139.952 240.879C140.206 240.425 140.364 239.923 140.417 239.405C140.698 238.116 140.849 236.802 140.867 235.483C140.667 233.006 140.263 230.551 139.657 228.142ZM118.138 113.397C118.396 113.223 118.645 113.034 118.882 112.832C118.384 114.381 117.565 115.803 116.479 117.005C116.231 117.287 115.952 117.554 115.688 117.805V117.648C115.688 117.036 115.688 116.362 115.688 115.718C116.656 115.126 117.49 114.335 118.138 113.397ZM96.8823 161.46V161.334C97.0969 161.486 97.2811 161.678 97.4249 161.899C97.2784 162.227 97.2105 162.586 97.2266 162.945C97.2428 163.305 97.3426 163.656 97.5179 163.969C97.828 164.503 98.4016 165.005 98.2776 165.538C98.1536 166.071 97.3784 166.401 96.7272 166.511C96.0761 166.62 95.0838 166.793 94.2776 166.95C94.2937 166.259 94.1995 165.571 93.9985 164.911C94.6808 164.557 95.287 164.07 95.782 163.477C96.277 162.885 96.651 162.199 96.8823 161.46Z" fill="url(#paint0_linear_28_56351)"/>
<path d="M121.937 90.5562C122.91 88.9046 123.194 86.9297 122.727 85.0661C122.261 83.2025 121.081 81.6028 119.449 80.6189C117.817 79.635 115.865 79.3475 114.023 79.8197C112.181 80.2918 110.6 81.485 109.627 83.1366C108.739 84.6339 108.43 86.4106 108.759 88.1248C106.722 89.1 105.016 90.6627 103.854 92.6164C102.693 94.5702 102.129 96.8277 102.232 99.1052C101.27 100.623 100.671 102.347 100.483 104.139C100.294 105.932 100.52 107.744 101.144 109.433C101.768 111.122 102.772 112.64 104.076 113.868C105.381 115.096 106.95 116 108.66 116.507C110.37 117.015 112.173 117.113 113.927 116.793C115.68 116.473 117.336 115.744 118.763 114.664C120.19 113.585 121.348 112.183 122.147 110.572C122.946 108.96 123.362 107.183 123.364 105.38V104.815C124.784 102.602 125.418 99.9667 125.162 97.3412C124.905 94.7157 123.774 92.2566 121.953 90.368L121.937 90.5562Z" fill="#2F4051"/>
<g opacity="0.1">
<path opacity="0.1" d="M108.664 86.353H108.757V85.9766L108.664 86.353Z" fill="black"/>
<path opacity="0.1" d="M125.1 98.1815C124.897 99.9448 124.292 101.636 123.333 103.123V103.672C123.307 106.656 122.149 109.516 120.097 111.659C118.045 113.803 115.257 115.066 112.31 115.187C109.363 115.308 106.483 114.277 104.267 112.309C102.05 110.341 100.666 107.585 100.402 104.613C100.402 104.927 100.402 105.225 100.402 105.57C100.512 108.577 101.769 111.423 103.91 113.511C106.051 115.6 108.909 116.766 111.883 116.766C114.857 116.766 117.715 115.6 119.856 113.511C121.997 111.423 123.254 108.577 123.364 105.57V105.005C124.323 103.519 124.928 101.827 125.131 100.064C125.224 99.2824 125.224 98.4924 125.131 97.7109C125.144 97.8685 125.134 98.0271 125.1 98.1815Z" fill="black"/>
<path opacity="0.1" d="M122.868 85.9141C122.747 86.8888 122.43 87.8282 121.938 88.6748C122.139 88.8788 122.325 89.0984 122.527 89.318C122.713 88.8123 122.838 88.2855 122.899 87.7494C122.975 87.1392 122.965 86.5212 122.868 85.9141Z" fill="black"/>
</g>
<path d="M75.6578 215.216C75.709 215.878 75.8881 216.523 76.1849 217.114C76.3362 217.414 76.5557 217.672 76.8253 217.868C77.0949 218.065 77.4069 218.193 77.7353 218.244C78.3295 218.242 78.9107 218.068 79.4097 217.742C80.4851 217.299 81.3998 216.532 82.0299 215.546C82.4502 214.492 82.5736 213.341 82.3865 212.22L81.6888 203.357C80.0454 203.357 78.3865 203.357 76.7276 203.357C75.0687 203.357 74.8051 203.844 75.0377 205.459C75.4563 208.722 75.2082 211.985 75.6578 215.216Z" fill="#FBBEBE"/>
<path d="M124.185 221.177L128.107 227.608C128.278 227.985 128.591 228.279 128.975 228.424C129.257 228.47 129.546 228.42 129.797 228.282C131.065 227.608 132.179 226.673 133.068 225.537C133.767 224.856 134.298 224.018 134.619 223.09C134.741 222.576 134.732 222.039 134.594 221.529C134.456 221.019 134.192 220.552 133.828 220.173C133.354 219.749 132.834 219.38 132.278 219.075C129.177 216.957 127.766 212.926 124.696 210.745C124.523 210.601 124.314 210.508 124.092 210.479C123.866 210.491 123.647 210.561 123.456 210.682L119.378 213.035C117.58 214.039 118.138 214.165 119.518 215.247C121.374 216.961 122.949 218.963 124.185 221.177Z" fill="#FBBEBE"/>
<path d="M84.1995 210.086C83.6317 209.859 82.9998 209.859 82.432 210.086C82.1776 210.244 81.9627 210.46 81.8041 210.715C81.6454 210.971 81.5473 211.26 81.5173 211.561C81.4088 212.157 81.4088 212.769 81.2537 213.333C80.8941 214.283 80.302 215.125 79.5328 215.781C79.2489 216.123 78.8796 216.383 78.463 216.533C77.8894 216.675 77.2847 216.408 76.7111 216.533C76.3766 216.626 76.0724 216.807 75.8299 217.058C75.5874 217.309 75.4153 217.62 75.3313 217.961C75.1995 218.65 75.1995 219.358 75.3313 220.047L75.7654 224.988C75.843 225.592 75.843 226.204 75.7654 226.808C75.4915 227.889 75.1124 228.94 74.6336 229.945C74.3949 230.461 74.319 231.039 74.4161 231.6C74.5132 232.162 74.7785 232.679 75.1762 233.082C75.4815 233.283 75.831 233.403 76.1935 233.433C76.556 233.463 76.9203 233.402 77.2537 233.255C77.9176 232.952 78.5057 232.501 78.9747 231.937C81.6103 229.02 82.8041 225.051 84.8661 221.679C85.3938 220.907 85.8603 220.094 86.2615 219.247C86.5561 218.588 86.7266 217.898 86.9592 217.224C87.2792 216.321 87.6572 215.441 88.0909 214.588C88.339 214.102 89.3002 212.926 89.0832 212.377C88.7111 211.2 85.0832 210.369 84.1995 210.086Z" fill="#2F4051"/>
<path d="M132.002 223.702C131.401 224.843 130.4 225.716 129.196 226.15C128.854 226.238 128.535 226.404 128.266 226.636C128.09 226.852 127.98 227.116 127.95 227.394C127.92 227.673 127.97 227.954 128.095 228.204C128.37 228.715 128.726 229.176 129.15 229.569C131.527 232.115 133.098 235.321 133.661 238.777C133.718 239.662 133.979 240.521 134.421 241.287C135.413 242.683 137.522 242.589 139.072 241.804C139.531 241.586 139.93 241.258 140.235 240.848C140.496 240.402 140.655 239.904 140.7 239.389C140.979 238.116 141.135 236.818 141.165 235.514C140.917 233.072 140.455 230.658 139.785 228.299C139.181 224.879 139.475 221.177 137.894 218.087C137.75 217.715 137.509 217.389 137.196 217.146C136.799 216.938 136.356 216.836 135.909 216.848C134.483 216.848 133.057 216.848 131.63 216.848C131.432 216.82 131.231 216.842 131.044 216.914C130.857 216.985 130.691 217.102 130.56 217.255C130.486 217.449 130.46 217.658 130.488 217.864C130.515 218.07 130.593 218.265 130.716 218.432C131.599 220.204 133.026 221.601 132.002 223.702Z" fill="#2F4051"/>
<path d="M98.1382 162.258C97.7401 162.594 97.4699 163.059 97.3737 163.574C97.2775 164.09 97.3614 164.623 97.6111 165.082C97.9367 165.6 98.4948 166.102 98.3708 166.651C98.2467 167.2 97.487 167.482 96.8204 167.592C91.333 168.631 85.9204 170.041 80.6188 171.811L74.9909 173.521C73.351 173.932 71.7826 174.593 70.3398 175.482C69.0604 176.37 68.0468 177.596 67.4095 179.027C66.8303 180.537 66.4599 182.12 66.3087 183.733C65.6951 189.586 64.1834 195.307 61.8281 200.69L75.4405 205.207C76.7622 205.706 78.1352 206.054 79.5336 206.243C80.8639 206.368 82.2051 206.305 83.518 206.054C83.425 202.917 83.3785 199.78 83.2855 196.721C83.2858 195.751 83.2236 194.781 83.0994 193.819C82.8979 192.345 82.4483 190.902 82.3087 189.411C82.8979 188.894 83.8591 189.035 84.6653 189.051C86.535 189.018 88.3675 188.517 89.9987 187.592C91.6421 186.729 93.0994 185.647 94.8049 184.768C97.5491 183.309 100.665 182.337 102.758 180.062C101.689 184.172 99.146 187.764 98.6808 191.984C98.2157 196.203 99.8901 200.407 101.596 204.345L106.96 216.894C107.565 218.29 108.34 219.858 109.797 220.172C110.725 220.298 111.668 220.111 112.479 219.639C117.425 217.302 121.363 212.909 126.65 211.498C126.247 208.862 124.185 206.666 123.037 204.282C122.209 202.191 121.551 200.034 121.068 197.835C120.818 196.737 120.357 195.699 119.711 194.781C119.064 193.863 118.245 193.083 117.301 192.486C116.355 192 115.084 191.576 115.006 190.509C114.995 190.163 115.064 189.82 115.208 189.505C115.916 187.713 117.013 186.105 118.417 184.8C118.599 184.654 118.743 184.465 118.836 184.251C118.874 184.054 118.874 183.851 118.836 183.654C118.887 181.921 119.528 180.259 120.65 178.949C121.766 177.649 122.695 176.197 123.41 174.635C124.386 171.858 123.41 168.8 122.433 166.023C122.138 164.88 121.609 163.811 120.882 162.886C119.479 161.65 117.689 160.955 115.828 160.925C109.828 160.125 102.851 158.556 98.1382 162.258Z" fill="#2F4051"/>
<g opacity="0.1">
<path opacity="0.1" d="M120.664 174.446C119.534 175.751 118.897 177.418 118.866 179.152C118.897 179.355 118.897 179.561 118.866 179.764C118.762 179.972 118.614 180.155 118.432 180.297C117.03 181.605 115.934 183.213 115.223 185.003C115.078 185.312 115.008 185.651 115.021 185.992C115.084 186.315 115.229 186.616 115.44 186.866C115.652 187.116 115.924 187.307 116.23 187.419C116.833 186.4 117.58 185.475 118.447 184.674C118.628 184.534 118.772 184.351 118.866 184.141C118.906 183.939 118.906 183.731 118.866 183.529C118.92 181.796 119.56 180.135 120.68 178.823C121.795 177.529 122.725 176.082 123.44 174.525C123.927 172.943 123.976 171.255 123.579 169.646L123.44 170.133C122.722 171.697 121.788 173.15 120.664 174.446Z" fill="black"/>
<path opacity="0.1" d="M97.5195 163.137C97.7187 163.097 97.9034 163.003 98.0537 162.865C98.2039 162.726 98.3141 162.549 98.3722 162.352C98.3877 162.275 98.3877 162.195 98.3722 162.117L98.1087 162.305C97.8508 162.532 97.649 162.817 97.5195 163.137Z" fill="black"/>
<path opacity="0.1" d="M79.5025 201.787C78.1071 201.583 76.7357 201.236 75.4095 200.752L63.3785 196.752C62.9417 198.075 62.4239 199.369 61.8281 200.626L75.456 205.144C76.7777 205.643 78.1507 205.99 79.5491 206.179C80.8794 206.305 82.2206 206.242 83.5336 205.991C83.5336 204.548 83.456 203.074 83.425 201.615C82.13 201.84 80.812 201.898 79.5025 201.787Z" fill="black"/>
<path opacity="0.1" d="M112.479 215.168C111.661 215.638 110.714 215.826 109.781 215.701C108.324 215.371 107.533 213.803 106.944 212.422L101.58 199.873C100.274 197.146 99.3299 194.255 98.7736 191.277C98.7736 191.481 98.6961 191.685 98.665 191.873C98.1844 196.14 99.8743 200.313 101.58 204.25L106.944 216.799C107.549 218.195 108.324 219.748 109.781 220.077C110.714 220.202 111.661 220.015 112.479 219.544C117.409 217.207 121.363 212.799 126.634 211.403C126.352 210.019 125.799 208.707 125.006 207.544C120.526 209.332 116.898 213.066 112.479 215.168Z" fill="black"/>
<path opacity="0.1" d="M102.743 175.545C100.65 177.851 97.5333 178.839 94.7891 180.251C93.1457 181.129 91.6883 182.212 89.9829 183.074C88.3525 184.001 86.5195 184.503 84.6496 184.533C83.8462 184.384 83.0167 184.511 82.293 184.894C82.417 186.259 82.8201 187.592 83.0372 188.957C83.5524 188.899 84.0723 188.899 84.5875 188.957C86.4575 188.926 88.2905 188.425 89.9209 187.498C91.5643 186.635 93.1147 185.553 94.7271 184.674C96.3395 183.796 98.51 182.949 100.246 181.882C101.226 179.832 102.06 177.714 102.743 175.545Z" fill="black"/>
</g>
<path d="M107.535 118.682C107.596 119.368 107.502 120.059 107.26 120.703C107.018 121.347 106.635 121.927 106.14 122.4C105.814 122.682 105.426 122.902 105.101 123.2C104.573 123.735 104.277 124.46 104.277 125.215C104.277 125.971 104.573 126.696 105.101 127.231L105.457 127.545C106.628 128.074 107.946 128.169 109.178 127.811C110.845 127.574 112.478 127.142 114.047 126.525C115.621 125.912 116.966 124.815 117.892 123.388C117.232 122.959 116.688 122.373 116.307 121.681C115.925 120.988 115.719 120.212 115.705 119.419C115.705 117.851 116.047 116.062 115.07 114.839C114.513 114.316 113.82 113.965 113.073 113.829C112.325 113.693 111.555 113.777 110.853 114.07C110.124 114.274 109.426 114.556 108.698 114.76C108.31 114.854 107.147 114.854 106.884 115.137C106.62 115.419 107.488 117.882 107.535 118.682Z" fill="#FBBEBE"/>
<path opacity="0.1" d="M107.535 118.682C107.596 119.368 107.502 120.059 107.26 120.703C107.018 121.347 106.635 121.927 106.14 122.4C105.814 122.682 105.426 122.902 105.101 123.2C104.573 123.735 104.277 124.46 104.277 125.215C104.277 125.971 104.573 126.696 105.101 127.231L105.457 127.545C106.628 128.074 107.946 128.169 109.178 127.811C110.845 127.574 112.478 127.142 114.047 126.525C115.621 125.912 116.966 124.815 117.892 123.388C117.232 122.959 116.688 122.373 116.307 121.681C115.925 120.988 115.719 120.212 115.705 119.419C115.705 117.851 116.047 116.062 115.07 114.839C114.513 114.316 113.82 113.965 113.073 113.829C112.325 113.693 111.555 113.777 110.853 114.07C110.124 114.274 109.426 114.556 108.698 114.76C108.31 114.854 107.147 114.854 106.884 115.137C106.62 115.419 107.488 117.882 107.535 118.682Z" fill="black"/>
<path d="M111.706 118.605C116.168 118.605 119.784 114.946 119.784 110.432C119.784 105.919 116.168 102.26 111.706 102.26C107.245 102.26 103.629 105.919 103.629 110.432C103.629 114.946 107.245 118.605 111.706 118.605Z" fill="#FBBEBE"/>
<path d="M86.2312 173.067C86.082 173.712 85.8251 174.328 85.4715 174.886C84.5255 176.58 84.186 178.553 84.5103 180.47C84.6809 181.417 85.0782 182.306 85.6674 183.061C86.2567 183.816 87.0198 184.413 87.8901 184.8C88.2566 184.982 88.6637 185.065 89.0714 185.04C89.479 185.016 89.8734 184.884 90.2157 184.659C89.2774 183.122 88.899 181.302 89.1459 179.514C89.1152 179.179 89.1913 178.844 89.363 178.557C89.4515 178.422 89.5893 178.328 89.7463 178.295C89.9033 178.263 90.0665 178.295 90.2002 178.384C90.1694 179.511 90.3865 180.631 90.8358 181.663C91.0064 182.055 91.2855 182.494 91.7196 182.494C92.1537 182.494 92.4948 181.631 92.4793 181.004C92.5756 178.463 92.0873 175.933 91.0529 173.616C90.5267 172.859 90.1236 172.022 89.8591 171.137C89.848 170.816 89.7337 170.508 89.5335 170.259C89.4049 170.15 89.2494 170.08 89.0839 170.055C88.4017 169.851 86.7428 169.239 86.1692 169.882C85.5955 170.525 86.3397 172.219 86.2312 173.067Z" fill="#FBBEBE"/>
<path d="M98.2167 129.693C97.2864 129.583 96.5578 130.43 96.0461 131.262C94.1544 134.206 92.7948 137.467 92.0306 140.893C91.768 142.67 91.2781 144.405 90.5733 146.054C90.3759 146.38 90.2147 146.727 90.0927 147.089C90.0462 147.653 90.0462 148.22 90.0927 148.783C89.8501 149.776 89.5551 150.756 89.2089 151.717C89.0849 152.329 89.1159 152.94 89.0074 153.536C88.7182 154.565 88.3449 155.567 87.8911 156.532C87.4254 158.352 87.0528 160.195 86.7748 162.054C86.7154 162.352 86.588 162.631 86.4027 162.87C86.0771 163.231 85.5655 163.309 85.1469 163.544C84.8167 163.751 84.5329 164.025 84.3139 164.349C84.0949 164.673 83.9456 165.04 83.8756 165.427C83.7602 166.201 83.7602 166.989 83.8756 167.764L84.2477 172.595C84.6198 172.438 84.8523 171.983 85.1934 171.732C85.5206 171.539 85.884 171.417 86.2603 171.374C86.6367 171.331 87.0178 171.368 87.3795 171.481L88.4647 171.685C89.5963 171.749 90.6658 172.229 91.4725 173.034C92.0461 172.14 91.7206 170.807 92.5888 170.211C92.8678 170.023 93.2244 169.96 93.519 169.787C93.801 169.603 94.0353 169.353 94.2025 169.058C94.3697 168.763 94.4649 168.433 94.4802 168.093C94.4965 167.418 94.4022 166.745 94.2012 166.101C95.5531 165.367 96.5622 164.12 97.0074 162.634C97.6118 160.904 98.048 159.117 98.3097 157.301C99.7028 150.137 100.527 142.872 100.775 135.576C100.865 134.359 100.733 133.136 100.387 131.968C99.9841 130.807 99.4105 129.819 98.2167 129.693Z" fill="#C80063"/>
<path d="M118.542 121.867C117.213 123.28 115.514 124.281 113.643 124.753C111.778 125.224 109.872 125.508 107.953 125.601C107.369 125.706 106.768 125.668 106.201 125.491C105.923 125.381 105.695 125.172 105.561 124.902C105.426 124.633 105.395 124.323 105.472 124.032C105.569 123.856 105.637 123.665 105.674 123.467C105.674 122.965 104.945 122.918 104.48 123.059C102.903 123.476 101.425 124.208 100.134 125.213C98.8421 126.218 97.7631 127.475 96.9607 128.91C96.2328 130.625 95.7826 132.447 95.6273 134.306C94.6892 139.117 94.5373 144.05 95.1777 148.91C95.8986 151.421 96.4171 153.986 96.7281 156.581C96.7281 158.04 96.5111 159.499 96.5266 160.957C96.4836 161.47 96.6208 161.981 96.9142 162.401C97.1312 162.667 97.4723 162.824 97.6273 163.138C97.7824 163.451 97.5343 164.346 97.8754 164.816C98.2165 165.287 99.1777 164.973 99.7669 164.581C102.695 162.569 106.231 161.669 109.751 162.04C113.968 162.495 118.185 164.785 122.278 163.608C122.073 163.293 121.892 162.963 121.736 162.62C119.549 155.782 119.964 148.365 122.899 141.82C124.088 139.731 124.99 137.489 125.581 135.153C125.736 134.035 125.736 132.9 125.581 131.781C125.446 129.568 124.798 127.419 123.689 125.506C123.14 124.561 122.397 123.746 121.508 123.118C120.62 122.49 119.608 122.064 118.542 121.867Z" fill="#E30072"/>
<path d="M99.0228 175.168C98.6994 176.057 98.5417 176.998 98.5577 177.945C98.5419 178.852 98.5885 179.758 98.6972 180.659C98.77 181.428 99.0428 182.164 99.4879 182.792C99.7169 183.099 100.03 183.331 100.388 183.459C100.747 183.588 101.135 183.606 101.503 183.513C101.79 183.389 102.045 183.203 102.252 182.967C102.458 182.731 102.61 182.451 102.697 182.149C102.874 181.538 103.003 180.913 103.085 180.282C103.696 178.503 104.143 176.67 104.418 174.808C104.429 174.583 104.392 174.358 104.31 174.149C103.978 173.679 103.544 173.293 103.041 173.021C102.539 172.749 101.98 172.598 101.41 172.58C100.372 172.8 99.4104 174.274 99.0228 175.168Z" fill="#FBBEBE"/>
<path opacity="0.1" d="M122.311 128.77C122.156 130.338 123.706 131.609 124.326 133.115C124.574 133.821 124.715 134.562 124.745 135.311C125.047 140.512 124.97 145.729 124.512 150.919C124.451 152.647 124.248 154.368 123.908 156.064C122.812 159.558 121.088 162.818 118.822 165.679C118.509 166.166 118.145 166.619 117.737 167.028C117.118 167.528 116.435 167.94 115.706 168.252L108.528 171.766C107.629 172.161 106.777 172.656 105.985 173.24C105.065 173.974 104.34 174.928 103.877 176.017C102.481 175.295 101.039 174.652 99.6596 173.93C99.3341 173.773 98.9775 173.554 98.9155 173.177C98.8534 172.801 99.3496 172.346 99.7061 171.97C100.256 171.228 100.661 170.387 100.9 169.491C102.063 166.683 104.962 164.895 106.001 162.056C106.248 160.921 106.667 159.831 107.241 158.824C107.651 158.368 108.108 157.958 108.605 157.601C109.708 156.658 110.715 155.607 111.613 154.464C112.025 154.039 112.36 153.545 112.605 153.005C112.837 152.169 112.916 151.297 112.838 150.432C112.838 147.593 114.171 144.958 114.946 142.228C115.722 139.499 115.985 136.973 116.931 134.479C117.877 131.985 119.753 129.428 122.311 128.77Z" fill="black"/>
<path d="M123.258 128.77C123.087 130.338 124.637 131.609 125.258 133.115C125.505 133.821 125.646 134.562 125.676 135.311C125.986 140.512 125.909 145.729 125.444 150.919C125.379 152.649 125.166 154.37 124.808 156.064C123.712 159.558 121.988 162.818 119.723 165.679C119.409 166.166 119.045 166.619 118.637 167.028C118.019 167.528 117.335 167.94 116.606 168.252L109.444 171.766C108.548 172.167 107.696 172.661 106.901 173.24C105.981 173.974 105.256 174.928 104.792 176.017C103.397 175.295 101.955 174.652 100.575 173.93C100.25 173.773 99.8778 173.554 99.8313 173.177C99.7848 172.801 100.265 172.346 100.606 171.97C101.161 171.229 101.572 170.387 101.816 169.491C102.963 166.683 105.862 164.895 106.917 162.056C107.159 160.922 107.572 159.832 108.141 158.824C108.553 158.364 109.016 157.953 109.521 157.601C110.616 156.65 111.623 155.6 112.529 154.464C112.936 154.035 113.271 153.542 113.521 153.005C113.745 152.167 113.824 151.297 113.754 150.432C113.754 147.593 115.072 144.958 115.847 142.228C116.622 139.499 116.886 136.973 117.847 134.479C118.257 133.173 118.959 131.978 119.897 130.989C120.835 129.999 121.984 129.24 123.258 128.77Z" fill="#E30072"/>
<path d="M115.706 97.8036C113.213 97.519 110.696 98.07 108.543 99.3722C108.862 99.3334 109.185 99.3334 109.504 99.3722C111.889 99.6685 114.123 100.714 115.89 102.362C117.657 104.01 118.869 106.177 119.355 108.558C119.841 110.939 119.577 113.415 118.6 115.636C117.623 117.857 115.981 119.713 113.907 120.941C116.867 121.049 119.753 119.997 121.964 118.004C124.175 116.01 125.54 113.23 125.774 110.243C126.008 107.257 125.093 104.294 123.22 101.973C121.347 99.6521 118.661 98.1529 115.721 97.7879L115.706 97.8036Z" fill="#2F4051"/>
<path d="M119.24 104.266C119.812 105.55 119.862 107.009 119.38 108.329L119.194 107.843C117.767 104.705 113.395 103.325 109.426 104.894C108.379 105.279 107.423 105.883 106.622 106.667C105.821 107.451 105.191 108.397 104.775 109.443C103.767 106.305 105.814 102.792 109.581 101.317C113.349 99.8427 117.83 101.066 119.24 104.266Z" fill="#2F4051"/>
<g opacity="0.1">
<path opacity="0.1" d="M119.271 108.078C119.074 105.828 118.237 103.684 116.862 101.905C115.486 100.126 113.63 98.7887 111.519 98.0547C110.434 98.3156 109.391 98.7274 108.418 99.2782C108.74 99.2654 109.063 99.2917 109.379 99.3567C111.711 99.615 113.908 100.589 115.677 102.148C117.445 103.707 118.699 105.777 119.271 108.078Z" fill="black"/>
<path opacity="0.1" d="M121.115 99.6075C120.934 97.3662 120.114 95.2263 118.754 93.4472C117.395 91.668 115.554 90.3261 113.456 89.584C112.367 89.8459 111.323 90.2688 110.355 90.8389C110.675 90.8077 110.997 90.8077 111.317 90.8389C113.64 91.112 115.825 92.0989 117.577 93.6667C119.329 95.2345 120.564 97.3079 121.115 99.6075Z" fill="black"/>
<path opacity="0.1" d="M121.176 86.9336C121.053 85.5859 120.549 84.3026 119.724 83.2371C118.899 82.1716 117.788 81.3692 116.525 80.9258C115.876 81.0808 115.253 81.3347 114.68 81.6787C114.881 81.6559 115.083 81.6559 115.284 81.6787C116.677 81.8487 117.985 82.442 119.037 83.3803C120.089 84.3185 120.835 85.5575 121.176 86.9336Z" fill="black"/>
<path opacity="0.1" d="M125.472 106.494C125.695 109.282 124.918 112.057 123.283 114.312C121.649 116.568 119.267 118.152 116.573 118.777C115.796 119.629 114.897 120.358 113.906 120.941C116.943 121.056 119.902 119.948 122.133 117.861C124.365 115.773 125.688 112.876 125.813 109.804C125.852 108.69 125.737 107.576 125.472 106.494Z" fill="black"/>
</g>
<path d="M177.318 206.839C177.318 200.823 179.68 195.054 183.885 190.8C188.089 186.547 193.791 184.157 199.737 184.157C205.683 184.157 211.385 186.547 215.589 190.8C219.794 195.054 222.155 200.823 222.155 206.839V221.365H228.435V206.839C228.561 202.948 227.913 199.071 226.528 195.438C225.144 191.806 223.051 188.492 220.375 185.694C217.7 182.896 214.495 180.671 210.952 179.152C207.409 177.633 203.6 176.85 199.752 176.85C195.904 176.85 192.096 177.633 188.553 179.152C185.01 180.671 181.805 182.896 179.129 185.694C176.453 188.492 174.361 191.806 172.977 195.438C171.592 199.071 170.944 202.948 171.07 206.839V221.365H177.349L177.318 206.839Z" fill="#2F4051"/>
<path d="M238.761 220.455H160.73V284.879H238.761V220.455Z" fill="#6C63FF"/>
<path d="M238.761 220.455H160.73V284.879H238.761V220.455Z" fill="#2F4051"/>
<path d="M238.761 233.16H160.73V272.172H238.761V233.16Z" fill="#E30072"/>
<path d="M205.457 245.286C205.459 244.341 205.232 243.411 204.796 242.575C204.361 241.74 203.729 241.025 202.958 240.493C202.186 239.961 201.298 239.628 200.37 239.524C199.442 239.419 198.503 239.546 197.635 239.893C196.767 240.24 195.995 240.797 195.389 241.515C194.782 242.232 194.358 243.09 194.154 244.011C193.95 244.933 193.972 245.891 194.218 246.803C194.464 247.714 194.927 248.55 195.566 249.239V261.599C195.631 262.672 196.097 263.679 196.871 264.416C197.645 265.152 198.667 265.562 199.729 265.562C200.791 265.562 201.813 265.152 202.587 264.416C203.36 263.679 203.827 262.672 203.892 261.599V249.254C204.899 248.185 205.46 246.763 205.457 245.286Z" fill="#A60052"/>
<path d="M204.653 246.275C204.655 245.461 204.459 244.66 204.084 243.94C203.708 243.22 203.165 242.604 202.5 242.146C201.835 241.687 201.07 241.4 200.27 241.31C199.471 241.22 198.662 241.329 197.914 241.627C197.166 241.926 196.501 242.405 195.978 243.024C195.455 243.642 195.089 244.38 194.913 245.174C194.737 245.968 194.755 246.794 194.966 247.579C195.178 248.364 195.576 249.085 196.126 249.679V260.393C196.094 260.89 196.163 261.388 196.329 261.857C196.494 262.326 196.753 262.756 197.09 263.119C197.426 263.483 197.833 263.772 198.285 263.97C198.736 264.169 199.223 264.271 199.715 264.271C200.208 264.271 200.695 264.169 201.146 263.97C201.598 263.772 202.005 263.483 202.341 263.119C202.677 262.756 202.937 262.326 203.102 261.857C203.268 261.388 203.337 260.89 203.305 260.393V249.726C204.185 248.8 204.669 247.56 204.653 246.275Z" fill="#81003F"/>
<defs>
<linearGradient id="paint0_linear_28_56351" x1="101.409" y1="242.322" x2="101.409" y2="77.3185" gradientUnits="userSpaceOnUse">
<stop stop-color="#808080" stop-opacity="0.25"/>
<stop offset="0.54" stop-color="#808080" stop-opacity="0.12"/>
<stop offset="1" stop-color="#808080" stop-opacity="0.1"/>
</linearGradient>
</defs>
</svg>
