<svg width="400" height="400" viewBox="0 0 400 400" fill="none" xmlns="http://www.w3.org/2000/svg">
<path d="M301.483 269.562L334.524 250.56C363.813 233.616 367.08 208.079 341.664 193.434C316.248 178.79 271.952 180.605 242.663 197.549L64.7506 300.303C35.4616 317.247 32.1938 342.784 57.6099 357.428C78.7899 369.652 113.283 370.378 141.12 360.454L146.445 358.397C149.955 356.944 153.344 355.25 156.611 353.434L220.151 316.763L301.483 269.562Z" fill="#B6BBC1"/>
<path d="M300.394 91.1647C300.757 90.9226 300.999 90.5596 301.362 90.3175C301.725 89.9544 302.088 89.5913 302.451 89.3493C302.814 89.1072 303.056 88.8652 303.42 88.5021C303.783 88.139 304.267 87.8969 304.63 87.5338C304.993 87.2918 305.235 87.0497 305.598 86.8077C305.961 86.4446 306.445 86.2025 306.808 85.8394C307.171 85.5974 307.414 85.3553 307.777 85.1133C308.261 84.7502 308.624 84.5081 309.108 84.145C309.35 83.903 309.713 83.782 309.955 83.5399C310.439 83.1768 310.923 82.9348 311.407 82.5717C311.65 82.4506 311.892 82.2086 312.134 82.0875C312.86 81.6034 313.586 81.1193 314.312 80.7562C315.401 80.1511 316.37 79.5459 317.459 79.0618C317.701 78.9408 318.064 78.8198 318.306 78.5777C319.153 78.2146 319.879 77.8515 320.606 77.4885C320.848 77.3674 321.211 77.2464 321.453 77.1254C322.179 76.8833 322.905 76.5202 323.631 76.2782C323.752 76.1571 323.994 76.1571 324.115 76.0361C324.963 75.673 325.931 75.431 326.778 75.1889C327.262 75.0679 327.746 74.9468 328.351 74.8258C328.594 74.8258 328.836 74.7048 329.078 74.7048C329.804 74.5838 330.53 74.4627 331.256 74.3417C331.256 74.3417 331.256 74.3417 331.377 74.3417C332.103 74.2207 332.708 74.2207 333.435 74.0997C333.677 74.0997 333.919 74.0997 334.04 74.0997C334.524 74.0997 335.008 73.9786 335.492 73.9786C335.734 73.9786 335.855 73.9786 336.097 73.9786C336.581 73.9786 337.066 73.9786 337.55 73.9786C337.671 73.9786 337.913 73.9786 338.034 73.9786C338.276 73.9786 338.397 73.9786 338.639 73.9786C339.365 73.9786 340.091 74.0997 340.817 74.2207C341.06 74.2207 341.302 74.3417 341.544 74.3417C342.391 74.4627 343.238 74.7048 343.964 74.9469H344.085C344.811 75.1889 345.538 75.431 346.264 75.673C346.506 75.7941 346.627 75.7941 346.869 75.9151C347.474 76.1571 348.079 76.5202 348.684 76.7623C348.926 76.8833 349.047 77.0043 349.289 77.1254L296.884 46.6261C296.763 46.6261 296.763 46.5051 296.642 46.5051C296.521 46.5051 296.4 46.3841 296.279 46.3841C295.674 46.021 295.069 45.7789 294.463 45.5369C294.342 45.5369 294.221 45.4158 294.1 45.4158C293.979 45.4158 293.858 45.2948 293.858 45.2948C293.132 45.0527 292.406 44.6897 291.68 44.5686H291.559C290.712 44.3266 289.985 44.2055 289.138 43.9635C289.017 43.9635 288.896 43.9635 288.896 43.8425C288.775 43.8425 288.654 43.8425 288.533 43.8425C287.807 43.7214 287.081 43.6004 286.355 43.6004C286.233 43.6004 286.112 43.6004 285.991 43.6004C285.87 43.6004 285.87 43.6004 285.749 43.6004C285.628 43.6004 285.386 43.6004 285.265 43.6004C284.781 43.6004 284.297 43.6004 283.813 43.6004C283.571 43.6004 283.45 43.6004 283.208 43.6004C283.087 43.6004 282.845 43.6004 282.724 43.6004C282.361 43.6004 282.118 43.6004 281.755 43.7214C281.513 43.7214 281.271 43.7214 281.15 43.7214C280.545 43.8425 279.819 43.8425 279.093 43.9635C279.093 43.9635 279.093 43.9635 278.972 43.9635C278.246 44.0845 277.519 44.2055 276.793 44.3266C276.551 44.3266 276.309 44.4476 276.067 44.4476C275.583 44.5686 275.099 44.6897 274.615 44.8107H274.494C273.646 45.0527 272.678 45.2948 271.831 45.6579C271.71 45.7789 271.468 45.7789 271.347 45.8999C270.621 46.142 269.895 46.3841 269.168 46.7472C269.047 46.7472 268.926 46.8682 268.926 46.8682C268.805 46.9892 268.563 46.9892 268.442 47.1102C267.716 47.4733 266.869 47.8364 266.143 48.1995C265.901 48.3205 265.538 48.4416 265.295 48.6836C264.206 49.1677 263.238 49.7729 262.149 50.378C261.423 50.8621 260.696 51.2252 259.97 51.7093C259.728 51.8304 259.486 52.0724 259.244 52.1934C258.76 52.5565 258.276 52.7986 257.792 53.1617C257.55 53.4037 257.187 53.5248 256.945 53.7668C256.46 54.1299 256.097 54.372 255.613 54.735L225.598 37.3069C225.477 37.1859 225.356 37.1859 225.235 37.0648C224.509 36.7018 223.904 36.3387 223.177 35.9756C223.056 35.8546 222.814 35.8546 222.693 35.7335C222.33 35.4915 221.846 35.3704 221.483 35.2494C221.241 35.1284 220.999 35.0074 220.636 34.8863C220.394 34.7653 220.152 34.7653 219.91 34.6443C219.063 34.2812 218.215 34.0391 217.368 33.7971H217.247C216.4 33.555 215.553 33.313 214.705 33.1919C214.463 33.1919 214.221 33.0709 213.979 33.0709C213.737 33.0709 213.495 32.9499 213.253 32.9499C212.769 32.8288 212.285 32.8288 211.801 32.7078C211.559 32.7078 211.438 32.7078 211.196 32.5868C210.348 32.4658 209.501 32.3447 208.654 32.3447C208.533 32.3447 208.412 32.3447 208.412 32.3447C208.17 32.3447 207.928 32.3447 207.686 32.3447C206.96 32.3447 206.233 32.3447 205.507 32.3447C205.144 32.3447 204.902 32.3447 204.539 32.3447C204.297 32.3447 204.055 32.3447 203.813 32.3447C203.329 32.3447 202.845 32.4658 202.361 32.4658C201.997 32.4658 201.755 32.4658 201.392 32.5868C200.303 32.7078 199.335 32.8288 198.246 32.9499C197.156 33.0709 195.946 33.313 194.857 33.555C194.494 33.676 194.131 33.7971 193.768 33.7971C193.041 33.9181 192.436 34.1602 191.71 34.2812C191.589 34.2812 191.468 34.4022 191.347 34.4022C191.226 34.4022 190.984 34.5232 190.863 34.5232C189.774 34.7653 188.805 35.1284 187.716 35.4915C187.595 35.4915 187.595 35.4915 187.474 35.6125C186.385 35.9756 185.295 36.4597 184.206 36.8228C183.964 36.9438 183.722 36.9438 183.601 37.0648C183.359 37.1859 183.238 37.1859 182.996 37.3069C182.028 37.67 181.181 38.1541 180.212 38.5172C180.091 38.6382 179.849 38.6382 179.728 38.7593C178.76 39.2434 177.792 39.7275 176.823 40.2116C176.46 40.3326 176.218 40.5747 175.855 40.6957C174.645 41.3009 173.556 41.906 172.345 42.6322C171.256 43.2373 170.167 43.9635 169.078 44.5686C168.715 44.8107 168.351 45.0527 167.988 45.2948C167.262 45.7789 166.536 46.263 165.81 46.7472C165.447 46.9892 164.963 47.3523 164.6 47.5944C163.994 48.0785 163.268 48.4416 162.663 48.9257C162.179 49.2888 161.816 49.5308 161.332 49.8939C160.727 50.378 160.122 50.7411 159.516 51.2252C159.032 51.5883 158.548 51.9514 158.185 52.3145C157.58 52.7986 157.096 53.2827 156.491 53.6458C156.007 54.0089 155.522 54.372 155.159 54.8561C154.554 55.3402 154.07 55.8243 153.465 56.3084C152.981 56.6715 152.497 57.1556 152.134 57.5187C151.649 58.0028 151.044 58.4869 150.56 58.9711C150.076 59.4552 149.592 59.8183 149.229 60.3024C148.745 60.7865 148.14 61.2706 147.656 61.7547C147.535 61.8757 147.413 61.9968 147.292 62.1178C147.05 62.3599 146.929 62.4809 146.808 62.7229C145.719 63.8122 144.751 64.7804 143.662 65.8697C143.42 66.1118 143.177 66.4748 142.814 66.7169C141.604 68.0482 140.394 69.2585 139.305 70.5898C139.184 70.7108 139.184 70.7108 139.063 70.8319C138.82 71.0739 138.578 71.437 138.336 71.8001C137.731 72.5263 137.126 73.2524 136.521 73.9786C136.158 74.4627 135.795 74.9469 135.432 75.3099C134.827 76.0361 134.342 76.7623 133.737 77.4885C133.495 77.7305 133.374 77.9726 133.132 78.2146C133.011 78.3357 132.89 78.4567 132.89 78.5777C131.438 80.5142 129.864 82.5717 128.533 84.5081C128.412 84.6292 128.291 84.7502 128.17 84.9922C128.049 85.1133 127.928 85.2343 127.928 85.4764C126.597 87.2918 125.386 89.2282 124.176 91.1647C124.055 91.2857 123.934 91.4068 123.934 91.6488C123.813 91.7699 123.692 92.0119 123.571 92.1329C122.361 93.9484 121.271 95.8848 120.182 97.7003C120.182 97.8213 120.061 97.8213 120.061 97.9423C119.94 98.0633 119.819 98.3054 119.819 98.4264C118.73 100.242 117.761 102.178 116.672 103.994C116.672 104.115 116.551 104.115 116.551 104.236C116.551 104.236 116.551 104.236 116.551 104.357C115.583 106.293 114.615 108.109 113.646 110.045C113.525 110.287 113.404 110.408 113.283 110.65C113.162 110.771 113.162 110.892 113.041 111.013C112.194 112.829 111.226 114.765 110.5 116.702C110.379 116.823 110.379 117.065 110.258 117.186C110.137 117.428 110.137 117.549 110.016 117.791C109.168 119.728 108.321 121.785 107.595 123.721C107.595 123.842 107.595 123.842 107.474 123.964C107.232 124.69 106.869 125.416 106.627 126.142C106.506 126.505 106.385 126.989 106.143 127.352C105.659 128.563 105.295 129.773 104.811 131.104C104.69 131.467 104.569 131.83 104.448 132.193C104.206 133.162 103.843 134.009 103.601 134.977C103.48 135.461 103.359 135.945 103.238 136.429C102.996 137.156 102.754 138.003 102.512 138.729C102.512 138.729 102.512 138.729 102.512 138.85C102.27 139.697 102.028 140.544 101.786 141.392C101.665 141.876 101.544 142.239 101.423 142.723C101.059 144.054 100.817 145.386 100.454 146.596C99.9702 146.717 99.3651 146.838 98.881 146.959C98.0338 147.201 97.1866 147.443 96.3394 147.685C96.2183 147.685 95.9763 147.806 95.8553 147.806C95.0081 148.048 94.1609 148.411 93.3137 148.774H93.1926C93.0716 148.774 93.0716 148.895 92.9506 148.895C91.8613 149.38 90.8931 149.743 89.8038 150.348C89.6828 150.348 89.6828 150.469 89.5618 150.469C88.4725 151.074 87.3832 151.558 86.173 152.284C85.3258 152.768 84.5996 153.252 83.7524 153.737C83.5103 153.858 83.2683 154.1 83.0262 154.221C82.5421 154.584 81.937 154.947 81.4528 155.31C81.2108 155.552 80.8477 155.673 80.6056 155.915C80.1215 156.278 79.6374 156.641 79.1533 157.004C78.9112 157.246 78.5481 157.488 78.3061 157.61C77.822 157.973 77.3379 158.336 76.8537 158.699C76.6117 158.941 76.3696 159.183 76.0065 159.304C75.4014 159.788 74.9173 160.272 74.4332 160.635C74.1911 160.756 74.0701 160.998 73.828 161.119C73.1019 161.724 72.3757 162.451 71.6495 163.056C71.5285 163.177 71.4075 163.298 71.1654 163.419C70.6813 163.903 70.1972 164.266 69.713 164.75C69.592 164.871 69.592 164.871 69.471 164.992C68.6238 165.839 67.7766 166.687 66.9294 167.534L66.8084 167.655C66.0822 168.502 65.235 169.349 64.5088 170.197C64.3878 170.318 64.3878 170.318 64.2668 170.439C64.1457 170.56 64.1457 170.681 64.0247 170.802C62.8144 172.254 61.6041 173.706 60.3938 175.159L60.2728 175.28C60.1518 175.401 60.1518 175.522 60.0307 175.643C59.0625 176.853 58.2153 178.063 57.2471 179.395C57.1261 179.516 57.005 179.637 57.005 179.758L56.884 179.879C56.0368 181.089 55.1896 182.299 54.3424 183.631C54.2214 183.752 54.2214 183.873 54.1003 183.994C53.9793 184.236 53.8583 184.357 53.7373 184.599C53.1321 185.567 52.4059 186.656 51.8008 187.746C51.6798 187.867 51.5587 188.109 51.4377 188.23C51.4377 188.351 51.3167 188.351 51.3167 188.472C50.5905 189.682 49.9854 190.892 49.2592 192.103C49.2592 192.224 49.1382 192.345 49.1382 192.345C49.0171 192.587 48.8961 192.708 48.7751 192.95C48.291 193.918 47.8068 194.886 47.3227 195.855C47.2017 196.097 47.0807 196.218 46.9596 196.46C46.9596 196.581 46.8386 196.702 46.8386 196.823C46.2335 198.033 45.6283 199.364 45.1442 200.575V200.696C45.1442 200.817 45.0232 200.938 45.0232 201.059C44.5391 202.148 44.055 203.358 43.5708 204.569C43.4498 204.811 43.4498 204.932 43.3288 205.174C43.3288 205.295 43.2078 205.537 43.2078 205.658C42.7236 206.989 42.2395 208.442 41.7554 209.773C41.7554 209.773 41.7554 209.773 41.7554 209.894C41.7554 210.015 41.7554 210.015 41.6344 210.136C41.1503 211.588 40.7872 212.92 40.3031 214.372C40.3031 214.493 40.182 214.735 40.182 214.856C40.182 214.977 40.061 215.219 40.061 215.34C39.94 215.824 39.8189 216.187 39.6979 216.672C39.5769 217.277 39.4559 217.761 39.3348 218.366C39.2138 218.85 39.0928 219.213 39.0928 219.697C38.9717 219.939 38.9717 220.302 38.8507 220.544C38.8507 220.787 38.7297 221.029 38.7297 221.15C38.6087 221.755 38.4876 222.481 38.3666 223.086C38.2456 223.57 38.2456 223.933 38.1245 224.417C38.0035 225.144 37.8825 225.749 37.8825 226.354C37.8825 226.717 37.7615 226.959 37.7615 227.322C37.7615 227.443 37.7615 227.443 37.7615 227.564C37.6404 229.016 37.3984 230.348 37.3984 231.8C37.3984 232.042 37.3984 232.405 37.3984 232.647C37.2773 234.1 37.2773 235.552 37.2773 236.883C37.2773 252.375 42.8447 263.268 51.6798 268.472L104.085 298.971C95.2501 293.888 89.8038 282.874 89.6828 267.383C89.6828 265.93 89.6828 264.599 89.8038 263.147C89.8038 262.905 89.8038 262.541 89.8038 262.299C89.9248 260.847 90.0459 259.516 90.1669 258.063C90.1669 257.7 90.2879 257.337 90.2879 256.853C90.409 256.248 90.53 255.522 90.53 254.917C90.651 254.433 90.651 254.069 90.772 253.585C90.8931 252.98 91.0141 252.254 91.1351 251.649C91.2562 251.165 91.3772 250.681 91.4982 250.076C91.6193 249.591 91.7403 249.228 91.7403 248.744C91.8613 248.139 91.9823 247.655 92.1034 247.05C92.2244 246.566 92.3454 246.203 92.4665 245.718C92.5875 245.355 92.7085 244.992 92.7085 244.75C93.0716 243.298 93.5557 241.967 94.0398 240.514C94.0398 240.393 94.1609 240.272 94.1609 240.151C94.645 238.82 95.1291 237.367 95.6132 236.036C95.7342 235.673 95.8553 235.31 95.9763 234.947C96.4604 233.737 96.9445 232.647 97.4286 231.437C97.5497 231.316 97.5497 231.074 97.6707 230.953C98.2758 229.743 98.7599 228.411 99.3651 227.201C99.4861 226.838 99.7282 226.596 99.8492 226.233C100.333 225.265 100.817 224.296 101.302 223.328C101.423 223.086 101.665 222.723 101.786 222.481C102.391 221.271 103.117 220.06 103.843 218.85C103.964 218.608 104.085 218.366 104.206 218.124C104.811 217.035 105.417 216.066 106.143 214.977C106.385 214.614 106.506 214.372 106.748 214.13C107.595 212.92 108.442 211.588 109.289 210.378C109.41 210.136 109.532 210.015 109.653 209.773C110.5 208.563 111.468 207.231 112.436 206.021C112.557 205.9 112.678 205.658 112.799 205.537C114.01 204.085 115.22 202.511 116.43 201.18C116.551 200.938 116.793 200.817 116.914 200.575C117.64 199.728 118.488 198.88 119.214 198.033L119.335 197.912C120.182 197.065 121.029 196.218 121.876 195.37C122.361 194.886 122.966 194.281 123.45 193.797C123.571 193.676 123.692 193.555 123.934 193.313C124.66 192.587 125.386 191.982 126.112 191.377C126.354 191.256 126.476 191.013 126.718 190.892C127.202 190.408 127.807 189.924 128.291 189.561C128.533 189.319 128.775 189.077 129.138 188.956C129.622 188.593 130.106 188.23 130.591 187.867C130.833 187.625 131.196 187.383 131.438 187.262C131.922 186.898 132.406 186.535 132.89 186.172C133.132 185.93 133.495 185.809 133.737 185.567C134.221 185.204 134.827 184.841 135.311 184.478C135.553 184.357 135.795 184.115 136.037 183.994C136.763 183.51 137.61 183.026 138.457 182.541C139.547 181.936 140.636 181.331 141.846 180.726C141.967 180.726 141.967 180.605 142.088 180.605C143.178 180.121 144.146 179.637 145.235 179.153C145.356 179.153 145.477 179.032 145.598 179.032C146.445 178.669 147.292 178.305 148.14 178.063C148.261 177.942 148.503 177.942 148.624 177.942C149.471 177.7 150.318 177.337 151.165 177.216C151.65 177.095 152.255 176.974 152.739 176.853C152.981 175.522 153.344 174.311 153.707 172.98C153.828 172.496 153.949 172.133 154.07 171.649C154.312 170.802 154.554 169.954 154.796 168.986C155.038 168.26 155.28 167.413 155.401 166.687C155.522 166.203 155.643 165.597 155.886 165.113C156.128 164.266 156.37 163.419 156.733 162.572C156.854 162.088 156.975 161.724 157.096 161.24C157.459 160.03 157.943 158.82 158.427 157.488C158.548 157.125 158.669 156.641 158.911 156.278C159.153 155.431 159.516 154.705 159.758 153.858C160.485 151.921 161.332 149.864 162.179 147.927C162.3 147.564 162.421 147.201 162.663 146.838C163.51 144.901 164.358 143.086 165.205 141.15C165.326 140.787 165.568 140.423 165.689 140.181C166.657 138.245 167.625 136.308 168.594 134.493C168.594 134.372 168.715 134.251 168.715 134.251C169.683 132.314 170.772 130.499 171.861 128.684C171.982 128.442 172.224 128.2 172.345 127.836C173.435 125.9 174.645 124.085 175.734 122.269C175.976 121.906 176.097 121.664 176.339 121.301C177.55 119.364 178.881 117.549 180.091 115.613C180.333 115.37 180.454 115.007 180.696 114.765C182.149 112.708 183.601 110.771 185.053 108.835C185.295 108.472 185.659 108.109 185.901 107.746C186.506 107.019 186.99 106.293 187.595 105.567C187.958 105.083 188.321 104.599 188.684 104.236C189.289 103.51 189.895 102.783 190.5 102.057C190.863 101.694 191.226 101.21 191.468 100.847C192.678 99.5157 193.768 98.1844 194.978 96.9741C195.22 96.732 195.462 96.3689 195.825 96.1269C196.793 95.0376 197.882 93.9484 198.972 92.9801C199.335 92.6171 199.577 92.375 199.94 92.0119C200.424 91.5278 201.029 91.0437 201.513 90.5596C201.997 90.0754 202.482 89.7124 202.845 89.2282C203.329 88.7441 203.934 88.26 204.418 87.7759C204.902 87.4128 205.386 86.9287 205.749 86.5656C206.354 86.0815 206.839 85.5974 207.444 85.1133C207.928 84.7502 208.412 84.3871 208.775 83.903C209.38 83.4189 209.864 82.9348 210.469 82.5717C210.954 82.2086 211.438 81.8455 211.801 81.4824C212.406 80.9983 213.011 80.6352 213.616 80.1511C214.1 79.788 214.463 79.4249 214.948 79.1829C215.553 78.6987 216.279 78.3357 216.884 77.8515C217.247 77.6095 217.731 77.2464 218.094 77.0043C218.82 76.5202 219.547 76.0361 220.273 75.552C220.636 75.3099 220.999 75.0679 221.362 74.8258C222.451 74.0997 223.541 73.4945 224.63 72.8894C225.84 72.1632 226.929 71.558 228.14 70.9529C228.503 70.8319 228.745 70.5898 229.108 70.4688C230.076 69.9847 231.044 69.5006 232.013 69.0164C232.134 68.8954 232.376 68.8954 232.497 68.7744C233.586 68.2903 234.796 67.8062 235.885 67.322C236.128 67.201 236.37 67.201 236.491 67.08C237.58 66.5959 238.669 66.2328 239.758 65.8697C239.879 65.8697 239.879 65.8697 240 65.7487C241.09 65.3856 242.058 65.0225 243.147 64.7804C243.268 64.7804 243.51 64.6594 243.631 64.6594C244.236 64.5384 244.721 64.4173 245.205 64.2963L297.126 94.5535C297.61 94.0694 298.094 93.5853 298.699 93.1012C299.063 92.8591 299.305 92.496 299.668 92.254C299.547 91.7699 299.91 91.4068 300.394 91.1647Z" fill="#DDE0E3"/>
<path d="M224.147 72.8891C258.761 52.9194 287.929 62.9647 296.885 94.4322C302.331 88.9859 308.141 84.2658 314.313 80.6349C341.544 64.9012 363.572 77.4882 363.693 108.714C363.814 139.939 341.786 177.942 314.676 193.676L138.216 295.582C110.985 311.316 88.9575 298.729 88.8364 267.503C88.7154 236.278 110.743 198.275 137.853 182.541C142.815 179.636 147.656 177.821 152.134 176.732C161.091 135.582 189.895 92.7378 224.147 72.8891Z" fill="#F4F5F6"/>
</svg>
