<svg width="400" height="400" viewBox="0 0 400 400" fill="none" xmlns="http://www.w3.org/2000/svg">
<g clip-path="url(#clip0_28_48120)">
<path d="M123.513 75.873C137.078 63.6315 158.362 61.2052 177.772 62.1978C238.649 65.2857 293.681 94.8418 341.213 128.368C358.418 140.499 375.401 153.623 386.54 170.276C409.259 204.243 402.531 251.335 370.88 279.347C360.072 288.831 347.058 296.22 333.714 302.617C309.893 314.086 284.197 323.35 257.177 325.997C237.877 327.872 218.357 326.328 199.278 323.681C145.79 316.402 93.1847 300.191 49.1813 272.509C29.8817 260.378 11.6848 245.269 3.74435 225.639C-4.19609 206.008 0.876972 181.084 20.6178 169.504C28.7788 164.652 38.4838 162.556 48.0785 160.461C62.0846 157.483 76.4215 154.505 89.1042 148.44C102.228 142.154 117.778 130.022 115.131 116.016C112.154 101.128 109.948 88.0042 123.513 75.873Z" fill="#5CC7D0"/>
<path d="M88.7734 217.035C88.7734 217.035 92.6334 214.278 96.6036 216.043C96.6036 216.043 95.5008 218.359 90.538 218.359L88.7734 217.035Z" fill="#1B838B"/>
<path d="M88.3317 216.816C88.3317 216.816 87.3391 221.448 90.4271 224.426C90.4271 224.426 92.1916 222.441 90.2065 217.919L88.3317 216.816Z" fill="#1B838B"/>
<path d="M83.5898 213.286C83.5898 213.286 83.7001 209.426 92.5229 210.419C92.4126 212.184 91.3097 213.728 89.6555 214.279C86.5675 215.492 85.1338 214.5 83.5898 213.286Z" fill="#1B838B"/>
<path d="M83.1487 212.846C83.1487 212.846 79.5094 214.169 83.1487 222.33C84.803 221.668 85.9059 220.124 85.9059 218.36C86.2367 215.051 84.803 213.949 83.1487 212.846Z" fill="#1B838B"/>
<path d="M78.1847 208.434C78.1847 208.434 77.4127 202.037 86.3457 202.368C86.3457 202.368 87.228 208.103 79.7287 209.867L78.1847 208.434Z" fill="#1B838B"/>
<path d="M72.4531 201.817C72.4531 201.817 73.4457 194.539 82.489 196.303C82.489 196.303 82.7095 202.589 74.1074 203.472L72.4531 201.817Z" fill="#1B838B"/>
<path d="M72.8906 195.09C72.8906 195.09 74.6552 187.921 83.5882 189.686C83.5882 189.686 81.7133 196.082 73.442 196.303L72.8906 195.09Z" fill="#1B838B"/>
<path d="M68.4805 188.473C68.4805 188.473 70.245 181.084 78.8472 182.959C78.8472 182.959 76.3106 190.017 69.0319 189.686L68.4805 188.473Z" fill="#1B838B"/>
<path d="M65.6133 182.186C65.6133 182.186 66.8264 173.253 74.8771 174.907C74.8771 174.907 72.892 183.068 66.275 183.51L65.6133 182.186Z" fill="#1B838B"/>
<path d="M62.8555 174.357C62.8555 174.357 64.3994 165.313 72.5605 167.629C72.5605 167.629 69.6931 176.232 63.5172 175.57L62.8555 174.357Z" fill="#1B838B"/>
<path d="M60.9805 167.298C60.9805 167.298 63.517 158.145 69.8032 158.255C69.8032 158.255 67.1564 167.85 61.5319 169.173L60.9805 167.298Z" fill="#1B838B"/>
<path d="M59.6602 160.241C59.6602 160.241 62.4173 149.213 67.6006 149.874C67.6006 149.874 65.7258 158.256 59.991 161.895L59.6602 160.241Z" fill="#1B838B"/>
<path d="M58.7773 151.859C58.7773 151.859 61.4242 142.706 66.3869 142.154C66.3869 142.154 64.7327 151.087 58.9979 154.175L58.7773 151.859Z" fill="#1B838B"/>
<path d="M57.8945 144.028C57.8945 144.028 61.3133 134.764 64.6218 134.434C64.6218 134.434 63.2984 143.367 58.3357 145.462L57.8945 144.028Z" fill="#1B838B"/>
<path d="M57.1211 136.75C57.1211 136.75 58.9959 126.825 62.3044 125.832C62.3044 125.832 62.1942 133.883 57.4519 137.412L57.1211 136.75Z" fill="#1B838B"/>
<path d="M55.4688 127.154C55.4688 127.154 57.5641 119.214 60.211 117.891C60.211 117.891 59.9904 127.154 56.1305 129.029L55.4688 127.154Z" fill="#1B838B"/>
<path d="M54.2543 121.09L53.2617 107.305C53.2617 107.305 58.6656 117.561 54.6954 123.516L54.2543 121.09Z" fill="#1B838B"/>
<path d="M49.8447 110.832C49.8447 110.832 45.8745 100.907 44.9922 100.355C44.9922 100.355 52.2709 106.642 51.9401 115.023L49.8447 110.832Z" fill="#1B838B"/>
<path d="M83.4803 207.884C83.4803 207.884 77.0839 207.332 77.6353 216.265C77.6353 216.265 83.37 216.927 85.0243 209.538L83.4803 207.884Z" fill="#1B838B"/>
<path d="M77.1933 201.266C77.1933 201.266 69.9146 201.486 70.7968 210.64C70.7968 210.64 76.9727 211.522 78.7373 202.92L77.1933 201.266Z" fill="#1B838B"/>
<path d="M72.7835 195.311C72.7835 195.311 66.0562 192.443 62.0859 200.715C62.0859 200.715 68.3721 203.031 73.4452 196.634L72.7835 195.311Z" fill="#1B838B"/>
<path d="M68.3694 188.252C68.3694 188.252 61.4215 185.164 57.6719 193.215C57.6719 193.215 64.8403 195.42 68.9208 189.465L68.3694 188.252Z" fill="#1B838B"/>
<path d="M65.7223 182.077C65.7223 182.077 58.8847 176.011 53.9219 182.628C53.9219 182.628 60.7595 187.481 66.0531 183.51L65.7223 182.077Z" fill="#1B838B"/>
<path d="M63.1871 173.916C63.1871 173.916 56.3495 167.74 51.3867 174.688C51.3867 174.688 58.9963 179.651 63.4077 175.24L63.1871 173.916Z" fill="#1B838B"/>
<path d="M61.6444 166.857C61.6444 166.857 56.2405 159.027 50.2852 161.012C50.2852 161.012 55.9096 169.283 61.6444 168.732V166.857Z" fill="#1B838B"/>
<path d="M59.8775 160.131C59.8775 160.131 54.3633 150.205 49.6211 152.19C49.6211 152.19 53.5913 159.8 60.0981 161.785L59.8775 160.131Z" fill="#1B838B"/>
<path d="M59.1059 151.198C59.1059 151.198 53.4814 143.478 48.6289 144.58C48.6289 144.58 53.2608 152.411 59.6573 153.403L59.1059 151.198Z" fill="#1B838B"/>
<path d="M58.4464 143.697C58.4464 143.697 54.0351 134.984 50.7266 134.984C50.7266 134.984 53.0425 143.697 58.2259 145.241L58.4464 143.697Z" fill="#1B838B"/>
<path d="M57.3416 136.53C57.3416 136.53 52.4891 127.707 49.0703 127.817C49.0703 127.817 51.7171 135.427 57.2313 137.412L57.3416 136.53Z" fill="#1B838B"/>
<path d="M56.2411 127.486C56.2411 127.486 52.6018 120.208 49.7344 119.436C49.7344 119.436 51.7195 128.479 55.9103 129.471L56.2411 127.486Z" fill="#1B838B"/>
<path d="M53.8124 120.759L45.7617 109.51C45.7617 109.51 48.0777 120.869 55.0256 122.964L53.8124 120.759Z" fill="#1B838B"/>
<path d="M48.0773 111.825C48.0773 111.825 39.034 106.09 38.7031 105.098C38.7031 105.098 43.5556 113.479 51.9372 114.692L48.0773 111.825Z" fill="#1B838B"/>
<path d="M47.5252 109.068C47.5252 109.068 37.0483 99.6934 34.5117 99.914C40.1362 100.355 45.099 103.664 47.8561 108.626L47.5252 109.068Z" fill="#1B838B"/>
<path d="M56.2386 129.801L55.9077 129.912C53.4815 115.133 50.2833 106.421 47.1953 105.429L47.3056 105.098C50.5038 106.09 53.7021 114.692 56.2386 129.801Z" fill="#2F4051"/>
<path d="M60.4288 163.438L59.8774 163.548C59.6568 162.224 59.5465 160.791 59.4362 159.357C58.4437 147.116 57.2306 135.756 55.7969 127.375L56.1277 126.934C57.5614 135.425 58.9951 147.005 60.098 159.357C60.098 160.68 60.2082 162.114 60.4288 163.438Z" fill="#2F4051"/>
<path d="M105.648 225.528C98.0381 222.11 90.9799 217.257 85.0246 211.412C78.8487 205.567 73.6653 198.729 69.5848 191.23C64.5117 181.856 61.2032 170.166 59.7695 158.807L60.321 159.027C63.5192 184.613 75.871 201.707 85.4657 210.971C91.421 216.816 98.3689 221.558 105.868 224.977L105.648 225.528Z" fill="#2F4051"/>
<g opacity="0.7">
<path opacity="0.7" d="M104.652 204.201C104.652 204.201 109.174 202.767 112.372 205.524C112.372 205.524 110.608 207.399 105.865 205.965L104.652 204.201Z" fill="#1B838B"/>
<path opacity="0.7" d="M104.211 204.201C104.211 204.201 101.895 208.282 103.991 212.031C103.991 212.031 106.196 210.708 105.645 205.745L104.211 204.201Z" fill="#1B838B"/>
<path opacity="0.7" d="M100.57 198.686C100.57 198.686 101.894 195.046 110.055 198.576C109.503 200.23 107.959 201.333 106.195 201.333C102.776 201.664 101.673 200.34 100.57 198.686Z" fill="#1B838B"/>
<path opacity="0.7" d="M100.019 198.465C100.019 198.465 96.1589 198.685 97.1515 207.398C98.916 207.288 100.35 206.185 100.901 204.53C102.225 201.553 101.232 200.119 100.019 198.465Z" fill="#1B838B"/>
<path opacity="0.7" d="M96.7109 191.849C96.7109 191.849 97.9241 185.563 106.416 188.541C106.416 188.541 105.534 194.276 97.9241 193.724L96.7109 191.849Z" fill="#1B838B"/>
<path opacity="0.7" d="M92.8516 183.357C92.8516 183.357 95.9395 176.74 103.99 181.151C103.99 181.151 102.446 187.217 93.8441 185.452L92.8516 183.357Z" fill="#1B838B"/>
<path opacity="0.7" d="M90.6445 175.085C90.6445 175.085 94.5045 168.799 102.445 173.211C102.445 173.211 98.6953 178.835 90.8651 176.519L90.6445 175.085Z" fill="#1B838B"/>
<path opacity="0.7" d="M88.5508 167.035C88.5508 167.035 92.4107 160.528 100.131 164.829C100.131 164.829 95.4987 170.785 88.7713 168.358L88.5508 167.035Z" fill="#1B838B"/>
<path opacity="0.7" d="M87.7773 159.645C87.7773 159.645 91.6373 151.374 98.8057 155.344C98.8057 155.344 94.3944 162.623 87.9979 160.968L87.7773 159.645Z" fill="#1B838B"/>
<path opacity="0.7" d="M87.5547 150.934C87.5547 150.934 91.7455 142.773 98.8037 147.295C98.8037 147.295 93.51 154.684 87.7753 152.257L87.5547 150.934Z" fill="#1B838B"/>
<path opacity="0.7" d="M88.1094 142.993C88.1094 142.993 93.2927 135.052 99.2481 136.927C99.2481 136.927 93.8441 145.309 88.1094 144.868V142.993Z" fill="#1B838B"/>
<path opacity="0.7" d="M89.2098 135.493C89.2098 135.493 95.1651 125.788 99.797 127.994C99.797 127.994 95.4959 135.383 88.8789 137.148L89.2098 135.493Z" fill="#1B838B"/>
<path opacity="0.7" d="M90.9763 126.561C90.9763 126.561 96.2699 118.621 101.233 119.613C101.233 119.613 96.9316 127.664 90.5352 128.877L90.9763 126.561Z" fill="#1B838B"/>
<path opacity="0.7" d="M92.6289 118.29C92.6289 118.29 98.5842 110.57 101.893 111.232C101.893 111.232 98.0328 119.393 92.6289 119.834V118.29Z" fill="#1B838B"/>
<path opacity="0.7" d="M94.2852 110.569C94.2852 110.569 99.0274 101.746 102.446 101.746C102.446 101.746 99.9096 109.356 94.3954 111.341L94.2852 110.569Z" fill="#1B838B"/>
<path opacity="0.7" d="M95.7188 100.313C95.7188 100.313 100.13 93.365 102.997 92.9238C102.997 92.9238 100.13 101.636 95.829 102.298L95.7188 100.313Z" fill="#1B838B"/>
<path opacity="0.7" d="M96.4901 93.4761L99.6883 80.0215C99.6883 80.0215 101.784 91.3807 96.2695 95.9024L96.4901 93.4761Z" fill="#1B838B"/>
<path opacity="0.7" d="M96.2705 79.2488C96.2705 79.2488 95.3883 68.5513 94.7266 67.7793C94.7266 67.7793 99.9099 75.9403 96.9322 83.8808L96.2705 79.2488Z" fill="#1B838B"/>
<path opacity="0.7" d="M96.4882 191.848C96.4882 191.848 90.5329 189.421 88.4375 198.134C88.4375 198.134 93.7311 200.56 97.4808 193.833L96.4882 191.848Z" fill="#1B838B"/>
<path opacity="0.7" d="M92.6283 183.137C92.6283 183.137 85.5701 181.262 83.6953 190.195C83.6953 190.195 89.3198 192.842 93.5106 185.122L92.6283 183.137Z" fill="#1B838B"/>
<path opacity="0.7" d="M90.4254 175.638C90.4254 175.638 84.8009 170.895 78.625 177.512C78.625 177.512 83.9186 181.593 90.646 176.961L90.4254 175.638Z" fill="#1B838B"/>
<path opacity="0.7" d="M88.4401 167.035C88.4401 167.035 82.7053 162.072 76.75 168.579C76.75 168.579 82.9259 172.77 88.5504 168.359L88.4401 167.035Z" fill="#1B838B"/>
<path opacity="0.7" d="M87.8875 159.866C87.8875 159.866 83.1453 152.146 76.418 156.888C76.418 156.888 81.6013 163.615 87.7772 161.3L87.8875 159.866Z" fill="#1B838B"/>
<path opacity="0.7" d="M87.9969 150.822C87.9969 150.822 83.2547 142.882 76.5273 148.065C76.5273 148.065 82.2621 155.123 87.8866 152.256L87.9969 150.822Z" fill="#1B838B"/>
<path opacity="0.7" d="M88.8792 142.993C88.8792 142.993 86.1221 133.949 79.8359 134.17C79.8359 134.17 82.7033 143.765 88.3278 144.868L88.8792 142.993Z" fill="#1B838B"/>
<path opacity="0.7" d="M89.3196 135.494C89.3196 135.494 87.0037 124.466 81.8203 124.796C81.8203 124.796 83.3643 133.178 88.9888 137.148L89.3196 135.494Z" fill="#1B838B"/>
<path opacity="0.7" d="M91.4179 126.12C91.4179 126.12 88.33 117.077 83.3672 116.746C83.3672 116.746 85.4626 125.679 91.3076 128.546L91.4179 126.12Z" fill="#1B838B"/>
<path opacity="0.7" d="M93.1802 118.179C93.1802 118.179 91.5259 108.474 88.3277 107.592C88.3277 107.592 87.8866 116.635 92.5185 119.613L93.1802 118.179Z" fill="#1B838B"/>
<path opacity="0.7" d="M94.5046 110.458C94.5046 110.458 92.5195 100.533 89.2109 99.6504C89.2109 99.6504 89.4315 107.701 94.1737 111.23L94.5046 110.458Z" fill="#1B838B"/>
<path opacity="0.7" d="M96.2694 101.084C96.2694 101.084 94.946 93.0332 92.4094 91.3789C92.4094 91.3789 91.6374 100.643 95.3871 102.848L96.2694 101.084Z" fill="#1B838B"/>
<path opacity="0.7" d="M96.159 93.1453L91.8579 80.0215C91.8579 80.0215 90.7551 91.491 96.7104 95.5715L96.159 93.1453Z" fill="#1B838B"/>
<path opacity="0.7" d="M94.3932 79.6896C94.3932 79.6896 87.4453 71.5286 87.4453 70.4258C87.4453 70.4258 89.5407 79.7999 97.2606 83.4393L94.3932 79.6896Z" fill="#1B838B"/>
<path opacity="0.7" d="M94.6151 76.9327C94.6151 76.9327 87.3364 64.9117 84.9102 64.25C90.2038 66.3454 93.9534 70.9773 95.0563 76.4915L94.6151 76.9327Z" fill="#1B838B"/>
<path opacity="0.7" d="M95.8282 102.408H95.4974C97.4825 87.5194 97.1516 78.2556 94.3945 76.491L94.6151 76.1602C97.4825 78.035 97.9236 87.1886 95.8282 102.408Z" fill="#2F4051"/>
<path opacity="0.7" d="M89.2116 137.479L88.6602 137.368C88.8807 136.045 89.2116 134.611 89.5424 133.178C92.1892 121.157 94.3949 110.018 95.6081 101.526L96.0492 101.195C94.8361 109.687 92.8509 121.157 90.2041 133.288C89.763 134.722 89.4321 136.155 89.2116 137.479Z" fill="#2F4051"/>
<path opacity="0.7" d="M112.81 213.795C106.524 208.171 101.34 201.554 97.26 194.165C93.0692 186.665 90.0915 178.615 88.5475 170.233C86.5624 159.756 86.783 147.625 88.8784 136.266L89.3195 136.707C84.6876 162.072 91.4149 182.144 97.9217 193.724C101.892 201.002 107.075 207.619 113.251 213.134L112.81 213.795Z" fill="#2F4051"/>
</g>
<path d="M347.832 322.027C347.832 322.027 332.172 321.145 334.046 332.063C333.826 333.166 334.377 334.379 335.48 334.82C335.48 334.82 335.48 334.048 337.024 334.268C337.576 334.379 338.127 334.379 338.678 334.379C339.45 334.379 340.222 334.048 340.774 333.496C340.774 333.496 345.185 331.732 346.839 324.453C346.839 324.453 348.052 322.909 348.052 322.468L345.406 323.571C345.957 324.674 345.957 325.887 345.626 327.1C345.626 327.1 345.516 323.681 345.075 323.791C344.965 323.791 343.751 324.453 343.751 324.453C343.751 324.453 345.295 327.762 344.082 330.188C344.082 330.188 344.523 326.107 343.2 324.674L341.325 325.776C341.325 325.776 343.09 329.195 341.877 331.952C341.877 331.952 342.207 327.651 340.884 325.997L339.23 327.32C339.23 327.32 340.884 330.739 339.892 333.055C339.892 333.055 339.781 328.092 338.899 327.651C338.237 328.203 337.686 328.864 337.245 329.526C337.245 329.526 338.458 331.952 337.686 333.276C337.686 333.276 337.245 329.967 336.914 329.967C336.142 331.07 335.59 332.394 335.26 333.717C335.37 332.283 335.811 330.96 336.473 329.747C335.59 329.857 334.818 330.298 334.267 330.85C334.267 330.85 334.488 329.306 336.804 329.195C337.245 328.534 337.796 327.982 338.348 327.431C337.024 327.32 335.811 327.431 334.488 327.872C334.488 327.872 335.701 326.438 338.789 327.1L340.443 325.776C339.009 325.556 337.465 325.556 336.032 325.776C336.032 325.776 337.576 324.453 340.884 325.446L342.649 324.343C341.215 324.012 339.781 323.902 338.348 324.012C338.348 324.012 340.002 323.13 343.09 324.122L344.413 323.571C344.413 323.571 342.428 323.24 341.877 323.13C341.325 323.019 341.325 322.909 341.325 322.909C342.538 322.689 343.862 322.799 344.965 323.35C346.067 322.909 346.95 322.468 347.832 322.027Z" fill="#1B838B"/>
<path opacity="0.1" d="M337.021 337.687C343.111 337.687 348.049 336.848 348.049 335.812C348.049 334.777 343.111 333.938 337.021 333.938C330.93 333.938 325.992 334.777 325.992 335.812C325.992 336.848 330.93 337.687 337.021 337.687Z" fill="#3F3F42"/>
<path d="M377.718 293.132C377.718 293.132 368.895 292.58 369.998 298.756C369.887 299.418 370.218 300.08 370.77 300.3C370.77 300.3 370.77 299.859 371.652 299.969C371.983 299.969 372.314 300.08 372.645 299.969C373.086 299.969 373.527 299.749 373.858 299.528C373.858 299.528 376.284 298.536 377.276 294.455C377.276 294.455 377.938 293.573 377.938 293.352L376.504 294.014C376.835 294.676 376.835 295.337 376.615 295.999C376.615 295.999 376.615 294.124 376.284 294.124C376.063 294.235 375.733 294.345 375.512 294.455C375.953 295.448 376.063 296.661 375.733 297.653C375.733 297.653 375.953 295.337 375.291 294.565L374.299 295.227C374.85 296.33 374.961 297.543 374.63 298.756C374.63 298.756 374.85 296.33 374.078 295.337L373.086 296.109C373.086 296.109 374.078 297.984 373.417 299.308C373.417 299.308 373.306 296.551 372.865 296.22C372.534 296.551 372.203 296.881 371.873 297.212C371.873 297.212 372.534 298.536 372.093 299.308C372.093 299.308 371.873 297.433 371.652 297.433C371.211 298.095 370.88 298.756 370.77 299.528C370.77 298.756 371.101 297.984 371.431 297.323C370.99 297.433 370.549 297.653 370.218 297.984C370.218 297.984 370.329 297.102 371.652 296.992C371.873 296.661 372.203 296.33 372.534 295.999C371.762 295.889 371.101 295.999 370.439 296.22C371.101 295.668 371.983 295.448 372.865 295.779L373.747 295.007C372.865 294.896 372.093 294.896 371.211 295.007C371.983 294.455 373.086 294.455 373.968 294.786L374.961 294.124C374.189 293.904 373.417 293.904 372.534 293.904C373.417 293.573 374.409 293.573 375.181 293.904L375.953 293.573C375.953 293.573 374.85 293.352 374.519 293.352C374.189 293.352 374.189 293.242 374.189 293.242C374.85 293.132 375.622 293.242 376.284 293.463C376.725 293.683 377.276 293.463 377.718 293.132Z" fill="#1B838B"/>
<path opacity="0.1" d="M371.653 301.956C375.125 301.956 377.94 301.511 377.94 300.963C377.94 300.415 375.125 299.971 371.653 299.971C368.182 299.971 365.367 300.415 365.367 300.963C365.367 301.511 368.182 301.956 371.653 301.956Z" fill="#3F3F42"/>
<path d="M325.773 298.536C325.773 298.536 315.075 297.875 316.399 305.374C316.288 306.146 316.619 306.918 317.281 307.249C317.281 307.249 317.281 306.697 318.384 306.918C318.715 307.028 319.156 307.028 319.487 307.028C320.038 307.028 320.479 306.808 320.92 306.477C320.92 306.477 323.898 305.264 325.111 300.301C325.111 300.301 325.993 299.198 325.883 298.978L324.118 299.75C324.449 300.521 324.56 301.293 324.229 302.065C324.229 302.065 324.118 299.749 323.788 299.86C323.677 299.86 322.905 300.301 322.905 300.301C322.905 300.301 323.898 302.507 323.126 304.161C323.126 304.161 323.457 301.404 322.574 300.411L321.361 301.183C322.023 302.507 322.133 304.051 321.802 305.484C321.802 305.484 322.023 302.507 321.141 301.404L320.038 302.286C320.038 302.286 321.141 304.602 320.479 306.146C320.479 306.146 320.369 302.727 319.817 302.507C319.376 302.837 319.045 303.279 318.715 303.72C318.715 303.72 319.486 305.374 319.045 306.256C319.045 306.256 318.715 304.051 318.494 304.051C317.943 304.823 317.612 305.705 317.391 306.587C317.391 305.595 317.722 304.712 318.273 303.94C317.722 304.051 317.171 304.271 316.729 304.712C316.729 304.712 316.84 303.609 318.494 303.609C318.825 303.168 319.156 302.727 319.487 302.396C318.604 302.286 317.722 302.396 316.95 302.727C317.722 302.065 318.825 301.845 319.817 302.176L320.92 301.293C319.928 301.183 318.935 301.183 317.832 301.293C317.832 301.293 318.825 300.411 321.141 301.073L322.354 300.301C321.361 300.08 320.479 299.97 319.487 300.08C320.589 299.639 321.692 299.639 322.795 300.08L323.677 299.75C323.677 299.75 322.354 299.529 322.023 299.419C321.692 299.308 321.582 299.308 321.582 299.308C322.464 299.198 323.236 299.308 324.008 299.639C324.56 299.088 325.111 298.867 325.773 298.536Z" fill="#1B838B"/>
<path opacity="0.1" d="M323.347 309.124C327.489 309.124 330.846 308.58 330.846 307.91C330.846 307.24 327.489 306.697 323.347 306.697C319.205 306.697 315.848 307.24 315.848 307.91C315.848 308.58 319.205 309.124 323.347 309.124Z" fill="#3F3F42"/>
<path opacity="0.1" d="M255.742 302.396L218.687 316.733L164.427 337.687C162.442 333.827 159.354 328.753 155.604 322.467C142.811 301.183 121.527 268.097 102.558 238.982C81.2729 206.228 62.8555 178.547 62.8555 178.547L76.0895 174.687L184.499 143.256L255.742 302.396Z" fill="black"/>
<path d="M256.406 299.749L219.351 314.086L165.091 335.04C163.106 331.18 160.018 326.107 156.268 319.821C143.475 298.536 122.191 265.451 103.222 236.336C81.937 203.582 63.5195 175.9 63.5195 175.9L76.7536 172.04L185.163 140.609L256.406 299.749Z" fill="white"/>
<path opacity="0.1" d="M255.413 299.75L218.357 314.087C197.624 318.388 176.449 320.373 155.385 319.932C142.592 298.647 121.307 265.562 102.338 236.447L75.9805 172.152L184.39 140.721L255.413 299.75Z" fill="black"/>
<path d="M282.211 290.927C282.211 290.927 224.532 325.005 138.511 317.285L69.9141 149.985L102.779 144.36L216.481 124.84L280.998 287.619L282.211 290.927Z" fill="#E30072"/>
<path opacity="0.1" d="M278.684 294.787C263.685 295.559 248.576 295.118 233.578 293.464C216.484 291.478 199.279 287.288 184.501 279.678C172.149 273.282 161.672 266.444 152.409 258.173C128.587 236.667 113.809 205.898 100.465 151.528L214.168 132.008L278.684 294.787Z" fill="black"/>
<path d="M318.935 297.102C318.935 297.102 276.476 305.373 233.245 300.3C216.151 298.315 198.946 294.124 184.168 286.514C171.817 280.118 161.34 273.28 152.076 265.009C122.52 238.431 106.859 197.626 90.7578 115.243C90.7578 115.243 161.45 132.337 231.149 94.9512C231.26 95.0615 254.86 241.96 318.935 297.102Z" fill="white"/>
<path opacity="0.1" d="M234.567 285.853C217.473 283.868 200.269 279.677 185.491 272.068C173.139 265.671 162.662 258.834 153.398 250.563C178.543 248.577 182.183 234.682 182.183 234.682C200.931 264.348 234.567 285.853 234.567 285.853Z" fill="black"/>
<path opacity="0.3" d="M130.793 140.83C130.793 140.83 168.731 145.131 204.242 125.17L206.668 133C206.668 133 172.701 149.984 130.793 149.984V140.83Z" fill="#5CC7D0"/>
<path opacity="0.3" d="M130.68 177.115C130.68 177.115 168.397 174.027 210.415 153.734L211.849 157.043C211.849 157.043 196.409 176.453 130.68 181.526V177.115Z" fill="black"/>
<path opacity="0.3" d="M134.762 191.12C134.762 191.12 172.479 188.032 214.497 167.74L215.931 171.049C215.931 171.049 200.491 190.459 134.762 195.642V191.12Z" fill="black"/>
<path opacity="0.3" d="M138.512 206.228C138.512 206.228 176.229 203.14 218.247 182.848L219.681 186.156C219.681 186.156 204.241 205.566 138.512 210.749V206.228Z" fill="black"/>
<path opacity="0.3" d="M143.031 219.132C143.031 219.132 180.748 216.044 222.767 195.752L224.2 199.06C224.2 199.06 208.76 218.47 143.031 223.654V219.132Z" fill="black"/>
<path opacity="0.1" d="M147.113 233.138C147.113 233.138 184.83 230.05 226.849 209.758L228.282 213.066C228.282 213.066 212.843 232.476 147.113 237.66V233.138Z" fill="black"/>
<path opacity="0.3" d="M223.241 144.758L212.695 148.344L216.281 158.89L226.827 155.304L223.241 144.758Z" fill="#5CC7D0"/>
<path opacity="0.3" d="M228.866 159.418L218.32 163.004L221.906 173.55L232.452 169.964L228.866 159.418Z" fill="#5CC7D0"/>
<path opacity="0.3" d="M237.89 187.536L227.344 191.121L230.929 201.667L241.475 198.082L237.89 187.536Z" fill="#5CC7D0"/>
<path opacity="0.3" d="M242.964 202.668L232.418 206.254L236.004 216.8L246.55 213.214L242.964 202.668Z" fill="#5CC7D0"/>
<path opacity="0.3" d="M233.464 174.52L222.918 178.105L226.504 188.652L237.05 185.066L233.464 174.52Z" fill="#5CC7D0"/>
<path d="M337.576 209.427L337.134 209.096C337.796 208.986 338.458 208.876 339.119 208.765C339.119 208.765 335.59 196.083 329.745 191.892C326.768 189.797 324.341 186.268 322.687 183.4C319.599 177.996 316.07 172.813 312.1 167.96L310.997 166.637L310.556 166.086C311.328 165.203 311.769 164.211 311.879 163.108V162.887C311.879 162.777 311.879 162.667 311.769 162.446V162.557C311.328 161.123 309.343 160.461 307.909 159.689C304.601 157.814 303.167 153.734 302.395 149.874C301.844 146.896 301.402 143.588 299.086 141.713C297.653 140.5 295.557 140.059 294.124 138.845C292.8 137.522 291.808 135.978 291.036 134.324C289.602 131.567 287.617 129.251 284.97 127.596C282.434 125.942 279.235 125.501 276.258 126.494C275.155 126.935 274.162 127.596 273.059 128.038C270.413 129.14 267.325 129.03 264.678 130.133C261.369 131.567 259.274 134.765 257.399 137.743C256.076 139.617 254.863 141.713 253.98 143.919V143.698C253.539 144.691 253.319 145.793 253.319 146.896C253.319 147.337 253.319 147.889 253.429 148.33C253.87 149.764 254.973 150.756 256.407 151.197C256.517 151.638 256.627 152.19 256.737 152.631C258.061 156.932 261.369 160.241 265.56 161.674C265.67 161.674 265.781 161.785 265.891 161.785C266.001 162.115 266.111 162.336 266.332 162.557C267.545 163.99 269.861 163.659 271.405 162.557C271.515 162.557 271.515 162.446 271.626 162.446C271.626 162.667 271.626 162.887 271.736 163.108C271.736 163.328 271.846 163.439 271.846 163.659C272.508 167.85 274.162 171.82 276.809 175.129C276.809 175.129 277.14 175.57 277.691 176.452C277.36 180.533 279.235 184.282 281.441 187.26C279.566 188.363 275.486 190.458 273.059 190.348C273.059 190.348 263.906 191.561 262.803 190.899C262.693 190.789 262.472 190.899 262.362 191.23C259.825 189.686 251.775 185.275 251.003 190.899C250.341 196.083 257.73 196.745 261.259 196.745C261.149 198.289 261.038 199.502 261.038 199.502L276.147 198.509L283.977 197.406C283.206 198.509 282.323 199.391 281.22 200.053C281.22 200.053 274.162 205.788 272.949 205.898C272.729 205.898 272.729 206.119 272.729 206.339C269.751 206.339 260.487 206.78 263.024 211.964C265.34 216.706 271.957 213.397 274.934 211.633C275.596 212.956 276.258 214.059 276.258 214.059L288.389 205.347L291.036 203.141C291.918 203.141 292.8 202.92 293.682 202.59V202.7C293.793 203.031 293.903 203.251 293.903 203.582C294.675 207.883 292.139 217.698 292.139 217.698C292.139 217.698 286.624 231.594 289.271 233.579C291.918 235.565 289.933 243.505 289.933 243.505C290.374 244.277 290.925 245.049 291.477 245.711C291.808 246.041 292.028 246.372 292.359 246.593C292.249 246.924 292.138 247.255 292.028 247.585C291.587 249.24 291.808 251.115 292.469 252.659C294.234 257.07 293.131 263.356 293.131 263.356L289.602 287.288C287.948 287.067 285.742 286.847 284.86 287.288C283.647 287.949 283.978 291.589 286.955 293.133C286.073 293.794 285.08 294.236 283.977 294.456C281.441 295.008 279.566 295.449 278.353 295.669C278.243 295.669 272.177 294.346 270.523 295.228C268.869 296.11 269.751 301.073 274.162 302.286C278.574 303.499 294.896 305.154 299.638 304.492H299.969C303.939 303.72 300.41 298.426 299.969 297.765C299.969 297.544 299.858 297.324 299.858 297.103C299.748 296.552 299.748 295.89 299.748 295.228C303.387 295.669 307.027 295.78 310.666 295.559C310.777 295.559 310.887 295.559 310.887 295.559C314.416 294.897 311.328 290.155 310.887 289.604C310.887 289.493 310.887 289.273 310.776 289.163C310.776 289.052 310.776 288.942 310.776 288.832C310.776 288.721 310.776 288.611 310.776 288.501C310.776 288.391 310.776 288.28 310.776 288.28C310.776 288.06 310.776 287.949 310.776 287.729V287.508C310.776 287.398 310.776 287.177 310.776 287.067V286.847C310.776 286.626 310.776 286.405 310.776 286.185V284.42C310.776 284.2 310.776 283.869 310.776 283.648V283.428C310.776 283.207 310.776 283.097 310.776 282.876C310.776 282.766 310.776 282.656 310.776 282.545L310.887 281.773C310.887 281.663 310.887 281.663 310.887 281.553C310.887 281.332 310.997 281.112 310.997 281.001C310.997 280.891 310.997 280.781 311.107 280.671C311.107 280.45 311.218 280.23 311.218 280.009C311.218 279.899 311.218 279.899 311.218 279.788L311.438 279.016C311.438 278.906 311.548 278.796 311.548 278.796C311.659 278.575 311.659 278.465 311.769 278.244L311.879 278.024C311.99 277.803 312.1 277.583 312.21 277.252C312.21 277.142 312.32 277.142 312.32 277.031C312.431 276.811 312.541 276.7 312.651 276.48L312.762 276.259C312.872 276.039 313.092 275.818 313.203 275.598C317.283 269.753 318.386 258.614 318.276 256.188C318.166 253.761 318.717 248.688 319.489 247.916C321.364 245.6 323.018 243.064 324.562 240.527C324.893 239.976 325.113 239.424 325.334 238.983C326.547 238.542 327.319 238.211 327.319 238.211C326.878 236.667 326.657 235.013 326.768 233.469C326.657 229.499 328.312 225.639 331.289 222.772C336.583 217.809 337.355 212.846 337.355 210.971V210.64C337.575 209.979 337.576 209.648 337.576 209.427Z" fill="url(#paint0_linear_28_48120)"/>
<path d="M323.79 243.946C322.357 246.483 320.702 249.019 318.938 251.335C318.276 252.107 317.725 257.07 317.835 259.496C317.945 261.923 316.953 272.951 312.983 278.686C309.012 284.421 311.108 294.346 311.108 294.346L304.932 296.552H297.433L292.249 295.008L290.926 291.258C290.926 291.258 292.69 290.927 297.212 289.935C299.749 289.383 301.623 287.288 301.844 284.641L305.042 262.695C305.042 262.695 305.924 257.181 304.491 253.321C303.608 251.115 303.829 248.689 305.042 246.593L305.152 246.483C308.24 244.057 311.549 241.961 314.968 240.197C319.379 238.101 323.79 237.109 325.114 240.858C325.114 241.3 324.562 242.513 323.79 243.946Z" fill="#A5636D"/>
<path opacity="0.05" d="M323.79 243.946C322.356 246.483 320.702 249.019 318.937 251.335C318.275 252.107 317.724 257.07 317.834 259.496C317.944 261.923 316.952 272.951 312.982 278.686C310.225 282.766 310.445 288.832 310.776 292.141C310.886 293.464 311.107 294.346 311.107 294.346L304.931 296.552H297.542L292.359 295.008L291.035 291.258C291.035 291.258 291.476 291.148 292.469 291.038C293.461 290.927 295.005 290.486 297.321 289.935C299.858 289.383 301.733 287.288 301.953 284.641L305.152 262.695C305.152 262.695 306.034 257.181 304.6 253.321C303.718 251.115 303.938 248.689 305.152 246.593L305.262 246.483C308.35 244.057 311.658 241.961 315.077 240.197C319.488 238.101 323.9 237.109 325.223 240.858C324.892 241.961 324.451 243.064 323.79 243.946Z" fill="black"/>
<path opacity="0.1" d="M311.877 290.707L305.701 292.913H298.202L293.019 291.369L291.695 287.619C291.695 287.619 292.136 287.509 293.129 287.398C293.019 288.832 293.901 290.045 295.224 290.486L298.202 290.597C298.643 290.597 298.974 290.597 299.415 290.597C303.496 290.597 307.576 289.935 311.436 288.612C311.767 289.935 311.877 290.707 311.877 290.707Z" fill="black"/>
<path d="M298.315 291.147L295.337 291.037C293.793 290.706 292.801 289.162 293.242 287.618C293.242 287.508 293.242 287.508 293.352 287.397C293.352 287.397 288.058 286.184 286.735 286.956C285.412 287.728 286.073 292.14 289.823 293.132C293.573 294.125 307.358 295.669 311.328 295.117H311.549C315.188 294.345 311.549 289.162 311.549 289.162C307.358 290.596 302.837 291.257 298.315 291.147Z" fill="#5D6977"/>
<path d="M316.18 241.189C315.96 241.63 315.739 242.071 315.518 242.402C313.974 245.159 312.21 247.916 310.225 250.453C309.453 251.335 308.791 256.96 308.901 259.717C309.012 262.474 307.909 274.936 303.498 281.443C301.292 284.751 300.74 289.273 300.851 292.912C300.851 294.125 300.961 295.339 301.071 296.662C301.182 297.434 301.292 298.316 301.402 299.088L294.454 301.514H286.073L280.228 299.75L278.684 295.559C278.684 295.559 279.235 295.449 280.338 295.228C281.441 295.008 283.316 294.677 285.742 294.015C288.609 293.464 290.705 291.038 290.925 288.06L294.454 263.246C294.454 263.246 295.447 256.96 293.793 252.659C292.8 250.122 293.021 247.255 294.454 244.939C294.454 244.939 295.778 243.836 297.873 242.513C298.755 241.851 299.858 241.189 300.961 240.527C305.924 237.44 312.431 234.352 315.518 236.557C316.18 237.109 316.732 237.77 316.952 238.653C316.952 239.535 316.732 240.417 316.18 241.189Z" fill="#A5636D"/>
<path opacity="0.1" d="M302.172 299.088L295.224 301.515H286.842L280.997 299.75L279.453 295.559C279.453 295.559 280.005 295.449 281.107 295.229C280.997 296.221 281.328 297.324 282.1 297.986C282.651 298.427 283.423 298.758 284.195 298.758L286.842 298.868C287.283 298.868 287.724 298.868 288.276 298.868C292.908 298.868 297.54 298.096 301.841 296.662C301.951 297.434 302.061 298.206 302.172 299.088Z" fill="black"/>
<path d="M286.841 299.53L284.195 299.42C283.423 299.42 282.651 299.089 282.099 298.648C281.217 297.765 280.886 296.442 281.217 295.229C281.217 295.229 275.262 293.905 273.828 294.788C272.394 295.67 273.056 300.633 277.357 301.736C281.548 302.949 297.208 304.603 301.619 303.941H301.95C306.031 303.059 301.95 297.214 301.95 297.214C297.098 298.868 292.025 299.64 286.841 299.53Z" fill="#5D6977"/>
<path opacity="0.1" d="M323.677 246.592C321.14 247.474 317.391 248.687 315.406 248.687C315.185 248.687 314.965 248.687 314.744 248.687C311.435 248.577 308.127 248.798 304.818 249.128C303.164 249.239 301.62 249.459 300.297 249.57C298.422 249.79 296.988 249.9 296.988 249.9V248.687C297.871 248.026 298.973 247.364 300.076 246.702C305.039 243.614 311.546 240.526 314.634 242.732C319.045 240.637 323.456 239.644 324.78 243.394C325.111 243.945 324.559 245.158 323.677 246.592Z" fill="black"/>
<path d="M335.257 218.139C335.147 220.014 334.486 224.867 329.412 229.829C323.016 236.116 325.663 245.159 325.663 245.159C325.663 245.159 318.053 248.136 314.745 248.247C314.524 248.247 314.304 248.247 314.083 248.247C312.098 247.916 304.268 248.688 299.746 249.129C297.871 249.35 296.438 249.46 296.438 249.46V222.881L331.949 214.279L335.147 217.478C335.257 217.588 335.257 217.919 335.257 218.139Z" fill="#465564"/>
<g opacity="0.1">
<path opacity="0.1" d="M297.11 249.11L296.559 249.22V249.441C296.559 249.441 297.882 249.33 299.867 249.11C303.176 248.779 308.028 248.338 311.337 248.227C309.021 248.007 301.521 248.669 297.11 249.11Z" fill="black"/>
<path opacity="0.1" d="M335.269 217.349L332.07 214.15L329.975 214.702L332.622 217.349V218.121C332.512 219.995 331.85 224.848 326.777 229.811C320.38 236.097 323.027 245.14 323.027 245.14C319.829 246.464 316.52 247.456 313.102 248.118C313.432 248.118 313.763 248.118 314.094 248.228C314.315 248.228 314.535 248.228 314.756 248.228C318.064 248.118 325.674 245.14 325.674 245.14C325.674 245.14 323.027 236.207 329.424 229.921C334.497 224.958 335.158 220.106 335.269 218.231C335.269 218.01 335.269 217.679 335.269 217.349Z" fill="black"/>
</g>
<path d="M268.759 201.707C268.759 201.707 258.061 194.318 257.289 200.935C256.517 207.552 268.759 206.67 268.759 206.67V201.707Z" fill="#A5636D"/>
<path d="M285.853 196.744C285.853 196.744 280.008 200.604 276.809 200.384C276.809 200.384 268.097 201.597 266.994 200.935C265.891 200.273 265.34 209.427 265.34 209.427L279.787 208.434L289.051 207.001C289.051 207.001 293.683 204.243 293.683 201.707C293.683 199.17 285.853 196.744 285.853 196.744Z" fill="#2F4051"/>
<path d="M285.853 196.744C285.853 196.744 280.008 200.604 276.809 200.384C276.809 200.384 268.097 201.597 266.994 200.935C265.891 200.273 265.34 209.427 265.34 209.427L279.787 208.434L289.051 207.001C289.051 207.001 293.683 204.243 293.683 201.707C293.683 199.17 285.853 196.744 285.853 196.744Z" fill="#2F4051"/>
<path d="M277.91 214.941C277.91 214.941 264.897 214.389 267.764 220.455C270.632 226.521 280.557 219.132 280.557 219.132L277.91 214.941Z" fill="#A5636D"/>
<path d="M290.264 203.802C290.264 203.802 279.676 195.862 281.22 186.267C282.764 176.673 290.264 193.656 290.264 193.656V203.802Z" fill="#465564"/>
<path d="M287.836 162.445C287.836 165.864 286.513 169.283 284.087 171.709C283.535 172.371 282.874 172.922 282.212 173.363C280.888 174.245 279.344 175.017 277.8 175.348C277.139 175.459 276.587 175.569 275.926 175.679C275.485 175.679 275.043 175.789 274.492 175.789C272.948 175.789 271.514 175.569 270.081 175.017C263.133 172.591 259.493 164.982 261.92 158.034C264.346 151.086 271.955 147.446 278.903 149.873C284.307 151.858 287.836 156.821 287.836 162.445Z" fill="#A5636D"/>
<path opacity="0.1" d="M335.367 217.809C334.154 218.03 332.72 218.471 332.72 219.022C332.72 220.015 315.957 225.75 315.957 225.75C315.957 225.75 316.619 227.183 314.965 229.72C313.31 232.256 299.745 246.593 299.745 246.593V247.034L299.966 248.689L300.738 256.629C300.738 256.629 295.555 254.754 293.9 254.975C293.239 254.975 292.687 254.644 292.246 254.203C292.467 253.21 292.798 252.328 293.349 251.556C293.349 251.556 294.672 250.453 296.768 249.13V222.551L332.279 213.949L335.477 217.147C335.367 217.258 335.367 217.589 335.367 217.809Z" fill="black"/>
<path d="M336.912 218.14C336.912 218.14 332.721 218.581 332.721 219.573C332.721 220.566 315.958 226.301 315.958 226.301C315.958 226.301 316.62 227.734 314.965 230.271C313.311 232.807 299.746 247.255 299.746 247.255L300.739 257.29C300.739 257.29 295.555 255.416 293.901 255.636C293.129 255.746 292.357 255.085 291.695 254.202C291.144 253.541 290.593 252.769 290.152 252.107C290.152 252.107 292.026 244.167 289.49 242.292C286.953 240.417 292.137 226.631 292.137 226.631C292.137 226.631 294.453 216.816 293.791 212.625C293.791 212.294 293.681 212.074 293.57 211.853V211.743C292.137 207.663 276.035 174.026 276.035 174.026C276.035 173.033 276.145 172.151 276.256 171.159C276.256 170.938 276.366 170.607 276.366 170.387C276.476 169.835 276.587 169.394 276.697 168.953C276.807 168.622 276.917 168.291 277.028 168.071C277.469 166.857 278.241 165.865 279.454 165.865C280.557 164.872 282.101 164.211 283.645 164.1C285.74 163.77 288.828 164.1 293.019 165.865C302.834 170.056 305.15 170.276 305.15 170.276L310.113 176.783L311.105 178.106C314.855 182.959 318.164 188.032 321.141 193.436C322.796 196.744 325.112 199.612 327.869 201.928C333.603 205.567 336.912 218.14 336.912 218.14Z" fill="#2F4051"/>
<path opacity="0.1" d="M300.961 194.98C300.961 194.98 314.857 198.399 320.261 207.112L300.961 194.98Z" fill="black"/>
<path opacity="0.1" d="M305.922 208.986C305.922 208.986 308.569 226.742 307.797 228.065C307.025 229.389 305.922 208.986 305.922 208.986Z" fill="black"/>
<path opacity="0.1" d="M305.259 216.596C304.267 217.919 300.076 228.176 300.076 228.176L301.289 245.38L302.282 255.416C302.282 255.416 297.098 253.541 295.444 253.762C294.672 253.872 293.9 253.21 293.238 252.328C294.341 246.483 296.657 234.131 297.098 233.91C297.65 233.58 300.517 223.764 300.627 221.007C300.738 218.25 304.708 212.074 304.708 212.074C304.708 212.074 306.362 215.383 305.259 216.596Z" fill="black"/>
<path opacity="0.1" d="M301.843 203.14C301.622 203.912 301.181 208.433 301.181 208.433C301.071 211.301 298.865 213.727 295.998 214.168C295.998 213.837 295.888 213.617 295.777 213.396C294.454 209.867 278.242 175.569 278.242 175.569C278.242 173.804 278.463 172.15 278.904 170.386C282.433 169.393 288.057 170.937 288.057 170.937C289.712 170.716 295.005 181.304 295.005 181.304C295.005 181.304 298.534 189.354 298.976 190.457C299.417 191.56 298.976 193.325 299.086 193.986C299.196 194.648 300.85 195.199 301.071 195.971C301.292 196.743 301.181 198.508 301.292 198.839C301.733 200.272 301.843 201.706 301.843 203.14Z" fill="black"/>
<path d="M300.738 202.149C300.517 202.921 300.076 207.443 300.076 207.443C299.966 209.979 298.311 212.185 295.885 212.846C295.113 213.177 294.231 213.288 293.349 213.398L290.812 215.604L279.232 224.095C279.232 224.095 274.931 216.045 276.034 216.045C277.137 216.045 283.974 210.31 283.974 210.31C286.07 209.207 288.165 205.457 289.047 203.583C288.937 203.362 288.937 203.141 288.937 202.921C288.496 199.392 279.784 185.827 279.784 185.827C277.357 182.518 275.703 178.548 275.041 174.468C275.041 174.247 274.931 174.137 274.931 173.916C274.931 173.696 274.821 173.475 274.821 173.255C274.711 170.387 276.696 169.395 279.232 169.174C280.556 169.064 281.769 169.064 283.092 169.284C284.416 169.395 285.629 169.725 286.842 170.056C287.834 169.946 290.481 174.247 292.135 177.335C293.018 178.989 293.679 180.313 293.679 180.313C293.679 180.313 297.208 188.363 297.65 189.466C298.091 190.569 297.65 192.334 297.76 192.995C297.87 193.657 299.524 194.208 299.745 194.98C299.966 195.752 299.855 197.517 299.966 197.848C300.627 199.282 300.738 200.715 300.738 202.149Z" fill="#2F4051"/>
<path opacity="0.1" d="M313.752 186.267C311.547 188.473 307.907 188.473 305.04 187.37C302.173 186.267 299.746 184.062 297.1 182.518C295.335 181.415 293.57 180.643 291.806 179.54C291.585 179.43 291.365 179.209 291.034 179.099C289.049 177.665 287.395 175.901 285.299 174.687C283.976 173.805 282.321 173.254 280.667 173.254C279.895 173.254 279.123 173.364 278.462 173.695C278.351 173.695 278.241 173.805 278.131 173.915C277.469 174.246 276.807 174.798 276.256 175.349C275.704 175.901 275.153 176.452 274.491 176.893C274.491 176.673 274.381 176.562 274.381 176.342C274.381 176.121 274.271 175.901 274.271 175.68C273.83 175.68 273.388 175.79 272.837 175.79C271.293 175.79 269.859 175.57 268.426 175.018C268.426 174.908 268.426 174.908 268.426 174.798C267.985 172.151 266.992 169.394 264.897 167.85C263.683 166.968 261.698 166.637 260.044 165.975C258.059 158.917 262.14 151.528 269.308 149.543C276.366 147.558 283.755 151.638 285.74 158.696C286.623 161.564 286.402 164.762 285.189 167.519C287.284 167.188 290.372 167.519 294.563 169.284C304.378 173.474 306.694 173.695 306.694 173.695L311.657 180.202C310.995 180.974 310.664 181.856 310.444 182.738C310.554 184.282 312.319 185.495 313.752 186.267Z" fill="black"/>
<path d="M265.229 166.967C267.324 168.4 268.317 171.268 268.758 173.804C268.868 174.687 269.089 175.458 269.53 176.12C270.633 177.554 272.949 177.113 274.382 176.12C275.816 175.128 277.029 173.473 278.684 172.701C280.889 171.709 283.426 172.481 285.411 173.694C287.396 174.907 289.161 176.782 291.146 178.105C293.02 179.429 295.226 180.421 297.211 181.634C299.858 183.289 302.284 185.384 305.152 186.487C308.019 187.59 311.658 187.59 313.864 185.384C312.43 184.612 310.666 183.399 310.776 181.524C310.886 179.649 312.872 178.436 312.761 176.672C312.651 174.907 310.556 174.135 309.012 173.253C305.813 171.378 304.49 167.297 303.828 163.548C303.277 160.68 302.836 157.372 300.63 155.497C299.196 154.284 297.322 153.843 295.888 152.74C294.675 151.417 293.572 149.983 292.91 148.218C291.587 145.572 289.602 143.256 287.175 141.491C284.749 139.837 281.661 139.396 278.904 140.388C277.912 140.829 276.919 141.381 275.926 141.822C273.39 142.925 270.412 142.814 267.986 143.917C264.898 145.351 262.913 148.549 261.038 151.527C259.494 154.063 256.406 158.585 257.288 161.894C258.06 165.533 262.913 165.312 265.229 166.967Z" fill="#4C3E42"/>
<g opacity="0.1">
<path opacity="0.1" d="M312.805 175.881C312.805 175.77 312.805 175.66 312.694 175.439C312.033 176.211 311.592 177.204 311.371 178.197C311.371 178.417 311.371 178.638 311.481 178.858C312.033 177.866 312.805 176.983 312.805 175.881Z" fill="black"/>
<path opacity="0.1" d="M305.747 183.159C302.88 182.056 300.453 179.85 297.807 178.306C295.822 177.093 293.726 176.1 291.741 174.777C289.756 173.343 288.102 171.579 286.006 170.366C283.911 169.153 281.374 168.381 279.279 169.373C277.625 170.145 276.522 171.689 274.978 172.792C273.434 173.895 271.228 174.226 270.125 172.792C269.684 172.13 269.353 171.248 269.353 170.476C268.912 167.719 267.92 164.962 265.824 163.418C263.508 161.874 258.656 161.984 257.774 158.676C257.663 158.014 257.553 157.462 257.663 156.801C257.112 158.124 256.891 159.668 257.112 161.212C257.994 164.521 262.957 164.41 265.163 165.954C267.258 167.388 268.14 170.255 268.692 172.792C268.802 173.674 269.023 174.446 269.464 175.108C270.567 176.542 272.882 176.1 274.316 175.108C275.75 174.115 276.963 172.461 278.617 171.689C280.823 170.697 283.359 171.469 285.345 172.682C287.33 173.895 289.094 175.77 291.079 177.093C292.954 178.416 295.16 179.409 297.145 180.622C299.792 182.276 302.218 184.372 305.085 185.475C307.953 186.577 311.592 186.577 313.798 184.372C313.246 184.041 312.695 183.71 312.144 183.269C310.048 184.151 307.732 184.041 305.747 183.159Z" fill="black"/>
</g>
<path d="M242.731 206.008L272.287 194.98C273.721 194.428 275.375 195.2 275.926 196.634C276.478 198.068 275.706 199.722 274.272 200.273L244.716 211.302L238.43 210.64L242.731 206.008Z" fill="#E84C94"/>
<path opacity="0.1" d="M275.044 195.752C275.595 197.185 274.823 198.84 273.39 199.391L243.834 210.419L239.091 209.978L238.43 210.75L244.716 211.412L274.272 200.384C275.706 199.832 276.478 198.178 275.926 196.744C275.706 196.193 275.265 195.641 274.823 195.311C274.934 195.421 275.044 195.531 275.044 195.752Z" fill="white"/>
<path d="M244.055 205.678L246.04 210.971L240.857 210.42L239.754 210.31L241.298 208.655L244.055 205.678Z" fill="#EFC8C4"/>
<path d="M241.517 208.654C241.627 208.765 241.737 208.875 241.847 208.985C241.958 209.095 241.958 209.316 241.847 209.537C241.737 209.647 241.627 209.647 241.517 209.757C241.296 209.867 241.075 210.198 241.075 210.419L239.973 210.309L241.517 208.654Z" fill="#727A9C"/>
<path d="M219.901 152.85L214.939 150.424C214.608 150.314 214.497 149.873 214.608 149.652L215.159 148.549C215.269 148.218 215.711 148.108 215.931 148.218L219.35 149.873L222.879 142.704C222.989 142.373 223.43 142.263 223.651 142.373L224.754 142.925C225.085 143.035 225.195 143.476 225.085 143.697L220.784 152.52C220.563 152.85 220.232 152.961 219.901 152.85Z" fill="#2F4051"/>
<path d="M230.046 181.856L225.083 179.43C224.752 179.32 224.642 178.879 224.752 178.658L225.304 177.555C225.414 177.224 225.855 177.114 226.076 177.224L229.495 178.879L233.024 171.71C233.134 171.379 233.575 171.269 233.796 171.379L234.898 171.931C235.229 172.041 235.34 172.482 235.229 172.703L230.928 181.525C230.818 181.856 230.487 181.967 230.046 181.856C230.156 181.856 230.046 181.856 230.046 181.856Z" fill="#2F4051"/>
<path d="M225.526 167.63L220.564 165.203C220.233 165.093 220.122 164.652 220.233 164.431L220.784 163.329C220.894 162.998 221.336 162.887 221.556 162.998L224.975 164.652L228.504 157.484C228.614 157.153 229.055 157.042 229.276 157.153L230.379 157.704C230.71 157.814 230.82 158.256 230.71 158.476L226.409 167.299C226.188 167.63 225.747 167.74 225.526 167.63Z" fill="#2F4051"/>
<path d="M234.46 194.979L229.497 192.553C229.166 192.443 229.056 192.002 229.166 191.781L229.718 190.678C229.828 190.347 230.269 190.237 230.49 190.347L233.909 192.002L237.438 184.833C237.548 184.502 237.989 184.392 238.21 184.502L239.312 185.054C239.643 185.164 239.754 185.605 239.643 185.826L235.342 194.648C235.232 194.979 234.901 195.09 234.46 194.979C234.57 194.979 234.57 194.979 234.46 194.979Z" fill="#2F4051"/>
<path d="M64.0684 280.449C64.0684 280.449 66.2741 283.317 63.0758 287.618C59.8776 291.919 57.2308 295.668 58.2233 298.315C58.2233 298.315 63.0758 290.264 67.0461 290.154C71.0163 290.044 68.3695 285.302 64.0684 280.449Z" fill="#1B838B"/>
<path opacity="0.1" d="M64.0686 280.449C64.2892 280.78 64.3995 281.001 64.5097 281.331C68.3697 285.853 70.4651 290.044 66.7154 290.154C63.2966 290.264 59.1058 296.44 58.1133 297.984C58.1133 298.095 58.2236 298.205 58.2236 298.315C58.2236 298.315 63.0761 290.264 67.0463 290.154C71.0165 290.044 68.3697 285.302 64.0686 280.449Z" fill="black"/>
<path d="M68.1521 284.09C68.1521 285.082 68.0418 285.965 67.9315 285.965C67.8212 285.965 67.7109 285.193 67.7109 284.09C67.7109 282.987 67.8212 283.538 68.0418 283.538C68.2624 283.538 68.1521 283.097 68.1521 284.09Z" fill="#FFD037"/>
<path d="M69.5852 285.303C68.7029 285.744 67.9309 286.075 67.8206 285.964C67.7103 285.854 68.372 285.303 69.2543 284.862C70.1366 284.42 69.8057 284.751 69.8057 284.862C69.8057 284.972 70.4674 284.862 69.5852 285.303Z" fill="#FFD037"/>
<path d="M52.489 280.449C52.489 280.449 50.2833 283.317 53.4815 287.618C56.6798 291.919 59.3266 295.668 58.334 298.315C58.334 298.315 53.4815 290.264 49.5113 290.154C45.5411 290.044 48.0776 285.302 52.489 280.449Z" fill="#1B838B"/>
<path opacity="0.1" d="M52.489 280.449C52.2684 280.78 52.1581 281.001 52.0478 281.331C48.1879 285.853 46.0925 290.044 49.8421 290.154C53.261 290.264 57.4517 296.44 58.4443 297.984C58.4443 298.095 58.334 298.205 58.334 298.315C58.334 298.315 53.4815 290.264 49.5113 290.154C45.5411 290.044 48.0776 285.302 52.489 280.449Z" fill="black"/>
<path d="M48.4104 284.09C48.4104 285.082 48.5207 285.965 48.631 285.965C48.7412 285.965 48.8515 285.193 48.8515 284.09C48.8515 282.987 48.7412 283.538 48.5207 283.538C48.3001 283.538 48.4104 283.097 48.4104 284.09Z" fill="#FFD037"/>
<path d="M46.9744 285.303C47.8567 285.744 48.6287 286.075 48.739 285.964C48.8492 285.854 48.1875 285.303 47.3053 284.862C46.423 284.42 46.7538 284.751 46.7538 284.862C46.7538 284.972 46.0921 284.862 46.9744 285.303Z" fill="#FFD037"/>
<path opacity="0.1" d="M58.2251 320.373C70.9549 320.373 81.2745 318.793 81.2745 316.844C81.2745 314.894 70.9549 313.314 58.2251 313.314C45.4953 313.314 35.1758 314.894 35.1758 316.844C35.1758 318.793 45.4953 320.373 58.2251 320.373Z" fill="#3F3F42"/>
<path d="M70.1366 294.456L70.0263 295.338L69.9161 296.551L69.8058 297.103L69.6955 298.316L69.5852 298.867L69.4749 300.08L67.7104 314.527C67.6001 315.851 65.5047 316.843 62.8579 316.843H53.7043C51.1678 316.843 49.0724 315.851 48.8518 314.527L47.0873 300.19L46.977 298.977L46.8667 298.426L46.7564 297.213L46.6461 296.661L46.5359 295.448L46.4256 294.566C46.3153 293.794 47.4181 293.243 48.8518 293.243H67.6001C69.0338 293.132 70.2469 293.684 70.1366 294.456Z" fill="#65617D"/>
<path d="M70.0247 295.338L69.9145 296.661H46.7548L46.6445 295.338H70.0247Z" fill="#9D9CB5"/>
<path d="M69.8033 297.213L69.693 298.426H46.8642L46.7539 297.213H69.8033Z" fill="#9D9CB5"/>
<path d="M69.5848 298.977L69.4745 300.19H47.0868L46.9766 298.977H69.5848Z" fill="#9D9CB5"/>
</g>
<defs>
<linearGradient id="paint0_linear_28_48120" x1="295.211" y1="57.314" x2="295.211" y2="235.927" gradientUnits="userSpaceOnUse">
<stop stop-color="#808080" stop-opacity="0.251"/>
<stop offset="0.54" stop-color="#808080" stop-opacity="0.122"/>
<stop offset="1" stop-color="#808080" stop-opacity="0.102"/>
</linearGradient>
<clipPath id="clip0_28_48120">
<rect width="400" height="275.71" fill="white" transform="translate(0 62)"/>
</clipPath>
</defs>
</svg>
