<svg width="400" height="400" viewBox="0 0 400 400" fill="none" xmlns="http://www.w3.org/2000/svg">
<path d="M215.752 133.788C232.475 133.788 246.031 120.072 246.031 103.153C246.031 86.2335 232.475 72.5176 215.752 72.5176C199.029 72.5176 185.473 86.2335 185.473 103.153C185.473 120.072 199.029 133.788 215.752 133.788Z" fill="#A0616A"/>
<path d="M193.147 118.478C193.147 118.478 198.853 161.992 190.046 166.886C181.24 171.78 242.279 172.22 242.279 172.22C242.279 172.22 228.667 134.463 234.806 122.918L193.147 118.478Z" fill="#A0616A"/>
<path d="M286.822 172.439L281.752 195.812L271.023 245.271L270.698 247.969L266.992 279.341L264.543 300.173L262.884 314.165C252.837 319.388 245.566 322.996 245.566 322.996C245.566 322.996 244.946 319.859 244.016 315.749C236.961 317.898 223.861 321.443 212.868 322.149C216.899 326.682 218.744 330.949 216.233 334.102C208.667 343.514 177.473 323.718 166.481 316.298C166.233 318.075 166.139 319.87 166.202 321.663L157.83 315.153L158.667 300.173L160.062 274.839L161.814 243.059C161.259 241.701 160.793 240.307 160.419 238.886C157.861 229.663 154.76 211.263 152.372 195.828C150.45 183.404 149.008 172.91 148.698 170.729C148.698 170.447 148.698 170.29 148.698 170.29L195.008 149.6C198.295 157.318 213.612 159.639 213.612 159.639C221.674 158.914 229.455 156.281 236.326 151.953L286.822 172.439Z" fill="#98E5EC"/>
<path d="M249.116 314.102C249.116 314.102 247.147 314.777 243.969 315.671C236.915 317.82 223.814 321.365 212.822 322.071C203.318 322.682 195.271 321.208 193.799 314.918C193.5 313.696 193.549 312.414 193.942 311.22C194.334 310.026 195.053 308.97 196.016 308.173C201.83 302.729 217.023 300.769 229.07 300.094C232.465 299.906 235.613 299.828 238.233 299.796C242.682 299.796 245.597 299.796 245.597 299.796L245.675 300.063L249.116 314.102Z" fill="#A0616A"/>
<path d="M190.558 74.1803L184.899 71.8744C184.899 71.8744 196.729 58.698 213.209 59.8431L208.558 54.6823C208.558 54.6823 219.891 50.0862 230.186 62.1332C235.597 68.4078 241.86 75.9058 245.69 84.2823H251.767L249.225 89.9293L258.093 95.5607L248.992 94.5411C249.537 97.6485 249.62 100.821 249.24 103.953C248.838 107.04 247.271 109.851 244.868 111.796C244.868 111.796 237.845 97.098 237.845 94.8078V100.549C237.845 100.549 232.17 95.3882 232.17 91.9529L229.07 95.9685L227.519 89.694L208.465 95.9685L211.566 90.8078L199.829 92.5489L204.481 86.2744C204.481 86.2744 191.101 93.7254 190.527 100.047C189.952 104.419 188.439 108.612 186.093 112.329C186.093 112.329 175.628 82.7764 190.558 74.1803Z" fill="#212D38"/>
<path d="M319.768 279.906C316.667 283.278 309.039 288.376 299.783 293.898C296.326 295.953 292.667 298.055 288.93 300.173C280 305.192 270.651 310.149 262.93 314.165C252.884 319.388 245.613 322.996 245.613 322.996C245.613 322.996 244.992 319.859 244.062 315.749C242.698 310.322 240.667 303.294 238.543 300.173C238.479 300.067 238.407 299.967 238.326 299.874C237.706 299.043 237.085 298.573 236.481 298.573L267.116 279.341L280.372 271.043L270.822 247.984L258.853 219.074L266.078 195.827L273.349 172.455H286.822C286.822 172.455 291.333 182.4 297.085 196.282C297.954 198.353 298.837 200.518 299.752 202.745C311.628 231.906 326.403 272.627 319.768 279.906Z" fill="#98E5EC"/>
<path d="M216.186 334.118C208.62 343.529 177.426 323.733 166.434 316.314C164.062 314.745 162.651 313.678 162.651 313.678L172.636 300.188L175.814 295.921C175.814 295.921 178.651 297.49 182.837 299.921L183.287 300.188C186.899 302.337 191.442 305.145 196.016 308.267C202.118 312.242 207.756 316.905 212.822 322.165C216.853 326.667 218.698 330.98 216.186 334.118Z" fill="#A0616A"/>
<path d="M182.837 299.89C181.72 299.877 180.605 299.966 179.504 300.157C170.031 301.804 167.24 310.479 166.434 316.282C166.186 318.059 166.093 319.854 166.155 321.647L157.783 315.137L154.682 312.769C147.37 310.023 140.713 305.747 135.147 300.22C130.225 295.441 125.813 290.152 121.984 284.439C118.185 278.773 114.801 272.833 111.86 266.667C111.038 264.961 110.596 263.093 110.567 261.196C110.537 259.298 110.921 257.417 111.69 255.686L122.046 232.329L137.178 198.196C137.302 197.38 137.411 196.628 137.55 195.812C140.558 178.384 148.589 170.714 148.589 170.714H154.791L158.899 195.812L164 227.059L160.418 238.871L152.155 266.133L160.062 274.824L182.837 299.89Z" fill="#98E5EC"/>
<path d="M309.535 328.988V331.529C309.536 332.221 309.41 332.908 309.163 333.553C309.051 333.84 308.916 334.118 308.76 334.384C308.273 335.218 307.579 335.909 306.747 336.388C305.915 336.867 304.973 337.117 304.016 337.114H120.093C119.136 337.117 118.194 336.867 117.362 336.388C116.53 335.909 115.836 335.218 115.349 334.384C115.193 334.118 115.058 333.84 114.946 333.553C114.699 332.908 114.573 332.221 114.574 331.529V328.988C114.574 327.507 115.155 326.087 116.19 325.039C117.226 323.992 118.629 323.404 120.093 323.404H130.698V322.227C130.698 322.165 130.722 322.105 130.766 322.061C130.81 322.017 130.869 321.992 130.93 321.992H136.434C136.496 321.992 136.555 322.017 136.599 322.061C136.642 322.105 136.667 322.165 136.667 322.227V323.404H140.155V322.227C140.153 322.197 140.157 322.167 140.167 322.139C140.177 322.11 140.193 322.084 140.213 322.062C140.233 322.04 140.258 322.022 140.286 322.01C140.313 321.998 140.342 321.992 140.372 321.992H145.907C145.938 321.992 145.968 321.998 145.996 322.01C146.024 322.022 146.05 322.039 146.072 322.061C146.093 322.083 146.11 322.109 146.122 322.137C146.134 322.166 146.14 322.197 146.14 322.227V323.404H149.597V322.227C149.597 322.165 149.622 322.105 149.665 322.061C149.709 322.017 149.768 321.992 149.83 321.992H155.365C155.395 321.992 155.425 321.998 155.454 322.01C155.482 322.022 155.507 322.039 155.529 322.061C155.551 322.083 155.568 322.109 155.579 322.137C155.591 322.166 155.597 322.197 155.597 322.227V323.404H159.054V322.227C159.052 322.197 159.056 322.167 159.066 322.139C159.076 322.11 159.092 322.084 159.112 322.062C159.133 322.04 159.157 322.022 159.185 322.01C159.212 321.998 159.242 321.992 159.272 321.992H164.806C164.868 321.992 164.927 322.017 164.971 322.061C165.014 322.105 165.039 322.165 165.039 322.227V323.404H168.496V322.227C168.496 322.165 168.521 322.105 168.564 322.061C168.608 322.017 168.667 321.992 168.729 321.992H174.264C174.294 321.992 174.323 321.998 174.351 322.01C174.378 322.022 174.403 322.04 174.423 322.062C174.443 322.084 174.459 322.11 174.469 322.139C174.479 322.167 174.483 322.197 174.481 322.227V323.404H177.954V322.227C177.952 322.197 177.956 322.167 177.966 322.139C177.976 322.11 177.991 322.084 178.012 322.062C178.032 322.04 178.057 322.022 178.084 322.01C178.111 321.998 178.141 321.992 178.171 321.992H183.706C183.767 321.992 183.826 322.017 183.87 322.061C183.914 322.105 183.938 322.165 183.938 322.227V323.404H187.396V322.227C187.396 322.165 187.42 322.105 187.464 322.061C187.507 322.017 187.566 321.992 187.628 321.992H231.008C231.039 321.99 231.07 321.994 231.1 322.005C231.129 322.016 231.155 322.034 231.178 322.056C231.2 322.078 231.217 322.105 231.228 322.135C231.238 322.164 231.243 322.196 231.241 322.227V323.404H234.698V322.227C234.698 322.165 234.722 322.105 234.766 322.061C234.81 322.017 234.869 321.992 234.93 321.992H240.465C240.527 321.992 240.586 322.017 240.63 322.061C240.673 322.105 240.698 322.165 240.698 322.227V323.404H244.155V322.227C244.153 322.196 244.157 322.164 244.168 322.135C244.179 322.105 244.196 322.078 244.218 322.056C244.24 322.034 244.267 322.016 244.296 322.005C244.325 321.994 244.357 321.99 244.388 321.992H249.907C249.938 321.99 249.97 321.994 249.999 322.005C250.028 322.016 250.055 322.034 250.077 322.056C250.099 322.078 250.116 322.105 250.127 322.135C250.138 322.164 250.142 322.196 250.14 322.227V323.404H253.597V322.227C253.597 322.165 253.622 322.105 253.665 322.061C253.709 322.017 253.768 321.992 253.83 321.992H259.365C259.426 321.992 259.485 322.017 259.529 322.061C259.573 322.105 259.597 322.165 259.597 322.227V323.404H263.054V322.227C263.052 322.196 263.057 322.164 263.067 322.135C263.078 322.105 263.095 322.078 263.117 322.056C263.14 322.034 263.166 322.016 263.195 322.005C263.225 321.994 263.256 321.99 263.287 321.992H268.806C268.838 321.99 268.869 321.994 268.898 322.005C268.927 322.016 268.954 322.034 268.976 322.056C268.998 322.078 269.015 322.105 269.026 322.135C269.037 322.164 269.041 322.196 269.039 322.227V323.404H272.496V322.227C272.496 322.165 272.521 322.105 272.564 322.061C272.608 322.017 272.667 321.992 272.729 321.992H278.264C278.325 321.992 278.385 322.017 278.428 322.061C278.472 322.105 278.496 322.165 278.496 322.227V323.404H281.954V322.227C281.952 322.197 281.956 322.167 281.966 322.139C281.976 322.11 281.991 322.084 282.012 322.062C282.032 322.04 282.057 322.022 282.084 322.01C282.111 321.998 282.141 321.992 282.171 321.992H287.706C287.767 321.992 287.826 322.017 287.87 322.061C287.914 322.105 287.938 322.165 287.938 322.227V323.404H304.078C305.542 323.404 306.945 323.992 307.981 325.039C309.016 326.087 309.597 327.507 309.597 328.988H309.535Z" fill="#212D38"/>
<path d="M294.729 222.478H226.186V221.051H195.179V222.478H126.264C125.03 222.478 123.847 222.974 122.975 223.857C122.103 224.739 121.613 225.936 121.613 227.184V322.149C121.613 323.397 122.103 324.594 122.975 325.477C123.847 326.359 125.03 326.855 126.264 326.855H294.729C295.962 326.855 297.146 326.359 298.018 325.477C298.89 324.594 299.38 323.397 299.38 322.149V227.169C299.376 225.923 298.884 224.73 298.012 223.851C297.14 222.972 295.96 222.478 294.729 222.478Z" fill="#212D38"/>
<path fill-rule="evenodd" clip-rule="evenodd" d="M210.636 246.224C205.513 246.224 201.341 250.428 201.341 255.639C201.341 260.85 205.513 265.055 210.636 265.055C215.758 265.055 219.93 260.85 219.93 255.639C219.93 250.428 215.758 246.224 210.636 246.224ZM199.341 255.639C199.341 249.346 204.387 244.224 210.636 244.224C216.884 244.224 221.93 249.346 221.93 255.639C221.93 261.933 216.884 267.055 210.636 267.055C204.387 267.055 199.341 261.933 199.341 255.639Z" fill="#E30072"/>
<path d="M207.349 269.804C213.034 269.804 217.643 265.141 217.643 259.388C217.643 253.636 213.034 248.973 207.349 248.973C201.663 248.973 197.054 253.636 197.054 259.388C197.054 265.141 201.663 269.804 207.349 269.804Z" fill="#FC4CA8"/>
</svg>
