<svg width="400" height="400" viewBox="0 0 400 400" fill="none" xmlns="http://www.w3.org/2000/svg">
<path d="M213.41 306.62C299.335 306.62 368.991 301.661 368.991 295.545C368.991 289.429 299.335 284.471 213.41 284.471C127.484 284.471 57.8281 289.429 57.8281 295.545C57.8281 301.661 127.484 306.62 213.41 306.62Z" fill="#E6E6E6"/>
<path d="M267.505 284.094H94.1719V174.541H116.342L125.459 185.945H267.505V284.094Z" fill="#E30072"/>
<path opacity="0.1" d="M267.505 284.094H94.1719V174.541H116.342L125.459 185.945H267.505V284.094Z" fill="black"/>
<path d="M204.431 129.058L126.434 157.609L170.366 280.467L248.364 251.915L204.431 129.058Z" fill="#DDE0E3"/>
<path d="M163.219 157.814L141.176 165.883L143.054 171.134L165.097 163.065L163.219 157.814Z" fill="white"/>
<path d="M198.775 161.49L150.285 179.008L151.985 183.824L200.475 166.306L198.775 161.49Z" fill="white"/>
<path d="M202.408 171.797L153.918 189.314L155.618 194.13L204.108 176.612L202.408 171.797Z" fill="white"/>
<path d="M206.037 182.09L157.547 199.607L159.246 204.423L207.736 186.905L206.037 182.09Z" fill="white"/>
<path d="M209.677 192.375L161.188 209.893L162.887 214.708L211.377 197.191L209.677 192.375Z" fill="white"/>
<path d="M213.306 202.668L164.816 220.186L166.516 225.001L215.006 207.484L213.306 202.668Z" fill="white"/>
<path d="M216.939 212.974L168.449 230.492L170.149 235.308L218.639 217.79L216.939 212.974Z" fill="white"/>
<path d="M226.401 230.063L213.844 234.6L218.327 247.304L230.884 242.768L226.401 230.063Z" fill="white"/>
<path d="M110.582 135.868L66.832 210.359L181.442 279.265L225.192 204.773L110.582 135.868Z" fill="url(#paint0_linear_20_546)"/>
<path d="M111.681 138.08L69.2852 210.266L180.35 277.04L222.746 204.854L111.681 138.08Z" fill="#DDE0E3"/>
<path d="M97.772 186.823L85.7969 207.213L90.5417 210.066L102.517 189.676L97.772 186.823Z" fill="white"/>
<path d="M127.084 166.029L100.781 210.812L105.126 213.425L131.429 168.641L127.084 166.029Z" fill="white"/>
<path d="M136.384 171.62L110.082 216.404L114.427 219.017L140.73 174.233L136.384 171.62Z" fill="white"/>
<path d="M145.592 177.029L119.328 221.836L123.675 224.444L149.939 179.637L145.592 177.029Z" fill="white"/>
<path d="M154.868 182.551L128.609 227.352L132.956 229.96L159.215 185.159L154.868 182.551Z" fill="white"/>
<path d="M164.15 188.14L137.891 232.941L142.237 235.549L168.496 190.748L164.15 188.14Z" fill="white"/>
<path d="M173.533 193.968L147.23 238.752L151.575 241.364L177.878 196.58L173.533 193.968Z" fill="white"/>
<path d="M191.461 200.838L184.66 212.441L196.128 219.323L202.93 207.719L191.461 200.838Z" fill="white"/>
<path d="M360.699 137.507C360.716 137.35 360.716 137.192 360.699 137.036C360.699 136.879 360.668 136.707 360.606 136.518C360.606 136.173 360.482 135.844 360.405 135.53C360.327 135.216 360.312 135.216 360.281 135.059C359.788 133.329 358.938 131.725 357.785 130.354L357.583 130.118L357.195 129.71C357.071 129.569 356.932 129.459 356.808 129.334L356.451 129.02C356.203 128.832 355.986 128.659 355.785 128.534L355.382 128.267C355.1 128.105 354.789 128.004 354.467 127.969L352.42 127.765L349.661 127.499L339.692 123.593L339.288 123.734C338.999 122.928 338.756 122.106 338.56 121.271C338.855 121.134 339.119 120.936 339.335 120.691C339.58 120.514 339.768 120.269 339.878 119.985C340.141 119.405 339.661 118.165 339.754 117.444C340.002 116.296 340.415 115.192 340.978 114.165C342.103 111.955 342.673 109.498 342.637 107.012C342.607 105.78 342.295 104.572 341.725 103.483C341.154 102.394 340.341 101.455 339.351 100.738C338.296 100.032 337.04 99.6556 335.955 99.0124C334.87 98.3693 334.405 97.8516 333.521 97.2869C331.504 95.9443 329.181 95.1483 326.773 94.9753C324.365 94.8022 321.953 95.2579 319.769 96.2987C317.692 97.334 315.924 98.8712 313.971 100.095C312.058 101.49 309.717 102.152 307.366 101.961C307.359 102.055 307.359 102.15 307.366 102.244H307.18C306.777 103.31 307.754 104.377 308.637 105.13C310.213 106.699 312.257 107.697 314.451 107.969C315.298 107.865 316.156 107.929 316.978 108.158C317.144 108.238 317.3 108.338 317.444 108.456C316.956 110.429 317.019 112.5 317.627 114.439C318.235 116.378 319.363 118.108 320.885 119.436L315.8 117.585C315.8 117.585 315.583 117.695 315.257 117.899L308.188 113.193C308.188 113.193 294.002 107.985 290.064 116.048C286.126 124.11 307.118 119.938 307.118 119.938L311.63 122.354C311.481 123.284 311.656 124.238 312.126 125.052L324.374 132.675C321.984 133.484 319.552 134.154 317.087 134.683C316.033 134.683 313.149 135.718 311.304 139.891C309.459 144.063 302.901 164.314 297.133 167.687C291.366 171.059 276.11 193.679 276.11 193.679V193.852L275.304 194.087C272.107 195.201 269.336 197.303 267.382 200.095C266.992 200.644 266.834 201.328 266.942 201.995C267.049 202.662 267.414 203.259 267.955 203.656C268.314 203.907 268.73 204.064 269.164 204.11C275.18 204.879 278.467 202.103 280.017 199.985L280.312 199.593C280.812 199.78 281.362 199.78 281.862 199.593L289.211 193.616C289.211 193.616 283.459 199.31 286.839 204.503L286.575 204.863C280.868 213.016 276.666 222.146 274.172 231.812C274.172 231.812 271.071 234.165 270.761 243.499C270.451 252.832 267.351 267.938 267.351 267.938C267.351 267.938 265.242 285.867 266.56 291.326C266.56 291.326 266.715 291.546 266.994 291.875L266.668 292.252C265.521 293.491 263.444 295.216 261.04 294.699C257.35 293.914 257.35 300.409 262.591 300.973C267.417 301.684 272.204 302.648 276.932 303.86C277.315 303.961 277.714 303.984 278.105 303.928C278.497 303.872 278.874 303.738 279.214 303.534C279.555 303.33 279.851 303.059 280.088 302.738C280.324 302.417 280.495 302.052 280.591 301.663C280.683 301.327 280.715 300.976 280.684 300.628C280.484 298.185 279.963 295.779 279.133 293.475L278.963 293.099C279.126 292.955 279.281 292.804 279.428 292.644C279.428 292.644 279.428 281.209 281.273 278.103C281.273 278.103 286.265 254.448 285.924 248.471C285.723 243.765 298.87 225.585 304.529 217.899V217.601C305.986 215.64 306.916 214.463 306.916 214.463L311.381 242.777C312.546 246.182 314.152 249.415 316.157 252.393C316.157 252.393 327.444 273.961 328.761 280.722C329.332 284.104 330.693 287.298 332.73 290.04L332.405 290.369C331.774 291.045 330.995 291.559 330.129 291.87C329.264 292.181 328.338 292.279 327.428 292.158C323.769 291.373 323.769 297.867 328.978 298.432C333.806 299.142 338.593 300.11 343.319 301.334C344.093 301.508 344.904 301.376 345.584 300.965C346.265 300.554 346.764 299.894 346.978 299.122C347.04 298.78 347.04 298.429 346.978 298.087C346.793 295.308 346.11 292.587 344.963 290.056C344.874 289.888 344.776 289.726 344.668 289.569C345.07 289.415 345.427 289.161 345.707 288.832C345.707 288.832 338.87 272.456 338.87 268.032C338.87 268.032 335.986 251.138 326.265 244.91C326.265 244.91 327.195 223.781 329.955 211.969C329.955 211.671 330.095 211.389 330.172 211.107C332.653 210.714 335.211 210.197 337.831 209.538L338.095 201.695L339.413 207.969L354.11 198.856C354.11 198.856 353.986 197.287 353.738 194.714C353.599 193.459 353.459 191.985 353.273 190.385C353.118 189.099 352.947 187.75 352.777 186.369C352.777 186.009 352.684 185.663 352.622 185.318C352.436 183.922 352.219 182.495 352.002 181.114C351.909 180.597 351.816 180.079 351.738 179.546C351.661 179.012 351.49 178.212 351.35 177.569L351.164 176.597C351.087 176.283 351.025 175.985 350.947 175.687C350.87 175.389 350.823 175.075 350.746 174.793L350.637 174.369C350.56 174.087 350.498 173.805 350.42 173.538C350.114 172.428 349.937 171.286 349.893 170.134C349.862 169.674 349.862 169.213 349.893 168.754C349.91 168.297 349.951 167.841 350.017 167.389C350.017 167.169 350.095 166.95 350.126 166.714C350.297 165.811 350.546 164.924 350.87 164.063C351.035 163.645 351.221 163.222 351.428 162.793C351.909 161.805 352.42 160.738 352.978 159.656L353.785 157.93C354.048 157.35 354.312 156.754 354.591 156.158C357.149 150.416 359.661 144.032 360.343 139.844C360.343 139.405 360.467 138.981 360.498 138.589C360.589 138.233 360.656 137.871 360.699 137.507Z" fill="url(#paint1_linear_20_546)"/>
<path d="M316.822 120.438L308.17 114.509C308.17 114.509 294.403 109.348 290.589 117.348C286.775 125.348 307.147 121.207 307.147 121.207L315.798 126.101L316.822 120.438Z" fill="#FCAEB3"/>
<path d="M266.83 96.3628L222.324 167.236L331.37 237.334L375.876 166.461L266.83 96.3628Z" fill="#DDE0E3"/>
<path d="M317.885 148.21L290.273 192.18L294.539 194.922L322.151 150.952L317.885 148.21Z" fill="white"/>
<path d="M327.778 155.873L299.965 199.639L304.216 202.404L332.029 158.639L327.778 155.873Z" fill="white"/>
<path d="M342.448 301.176C337.85 299.974 333.192 299.015 328.495 298.305C323.394 297.788 323.394 291.356 326.944 292.125C327.827 292.245 328.726 292.147 329.563 291.838C330.401 291.529 331.151 291.019 331.751 290.352C332.11 290.009 332.447 289.642 332.758 289.254C333.179 288.742 333.758 288.389 334.402 288.25C336.324 287.827 340.293 287.199 342.743 288.533C343.314 288.877 343.773 289.385 344.061 289.992C345.167 292.518 345.833 295.219 346.03 297.976C346.07 298.366 346.034 298.761 345.924 299.138C345.813 299.514 345.63 299.865 345.385 300.169C345.141 300.474 344.839 300.727 344.497 300.913C344.155 301.099 343.78 301.215 343.394 301.254C343.077 301.284 342.757 301.257 342.448 301.176Z" fill="#004F58"/>
<path d="M277.999 303.749C273.402 302.542 268.744 301.584 264.046 300.878C258.945 300.36 258.945 293.913 262.495 294.682C264.821 295.2 266.836 293.49 267.953 292.251L268.309 291.827C268.736 291.315 269.32 290.962 269.968 290.823C271.875 290.4 275.86 289.756 278.309 291.105C279.13 291.666 279.741 292.489 280.046 293.443C280.866 295.727 281.388 298.111 281.596 300.533C281.637 300.922 281.601 301.316 281.492 301.691C281.382 302.067 281.201 302.417 280.957 302.721C280.714 303.026 280.414 303.279 280.074 303.466C279.734 303.653 279.361 303.77 278.976 303.811C278.649 303.848 278.319 303.827 277.999 303.749Z" fill="#004F58"/>
<path opacity="0.1" d="M280.093 293.443C274.016 299.718 268.806 293.318 268.016 292.251L268.372 291.828C268.799 291.316 269.383 290.962 270.031 290.824C271.938 290.4 275.923 289.757 278.372 291.09C279.187 291.661 279.792 292.488 280.093 293.443Z" fill="black"/>
<path opacity="0.1" d="M344.185 289.96C341.534 291.78 332.681 291.341 332.681 291.341C332.391 291.024 332.122 290.689 331.875 290.337C332.235 289.994 332.571 289.627 332.883 289.239C333.304 288.727 333.882 288.373 334.526 288.235C336.449 287.811 340.418 287.184 342.867 288.517C343.431 288.864 343.888 289.364 344.185 289.96Z" fill="black"/>
<path d="M344.588 288.752C342.805 291.074 332.619 290.572 332.619 290.572C330.313 287.768 328.817 284.376 328.293 280.768C327.007 274.07 316.061 252.674 316.061 252.674C314.106 249.714 312.542 246.507 311.41 243.136L307.084 215.042C307.084 215.042 286.185 242.87 286.448 248.799C286.712 254.729 281.797 278.18 281.797 278.18C280.014 281.317 280.014 292.611 280.014 292.611C273.394 299.576 267.782 291.325 267.782 291.325C266.51 285.913 268.541 268.125 268.541 268.125C268.541 268.125 271.642 253.176 271.859 243.905C272.076 234.634 275.177 232.297 275.177 232.297C277.556 222.757 281.604 213.726 287.131 205.631C288.681 203.387 289.689 202.211 289.689 202.211L331.084 207.058C330.288 208.83 329.695 210.687 329.317 212.595C326.634 224.25 325.735 245.207 325.735 245.207C335.162 251.403 337.968 268.156 337.968 268.156C337.983 272.517 344.588 288.752 344.588 288.752Z" fill="#2F4051"/>
<g opacity="0.05">
<path opacity="0.05" d="M304.867 218.463L304.34 215.043C304.34 215.043 283.44 242.87 283.72 248.8C283.999 254.729 279.068 278.18 279.068 278.18C277.285 281.317 277.285 292.612 277.285 292.612C276.225 293.829 274.851 294.725 273.316 295.2C275.316 295.733 277.766 295.357 280.355 292.612C280.355 292.612 280.355 281.27 282.138 278.18C282.138 278.18 286.991 254.651 286.789 248.8C286.557 244.157 299.316 226.102 304.867 218.463Z" fill="black"/>
<path opacity="0.05" d="M338.215 268.141C338.215 268.141 335.425 251.388 325.998 245.192C325.998 245.192 326.882 224.235 329.564 212.58C329.957 210.674 330.555 208.817 331.347 207.043L290.076 202.133L289.797 202.462L328.293 207.058C327.498 208.826 326.9 210.678 326.51 212.58C323.828 224.25 322.944 245.207 322.944 245.207C332.371 251.403 335.161 268.156 335.161 268.156C335.161 272.533 341.781 288.768 341.781 288.768C340.743 290.133 336.758 290.525 333.673 290.603C336.122 290.603 343.363 290.697 344.851 288.768C344.851 288.752 338.215 272.517 338.215 268.141Z" fill="black"/>
</g>
<path d="M282.171 198.541C281.863 199.303 281.456 200.02 280.961 200.674C279.76 202.287 278.135 203.527 276.271 204.251C274.406 204.975 272.379 205.154 270.419 204.768C270.091 204.727 269.775 204.621 269.488 204.456C269.202 204.291 268.95 204.07 268.748 203.806C268.546 203.542 268.398 203.24 268.312 202.918C268.227 202.596 268.205 202.26 268.248 201.929C268.305 201.516 268.459 201.123 268.698 200.784C270.569 198.026 273.256 195.939 276.372 194.823C277.427 194.471 278.521 194.25 279.628 194.164L282.171 198.541Z" fill="#FCAEB3"/>
<path d="M335.986 126.447L315.552 118.887C315.552 118.887 309.691 122.024 311.986 126.369L331.846 138.918L335.986 126.447Z" fill="#22A3AF"/>
<path d="M336.698 113.991C336.698 113.991 336.434 126.101 341.799 130.195C347.163 134.289 326.295 136.642 326.295 136.642C326.295 136.642 329.613 124.266 326.295 117.819C322.977 111.372 336.698 113.991 336.698 113.991Z" fill="#FCAEB3"/>
<path opacity="0.1" d="M331.087 207.058C330.3 208.833 329.707 210.69 329.319 212.595C304.684 216.392 287.459 206.023 287.459 206.023L287.195 205.584C288.746 203.356 289.753 202.164 289.753 202.164L331.087 207.058Z" fill="black"/>
<path opacity="0.1" d="M282.169 198.541C281.861 199.303 281.455 200.02 280.96 200.674C278.603 200.282 276.727 195.717 276.309 194.823C277.365 194.474 278.457 194.247 279.564 194.148L282.169 198.541Z" fill="black"/>
<path d="M338.729 124.816L329.567 128.173L325.737 133.334C325.737 133.334 317.846 135.922 316.822 135.922C315.799 135.922 313.008 136.942 311.21 141.067C309.412 145.193 303.07 165.303 297.458 168.644C291.846 171.985 277.086 194.511 277.086 194.511C277.086 194.511 279.629 201.46 282.683 200.44L289.815 194.511C289.815 194.511 284.218 200.173 287.52 205.334C287.52 205.334 308.419 217.961 337.132 210.228L337.396 202.495L338.667 208.675L352.962 199.656C352.962 199.656 351.675 183.012 349.381 174.558C348.422 170.998 348.775 167.207 350.373 163.891C354.063 156.048 359.768 143.06 359.086 138.322C358.926 136.566 358.38 134.867 357.49 133.35C356.6 131.834 355.387 130.537 353.939 129.554C353.667 129.383 353.358 129.281 353.039 129.256L348.388 128.769L338.729 124.816Z" fill="#3BB7C2"/>
<path opacity="0.05" d="M323.072 150.729C323.072 150.729 317.971 174.697 312.374 178.556C306.777 182.415 291.738 194.807 291.227 196.862" fill="black"/>
<path d="M320.775 149.945C320.775 149.945 315.674 173.93 310.077 177.788C304.48 181.647 289.441 194.024 288.93 196.079" fill="#22A3AF"/>
<path opacity="0.1" d="M325.582 133.192C325.582 133.192 343.163 127.263 348.264 128.816L325.582 133.192Z" fill="black"/>
<g opacity="0.05">
<path opacity="0.05" d="M350.387 163.796C354.092 155.953 359.798 142.981 359.1 138.228C358.94 136.471 358.395 134.773 357.504 133.256C356.614 131.739 355.401 130.442 353.953 129.459C353.685 129.291 353.383 129.189 353.069 129.161L351.069 128.957C351.28 128.998 351.481 129.084 351.658 129.208C353.114 130.198 354.333 131.505 355.227 133.033C356.12 134.561 356.665 136.271 356.821 138.039C357.519 142.745 351.813 155.828 348.108 163.624C346.517 166.942 346.164 170.73 347.116 174.29C349.426 182.761 350.697 199.388 350.697 199.388L338.402 207.232L338.712 208.8L353.022 199.781C353.022 199.781 351.736 183.137 349.441 174.683C348.42 171.06 348.757 167.183 350.387 163.796Z" fill="black"/>
<path opacity="0.05" d="M346.123 128.424L348.325 128.66L338.728 124.816L337.875 125.13L346.123 128.424Z" fill="black"/>
</g>
<path opacity="0.05" d="M320.773 174.95C320.773 174.95 328.665 170.573 331.223 171.608C333.781 172.644 343.192 171.342 343.192 171.342" fill="black"/>
<path opacity="0.05" d="M335.797 117.224C335.503 114.636 336.681 115.028 336.681 115.028C336.681 115.028 322.929 112.455 326.247 118.887C327.075 120.669 327.549 122.598 327.642 124.565H327.766C331.611 124.565 333.844 120.236 335.797 117.224Z" fill="black"/>
<path d="M327.782 123.53C333.835 123.53 338.743 118.565 338.743 112.44C338.743 106.315 333.835 101.35 327.782 101.35C321.728 101.35 316.82 106.315 316.82 112.44C316.82 118.565 321.728 123.53 327.782 123.53Z" fill="#FCAEB3"/>
<path opacity="0.1" d="M339.738 115.733C340.8 113.544 341.331 111.129 341.288 108.69C341.28 107.474 340.996 106.276 340.458 105.188C339.921 104.101 339.144 103.152 338.187 102.416C337.164 101.71 335.955 101.333 334.869 100.69C334.048 100.204 333.319 99.5451 332.513 98.9804C330.572 97.6452 328.316 96.8522 325.975 96.6814C323.634 96.5106 321.29 96.9682 319.179 98.0079C317.238 99.1602 315.36 100.417 313.552 101.773C311.712 103.118 309.457 103.752 307.195 103.561C306.807 104.643 307.753 105.694 308.621 106.431C310.127 107.99 312.111 108.985 314.249 109.255C315.07 109.152 315.903 109.216 316.699 109.443C317.201 109.732 317.631 110.135 317.955 110.62C318.977 112.004 319.845 113.498 320.544 115.075C320.761 115.754 321.164 116.358 321.707 116.816C322.699 117.459 323.97 116.926 325.133 116.816C326.968 116.957 328.676 117.818 329.893 119.216C331.113 120.577 332.575 121.694 334.203 122.51C335.474 122.996 338.001 122.98 338.637 121.443C338.885 120.878 338.42 119.639 338.513 118.933C338.785 117.818 339.196 116.743 339.738 115.733Z" fill="black"/>
<path d="M339.986 115.467C341.05 113.284 341.582 110.874 341.537 108.44C341.537 107.222 341.256 106.021 340.718 104.932C340.18 103.843 339.399 102.896 338.436 102.165C337.413 101.46 336.203 101.099 335.134 100.456C334.296 99.9536 333.583 99.3105 332.777 98.7458C330.832 97.4127 328.576 96.6198 326.233 96.4463C323.89 96.2729 321.544 96.7251 319.428 97.7576C317.428 98.7615 315.707 100.314 313.8 101.522C311.967 102.883 309.709 103.524 307.444 103.326C307.072 104.393 308.002 105.46 308.87 106.197C310.384 107.744 312.364 108.738 314.498 109.02C315.318 108.907 316.153 108.971 316.947 109.209C317.456 109.489 317.888 109.893 318.203 110.385C319.234 111.767 320.107 113.261 320.808 114.84C321.024 115.516 321.428 116.115 321.971 116.565C322.963 117.209 324.234 116.675 325.397 116.565C327.259 116.702 328.995 117.569 330.234 118.981C331.424 120.357 332.854 121.5 334.451 122.354C335.723 122.84 338.25 122.824 338.901 121.287C339.134 120.707 338.668 119.467 338.777 118.761C339.031 117.613 339.438 116.505 339.986 115.467Z" fill="#9B6C7A"/>
<path d="M267.505 288.737H94.1719V179.199H116.342L125.459 190.587H267.505V288.737Z" fill="#98E5EC"/>
<path d="M198.387 230.619H159.969V237.317H198.387V230.619Z" fill="#E30072"/>
<path d="M108.309 161.898C108.696 162.074 109.038 162.338 109.307 162.67C109.576 163.002 109.765 163.393 109.86 163.812C109.969 164.74 109.755 165.677 109.255 166.463L108.837 167.169L111.612 168.737L110.666 170.4L102.914 165.882L104.34 163.372C104.704 162.592 105.315 161.957 106.077 161.569C106.449 161.448 106.844 161.415 107.231 161.473C107.618 161.53 107.986 161.675 108.309 161.898ZM107.41 166.384L107.72 165.835C107.984 165.45 108.11 164.985 108.077 164.518C108.043 164.326 107.965 164.145 107.849 163.99C107.733 163.835 107.583 163.709 107.41 163.623C107.262 163.516 107.091 163.445 106.911 163.415C106.731 163.385 106.546 163.397 106.371 163.451C105.996 163.606 105.695 163.905 105.534 164.282L105.1 165.051L107.41 166.384Z" fill="#2F4051"/>
<path d="M114.25 154.682C114.811 154.957 115.307 155.35 115.705 155.834C116.103 156.318 116.395 156.883 116.56 157.49C116.788 158.809 116.511 160.167 115.785 161.286L114.514 163.514L106.762 159.012L108.157 156.533C108.71 155.403 109.678 154.536 110.855 154.118C111.428 153.966 112.027 153.938 112.612 154.035C113.197 154.133 113.755 154.353 114.25 154.682ZM113.304 156.439C111.63 155.467 110.374 155.733 109.537 157.224L109.025 158.118L114.095 161.051L114.498 160.345C114.728 160.024 114.881 159.653 114.945 159.262C115.008 158.87 114.981 158.469 114.865 158.091C114.75 157.712 114.548 157.365 114.277 157.079C114.006 156.792 113.673 156.573 113.304 156.439Z" fill="#2F4051"/>
<path d="M120.061 153.726L119.131 155.295L111.379 150.793L113.937 146.275L115.286 147.06L113.736 149.93L115.751 151.091L117.301 148.424L118.635 149.193L117.084 151.875L120.061 153.726Z" fill="#2F4051"/>
<path d="M189.224 148.675L187.239 149.365L184.247 146.902L183.425 150.714L181.565 151.373L182.805 146.134L178.883 142.996L180.79 142.322L183.596 144.691L184.294 141.083L186.17 140.424L185.007 145.443L189.224 148.675Z" fill="#2F4051"/>
<path d="M190.263 148.298L187.395 140L189.131 139.389L191.503 146.244L194.821 145.067L195.333 146.51L190.263 148.298Z" fill="#2F4051"/>
<path d="M200.792 141.992C200.926 142.325 200.979 142.685 200.946 143.043C200.914 143.4 200.797 143.745 200.606 144.047C200.124 144.747 199.417 145.257 198.606 145.49C197.808 145.782 196.955 145.889 196.11 145.804L195.552 144.235C196.068 144.271 196.586 144.271 197.102 144.235C197.482 144.209 197.857 144.135 198.218 144.016C198.528 143.921 198.803 143.735 199.009 143.482C199.087 143.372 199.134 143.243 199.148 143.108C199.162 142.974 199.14 142.838 199.087 142.714C199.041 142.558 198.942 142.425 198.808 142.337C198.645 142.232 198.467 142.152 198.28 142.102C198.084 142.102 197.665 142.039 197.025 141.914C196.56 141.876 196.102 141.781 195.66 141.631C195.343 141.507 195.053 141.32 194.808 141.082C194.538 140.816 194.336 140.488 194.218 140.126C194.093 139.807 194.04 139.463 194.064 139.121C194.088 138.779 194.189 138.447 194.358 138.149C194.791 137.491 195.438 137.008 196.187 136.784C196.599 136.643 197.026 136.554 197.459 136.518C197.913 136.486 198.369 136.486 198.823 136.518L198.73 138.086C198.328 138.054 197.923 138.054 197.521 138.086C197.22 138.116 196.924 138.179 196.637 138.275C196.356 138.351 196.113 138.53 195.955 138.777C195.902 138.886 195.874 139.007 195.874 139.129C195.874 139.252 195.902 139.373 195.955 139.482C195.998 139.626 196.085 139.752 196.203 139.843C196.338 139.944 196.49 140.019 196.653 140.063C196.839 140.063 197.273 140.126 197.955 140.251C198.641 140.28 199.311 140.473 199.908 140.816C200.326 141.096 200.637 141.51 200.792 141.992Z" fill="#2F4051"/>
<path d="M263.565 127.31C264.152 127.636 264.665 128.084 265.068 128.624C265.472 129.165 265.757 129.787 265.906 130.448C266.092 131.87 265.725 133.309 264.883 134.463L263.441 136.769L255.348 131.593L256.898 129.02C257.538 127.837 258.613 126.958 259.89 126.573C260.52 126.431 261.172 126.424 261.804 126.551C262.437 126.678 263.036 126.936 263.565 127.31ZM262.479 129.146C260.743 128.032 259.379 128.251 258.417 129.804L257.844 130.73L263.1 134.102L263.565 133.334C263.821 133.004 263.999 132.619 264.083 132.208C264.168 131.797 264.157 131.372 264.052 130.966C263.947 130.561 263.75 130.185 263.477 129.869C263.204 129.553 262.863 129.305 262.479 129.146Z" fill="#2F4051"/>
<path d="M269.335 118.228C270.504 118.865 271.386 119.932 271.8 121.208C271.938 121.825 271.945 122.464 271.819 123.084C271.694 123.703 271.439 124.289 271.071 124.8C270.778 125.358 270.373 125.847 269.881 126.236C269.39 126.625 268.824 126.905 268.219 127.059C266.894 127.22 265.559 126.867 264.482 126.071C263.317 125.433 262.44 124.366 262.032 123.091C261.843 121.847 262.107 120.576 262.774 119.514C263.441 118.453 264.467 117.672 265.66 117.318C266.955 117.134 268.271 117.459 269.335 118.228ZM265.598 124.204C266.289 124.71 267.118 124.984 267.97 124.989C268.316 124.956 268.649 124.837 268.938 124.642C269.227 124.448 269.465 124.184 269.629 123.875C270.498 122.479 270.017 121.208 268.203 120.047C266.389 118.887 265.102 118.981 264.172 120.361C263.966 120.647 263.832 120.979 263.784 121.33C263.735 121.68 263.773 122.037 263.893 122.369C264.251 123.151 264.849 123.794 265.598 124.204Z" fill="#2F4051"/>
<path d="M269.86 111.373C269.661 111.657 269.536 111.986 269.495 112.331C269.455 112.677 269.5 113.027 269.627 113.35C269.996 114.102 270.587 114.722 271.317 115.122C273.131 116.283 274.418 116.173 275.317 114.808C275.734 114.072 276.033 113.272 276.201 112.44L277.643 113.365C277.474 114.258 277.137 115.111 276.65 115.875C276.365 116.406 275.967 116.866 275.484 117.221C275.002 117.577 274.447 117.819 273.86 117.93C272.558 118.05 271.258 117.687 270.201 116.91C269.424 116.442 268.766 115.798 268.278 115.028C267.85 114.35 267.634 113.557 267.658 112.753C267.692 111.911 267.961 111.095 268.433 110.401C268.959 109.571 269.664 108.874 270.495 108.361L271.534 109.82C271.207 110.027 270.891 110.252 270.588 110.495C270.296 110.741 270.049 111.039 269.86 111.373Z" fill="#2F4051"/>
<path d="M277.625 134.448L250.059 178.447L254.327 181.185L281.894 137.186L277.625 134.448Z" fill="white"/>
<path d="M286.691 140.147L259.125 184.146L263.394 186.884L290.96 142.885L286.691 140.147Z" fill="white"/>
<path d="M296.211 145.366L268.645 189.365L272.913 192.103L300.479 148.104L296.211 145.366Z" fill="white"/>
<defs>
<linearGradient id="paint0_linear_20_546" x1="203.317" y1="242.019" x2="88.0115" y2="174.298" gradientUnits="userSpaceOnUse">
<stop stop-color="#808080" stop-opacity="0.25"/>
<stop offset="0.54" stop-color="#808080" stop-opacity="0.12"/>
<stop offset="1" stop-color="#808080" stop-opacity="0.1"/>
</linearGradient>
<linearGradient id="paint1_linear_20_546" x1="30553.4" y1="-67668.4" x2="30553.4" y2="-95528.5" gradientUnits="userSpaceOnUse">
<stop stop-color="#808080" stop-opacity="0.25"/>
<stop offset="0.54" stop-color="#808080" stop-opacity="0.12"/>
<stop offset="1" stop-color="#808080" stop-opacity="0.1"/>
</linearGradient>
</defs>
</svg>
