<svg width="400" height="400" viewBox="0 0 400 400" fill="none" xmlns="http://www.w3.org/2000/svg">
<path d="M215.752 133.788C232.474 133.788 246.031 120.072 246.031 103.153C246.031 86.2335 232.474 72.5176 215.752 72.5176C199.029 72.5176 185.473 86.2335 185.473 103.153C185.473 120.072 199.029 133.788 215.752 133.788Z" fill="#A0616A"/>
<path d="M193.145 118.479C193.145 118.479 198.851 161.992 190.045 166.886C181.238 171.78 242.277 172.22 242.277 172.22C242.277 172.22 228.665 134.463 234.804 122.918L193.145 118.479Z" fill="#A0616A"/>
<path d="M286.823 172.439L281.753 195.811L271.025 245.27L270.699 247.968L266.994 279.341L264.544 300.172L262.885 314.164C252.839 319.388 245.567 322.996 245.567 322.996C245.567 322.996 244.947 319.858 244.017 315.749C236.963 317.898 223.862 321.443 212.87 322.149C216.901 326.682 218.746 330.949 216.234 334.102C208.668 343.513 177.474 323.717 166.482 316.298C166.234 318.074 166.141 319.869 166.203 321.662L157.831 315.153L158.668 300.172L160.064 274.839L161.815 243.058C161.26 241.7 160.794 240.306 160.42 238.886C157.862 229.662 154.761 211.262 152.374 195.827C150.451 183.404 149.009 172.909 148.699 170.729C148.699 170.447 148.699 170.29 148.699 170.29L195.009 149.6C198.296 157.317 213.614 159.639 213.614 159.639C221.676 158.913 229.456 156.281 236.327 151.953L286.823 172.439Z" fill="#98E5EC"/>
<path d="M249.116 314.103C249.116 314.103 247.147 314.777 243.969 315.671C236.914 317.82 223.814 321.366 212.821 322.071C203.318 322.683 195.271 321.209 193.798 314.918C193.499 313.697 193.549 312.415 193.941 311.221C194.334 310.027 195.053 308.97 196.015 308.173C201.829 302.73 217.023 300.769 229.069 300.095C232.465 299.907 235.612 299.828 238.232 299.797C242.682 299.797 245.597 299.797 245.597 299.797L245.674 300.064L249.116 314.103Z" fill="#A0616A"/>
<path d="M190.557 74.1812L184.899 71.8753C184.899 71.8753 196.728 58.6988 213.209 59.8439L208.557 54.6832C208.557 54.6832 219.891 50.0871 230.185 62.1341C235.596 68.4086 241.86 75.9067 245.689 84.2832H251.767L249.224 89.9302L258.092 95.5616L248.992 94.542C249.536 97.6494 249.619 100.821 249.24 103.954C248.838 107.041 247.271 109.851 244.868 111.797C244.868 111.797 237.844 97.0988 237.844 94.8086V100.55C237.844 100.55 232.17 95.389 232.17 91.9537L229.069 95.9694L227.519 89.6949L208.464 95.9694L211.565 90.8086L199.829 92.5498L204.48 86.2753C204.48 86.2753 191.1 93.7263 190.526 100.048C189.952 104.42 188.438 108.612 186.092 112.33C186.092 112.33 175.627 82.7773 190.557 74.1812Z" fill="#212D38"/>
<path d="M319.767 279.906C316.667 283.279 309.039 288.377 299.783 293.898C296.325 295.953 292.667 298.055 288.93 300.173C280 305.192 270.651 310.149 262.93 314.165C252.884 319.388 245.612 322.996 245.612 322.996C245.612 322.996 244.992 319.859 244.062 315.749C242.698 310.322 240.667 303.294 238.542 300.173C238.479 300.067 238.406 299.967 238.325 299.875C237.705 299.043 237.085 298.573 236.48 298.573L267.116 279.341L280.372 271.043L270.822 247.984L258.853 219.075L266.077 195.828L273.349 172.455H286.822C286.822 172.455 291.333 182.4 297.085 196.283C297.953 198.353 298.837 200.518 299.752 202.745C311.628 231.906 326.403 272.628 319.767 279.906Z" fill="#98E5EC"/>
<path d="M216.187 334.118C208.621 343.53 177.428 323.734 166.435 316.314C164.063 314.745 162.652 313.679 162.652 313.679L172.637 300.189L175.815 295.922C175.815 295.922 178.652 297.491 182.838 299.922L183.288 300.189C186.9 302.338 191.443 305.145 196.017 308.267C202.119 312.243 207.757 316.905 212.823 322.165C216.854 326.667 218.699 330.981 216.187 334.118Z" fill="#A0616A"/>
<path d="M182.838 299.889C181.721 299.876 180.606 299.965 179.505 300.156C170.032 301.803 167.241 310.478 166.435 316.282C166.187 318.058 166.094 319.853 166.156 321.646L157.784 315.136L154.683 312.768C147.371 310.022 140.715 305.746 135.148 300.219C130.226 295.44 125.814 290.151 121.986 284.438C118.186 278.773 114.802 272.832 111.862 266.666C111.039 264.96 110.597 263.092 110.568 261.195C110.539 259.297 110.922 257.416 111.691 255.685L122.048 232.329L137.179 198.195C137.303 197.38 137.412 196.627 137.551 195.811C140.559 178.383 148.59 170.713 148.59 170.713H154.792L158.9 195.811L164.001 227.058L160.42 238.87L152.156 266.133L160.063 274.823L182.838 299.889Z" fill="#98E5EC"/>
<path d="M309.535 328.989V331.53C309.536 332.222 309.41 332.908 309.163 333.554C309.051 333.841 308.916 334.119 308.76 334.385C308.273 335.219 307.579 335.91 306.747 336.389C305.915 336.867 304.973 337.118 304.016 337.114H120.094C119.136 337.118 118.195 336.867 117.362 336.389C116.53 335.91 115.836 335.219 115.349 334.385C115.193 334.119 115.059 333.841 114.946 333.554C114.699 332.908 114.573 332.222 114.574 331.53V328.989C114.574 327.508 115.156 326.087 116.191 325.04C117.226 323.993 118.63 323.405 120.094 323.405H130.698V322.228C130.698 322.166 130.723 322.106 130.766 322.062C130.81 322.018 130.869 321.993 130.931 321.993H136.435C136.496 321.993 136.556 322.018 136.599 322.062C136.643 322.106 136.667 322.166 136.667 322.228V323.405H140.156V322.228C140.153 322.198 140.158 322.168 140.167 322.139C140.177 322.111 140.193 322.085 140.213 322.063C140.234 322.04 140.258 322.023 140.286 322.011C140.313 321.999 140.343 321.993 140.373 321.993H145.908C145.938 321.993 145.968 321.999 145.997 322.011C146.025 322.023 146.05 322.04 146.072 322.062C146.094 322.084 146.111 322.109 146.122 322.138C146.134 322.167 146.14 322.197 146.14 322.228V323.405H149.597V322.228C149.597 322.166 149.622 322.106 149.666 322.062C149.709 322.018 149.768 321.993 149.83 321.993H155.365C155.395 321.993 155.426 321.999 155.454 322.011C155.482 322.023 155.508 322.04 155.529 322.062C155.551 322.084 155.568 322.109 155.58 322.138C155.591 322.167 155.597 322.197 155.597 322.228V323.405H159.055V322.228C159.053 322.198 159.057 322.168 159.067 322.139C159.077 322.111 159.092 322.085 159.113 322.063C159.133 322.04 159.158 322.023 159.185 322.011C159.212 321.999 159.242 321.993 159.272 321.993H164.807C164.868 321.993 164.928 322.018 164.971 322.062C165.015 322.106 165.039 322.166 165.039 322.228V323.405H168.497V322.228C168.497 322.166 168.521 322.106 168.565 322.062C168.608 322.018 168.668 321.993 168.729 321.993H174.264C174.294 321.993 174.324 321.999 174.351 322.011C174.378 322.023 174.403 322.04 174.423 322.063C174.444 322.085 174.459 322.111 174.469 322.139C174.479 322.168 174.483 322.198 174.481 322.228V323.405H177.954V322.228C177.952 322.198 177.956 322.168 177.966 322.139C177.976 322.111 177.992 322.085 178.012 322.063C178.032 322.04 178.057 322.023 178.084 322.011C178.112 321.999 178.141 321.993 178.171 321.993H183.706C183.768 321.993 183.827 322.018 183.87 322.062C183.914 322.106 183.939 322.166 183.939 322.228V323.405H187.396V322.228C187.396 322.166 187.42 322.106 187.464 322.062C187.508 322.018 187.567 321.993 187.628 321.993H231.008C231.039 321.99 231.071 321.995 231.1 322.006C231.129 322.017 231.156 322.034 231.178 322.057C231.2 322.079 231.217 322.106 231.228 322.135C231.239 322.165 231.243 322.197 231.241 322.228V323.405H234.698V322.228C234.698 322.166 234.723 322.106 234.766 322.062C234.81 322.018 234.869 321.993 234.931 321.993H240.466C240.527 321.993 240.587 322.018 240.63 322.062C240.674 322.106 240.698 322.166 240.698 322.228V323.405H244.156V322.228C244.153 322.197 244.158 322.165 244.169 322.135C244.179 322.106 244.197 322.079 244.219 322.057C244.241 322.034 244.267 322.017 244.296 322.006C244.326 321.995 244.357 321.99 244.388 321.993H249.908C249.939 321.99 249.97 321.995 249.999 322.006C250.028 322.017 250.055 322.034 250.077 322.057C250.099 322.079 250.116 322.106 250.127 322.135C250.138 322.165 250.142 322.197 250.14 322.228V323.405H253.597V322.228C253.597 322.166 253.622 322.106 253.666 322.062C253.709 322.018 253.768 321.993 253.83 321.993H259.365C259.427 321.993 259.486 322.018 259.529 322.062C259.573 322.106 259.597 322.166 259.597 322.228V323.405H263.055V322.228C263.053 322.197 263.057 322.165 263.068 322.135C263.079 322.106 263.096 322.079 263.118 322.057C263.14 322.034 263.166 322.017 263.196 322.006C263.225 321.995 263.256 321.99 263.287 321.993H268.807C268.838 321.99 268.869 321.995 268.898 322.006C268.928 322.017 268.954 322.034 268.976 322.057C268.998 322.079 269.015 322.106 269.026 322.135C269.037 322.165 269.042 322.197 269.039 322.228V323.405H272.497V322.228C272.497 322.166 272.521 322.106 272.565 322.062C272.608 322.018 272.668 321.993 272.729 321.993H278.264C278.326 321.993 278.385 322.018 278.429 322.062C278.472 322.106 278.497 322.166 278.497 322.228V323.405H281.954V322.228C281.952 322.198 281.956 322.168 281.966 322.139C281.976 322.111 281.992 322.085 282.012 322.063C282.032 322.04 282.057 322.023 282.084 322.011C282.112 321.999 282.141 321.993 282.171 321.993H287.706C287.768 321.993 287.827 322.018 287.87 322.062C287.914 322.106 287.939 322.166 287.939 322.228V323.405H304.078C305.542 323.405 306.946 323.993 307.981 325.04C309.016 326.087 309.597 327.508 309.597 328.989H309.535Z" fill="#212D38"/>
<path d="M363.009 333.553H61.1328V334.384H363.009V333.553Z" fill="#465564"/>
<path d="M294.73 222.478H226.187V221.051H195.179V222.478H126.264C125.031 222.478 123.848 222.974 122.976 223.857C122.103 224.739 121.613 225.936 121.613 227.184V322.149C121.613 323.397 122.103 324.594 122.976 325.476C123.848 326.359 125.031 326.855 126.264 326.855H294.73C295.963 326.855 297.146 326.359 298.018 325.476C298.891 324.594 299.381 323.397 299.381 322.149V227.168C299.377 225.923 298.885 224.73 298.013 223.851C297.141 222.972 295.96 222.478 294.73 222.478Z" fill="#212D38"/>
<path fill-rule="evenodd" clip-rule="evenodd" d="M210.634 246.223C205.512 246.223 201.34 250.427 201.34 255.638C201.34 260.85 205.512 265.054 210.634 265.054C215.757 265.054 219.929 260.85 219.929 255.638C219.929 250.427 215.757 246.223 210.634 246.223ZM199.34 255.638C199.34 249.345 204.386 244.223 210.634 244.223C216.883 244.223 221.929 249.345 221.929 255.638C221.929 261.932 216.883 267.054 210.634 267.054C204.386 267.054 199.34 261.932 199.34 255.638Z" fill="#E30072"/>
<path d="M207.349 269.804C213.035 269.804 217.644 265.141 217.644 259.388C217.644 253.636 213.035 248.973 207.349 248.973C201.664 248.973 197.055 253.636 197.055 259.388C197.055 265.141 201.664 269.804 207.349 269.804Z" fill="#FC4CA8"/>
<path d="M80.8825 329.35H69.3477V341.02H80.8825V329.35Z" fill="#DDE0E3"/>
<path d="M73.875 320.172V334.29H87.8285V320.172H73.875ZM87.2704 333.725H74.4176V320.799H87.2083L87.2704 333.725Z" fill="#465564"/>
<path d="M347.769 329.35H336.234V341.02H347.769V329.35Z" fill="#DDE0E3"/>
<path d="M340.758 320.172V334.29H354.711V320.172H340.758ZM354.153 333.725H341.362V320.799H354.153V333.725Z" fill="#465564"/>
<path d="M75.1783 149.71C93.2281 149.71 107.86 134.905 107.86 116.643C107.86 98.3806 93.2281 83.5762 75.1783 83.5762C57.1284 83.5762 42.4961 98.3806 42.4961 116.643C42.4961 134.905 57.1284 149.71 75.1783 149.71Z" fill="#5CC7D0"/>
<path d="M86.5576 77.3644C83.5986 76.9723 80.6018 76.9723 77.6428 77.3644C71.0533 78.2396 64.85 81.0088 59.769 85.3433C54.6879 89.6779 50.9422 95.3959 48.9762 101.819C48.0655 104.748 47.5441 107.787 47.4258 110.855C47.4258 111.278 47.4258 111.702 47.4258 112.141C47.4319 116.751 48.3354 121.315 50.0848 125.572C51.8341 129.829 54.3951 133.695 57.6214 136.951C60.8477 140.206 64.6761 142.787 68.8882 144.545C73.1003 146.304 77.6134 147.206 82.17 147.2C82.8987 147.2 83.6428 147.2 84.3715 147.2C86.0774 147.092 87.7724 146.851 89.4413 146.478C97.4152 144.727 104.523 140.186 109.512 133.653C114.501 127.121 117.051 119.016 116.714 110.768C116.377 102.519 113.173 94.656 107.668 88.5627C102.163 82.4694 94.7091 78.5371 86.6196 77.4585L86.5576 77.3644ZM93.0227 144.392C90.2318 145.349 87.3281 145.929 84.387 146.117C83.6583 146.117 82.8366 146.117 82.1855 146.117C73.2596 146.13 64.6933 142.56 58.3658 136.19C52.0383 129.821 48.4664 121.172 48.4335 112.141C48.4335 111.702 48.4335 111.278 48.4335 110.855C48.6741 104.661 50.5809 98.6509 53.9484 93.4727C57.3159 88.2945 62.0165 84.1444 67.5433 81.4699C73.0702 78.7953 79.2137 77.6977 85.3117 78.2953C91.4096 78.8929 97.2307 81.1631 102.147 84.8612C107.064 88.5593 110.89 93.545 113.213 99.2808C115.535 105.017 116.267 111.285 115.328 117.41C114.389 123.536 111.815 129.286 107.885 134.04C103.954 138.795 98.8155 142.374 93.0227 144.392Z" fill="#465564"/>
<path d="M82.6055 80.0781H81.6133V87.0899H82.6055V80.0781Z" fill="#465564"/>
<path d="M60.0493 89.1026L59.3477 89.8125L64.2481 94.7706L64.9497 94.0607L60.0493 89.1026Z" fill="#465564"/>
<path d="M57.3482 111.639H50.418V112.643H57.3482V111.639Z" fill="#465564"/>
<path d="M64.2481 129.491L59.3477 134.449L60.0493 135.159L64.9497 130.201L64.2481 129.491Z" fill="#465564"/>
<path d="M104.154 89.1279L99.2539 94.0859L99.9555 94.7958L104.856 89.8378L104.154 89.1279Z" fill="#465564"/>
<path d="M113.782 111.639H106.852V112.643H113.782V111.639Z" fill="#465564"/>
<path d="M99.9594 129.478L99.2578 130.188L104.158 135.146L104.86 134.436L99.9594 129.478Z" fill="#465564"/>
<path d="M82.6055 137.176H81.6133V144.188H82.6055V137.176Z" fill="#465564"/>
<path d="M83.5823 110.133C83.1564 109.806 82.6364 109.629 82.1017 109.629C81.567 109.629 81.047 109.806 80.6211 110.133C80.2027 110.448 79.893 110.888 79.7361 111.391C79.5792 111.894 79.5829 112.435 79.7469 112.936C79.9108 113.436 80.2266 113.872 80.6493 114.181C81.0721 114.49 81.5803 114.656 82.1017 114.656C82.6232 114.656 83.1314 114.49 83.5541 114.181C83.9769 113.872 84.2926 113.436 84.4566 112.936C84.6205 112.435 84.6243 111.894 84.4673 111.391C84.3104 110.888 84.0007 110.448 83.5823 110.133ZM82.1715 113.647C81.8218 113.659 81.4783 113.551 81.1967 113.341C80.9152 113.131 80.7121 112.831 80.6207 112.489C80.5292 112.147 80.5546 111.784 80.6929 111.459C80.8311 111.134 81.074 110.866 81.3821 110.698C81.6902 110.53 82.0453 110.473 82.3897 110.535C82.7342 110.597 83.0477 110.775 83.2793 111.041C83.5109 111.306 83.6469 111.643 83.6654 111.996C83.6838 112.35 83.5835 112.699 83.3808 112.988C83.2428 113.184 83.0619 113.346 82.8522 113.46C82.6425 113.574 82.4095 113.638 82.1715 113.647Z" fill="#465564"/>
<path d="M86.5593 68.5645H77.6445V77.5841H86.5593V68.5645Z" fill="#465564"/>
<path d="M82.1103 70.0547C88.6693 70.0547 93.9863 68.1515 93.9863 65.8037C93.9863 63.456 88.6693 61.5527 82.1103 61.5527C75.5514 61.5527 70.2344 63.456 70.2344 65.8037C70.2344 68.1515 75.5514 70.0547 82.1103 70.0547Z" fill="#465564"/>
<path d="M83.5978 93.0977H80.6211V110.133H83.5978V93.0977Z" fill="#465564"/>
<path d="M129.289 145.678H36.2188V146.682H129.289V145.678Z" fill="#465564"/>
<path d="M98.2491 303.733C98.6212 317.051 90.9313 321.929 81.2879 322.212H80.6212H79.2879C70.5592 321.851 63.66 317.161 63.3034 304.784C62.9313 291.969 78.6522 275.325 79.8305 274.086V274.008C79.8305 274.008 97.8615 290.416 98.2491 303.733Z" fill="#DDE0E3"/>
<path d="M80.6191 320.188L86.8207 310.965L80.6191 321.176V322.227H79.2858L79.5959 308.894V308.784V307.529L72.8672 297.616L79.5649 306.525V306.792L79.7974 296.721L73.999 286.494L79.8904 294.902V274.023L80.278 290.478L85.5029 283.921L80.2315 292.016L80.3401 301.035L85.2703 292.157L80.4176 302.29L80.4951 307.294L87.5649 295.043L80.4486 309.02L80.6191 320.188Z" fill="#465564"/>
<path d="M365.116 303.733C365.504 317.051 357.814 321.929 348.171 322.212H347.488H346.171C337.442 321.851 330.527 317.161 330.171 304.784C329.798 291.969 345.519 275.325 346.698 274.086V274.008C346.698 274.008 364.729 290.416 365.116 303.733Z" fill="#DDE0E3"/>
<path d="M347.471 320.188L353.595 310.964L347.486 321.176V322.227H346.169L346.463 308.894V308.784V307.529L339.75 297.662L346.463 306.572V306.839L346.696 296.768L340.897 286.541L346.711 294.996V274.117L347.099 290.572L352.386 283.89L347.114 291.984L347.238 301.003L352.091 292.203L347.285 302.29V307.294L354.355 295.043L347.285 309.019L347.471 320.188Z" fill="#465564"/>
</svg>
