<svg width="400" height="400" viewBox="0 0 400 400" fill="none" xmlns="http://www.w3.org/2000/svg">
<path d="M301.483 269.561L334.524 250.559C363.813 233.615 367.08 208.078 341.664 193.433C316.248 178.789 271.952 180.604 242.663 197.548L64.7506 300.302C35.4616 317.246 32.1938 342.783 57.6099 357.427C78.7899 369.651 113.283 370.377 141.12 360.453L146.445 358.396C149.955 356.943 153.344 355.249 156.611 353.433L220.151 316.762L301.483 269.561Z" fill="#E4FCFF"/>
<path d="M300.394 91.1657C300.757 90.9236 300.999 90.5605 301.362 90.3185C301.725 89.9554 302.088 89.5923 302.451 89.3503C302.814 89.1082 303.056 88.8661 303.42 88.503C303.783 88.14 304.267 87.8979 304.63 87.5348C304.993 87.2928 305.235 87.0507 305.598 86.8087C305.961 86.4456 306.445 86.2035 306.808 85.8404C307.171 85.5984 307.414 85.3563 307.777 85.1142C308.261 84.7512 308.624 84.5091 309.108 84.146C309.35 83.904 309.713 83.7829 309.955 83.5409C310.439 83.1778 310.923 82.9357 311.407 82.5726C311.65 82.4516 311.892 82.2096 312.134 82.0885C312.86 81.6044 313.586 81.1203 314.312 80.7572C315.401 80.1521 316.37 79.5469 317.459 79.0628C317.701 78.9418 318.064 78.8208 318.306 78.5787C319.153 78.2156 319.879 77.8525 320.606 77.4894C320.848 77.3684 321.211 77.2474 321.453 77.1263C322.179 76.8843 322.905 76.5212 323.631 76.2791C323.752 76.1581 323.994 76.1581 324.115 76.0371C324.963 75.674 325.931 75.4319 326.778 75.1899C327.262 75.0689 327.746 74.9478 328.351 74.8268C328.594 74.8268 328.836 74.7058 329.078 74.7058C329.804 74.5847 330.53 74.4637 331.256 74.3427C331.256 74.3427 331.256 74.3427 331.377 74.3427C332.103 74.2217 332.708 74.2217 333.435 74.1006C333.677 74.1006 333.919 74.1006 334.04 74.1006C334.524 74.1006 335.008 73.9796 335.492 73.9796C335.734 73.9796 335.855 73.9796 336.097 73.9796C336.581 73.9796 337.066 73.9796 337.55 73.9796C337.671 73.9796 337.913 73.9796 338.034 73.9796C338.276 73.9796 338.397 73.9796 338.639 73.9796C339.365 73.9796 340.091 74.1006 340.817 74.2217C341.06 74.2217 341.302 74.3427 341.544 74.3427C342.391 74.4637 343.238 74.7058 343.964 74.9478H344.085C344.811 75.1899 345.538 75.4319 346.264 75.674C346.506 75.795 346.627 75.795 346.869 75.9161C347.474 76.1581 348.079 76.5212 348.684 76.7633C348.926 76.8843 349.047 77.0053 349.289 77.1263L296.884 46.6271C296.763 46.6271 296.763 46.5061 296.642 46.5061C296.521 46.5061 296.4 46.385 296.279 46.385C295.674 46.022 295.069 45.7799 294.463 45.5378C294.342 45.5378 294.221 45.4168 294.1 45.4168C293.979 45.4168 293.858 45.2958 293.858 45.2958C293.132 45.0537 292.406 44.6906 291.68 44.5696H291.559C290.712 44.3276 289.985 44.2065 289.138 43.9645C289.017 43.9645 288.896 43.9645 288.896 43.8434C288.775 43.8434 288.654 43.8434 288.533 43.8434C287.807 43.7224 287.081 43.6014 286.355 43.6014C286.233 43.6014 286.112 43.6014 285.991 43.6014C285.87 43.6014 285.87 43.6014 285.749 43.6014C285.628 43.6014 285.386 43.6014 285.265 43.6014C284.781 43.6014 284.297 43.6014 283.813 43.6014C283.571 43.6014 283.45 43.6014 283.208 43.6014C283.087 43.6014 282.845 43.6014 282.724 43.6014C282.361 43.6014 282.118 43.6014 281.755 43.7224C281.513 43.7224 281.271 43.7224 281.15 43.7224C280.545 43.8434 279.819 43.8434 279.093 43.9645C279.093 43.9645 279.093 43.9645 278.972 43.9645C278.246 44.0855 277.519 44.2065 276.793 44.3276C276.551 44.3276 276.309 44.4486 276.067 44.4486C275.583 44.5696 275.099 44.6906 274.615 44.8117H274.494C273.646 45.0537 272.678 45.2958 271.831 45.6589C271.71 45.7799 271.468 45.7799 271.347 45.9009C270.621 46.143 269.895 46.385 269.168 46.7481C269.047 46.7481 268.926 46.8692 268.926 46.8692C268.805 46.9902 268.563 46.9902 268.442 47.1112C267.716 47.4743 266.869 47.8374 266.143 48.2005C265.901 48.3215 265.538 48.4425 265.295 48.6846C264.206 49.1687 263.238 49.7738 262.149 50.379C261.423 50.8631 260.696 51.2262 259.97 51.7103C259.728 51.8313 259.486 52.0734 259.244 52.1944C258.76 52.5575 258.276 52.7996 257.792 53.1627C257.55 53.4047 257.187 53.5257 256.945 53.7678C256.46 54.1309 256.097 54.3729 255.613 54.736L225.598 37.3079C225.477 37.1869 225.356 37.1869 225.235 37.0658C224.509 36.7027 223.904 36.3397 223.177 35.9766C223.056 35.8555 222.814 35.8555 222.693 35.7345C222.33 35.4925 221.846 35.3714 221.483 35.2504C221.241 35.1294 220.999 35.0083 220.636 34.8873C220.394 34.7663 220.152 34.7663 219.91 34.6453C219.063 34.2822 218.215 34.0401 217.368 33.798H217.247C216.4 33.556 215.553 33.3139 214.705 33.1929C214.463 33.1929 214.221 33.0719 213.979 33.0719C213.737 33.0719 213.495 32.9508 213.253 32.9508C212.769 32.8298 212.285 32.8298 211.801 32.7088C211.559 32.7088 211.438 32.7088 211.196 32.5878C210.348 32.4667 209.501 32.3457 208.654 32.3457C208.533 32.3457 208.412 32.3457 208.412 32.3457C208.17 32.3457 207.928 32.3457 207.686 32.3457C206.96 32.3457 206.233 32.3457 205.507 32.3457C205.144 32.3457 204.902 32.3457 204.539 32.3457C204.297 32.3457 204.055 32.3457 203.813 32.3457C203.329 32.3457 202.845 32.4667 202.361 32.4667C201.997 32.4667 201.755 32.4667 201.392 32.5878C200.303 32.7088 199.335 32.8298 198.246 32.9508C197.156 33.0719 195.946 33.3139 194.857 33.556C194.494 33.677 194.131 33.798 193.768 33.798C193.041 33.9191 192.436 34.1611 191.71 34.2822C191.589 34.2822 191.468 34.4032 191.347 34.4032C191.226 34.4032 190.984 34.5242 190.863 34.5242C189.774 34.7663 188.805 35.1294 187.716 35.4925C187.595 35.4925 187.595 35.4925 187.474 35.6135C186.385 35.9766 185.295 36.4607 184.206 36.8238C183.964 36.9448 183.722 36.9448 183.601 37.0658C183.359 37.1869 183.238 37.1869 182.996 37.3079C182.028 37.671 181.181 38.1551 180.212 38.5182C180.091 38.6392 179.849 38.6392 179.728 38.7602C178.76 39.2443 177.792 39.7285 176.823 40.2126C176.46 40.3336 176.218 40.5757 175.855 40.6967C174.645 41.3018 173.556 41.907 172.345 42.6332C171.256 43.2383 170.167 43.9645 169.078 44.5696C168.715 44.8117 168.351 45.0537 167.988 45.2958C167.262 45.7799 166.536 46.264 165.81 46.7481C165.447 46.9902 164.963 47.3533 164.6 47.5953C163.994 48.0794 163.268 48.4425 162.663 48.9266C162.179 49.2897 161.816 49.5318 161.332 49.8949C160.727 50.379 160.122 50.7421 159.516 51.2262C159.032 51.5893 158.548 51.9524 158.185 52.3155C157.58 52.7996 157.096 53.2837 156.491 53.6468C156.007 54.0099 155.522 54.3729 155.159 54.8571C154.554 55.3412 154.07 55.8253 153.465 56.3094C152.981 56.6725 152.497 57.1566 152.134 57.5197C151.649 58.0038 151.044 58.4879 150.56 58.972C150.076 59.4561 149.592 59.8192 149.229 60.3033C148.745 60.7875 148.14 61.2716 147.656 61.7557C147.535 61.8767 147.413 61.9977 147.292 62.1188C147.05 62.3608 146.929 62.4819 146.808 62.7239C145.719 63.8132 144.751 64.7814 143.662 65.8707C143.42 66.1127 143.177 66.4758 142.814 66.7179C141.604 68.0492 140.394 69.2595 139.305 70.5908C139.184 70.7118 139.184 70.7118 139.063 70.8329C138.82 71.0749 138.578 71.438 138.336 71.8011C137.731 72.5273 137.126 73.2534 136.521 73.9796C136.158 74.4637 135.795 74.9478 135.432 75.3109C134.827 76.0371 134.342 76.7633 133.737 77.4894C133.495 77.7315 133.374 77.9735 133.132 78.2156C133.011 78.3366 132.89 78.4577 132.89 78.5787C131.438 80.5152 129.864 82.5726 128.533 84.5091C128.412 84.6301 128.291 84.7512 128.17 84.9932C128.049 85.1142 127.928 85.2353 127.928 85.4773C126.597 87.2928 125.386 89.2292 124.176 91.1657C124.055 91.2867 123.934 91.4077 123.934 91.6498C123.813 91.7708 123.692 92.0129 123.571 92.1339C122.361 93.9493 121.271 95.8858 120.182 97.7012C120.182 97.8223 120.061 97.8223 120.061 97.9433C119.94 98.0643 119.819 98.3064 119.819 98.4274C118.73 100.243 117.761 102.179 116.672 103.995C116.672 104.116 116.551 104.116 116.551 104.237C116.551 104.237 116.551 104.237 116.551 104.358C115.583 106.294 114.615 108.11 113.646 110.046C113.525 110.288 113.404 110.409 113.283 110.651C113.162 110.772 113.162 110.893 113.041 111.014C112.194 112.83 111.226 114.766 110.5 116.703C110.379 116.824 110.379 117.066 110.258 117.187C110.137 117.429 110.137 117.55 110.016 117.792C109.168 119.728 108.321 121.786 107.595 123.722C107.595 123.843 107.595 123.843 107.474 123.964C107.232 124.691 106.869 125.417 106.627 126.143C106.506 126.506 106.385 126.99 106.143 127.353C105.659 128.564 105.295 129.774 104.811 131.105C104.69 131.468 104.569 131.831 104.448 132.194C104.206 133.163 103.843 134.01 103.601 134.978C103.48 135.462 103.359 135.946 103.238 136.43C102.996 137.157 102.754 138.004 102.512 138.73C102.512 138.73 102.512 138.73 102.512 138.851C102.27 139.698 102.028 140.545 101.786 141.393C101.665 141.877 101.544 142.24 101.423 142.724C101.059 144.055 100.817 145.387 100.454 146.597C99.9702 146.718 99.3651 146.839 98.881 146.96C98.0338 147.202 97.1866 147.444 96.3394 147.686C96.2183 147.686 95.9763 147.807 95.8553 147.807C95.0081 148.049 94.1609 148.412 93.3137 148.775H93.1926C93.0716 148.775 93.0716 148.896 92.9506 148.896C91.8613 149.381 90.8931 149.744 89.8038 150.349C89.6828 150.349 89.6828 150.47 89.5618 150.47C88.4725 151.075 87.3832 151.559 86.173 152.285C85.3258 152.769 84.5996 153.253 83.7524 153.738C83.5103 153.859 83.2683 154.101 83.0262 154.222C82.5421 154.585 81.937 154.948 81.4528 155.311C81.2108 155.553 80.8477 155.674 80.6056 155.916C80.1215 156.279 79.6374 156.642 79.1533 157.005C78.9112 157.247 78.5481 157.489 78.3061 157.61C77.822 157.974 77.3379 158.337 76.8537 158.7C76.6117 158.942 76.3696 159.184 76.0065 159.305C75.4014 159.789 74.9173 160.273 74.4332 160.636C74.1911 160.757 74.0701 160.999 73.828 161.12C73.1019 161.725 72.3757 162.452 71.6495 163.057C71.5285 163.178 71.4075 163.299 71.1654 163.42C70.6813 163.904 70.1972 164.267 69.713 164.751C69.592 164.872 69.592 164.872 69.471 164.993C68.6238 165.84 67.7766 166.688 66.9294 167.535L66.8084 167.656C66.0822 168.503 65.235 169.35 64.5088 170.197C64.3878 170.318 64.3878 170.319 64.2668 170.44C64.1457 170.561 64.1457 170.682 64.0247 170.803C62.8144 172.255 61.6041 173.707 60.3938 175.16L60.2728 175.281C60.1518 175.402 60.1518 175.523 60.0307 175.644C59.0625 176.854 58.2153 178.064 57.2471 179.396C57.1261 179.517 57.005 179.638 57.005 179.759L56.884 179.88C56.0368 181.09 55.1896 182.3 54.3424 183.632C54.2214 183.753 54.2214 183.874 54.1003 183.995C53.9793 184.237 53.8583 184.358 53.7373 184.6C53.1321 185.568 52.4059 186.657 51.8008 187.747C51.6798 187.868 51.5587 188.11 51.4377 188.231C51.4377 188.352 51.3167 188.352 51.3167 188.473C50.5905 189.683 49.9854 190.893 49.2592 192.104C49.2592 192.225 49.1382 192.346 49.1382 192.346C49.0171 192.588 48.8961 192.709 48.7751 192.951C48.291 193.919 47.8068 194.887 47.3227 195.856C47.2017 196.098 47.0807 196.219 46.9596 196.461C46.9596 196.582 46.8386 196.703 46.8386 196.824C46.2335 198.034 45.6283 199.365 45.1442 200.576V200.697C45.1442 200.818 45.0232 200.939 45.0232 201.06C44.5391 202.149 44.055 203.359 43.5708 204.57C43.4498 204.812 43.4498 204.933 43.3288 205.175C43.3288 205.296 43.2078 205.538 43.2078 205.659C42.7236 206.99 42.2395 208.443 41.7554 209.774C41.7554 209.774 41.7554 209.774 41.7554 209.895C41.7554 210.016 41.7554 210.016 41.6344 210.137C41.1503 211.589 40.7872 212.921 40.3031 214.373C40.3031 214.494 40.182 214.736 40.182 214.857C40.182 214.978 40.061 215.22 40.061 215.341C39.94 215.825 39.8189 216.188 39.6979 216.673C39.5769 217.278 39.4559 217.762 39.3348 218.367C39.2138 218.851 39.0928 219.214 39.0928 219.698C38.9717 219.94 38.9717 220.303 38.8507 220.545C38.8507 220.787 38.7297 221.03 38.7297 221.151C38.6087 221.756 38.4876 222.482 38.3666 223.087C38.2456 223.571 38.2456 223.934 38.1245 224.418C38.0035 225.145 37.8825 225.75 37.8825 226.355C37.8825 226.718 37.7615 226.96 37.7615 227.323C37.7615 227.444 37.7615 227.444 37.7615 227.565C37.6404 229.017 37.3984 230.349 37.3984 231.801C37.3984 232.043 37.3984 232.406 37.3984 232.648C37.2773 234.101 37.2773 235.553 37.2773 236.884C37.2773 252.376 42.8447 263.269 51.6798 268.473L104.085 298.972C95.2501 293.889 89.8038 282.875 89.6828 267.384C89.6828 265.931 89.6828 264.6 89.8038 263.148C89.8038 262.906 89.8038 262.542 89.8038 262.3C89.9248 260.848 90.0459 259.517 90.1669 258.064C90.1669 257.701 90.2879 257.338 90.2879 256.854C90.409 256.249 90.53 255.523 90.53 254.918C90.651 254.434 90.651 254.07 90.772 253.586C90.8931 252.981 91.0141 252.255 91.1351 251.65C91.2562 251.166 91.3772 250.682 91.4982 250.076C91.6193 249.592 91.7403 249.229 91.7403 248.745C91.8613 248.14 91.9823 247.656 92.1034 247.051C92.2244 246.567 92.3454 246.204 92.4665 245.719C92.5875 245.356 92.7085 244.993 92.7085 244.751C93.0716 243.299 93.5557 241.968 94.0398 240.515C94.0398 240.394 94.1609 240.273 94.1609 240.152C94.645 238.821 95.1291 237.368 95.6132 236.037C95.7342 235.674 95.8553 235.311 95.9763 234.948C96.4604 233.738 96.9445 232.648 97.4286 231.438C97.5497 231.317 97.5497 231.075 97.6707 230.954C98.2758 229.744 98.7599 228.412 99.3651 227.202C99.4861 226.839 99.7282 226.597 99.8492 226.234C100.333 225.266 100.817 224.297 101.302 223.329C101.423 223.087 101.665 222.724 101.786 222.482C102.391 221.272 103.117 220.061 103.843 218.851C103.964 218.609 104.085 218.367 104.206 218.125C104.811 217.036 105.417 216.067 106.143 214.978C106.385 214.615 106.506 214.373 106.748 214.131C107.595 212.921 108.442 211.589 109.289 210.379C109.41 210.137 109.532 210.016 109.653 209.774C110.5 208.564 111.468 207.232 112.436 206.022C112.557 205.901 112.678 205.659 112.799 205.538C114.01 204.086 115.22 202.512 116.43 201.181C116.551 200.939 116.793 200.818 116.914 200.576C117.64 199.728 118.488 198.881 119.214 198.034L119.335 197.913C120.182 197.066 121.029 196.219 121.876 195.371C122.361 194.887 122.966 194.282 123.45 193.798C123.571 193.677 123.692 193.556 123.934 193.314C124.66 192.588 125.386 191.983 126.112 191.378C126.354 191.256 126.476 191.014 126.718 190.893C127.202 190.409 127.807 189.925 128.291 189.562C128.533 189.32 128.775 189.078 129.138 188.957C129.622 188.594 130.106 188.231 130.591 187.868C130.833 187.626 131.196 187.384 131.438 187.263C131.922 186.899 132.406 186.536 132.89 186.173C133.132 185.931 133.495 185.81 133.737 185.568C134.221 185.205 134.827 184.842 135.311 184.479C135.553 184.358 135.795 184.116 136.037 183.995C136.763 183.511 137.61 183.027 138.457 182.542C139.547 181.937 140.636 181.332 141.846 180.727C141.967 180.727 141.967 180.606 142.088 180.606C143.178 180.122 144.146 179.638 145.235 179.154C145.356 179.154 145.477 179.033 145.598 179.033C146.445 178.669 147.292 178.306 148.14 178.064C148.261 177.943 148.503 177.943 148.624 177.943C149.471 177.701 150.318 177.338 151.165 177.217C151.65 177.096 152.255 176.975 152.739 176.854C152.981 175.523 153.344 174.312 153.707 172.981C153.828 172.497 153.949 172.134 154.07 171.65C154.312 170.803 154.554 169.955 154.796 168.987C155.038 168.261 155.28 167.414 155.401 166.688C155.522 166.204 155.643 165.598 155.886 165.114C156.128 164.267 156.37 163.42 156.733 162.573C156.854 162.089 156.975 161.725 157.096 161.241C157.459 160.031 157.943 158.821 158.427 157.489C158.548 157.126 158.669 156.642 158.911 156.279C159.153 155.432 159.516 154.706 159.758 153.859C160.485 151.922 161.332 149.865 162.179 147.928C162.3 147.565 162.421 147.202 162.663 146.839C163.51 144.902 164.358 143.087 165.205 141.151C165.326 140.787 165.568 140.424 165.689 140.182C166.657 138.246 167.625 136.309 168.594 134.494C168.594 134.373 168.715 134.252 168.715 134.252C169.683 132.315 170.772 130.5 171.861 128.685C171.982 128.443 172.224 128.2 172.345 127.837C173.435 125.901 174.645 124.086 175.734 122.27C175.976 121.907 176.097 121.665 176.339 121.302C177.55 119.365 178.881 117.55 180.091 115.614C180.333 115.371 180.454 115.008 180.696 114.766C182.149 112.709 183.601 110.772 185.053 108.836C185.295 108.473 185.659 108.11 185.901 107.747C186.506 107.02 186.99 106.294 187.595 105.568C187.958 105.084 188.321 104.6 188.684 104.237C189.289 103.511 189.895 102.784 190.5 102.058C190.863 101.695 191.226 101.211 191.468 100.848C192.678 99.5167 193.768 98.1853 194.978 96.9751C195.22 96.733 195.462 96.3699 195.825 96.1279C196.793 95.0386 197.882 93.9493 198.972 92.9811C199.335 92.618 199.577 92.376 199.94 92.0129C200.424 91.5288 201.029 91.0447 201.513 90.5605C201.997 90.0764 202.482 89.7133 202.845 89.2292C203.329 88.7451 203.934 88.261 204.418 87.7769C204.902 87.4138 205.386 86.9297 205.749 86.5666C206.354 86.0825 206.839 85.5984 207.444 85.1142C207.928 84.7512 208.412 84.3881 208.775 83.904C209.38 83.4198 209.864 82.9357 210.469 82.5726C210.954 82.2096 211.438 81.8465 211.801 81.4834C212.406 80.9993 213.011 80.6362 213.616 80.1521C214.1 79.789 214.463 79.4259 214.948 79.1838C215.553 78.6997 216.279 78.3366 216.884 77.8525C217.247 77.6105 217.731 77.2474 218.094 77.0053C218.82 76.5212 219.547 76.0371 220.273 75.553C220.636 75.3109 220.999 75.0689 221.362 74.8268C222.451 74.1006 223.541 73.4955 224.63 72.8903C225.84 72.1642 226.929 71.559 228.14 70.9539C228.503 70.8328 228.745 70.5908 229.108 70.4698C230.076 69.9856 231.044 69.5015 232.013 69.0174C232.134 68.8964 232.376 68.8964 232.497 68.7754C233.586 68.2912 234.796 67.8071 235.885 67.323C236.128 67.202 236.37 67.202 236.491 67.081C237.58 66.5968 238.669 66.2338 239.758 65.8707C239.879 65.8707 239.879 65.8707 240 65.7496C241.09 65.3866 242.058 65.0235 243.147 64.7814C243.268 64.7814 243.51 64.6604 243.631 64.6604C244.236 64.5394 244.721 64.4183 245.205 64.2973L297.126 94.5545C297.61 94.0704 298.094 93.5863 298.699 93.1021C299.063 92.8601 299.305 92.497 299.668 92.2549C299.547 91.7708 299.91 91.4077 300.394 91.1657Z" fill="#DDE0E3"/>
<path d="M224.147 72.8901C258.761 52.9203 287.929 62.9657 296.885 94.4332C302.331 88.9869 308.141 84.2668 314.313 80.6359C341.544 64.9022 363.572 77.4892 363.693 108.715C363.814 139.94 341.786 177.943 314.676 193.677L138.216 295.583C110.985 311.317 88.9575 298.73 88.8364 267.504C88.7154 236.279 110.743 198.276 137.853 182.542C142.815 179.637 147.656 177.822 152.134 176.733C161.091 135.583 189.895 92.7388 224.147 72.8901Z" fill="#F4F5F6"/>
<path d="M252.227 177.337L230.926 164.992L230.805 103.631L251.985 115.976L252.227 177.337Z" fill="#A82864"/>
<path d="M234.071 126.384L212.891 114.039L252.588 37.9121L273.889 50.3781L234.071 126.384Z" fill="#A82864"/>
<path d="M273.889 50.3789L313.949 80.273L296.037 90.5605L296.158 151.922L252.225 177.338L251.983 115.977L234.07 126.385L273.889 50.3789Z" fill="#E03585"/>
<path d="M221.482 215.341L209.984 208.684L227.897 198.396L239.394 205.053L221.482 215.341Z" fill="#3B8B9C"/>
<path d="M199.577 281.059L178.518 268.835L138.457 238.82L159.516 251.165L199.577 281.059Z" fill="#3B8B9C"/>
<path d="M159.516 251.166L138.457 238.821L156.369 228.533L177.428 240.757L159.516 251.166Z" fill="#3B8B9C"/>
<path d="M177.43 240.757L156.371 228.533L156.25 167.172L177.309 179.396L177.43 240.757Z" fill="#3B8B9C"/>
<path d="M177.309 179.396L156.25 167.172L200.183 141.756L221.242 154.101L177.309 179.396Z" fill="#3B8B9C"/>
<path d="M221.24 154.102L221.482 215.342L239.395 205.055L199.576 281.061L159.516 251.167L177.428 240.758L177.307 179.397L221.24 154.102Z" fill="#4FBAD0"/>
</svg>
