<svg width="400" height="400" viewBox="0 0 400 400" fill="none" xmlns="http://www.w3.org/2000/svg">
<rect width="400" height="400" fill="white"/>
<path d="M0 341.726H400V58.9998H0V341.726Z" fill="white"/>
<path d="M80.7817 312.536C73.243 312.536 65.7066 310.877 59.9548 307.557C48.4526 300.919 48.4526 290.156 59.9548 283.517C65.7052 280.199 73.2444 278.539 80.7813 278.539C88.32 278.539 95.8564 280.198 101.608 283.517C113.11 290.156 113.11 300.919 101.608 307.557C95.8578 310.876 88.3186 312.536 80.7817 312.536Z" fill="#3BB7C2"/>
<path d="M240.336 188.345L223.055 178.371L261.85 155.98L279.131 165.954L240.336 188.345Z" fill="#3BB7C2"/>
<path d="M69.2504 236.082L59.375 230.383L118.663 196.165L128.538 201.865L69.2504 236.082Z" fill="#3BB7C2"/>
<path d="M340.237 236.712L280.949 202.495L290.825 196.796L350.113 231.013L340.237 236.712Z" fill="#3BB7C2"/>
<path d="M144.643 215.97C181.113 194.921 240.245 194.921 276.716 215.97C313.188 237.019 313.188 271.146 276.717 292.195C240.246 313.244 181.114 313.243 144.643 292.195C108.171 271.146 108.171 237.019 144.643 215.97Z" fill="#212D38"/>
<path d="M154.91 196.754C154.919 196.603 154.929 196.454 154.942 196.307C154.949 196.222 154.959 196.139 154.968 196.056C154.981 195.931 154.996 195.807 155.013 195.685C155.025 195.595 155.038 195.507 155.052 195.42C155.07 195.308 155.089 195.197 155.11 195.088C155.128 194.989 155.148 194.891 155.168 194.795C155.189 194.697 155.212 194.6 155.235 194.503C155.263 194.39 155.292 194.279 155.322 194.169C155.346 194.083 155.371 193.998 155.397 193.914C155.437 193.782 155.48 193.654 155.525 193.528C155.549 193.459 155.573 193.388 155.598 193.32C155.68 193.107 155.767 192.899 155.861 192.699L155.889 192.644C156.017 192.378 156.156 192.126 156.306 191.888L156.343 191.826C156.468 191.631 156.602 191.447 156.742 191.271L156.843 191.147C156.978 190.985 157.117 190.829 157.264 190.684L157.299 190.648C157.456 190.495 157.622 190.355 157.792 190.222L157.917 190.128C158.091 189.999 158.269 189.876 158.456 189.768L155.777 191.324C155.59 191.433 155.412 191.555 155.237 191.684L155.113 191.779C154.943 191.912 154.777 192.052 154.62 192.204L154.585 192.241C154.438 192.386 154.299 192.541 154.165 192.703L154.062 192.827C153.923 193.004 153.789 193.187 153.664 193.382L153.651 193.4L153.627 193.444C153.477 193.683 153.338 193.934 153.21 194.2L153.19 194.237L153.182 194.255C153.087 194.455 153.001 194.663 152.92 194.877L152.896 194.932C152.878 194.981 152.864 195.034 152.846 195.084C152.801 195.211 152.758 195.339 152.718 195.47L152.683 195.576C152.668 195.624 152.657 195.676 152.644 195.725C152.613 195.835 152.584 195.947 152.556 196.06C152.545 196.107 152.531 196.151 152.52 196.199C152.509 196.249 152.5 196.301 152.49 196.351C152.469 196.448 152.449 196.545 152.431 196.644C152.421 196.695 152.409 196.745 152.4 196.797C152.39 196.855 152.383 196.917 152.373 196.976C152.36 197.063 152.346 197.152 152.334 197.241C152.327 197.288 152.319 197.332 152.313 197.38C152.303 197.456 152.297 197.535 152.289 197.612C152.28 197.695 152.271 197.778 152.263 197.863L152.252 197.967C152.243 198.079 152.237 198.195 152.231 198.31C152.227 198.372 152.222 198.433 152.219 198.495L152.217 198.541C152.208 198.735 152.204 198.931 152.203 199.13V199.165L152.172 210.051L154.851 208.494L154.881 197.609C154.882 197.382 154.888 197.159 154.899 196.939C154.901 196.876 154.906 196.816 154.91 196.754Z" fill="#CFD8FF"/>
<path d="M182.052 212.624C182.051 212.581 182.048 212.538 182.046 212.494C182.043 212.405 182.038 212.314 182.034 212.224C182.029 212.118 182.026 212.012 182.019 211.906C182.013 211.822 182.005 211.738 181.999 211.654C181.992 211.559 181.984 211.464 181.976 211.369C181.971 211.306 181.967 211.244 181.961 211.182C181.948 211.041 181.93 210.899 181.914 210.758C181.905 210.681 181.898 210.605 181.889 210.529L181.88 210.453C181.849 210.204 181.813 209.955 181.774 209.705L181.77 209.683C181.763 209.64 181.755 209.596 181.747 209.553C181.715 209.353 181.681 209.153 181.643 208.952L181.619 208.833C181.6 208.732 181.578 208.631 181.558 208.531C181.534 208.412 181.511 208.294 181.486 208.174C181.47 208.104 181.452 208.033 181.436 207.963C181.411 207.854 181.386 207.746 181.36 207.638C181.341 207.556 181.324 207.475 181.303 207.393C181.278 207.289 181.248 207.185 181.221 207.081C181.193 206.973 181.165 206.864 181.136 206.756C181.122 206.704 181.109 206.653 181.095 206.601C181.054 206.452 181.008 206.302 180.964 206.153C180.938 206.064 180.913 205.975 180.886 205.886L180.865 205.812C180.786 205.554 180.703 205.297 180.617 205.039L180.611 205.024L180.576 204.924C180.503 204.708 180.429 204.492 180.351 204.277L180.308 204.164C180.276 204.077 180.243 203.99 180.21 203.903C180.165 203.784 180.122 203.664 180.076 203.546C180.045 203.465 180.011 203.385 179.979 203.305C179.941 203.211 179.904 203.116 179.865 203.022C179.838 202.954 179.812 202.887 179.784 202.819C179.725 202.679 179.664 202.539 179.603 202.398C179.572 202.325 179.541 202.252 179.509 202.179L179.477 202.105C179.37 201.862 179.26 201.622 179.148 201.381L179.132 201.349C179.099 201.278 179.063 201.208 179.029 201.137C178.942 200.955 178.856 200.772 178.765 200.591L178.72 200.503C178.644 200.353 178.566 200.204 178.488 200.055C178.426 199.935 178.365 199.813 178.301 199.694L178.265 199.629C178.057 199.241 177.841 198.857 177.619 198.477L177.564 198.38L177.497 198.273C177.178 197.736 176.846 197.206 176.501 196.686L176.446 196.599C176.414 196.552 176.38 196.507 176.348 196.46C176.074 196.054 175.794 195.651 175.504 195.259L175.5 195.253L175.414 195.14C175.235 194.9 175.054 194.661 174.87 194.427L174.838 194.385C174.694 194.201 174.546 194.022 174.399 193.842C174.356 193.791 174.315 193.737 174.272 193.686L174.262 193.673C174.072 193.445 173.88 193.22 173.685 192.998L173.659 192.97C173.605 192.908 173.548 192.847 173.493 192.786C173.363 192.641 173.234 192.495 173.103 192.353L173.036 192.283C172.952 192.194 172.868 192.107 172.783 192.019C172.686 191.917 172.59 191.813 172.492 191.713L172.39 191.613C172.298 191.52 172.205 191.429 172.111 191.338C172.029 191.256 171.947 191.172 171.863 191.092C171.819 191.049 171.773 191.009 171.728 190.966C171.627 190.871 171.526 190.778 171.424 190.684C171.352 190.617 171.28 190.548 171.207 190.482C171.153 190.433 171.098 190.388 171.043 190.339C170.941 190.248 170.839 190.159 170.736 190.071C170.672 190.016 170.609 189.958 170.545 189.904C170.478 189.848 170.411 189.795 170.344 189.741C170.244 189.657 170.143 189.575 170.042 189.494C169.988 189.451 169.935 189.405 169.881 189.363C169.797 189.296 169.712 189.234 169.627 189.169C169.533 189.097 169.44 189.025 169.346 188.954L169.227 188.864C169.113 188.78 168.998 188.701 168.883 188.619C168.803 188.563 168.724 188.505 168.645 188.45L168.58 188.404C168.371 188.261 168.16 188.122 167.948 187.987L167.945 187.984L167.906 187.961C167.711 187.838 167.516 187.717 167.319 187.602C167.271 187.573 167.222 187.545 167.174 187.517C167.015 187.425 166.858 187.338 166.701 187.253C166.64 187.22 166.58 187.19 166.52 187.158C166.439 187.116 166.359 187.074 166.278 187.034C166.216 187.002 166.153 186.968 166.092 186.937C165.99 186.886 165.889 186.841 165.787 186.794C165.716 186.76 165.645 186.725 165.574 186.693L165.489 186.653C165.289 186.564 165.091 186.479 164.893 186.4L164.89 186.399L164.859 186.388C164.669 186.312 164.48 186.24 164.292 186.174L164.21 186.148C164.137 186.123 164.065 186.1 163.992 186.077C163.893 186.044 163.794 186.009 163.695 185.979C163.643 185.963 163.592 185.952 163.54 185.937C163.452 185.911 163.364 185.887 163.276 185.864C163.211 185.846 163.144 185.826 163.079 185.81C163.006 185.791 162.935 185.778 162.863 185.761C162.775 185.741 162.688 185.721 162.601 185.703C162.557 185.694 162.512 185.682 162.467 185.673C162.383 185.657 162.3 185.647 162.217 185.632C162.116 185.615 162.015 185.597 161.916 185.583L161.814 185.566C161.729 185.555 161.645 185.549 161.561 185.54C161.454 185.528 161.346 185.516 161.24 185.507L161.149 185.498C161.076 185.493 161.005 185.494 160.932 185.491C160.804 185.485 160.676 185.479 160.549 185.478L160.446 185.475C160.391 185.475 160.338 185.481 160.283 185.482C160.124 185.486 159.967 185.493 159.811 185.505C159.765 185.508 159.717 185.508 159.671 185.511L159.568 185.527C159.333 185.551 159.101 185.584 158.874 185.627L158.809 185.637L158.79 185.641C158.739 185.651 158.69 185.666 158.639 185.677C158.501 185.708 158.363 185.74 158.228 185.778C158.16 185.798 158.093 185.821 158.025 185.842C157.937 185.869 157.848 185.894 157.762 185.925L157.697 185.951C157.562 186.001 157.431 186.056 157.3 186.113C157.237 186.14 157.172 186.165 157.11 186.194C156.919 186.283 156.732 186.38 156.55 186.485L153.871 188.041C154.053 187.936 154.24 187.84 154.431 187.75C154.493 187.721 154.558 187.697 154.621 187.669C154.752 187.613 154.883 187.557 155.018 187.508C155.126 187.468 155.236 187.433 155.346 187.398C155.414 187.377 155.481 187.354 155.549 187.335C155.684 187.296 155.822 187.264 155.961 187.233C156.012 187.222 156.061 187.207 156.112 187.197L156.195 187.184C156.422 187.14 156.653 187.107 156.889 187.083C156.969 187.074 157.051 187.067 157.132 187.061C157.288 187.049 157.445 187.043 157.604 187.039C157.692 187.037 157.781 187.034 157.871 187.034C157.997 187.035 158.125 187.041 158.253 187.047C158.355 187.052 158.457 187.055 158.561 187.063C158.667 187.072 158.775 187.084 158.882 187.096C159 187.109 159.118 187.122 159.237 187.139C159.336 187.153 159.437 187.171 159.538 187.188C159.666 187.21 159.793 187.233 159.923 187.26C160.009 187.277 160.096 187.298 160.183 187.318C160.32 187.349 160.459 187.383 160.598 187.42C160.685 187.443 160.773 187.467 160.861 187.493C161.011 187.536 161.162 187.583 161.314 187.633C161.387 187.657 161.458 187.679 161.531 187.704C161.746 187.778 161.962 187.858 162.18 187.944L162.211 187.955C162.438 188.046 162.666 188.145 162.896 188.249C162.966 188.282 163.038 188.316 163.108 188.35C163.271 188.427 163.435 188.506 163.6 188.59C163.68 188.631 163.76 188.673 163.841 188.715C164.058 188.829 164.275 188.947 164.494 189.073C164.74 189.215 164.984 189.364 165.227 189.517L165.266 189.541C165.501 189.69 165.734 189.846 165.966 190.006C166.046 190.061 166.124 190.119 166.204 190.175C166.359 190.285 166.513 190.396 166.667 190.511C166.761 190.58 166.854 190.653 166.947 190.724C167.087 190.832 167.226 190.94 167.364 191.051C167.464 191.131 167.565 191.213 167.664 191.296C167.796 191.405 167.927 191.516 168.057 191.628C168.16 191.716 168.263 191.805 168.365 191.896C168.492 192.009 168.619 192.124 168.745 192.239C168.847 192.333 168.949 192.428 169.05 192.523C169.178 192.645 169.305 192.768 169.432 192.892C169.525 192.985 169.619 193.076 169.711 193.169C169.844 193.302 169.974 193.439 170.105 193.575C170.189 193.663 170.274 193.75 170.357 193.84C170.511 194.004 170.663 194.172 170.814 194.342C170.869 194.404 170.926 194.464 170.981 194.526C171.187 194.761 171.392 194.999 171.593 195.242C171.637 195.295 171.681 195.35 171.724 195.404C171.882 195.595 172.038 195.787 172.191 195.983C172.377 196.219 172.559 196.46 172.74 196.702L172.825 196.815C173.114 197.207 173.395 197.61 173.669 198.017C173.72 198.092 173.771 198.167 173.821 198.242C174.167 198.762 174.499 199.292 174.818 199.83C174.859 199.897 174.899 199.965 174.939 200.033C175.162 200.413 175.378 200.797 175.586 201.185C175.662 201.326 175.735 201.468 175.808 201.61C175.887 201.76 175.966 201.909 176.041 202.06C176.147 202.27 176.249 202.481 176.35 202.693C176.384 202.763 176.419 202.834 176.453 202.905C176.583 203.18 176.708 203.457 176.83 203.735C176.862 203.808 176.893 203.882 176.924 203.955C177.014 204.162 177.101 204.37 177.186 204.578C177.225 204.672 177.263 204.767 177.301 204.862C177.38 205.06 177.456 205.259 177.531 205.458C177.564 205.546 177.598 205.633 177.63 205.72C177.722 205.972 177.811 206.225 177.897 206.477L177.932 206.58C178.029 206.867 178.12 207.154 178.207 207.442C178.234 207.531 178.259 207.62 178.285 207.709C178.345 207.91 178.402 208.111 178.457 208.312C178.486 208.42 178.514 208.529 178.542 208.638C178.591 208.823 178.637 209.008 178.681 209.194C178.707 209.302 178.733 209.411 178.757 209.519C178.8 209.708 178.84 209.898 178.879 210.087C178.9 210.188 178.921 210.288 178.94 210.389C178.986 210.629 179.029 210.869 179.068 211.108C179.075 211.152 179.084 211.196 179.091 211.24C179.136 211.522 179.175 211.804 179.21 212.085C179.219 212.161 179.226 212.237 179.235 212.314C179.258 212.518 179.28 212.722 179.297 212.925C179.305 213.02 179.313 213.115 179.32 213.21C179.334 213.401 179.346 213.591 179.355 213.78C179.359 213.87 179.364 213.961 179.368 214.051C179.377 214.319 179.383 214.586 179.383 214.851L179.109 311.282L181.788 309.726L182.061 213.295C182.062 213.072 182.059 212.849 182.052 212.624Z" fill="white"/>
<path d="M164.493 189.073C172.729 193.826 179.408 205.391 179.381 214.851L179.108 311.282L176.411 309.726L176.684 213.294C176.706 205.542 171.234 196.066 164.484 192.171C157.735 188.275 152.226 191.413 152.204 199.166L152.173 210.051L149.477 208.495L149.507 197.61C149.534 188.149 156.257 184.32 164.493 189.073Z" fill="#CFD8FF"/>
<path d="M183.719 181.885C183.727 181.735 183.737 181.586 183.75 181.439C183.758 181.354 183.768 181.271 183.777 181.187C183.79 181.062 183.805 180.938 183.821 180.817C183.834 180.728 183.847 180.64 183.861 180.552C183.879 180.44 183.898 180.329 183.919 180.219C183.937 180.121 183.956 180.024 183.977 179.928C183.998 179.829 184.021 179.732 184.044 179.636C184.071 179.523 184.101 179.411 184.131 179.302C184.155 179.216 184.179 179.13 184.205 179.046C184.245 178.915 184.289 178.787 184.333 178.661C184.358 178.591 184.381 178.52 184.407 178.452C184.489 178.238 184.575 178.031 184.669 177.831L184.697 177.776C184.825 177.51 184.964 177.259 185.114 177.02L185.152 176.958C185.277 176.763 185.411 176.579 185.55 176.403L185.652 176.279C185.786 176.117 185.925 175.962 186.072 175.817L186.107 175.78C186.265 175.628 186.431 175.487 186.6 175.355L186.725 175.26C186.899 175.131 187.078 175.009 187.264 174.9L184.586 176.456C184.399 176.565 184.22 176.688 184.046 176.816L183.921 176.911C183.751 177.044 183.586 177.184 183.429 177.336L183.393 177.373C183.247 177.518 183.108 177.674 182.973 177.836L182.871 177.96C182.732 178.136 182.598 178.319 182.473 178.514L182.46 178.532L182.436 178.576C182.286 178.815 182.146 179.067 182.019 179.333L181.998 179.37L181.991 179.388C181.896 179.587 181.81 179.795 181.728 180.008L181.705 180.065C181.686 180.114 181.672 180.167 181.654 180.217C181.61 180.343 181.566 180.471 181.526 180.602L181.491 180.708C181.477 180.757 181.466 180.809 181.452 180.858C181.421 180.968 181.392 181.079 181.365 181.192C181.353 181.239 181.34 181.284 181.329 181.331C181.317 181.381 181.309 181.433 181.298 181.484C181.277 181.58 181.258 181.677 181.239 181.776C181.23 181.828 181.218 181.877 181.209 181.929C181.199 181.988 181.191 182.049 181.182 182.108C181.168 182.196 181.154 182.284 181.142 182.373C181.136 182.42 181.127 182.464 181.122 182.512C181.112 182.587 181.106 182.666 181.098 182.743C181.088 182.827 181.079 182.91 181.071 182.996L181.061 183.099C181.052 183.211 181.046 183.326 181.039 183.441C181.036 183.503 181.031 183.564 181.028 183.628L181.025 183.674C181.017 183.867 181.012 184.063 181.011 184.263V184.298L180.98 195.18L183.659 193.623L183.69 182.741C183.691 182.514 183.697 182.291 183.707 182.071C183.71 182.008 183.715 181.947 183.719 181.885Z" fill="#CFD8FF"/>
<path d="M210.854 197.754C210.853 197.712 210.85 197.668 210.848 197.625C210.845 197.535 210.84 197.444 210.835 197.353C210.83 197.247 210.827 197.142 210.821 197.035C210.815 196.952 210.807 196.868 210.801 196.784C210.793 196.689 210.786 196.593 210.778 196.498C210.772 196.436 210.769 196.374 210.763 196.311C210.749 196.172 210.732 196.031 210.716 195.891C210.707 195.813 210.7 195.736 210.69 195.657L210.682 195.582C210.65 195.333 210.615 195.084 210.575 194.834L210.572 194.812L210.55 194.69C210.517 194.487 210.483 194.284 210.445 194.081L210.421 193.963C210.401 193.862 210.38 193.76 210.359 193.659C210.335 193.541 210.313 193.422 210.287 193.303C210.272 193.233 210.254 193.163 210.238 193.094C210.213 192.984 210.188 192.875 210.162 192.765C210.142 192.684 210.125 192.603 210.105 192.521C210.079 192.418 210.05 192.315 210.023 192.213C209.995 192.103 209.967 191.994 209.937 191.884C209.923 191.833 209.911 191.781 209.896 191.729C209.856 191.582 209.811 191.435 209.768 191.288C209.741 191.196 209.715 191.105 209.687 191.013L209.666 190.94C209.587 190.682 209.504 190.424 209.418 190.167L209.413 190.153L209.38 190.058C209.306 189.84 209.231 189.623 209.152 189.406L209.11 189.293C209.079 189.207 209.046 189.121 209.013 189.035C208.968 188.915 208.924 188.794 208.878 188.674C208.846 188.594 208.813 188.515 208.781 188.434C208.744 188.34 208.706 188.246 208.668 188.152C208.64 188.084 208.614 188.016 208.586 187.949C208.527 187.808 208.466 187.669 208.406 187.529C208.374 187.456 208.344 187.382 208.311 187.309L208.279 187.234C208.172 186.992 208.062 186.751 207.949 186.51L207.934 186.479C207.901 186.409 207.867 186.34 207.833 186.27C207.746 186.087 207.659 185.903 207.567 185.721L207.522 185.634C207.447 185.484 207.369 185.335 207.291 185.186C207.229 185.066 207.168 184.944 207.104 184.823L207.068 184.759C206.859 184.371 206.643 183.987 206.421 183.607L206.366 183.508L206.298 183.4C205.98 182.864 205.648 182.336 205.304 181.817L205.249 181.73C205.217 181.683 205.183 181.638 205.152 181.591C204.877 181.185 204.597 180.783 204.308 180.39L204.303 180.384L204.214 180.266C204.036 180.028 203.857 179.791 203.674 179.558L203.641 179.516C203.498 179.334 203.352 179.156 203.206 178.978C203.163 178.925 203.12 178.87 203.076 178.817L203.066 178.804C202.876 178.576 202.683 178.351 202.488 178.129L202.463 178.101C202.409 178.04 202.355 177.982 202.301 177.921C202.17 177.775 202.039 177.628 201.906 177.485L201.839 177.414C201.757 177.326 201.673 177.24 201.59 177.153C201.492 177.05 201.395 176.945 201.296 176.845L201.194 176.744C201.102 176.651 201.009 176.561 200.916 176.47C200.833 176.388 200.751 176.304 200.667 176.224C200.623 176.181 200.577 176.14 200.532 176.098C200.432 176.003 200.331 175.91 200.229 175.816C200.156 175.749 200.085 175.68 200.012 175.614C199.957 175.565 199.902 175.519 199.847 175.47C199.745 175.381 199.643 175.292 199.541 175.203C199.477 175.148 199.413 175.09 199.349 175.036C199.282 174.98 199.214 174.927 199.148 174.871C199.048 174.789 198.948 174.707 198.847 174.626C198.793 174.583 198.74 174.537 198.685 174.494C198.601 174.428 198.515 174.365 198.431 174.3C198.338 174.228 198.245 174.157 198.15 174.087L198.032 173.996C197.917 173.911 197.801 173.832 197.686 173.75C197.607 173.694 197.529 173.637 197.45 173.582L197.385 173.536C197.176 173.393 196.965 173.254 196.753 173.119L196.749 173.116L196.716 173.096C196.519 172.972 196.322 172.85 196.124 172.734C196.076 172.705 196.027 172.677 195.978 172.649C195.82 172.557 195.662 172.469 195.505 172.385C195.445 172.351 195.385 172.322 195.324 172.291C195.244 172.248 195.163 172.206 195.084 172.166C195.021 172.134 194.958 172.1 194.896 172.069C194.794 172.018 194.694 171.973 194.592 171.926C194.521 171.892 194.45 171.857 194.379 171.826L194.293 171.785C194.094 171.696 193.895 171.611 193.698 171.533L193.695 171.532L193.664 171.52C193.474 171.444 193.285 171.372 193.097 171.306L193.015 171.28C192.942 171.255 192.87 171.232 192.797 171.209C192.698 171.176 192.598 171.141 192.5 171.111C192.448 171.096 192.397 171.084 192.345 171.068C192.257 171.043 192.169 171.019 192.081 170.996C192.015 170.978 191.949 170.958 191.884 170.942C191.811 170.923 191.74 170.91 191.667 170.893C191.58 170.873 191.493 170.853 191.406 170.835C191.361 170.826 191.316 170.814 191.272 170.805C191.188 170.789 191.105 170.779 191.021 170.764C190.921 170.747 190.82 170.729 190.721 170.715L190.618 170.698C190.533 170.686 190.45 170.681 190.366 170.672C190.258 170.66 190.151 170.648 190.044 170.639L189.954 170.63C189.881 170.625 189.81 170.626 189.737 170.623C189.608 170.617 189.48 170.611 189.354 170.61L189.251 170.607C189.196 170.607 189.143 170.613 189.088 170.614C188.929 170.618 188.772 170.625 188.616 170.637C188.57 170.641 188.522 170.639 188.476 170.643L188.372 170.659C188.137 170.683 187.905 170.716 187.679 170.759L187.614 170.769L187.595 170.773C187.544 170.784 187.495 170.797 187.445 170.809C187.306 170.84 187.168 170.872 187.033 170.91C186.964 170.93 186.898 170.953 186.83 170.974C186.742 171.002 186.653 171.026 186.567 171.057L186.501 171.083C186.367 171.133 186.235 171.188 186.105 171.245C186.042 171.272 185.976 171.297 185.914 171.326C185.723 171.415 185.536 171.512 185.355 171.617L182.676 173.173C182.857 173.068 183.044 172.972 183.235 172.882C183.298 172.853 183.362 172.829 183.426 172.801C183.557 172.745 183.688 172.689 183.822 172.64C183.931 172.6 184.041 172.565 184.151 172.53C184.219 172.509 184.285 172.486 184.353 172.467C184.489 172.428 184.627 172.396 184.766 172.365C184.816 172.354 184.866 172.339 184.916 172.329L185 172.316C185.227 172.272 185.458 172.239 185.694 172.215C185.774 172.206 185.855 172.199 185.937 172.193C186.092 172.181 186.25 172.175 186.409 172.171C186.497 172.169 186.586 172.166 186.675 172.167C186.802 172.167 186.93 172.173 187.057 172.179C187.16 172.184 187.262 172.187 187.366 172.196C187.472 172.204 187.58 172.216 187.687 172.228C187.805 172.241 187.923 172.254 188.041 172.271C188.141 172.285 188.242 172.303 188.343 172.32C188.47 172.342 188.598 172.365 188.727 172.392C188.814 172.409 188.9 172.429 188.987 172.449C189.125 172.481 189.264 172.515 189.403 172.552C189.49 172.575 189.577 172.599 189.665 172.624C189.815 172.668 189.967 172.715 190.12 172.765C190.191 172.789 190.263 172.811 190.336 172.836C190.552 172.91 190.77 172.99 190.99 173.078L191.015 173.087C191.242 173.178 191.47 173.277 191.7 173.381C191.771 173.414 191.842 173.448 191.913 173.482C192.076 173.559 192.24 173.638 192.404 173.722C192.485 173.763 192.564 173.804 192.645 173.847C192.862 173.961 193.08 174.078 193.299 174.205C193.547 174.348 193.792 174.498 194.037 174.652L194.07 174.672C194.305 174.822 194.539 174.978 194.77 175.138C194.85 175.193 194.928 175.25 195.007 175.306C195.162 175.417 195.318 175.528 195.472 175.643C195.566 175.713 195.659 175.785 195.752 175.856C195.891 175.963 196.03 176.072 196.167 176.182C196.269 176.263 196.369 176.345 196.469 176.428C196.601 176.537 196.732 176.648 196.862 176.759C196.965 176.848 197.067 176.936 197.168 177.027C197.297 177.14 197.424 177.256 197.55 177.372C197.652 177.466 197.753 177.559 197.853 177.654C197.982 177.776 198.11 177.901 198.237 178.026C198.33 178.117 198.423 178.207 198.515 178.3C198.647 178.434 198.779 178.571 198.91 178.707C198.993 178.795 199.078 178.882 199.161 178.971C199.315 179.136 199.468 179.305 199.619 179.474C199.674 179.535 199.73 179.596 199.784 179.657C199.991 179.892 200.195 180.13 200.396 180.373C200.442 180.428 200.487 180.485 200.533 180.541C200.688 180.73 200.843 180.92 200.995 181.114C201.179 181.349 201.361 181.589 201.54 181.83L201.628 181.946C201.918 182.339 202.199 182.742 202.473 183.148C202.524 183.223 202.575 183.298 202.625 183.373C202.97 183.892 203.301 184.421 203.62 184.957C203.66 185.026 203.702 185.094 203.742 185.163C203.964 185.543 204.18 185.927 204.388 186.315C204.464 186.457 204.538 186.599 204.612 186.742C204.69 186.891 204.768 187.04 204.844 187.191C204.949 187.4 205.052 187.612 205.153 187.823C205.187 187.894 205.222 187.965 205.255 188.035C205.385 188.311 205.511 188.587 205.632 188.865C205.665 188.938 205.695 189.012 205.727 189.086C205.817 189.293 205.904 189.5 205.989 189.708C206.027 189.802 206.065 189.897 206.103 189.991C206.182 190.19 206.259 190.39 206.334 190.59C206.366 190.677 206.4 190.763 206.431 190.85C206.524 191.104 206.614 191.357 206.7 191.612L206.735 191.71C206.83 191.996 206.921 192.283 207.009 192.57C207.036 192.661 207.062 192.752 207.088 192.843C207.147 193.043 207.204 193.242 207.259 193.441C207.288 193.55 207.316 193.659 207.345 193.769C207.393 193.953 207.439 194.138 207.483 194.322C207.509 194.432 207.535 194.541 207.559 194.65C207.602 194.839 207.642 195.027 207.68 195.215C207.701 195.316 207.723 195.418 207.742 195.519C207.789 195.762 207.832 196.005 207.871 196.246L207.892 196.368C207.938 196.651 207.976 196.933 208.011 197.214C208.021 197.292 208.028 197.37 208.037 197.447C208.06 197.65 208.081 197.853 208.099 198.054C208.107 198.15 208.115 198.245 208.122 198.341C208.136 198.531 208.147 198.721 208.157 198.91C208.161 199.001 208.166 199.091 208.169 199.181C208.179 199.449 208.185 199.716 208.185 199.981L207.874 313.547L210.554 311.991L210.863 198.425C210.864 198.203 210.861 197.979 210.854 197.754Z" fill="white"/>
<path d="M193.297 174.205C201.534 178.958 208.21 190.521 208.183 199.981L207.873 313.547L205.176 311.991L205.486 198.425C205.508 190.672 200.035 181.196 193.289 177.303C186.539 173.407 181.031 176.545 181.009 184.298L180.978 195.18L178.281 193.624L178.312 182.742C178.339 173.281 185.062 169.452 193.297 174.205Z" fill="#CFD8FF"/>
<path d="M181.823 226.004L180.149 225.031L180.141 222.258L181.815 223.23L181.823 226.004Z" fill="#B9C7FF"/>
<path d="M181.815 223.23L180.141 222.258L209.578 205.268L211.252 206.241L181.815 223.23Z" fill="#CFD8FF"/>
<path d="M211.253 206.242L211.262 209.016L181.824 226.005L181.816 223.231L211.253 206.242Z" fill="white"/>
<path d="M179.379 206.02L177.809 205.866L176.961 202.733L178.53 202.886L179.379 206.02Z" fill="#CFD8FF"/>
<path d="M178.53 202.887L176.961 202.733L206.345 186.78L207.915 186.934L178.53 202.887Z" fill="#CFD8FF"/>
<path d="M207.916 186.934L208.765 190.067L179.38 206.02L178.531 202.886L207.916 186.934Z" fill="white"/>
<path d="M199.81 174.097L199.661 175.951L169.934 192.483L170.082 190.63L199.81 174.097Z" fill="#CFD8FF"/>
<path d="M170.079 190.629L169.931 192.482L167.562 190.842L167.711 188.989L170.079 190.629Z" fill="#CFD8FF"/>
<path d="M197.443 172.456L199.811 174.096L170.083 190.629L167.715 188.989L197.443 172.456Z" fill="white"/>
<path d="M181.823 246.256L180.149 245.283L180.141 242.509L181.815 243.482L181.823 246.256Z" fill="#B9C7FF"/>
<path d="M181.815 243.481L180.141 242.509L209.578 225.52L211.252 226.492L181.815 243.481Z" fill="#8AA0FE"/>
<path d="M211.253 226.493L211.262 229.267L181.824 246.256L181.816 243.482L211.253 226.493Z" fill="white"/>
<path d="M181.823 266.507L180.149 265.534L180.141 262.76L181.815 263.733L181.823 266.507Z" fill="#B9C7FF"/>
<path d="M181.815 263.733L180.141 262.761L209.578 245.772L211.252 246.745L181.815 263.733Z" fill="#8AA0FE"/>
<path d="M211.253 246.745L211.262 249.519L181.824 266.508L181.816 263.734L211.253 246.745Z" fill="white"/>
<path d="M181.823 286.759L180.149 285.786L180.141 283.012L181.815 283.985L181.823 286.759Z" fill="#B9C7FF"/>
<path d="M181.815 283.984L180.141 283.012L209.578 266.023L211.252 266.996L181.815 283.984Z" fill="#8AA0FE"/>
<path d="M211.253 266.995L211.262 269.769L181.824 286.758L181.816 283.984L211.253 266.995Z" fill="white"/>
<path d="M181.823 307.011L180.149 306.038L180.141 303.264L181.815 304.237L181.823 307.011Z" fill="#CFD8FF"/>
<path d="M181.815 304.235L180.141 303.263L209.578 286.274L211.252 287.247L181.815 304.235Z" fill="#CFD8FF"/>
<path d="M211.253 287.247L211.262 290.02L181.824 307.01L181.816 304.236L211.253 287.247Z" fill="white"/>
<path d="M146.18 293.06V334.183H239.937V305.277C208.158 311.31 171.882 307.239 146.18 293.06Z" fill="white"/>
<path d="M338.107 230.308C338.114 230.382 338.119 230.457 338.133 230.531C338.144 230.591 338.162 230.652 338.178 230.712C338.196 230.782 338.214 230.853 338.239 230.923C338.259 230.981 338.287 231.038 338.311 231.096C338.344 231.169 338.375 231.243 338.415 231.316C338.443 231.368 338.477 231.421 338.509 231.473C338.561 231.556 338.615 231.638 338.676 231.719C338.712 231.767 338.751 231.815 338.79 231.862C338.881 231.972 338.981 232.079 339.09 232.184L339.207 232.299C339.274 232.361 339.35 232.419 339.424 232.478C339.489 232.531 339.552 232.584 339.622 232.635C339.702 232.693 339.79 232.749 339.876 232.804C339.965 232.862 340.05 232.922 340.145 232.977C340.357 233.1 340.582 233.211 340.812 233.315C340.879 233.345 340.947 233.373 341.015 233.401C341.195 233.477 341.381 233.547 341.57 233.611C341.638 233.634 341.705 233.659 341.774 233.681C341.893 233.718 342.015 233.752 342.137 233.785C342.23 233.81 342.322 233.837 342.416 233.86C342.545 233.891 342.675 233.917 342.806 233.943C342.895 233.961 342.984 233.981 343.074 233.998C343.339 234.044 343.607 234.081 343.878 234.11C343.961 234.118 344.046 234.124 344.13 234.131C344.288 234.144 344.448 234.155 344.608 234.162C344.71 234.167 344.812 234.169 344.914 234.171C345.043 234.173 345.172 234.174 345.302 234.172C345.41 234.171 345.518 234.168 345.626 234.163C345.746 234.159 345.865 234.153 345.984 234.144C346.093 234.137 346.202 234.128 346.31 234.117C346.429 234.106 346.547 234.093 346.665 234.077C346.771 234.064 346.876 234.049 346.98 234.033C347.106 234.013 347.231 233.991 347.356 233.968C347.454 233.949 347.551 233.93 347.648 233.909C347.797 233.876 347.943 233.839 348.088 233.801C348.169 233.78 348.251 233.759 348.331 233.736C348.591 233.66 348.844 233.575 349.09 233.479L349.19 233.437C349.526 233.301 349.849 233.15 350.149 232.977C351.543 232.173 352.238 231.118 352.235 230.065L352.244 233.256C352.248 234.31 351.552 235.365 350.158 236.169C349.858 236.342 349.535 236.493 349.2 236.628L349.137 236.658L349.098 236.671C348.853 236.767 348.6 236.852 348.34 236.928L348.278 236.948C348.219 236.965 348.157 236.977 348.097 236.993C347.952 237.031 347.807 237.068 347.658 237.1L347.54 237.129C347.483 237.141 347.423 237.148 347.364 237.16C347.24 237.183 347.116 237.205 346.99 237.225C346.939 237.233 346.89 237.244 346.839 237.251C346.785 237.259 346.728 237.262 346.673 237.27C346.556 237.284 346.439 237.298 346.32 237.309C346.264 237.314 346.208 237.323 346.152 237.327C346.099 237.332 346.046 237.333 345.994 237.336C345.874 237.345 345.755 237.351 345.635 237.356C345.575 237.358 345.515 237.364 345.455 237.365C345.407 237.366 345.359 237.364 345.311 237.364C345.182 237.366 345.053 237.365 344.924 237.363C344.859 237.361 344.795 237.364 344.731 237.362L344.617 237.354C344.456 237.347 344.297 237.336 344.138 237.322C344.074 237.317 344.01 237.316 343.946 237.309L343.887 237.301C343.616 237.273 343.348 237.236 343.083 237.189L343.044 237.184C342.967 237.17 342.892 237.15 342.816 237.135C342.685 237.109 342.554 237.082 342.425 237.052C342.331 237.029 342.239 237.002 342.146 236.977C342.024 236.943 341.902 236.91 341.783 236.873L341.705 236.851C341.661 236.836 341.621 236.817 341.579 236.803C341.39 236.738 341.205 236.668 341.024 236.593C340.956 236.564 340.888 236.536 340.821 236.506C340.591 236.402 340.366 236.292 340.154 236.169L340.068 236.118C340.003 236.079 339.947 236.036 339.885 235.996C339.799 235.94 339.711 235.885 339.631 235.827C339.561 235.776 339.498 235.723 339.433 235.67C339.359 235.611 339.284 235.552 339.216 235.491L339.172 235.455L339.099 235.376C338.99 235.271 338.89 235.163 338.799 235.054L338.734 234.983L338.685 234.911C338.624 234.83 338.57 234.747 338.518 234.664L338.449 234.561L338.424 234.507C338.384 234.435 338.353 234.361 338.321 234.287C338.302 234.245 338.277 234.202 338.26 234.159L338.248 234.114C338.223 234.045 338.206 233.975 338.187 233.905C338.175 233.857 338.156 233.809 338.146 233.761L338.142 233.722C338.128 233.649 338.123 233.575 338.116 233.501C338.112 233.452 338.101 233.404 338.1 233.355L338.099 233.293L338.09 230.101C338.09 230.171 338.101 230.239 338.107 230.308Z" fill="#CFD8FF"/>
<path d="M340.178 227.186C337.406 228.785 337.392 231.378 340.145 232.978C342.899 234.578 347.378 234.578 350.149 232.978C352.921 231.378 352.931 228.788 350.178 227.188C347.424 225.588 342.95 225.586 340.178 227.186Z" fill="#CFD8FF"/>
<path d="M277.377 195.987C277.384 196.061 277.389 196.136 277.403 196.21C277.414 196.27 277.432 196.33 277.448 196.39C277.466 196.461 277.483 196.532 277.509 196.602C277.529 196.659 277.556 196.717 277.581 196.774C277.613 196.848 277.645 196.922 277.684 196.994C277.713 197.047 277.747 197.099 277.779 197.152C277.831 197.234 277.884 197.317 277.945 197.398C277.981 197.446 278.021 197.494 278.06 197.541C278.15 197.65 278.251 197.758 278.359 197.863L278.477 197.978C278.544 198.039 278.619 198.098 278.693 198.157C278.759 198.209 278.822 198.262 278.892 198.314C278.972 198.372 279.06 198.427 279.146 198.483C279.235 198.541 279.319 198.6 279.415 198.656C279.627 198.779 279.851 198.889 280.082 198.993C280.148 199.023 280.217 199.051 280.285 199.08C280.465 199.155 280.65 199.225 280.84 199.29C280.908 199.313 280.975 199.338 281.044 199.36C281.163 199.397 281.285 199.43 281.406 199.463C281.5 199.489 281.592 199.516 281.686 199.539C281.814 199.569 281.945 199.595 282.076 199.622C282.165 199.64 282.254 199.66 282.344 199.676C282.608 199.723 282.877 199.76 283.148 199.788C283.231 199.797 283.315 199.802 283.399 199.809C283.558 199.822 283.717 199.834 283.878 199.841C283.979 199.845 284.081 199.848 284.184 199.849C284.313 199.852 284.442 199.853 284.571 199.851C284.68 199.85 284.788 199.846 284.896 199.842C285.015 199.837 285.135 199.831 285.254 199.823C285.363 199.816 285.472 199.806 285.58 199.796C285.699 199.785 285.817 199.771 285.935 199.756C286.04 199.743 286.145 199.728 286.25 199.711C286.376 199.692 286.501 199.67 286.625 199.646C286.724 199.628 286.821 199.608 286.918 199.587C287.067 199.555 287.213 199.518 287.358 199.479C287.439 199.458 287.52 199.438 287.6 199.415C287.86 199.339 288.114 199.254 288.359 199.158L288.46 199.115C288.796 198.98 289.119 198.829 289.419 198.656C290.812 197.852 291.508 196.797 291.505 195.743L291.514 198.935C291.517 199.988 290.821 201.043 289.428 201.848C289.128 202.021 288.805 202.171 288.469 202.307L288.407 202.337L288.368 202.35C288.123 202.445 287.869 202.53 287.609 202.606L287.548 202.627C287.489 202.644 287.427 202.655 287.367 202.671C287.222 202.71 287.076 202.746 286.928 202.779L286.81 202.808C286.752 202.82 286.692 202.827 286.634 202.838C286.51 202.862 286.385 202.884 286.259 202.903C286.209 202.911 286.16 202.922 286.109 202.929C286.054 202.937 285.998 202.941 285.943 202.948C285.826 202.963 285.708 202.976 285.59 202.987C285.534 202.993 285.478 203.001 285.421 203.006C285.369 203.01 285.316 203.011 285.263 203.015C285.144 203.023 285.024 203.029 284.904 203.034C284.844 203.036 284.785 203.042 284.725 203.044C284.677 203.045 284.629 203.042 284.58 203.043C284.451 203.045 284.322 203.043 284.194 203.041C284.129 203.04 284.065 203.042 284 203.04L283.887 203.033C283.726 203.026 283.567 203.014 283.408 203.001C283.344 202.995 283.279 202.994 283.216 202.988L283.157 202.98C282.886 202.952 282.618 202.915 282.353 202.868L282.313 202.862C282.236 202.849 282.162 202.829 282.085 202.813C281.955 202.787 281.824 202.761 281.695 202.73C281.601 202.707 281.509 202.68 281.416 202.655C281.294 202.622 281.172 202.589 281.053 202.552L280.975 202.529C280.931 202.515 280.891 202.496 280.848 202.481C280.659 202.417 280.474 202.347 280.294 202.271C280.226 202.243 280.158 202.215 280.091 202.185C279.86 202.081 279.636 201.97 279.424 201.848L279.338 201.797C279.273 201.758 279.217 201.715 279.155 201.674C279.069 201.618 278.981 201.563 278.901 201.505C278.831 201.454 278.768 201.401 278.703 201.349C278.628 201.289 278.553 201.23 278.486 201.17L278.442 201.133L278.369 201.055C278.26 200.949 278.159 200.842 278.069 200.733L278.003 200.662L277.955 200.59C277.893 200.508 277.839 200.426 277.788 200.343L277.719 200.239L277.693 200.186C277.654 200.113 277.623 200.04 277.59 199.966C277.572 199.923 277.546 199.881 277.53 199.837L277.517 199.793C277.492 199.723 277.476 199.654 277.457 199.583C277.444 199.535 277.425 199.488 277.416 199.439L277.412 199.401C277.398 199.327 277.393 199.254 277.386 199.18C277.382 199.131 277.371 199.083 277.369 199.034L277.368 198.972L277.359 195.78C277.359 195.849 277.371 195.918 277.377 195.987Z" fill="#CFD8FF"/>
<path d="M279.451 192.864C276.68 194.464 276.665 197.057 279.419 198.657C282.172 200.256 286.651 200.256 289.423 198.657C292.194 197.057 292.205 194.466 289.451 192.867C286.698 191.267 282.223 191.265 279.451 192.864Z" fill="#CFD8FF"/>
<path d="M344.91 232.963L349.511 230.29L349.697 150.518L345.096 153.191L344.91 232.963Z" fill="#CFD8FF"/>
<path d="M345.096 153.19L349.697 150.517L345.429 148.054L340.828 150.727L345.096 153.19Z" fill="#CFD8FF"/>
<path d="M340.827 150.727L340.641 230.5L344.909 232.963L345.095 153.19L340.827 150.727Z" fill="#CFD8FF"/>
<path d="M284.414 197.97L289.015 195.297L289.201 115.525L284.6 118.197L284.414 197.97Z" fill="#CFD8FF"/>
<path d="M284.603 118.198L289.205 115.526L284.937 113.062L280.336 115.735L284.603 118.198Z" fill="#CFD8FF"/>
<path d="M280.335 115.735L280.148 195.508L284.417 197.971L284.603 118.198L280.335 115.735Z" fill="#CFD8FF"/>
<path d="M346.301 176.746L350.902 174.073L350.961 153.152L346.36 155.825L346.301 176.746Z" fill="#D5920F"/>
<path d="M346.361 155.824L350.962 153.151L281.5 113.062L276.898 115.735L346.361 155.824Z" fill="#E7AF22"/>
<path d="M276.895 115.735L276.836 136.657L346.298 176.746L346.358 155.825L276.895 115.735Z" fill="#FFE066"/>
<path d="M277.543 116.494V136.96L345.166 175.987V155.521L277.543 116.494Z" fill="#FFE066"/>
<path d="M331.016 147.354L339.491 172.712L345.167 175.987V175.274L336.989 150.801L331.016 147.354Z" fill="#212D38"/>
<path d="M317.941 139.808L326.417 165.166L332.39 168.613L323.915 143.255L317.941 139.808Z" fill="#212D38"/>
<path d="M304.867 132.263L313.342 157.621L319.316 161.068L310.84 135.711L304.867 132.263Z" fill="#212D38"/>
<path d="M291.797 124.717L300.272 150.075L306.246 153.522L297.77 128.165L291.797 124.717Z" fill="#212D38"/>
<path d="M278.719 117.173L287.194 142.53L293.168 145.978L284.692 120.62L278.719 117.173Z" fill="#212D38"/>
<path d="M346.301 204.455L350.902 201.782L350.961 180.861L346.36 183.534L346.301 204.455Z" fill="#D5920F"/>
<path d="M346.361 183.534L350.962 180.861L281.5 140.772L276.898 143.445L346.361 183.534Z" fill="#E7AF22"/>
<path d="M276.895 143.444L276.836 164.365L346.298 204.455L346.358 183.534L276.895 143.444Z" fill="#FFE066"/>
<path d="M277.543 144.202V164.669L345.166 203.696V183.23L277.543 144.202Z" fill="#FFE066"/>
<path d="M331.016 175.063L339.491 200.421L345.167 203.696V202.983L336.989 178.51L331.016 175.063Z" fill="#212D38"/>
<path d="M317.941 167.518L326.417 192.876L332.39 196.323L323.915 170.965L317.941 167.518Z" fill="#212D38"/>
<path d="M304.867 159.972L313.342 185.33L319.316 188.777L310.84 163.419L304.867 159.972Z" fill="#212D38"/>
<path d="M291.797 152.427L300.272 177.785L306.246 181.232L297.77 155.875L291.797 152.427Z" fill="#212D38"/>
<path d="M278.719 144.882L287.194 170.239L293.168 173.687L284.692 148.329L278.719 144.882Z" fill="#212D38"/>
<path d="M70.9615 230.308C70.9548 230.382 70.9496 230.457 70.9358 230.531C70.9249 230.591 70.9064 230.652 70.8907 230.712C70.8721 230.782 70.8546 230.853 70.8299 230.923C70.8094 230.981 70.7819 231.038 70.7572 231.096C70.7249 231.169 70.693 231.243 70.6541 231.316C70.6256 231.368 70.5913 231.421 70.559 231.473C70.5077 231.556 70.4536 231.638 70.3927 231.719C70.3571 231.767 70.3177 231.815 70.2782 231.862C70.1875 231.972 70.0872 232.079 69.9789 232.184L69.8616 232.299C69.7941 232.361 69.7185 232.419 69.6449 232.478C69.5793 232.531 69.5166 232.584 69.4463 232.635C69.3665 232.693 69.2781 232.749 69.1921 232.804C69.1033 232.862 69.0187 232.922 68.9232 232.977C68.7113 233.1 68.4866 233.211 68.2561 233.315C68.1896 233.345 68.1217 233.373 68.0537 233.401C67.8732 233.477 67.6879 233.547 67.4983 233.611C67.4304 233.634 67.3634 233.659 67.2945 233.681C67.1752 233.718 67.0536 233.752 66.9315 233.785C66.8384 233.81 66.7467 233.837 66.6521 233.86C66.5238 233.891 66.3932 233.917 66.2625 233.943C66.1732 233.961 66.0848 233.981 65.9945 233.998C65.7299 234.044 65.461 234.081 65.1902 234.11C65.107 234.118 65.0229 234.124 64.9388 234.131C64.7801 234.144 64.6205 234.155 64.4609 234.162C64.3587 234.167 64.2566 234.169 64.1544 234.171C64.0252 234.173 63.8959 234.174 63.7667 234.172C63.6584 234.171 63.55 234.168 63.4422 234.163C63.3225 234.159 63.2032 234.153 63.084 234.144C62.9752 234.137 62.8663 234.128 62.758 234.117C62.6392 234.106 62.5209 234.093 62.4031 234.077C62.2976 234.064 62.1926 234.049 62.0881 234.033C61.9622 234.013 61.8372 233.991 61.7128 233.968C61.6149 233.949 61.517 233.93 61.4201 233.909C61.2714 233.876 61.1255 233.839 60.9801 233.801C60.8993 233.78 60.8176 233.759 60.7378 233.736C60.4779 233.66 60.2242 233.575 59.9786 233.479L59.8788 233.437C59.5429 233.301 59.2193 233.15 58.9195 232.977C57.5255 232.173 56.8304 231.118 56.8333 230.065L56.8242 233.256C56.8209 234.31 57.5165 235.365 58.9105 236.169C59.2103 236.342 59.5334 236.493 59.8688 236.628L59.931 236.658L59.97 236.671C60.2156 236.767 60.4689 236.852 60.7288 236.928L60.7901 236.948C60.8495 236.965 60.9117 236.977 60.9716 236.993C61.1165 237.031 61.2619 237.068 61.4101 237.1L61.5279 237.129C61.5859 237.141 61.6458 237.148 61.7042 237.16C61.8282 237.183 61.9527 237.205 62.0786 237.225C62.129 237.233 62.1784 237.244 62.2292 237.251C62.2838 237.259 62.3399 237.262 62.395 237.27C62.5124 237.284 62.6297 237.298 62.748 237.309C62.8046 237.314 62.8602 237.323 62.9167 237.327C62.9694 237.332 63.0227 237.333 63.0749 237.336C63.1947 237.345 63.3139 237.351 63.4336 237.356C63.4935 237.358 63.5534 237.364 63.6137 237.365C63.6617 237.366 63.7097 237.364 63.7577 237.364C63.8869 237.366 64.0157 237.365 64.1449 237.363C64.209 237.361 64.2737 237.364 64.3378 237.362L64.4518 237.354C64.6119 237.347 64.7711 237.336 64.9303 237.322C64.9939 237.317 65.0586 237.316 65.1222 237.309L65.1811 237.301C65.452 237.273 65.7204 237.236 65.9855 237.189L66.0245 237.184C66.1014 237.17 66.176 237.15 66.2525 237.135C66.3837 237.109 66.5148 237.082 66.6431 237.052C66.7376 237.029 66.8293 237.002 66.922 236.977C67.0441 236.943 67.1662 236.91 67.2855 236.873L67.3638 236.851C67.4071 236.836 67.447 236.817 67.4898 236.803C67.6793 236.738 67.8637 236.668 68.0442 236.593C68.1122 236.564 68.1806 236.536 68.2471 236.506C68.4775 236.402 68.7023 236.292 68.9142 236.169L69.0002 236.118C69.0657 236.079 69.1213 236.036 69.1831 235.996C69.2696 235.94 69.3575 235.885 69.4373 235.827C69.5076 235.776 69.5703 235.723 69.6359 235.67C69.7095 235.611 69.7851 235.552 69.8525 235.491L69.8962 235.455L69.9699 235.376C70.0782 235.271 70.1785 235.163 70.2692 235.054L70.3353 234.983L70.3837 234.911C70.4445 234.83 70.4987 234.747 70.55 234.664L70.6199 234.561L70.6446 234.507C70.684 234.435 70.7158 234.361 70.7477 234.287C70.7667 234.245 70.7918 234.202 70.808 234.159L70.8208 234.114C70.8455 234.045 70.8626 233.975 70.8812 233.905C70.8935 233.857 70.9125 233.809 70.9225 233.761L70.9268 233.722C70.9406 233.649 70.9453 233.575 70.952 233.501C70.9567 233.452 70.9672 233.404 70.9686 233.355L70.9695 233.293L70.979 230.101C70.9786 230.171 70.9676 230.239 70.9615 230.308Z" fill="#CFD8FF"/>
<path d="M68.8893 227.186C71.6612 228.785 71.6754 231.378 68.9221 232.978C66.1683 234.578 61.6898 234.578 58.9184 232.978C56.1466 231.378 56.1361 228.788 58.8899 227.188C61.6437 225.588 66.1179 225.586 68.8893 227.186Z" fill="#CFD8FF"/>
<path d="M131.692 195.987C131.685 196.061 131.68 196.136 131.667 196.21C131.655 196.27 131.637 196.33 131.621 196.39C131.603 196.461 131.585 196.532 131.561 196.602C131.54 196.659 131.513 196.717 131.488 196.774C131.456 196.848 131.424 196.922 131.384 196.994C131.356 197.047 131.322 197.099 131.289 197.152C131.238 197.234 131.184 197.317 131.124 197.398C131.088 197.446 131.048 197.494 131.009 197.541C130.918 197.65 130.818 197.758 130.71 197.863L130.592 197.978C130.525 198.039 130.449 198.098 130.375 198.157C130.31 198.209 130.247 198.262 130.177 198.314C130.097 198.372 130.009 198.427 129.923 198.483C129.834 198.541 129.75 198.6 129.654 198.656C129.442 198.779 129.217 198.889 128.987 198.993C128.921 199.023 128.852 199.051 128.784 199.08C128.604 199.155 128.419 199.225 128.229 199.29C128.161 199.313 128.094 199.338 128.025 199.36C127.906 199.397 127.784 199.43 127.662 199.463C127.569 199.489 127.478 199.516 127.383 199.539C127.255 199.569 127.124 199.595 126.993 199.622C126.904 199.64 126.815 199.66 126.725 199.676C126.46 199.723 126.192 199.76 125.921 199.788C125.837 199.797 125.753 199.802 125.67 199.809C125.511 199.822 125.351 199.834 125.191 199.841C125.09 199.845 124.987 199.848 124.885 199.849C124.756 199.852 124.627 199.853 124.498 199.851C124.389 199.85 124.281 199.846 124.173 199.842C124.053 199.837 123.934 199.831 123.815 199.823C123.706 199.816 123.597 199.806 123.489 199.796C123.37 199.785 123.252 199.771 123.134 199.756C123.029 199.743 122.924 199.728 122.819 199.711C122.693 199.692 122.568 199.67 122.444 199.646C122.345 199.628 122.247 199.608 122.151 199.587C122.002 199.555 121.856 199.518 121.711 199.479C121.63 199.458 121.549 199.438 121.469 199.415C121.209 199.339 120.955 199.254 120.709 199.158L120.609 199.115C120.274 198.98 119.95 198.829 119.65 198.656C118.256 197.852 117.561 196.797 117.564 195.743L117.555 198.935C117.552 199.988 118.247 201.043 119.641 201.848C119.941 202.021 120.264 202.171 120.6 202.307L120.662 202.337L120.7 202.35C120.946 202.445 121.2 202.53 121.46 202.606L121.521 202.627C121.58 202.644 121.642 202.655 121.702 202.671C121.847 202.71 121.993 202.746 122.141 202.779L122.259 202.808C122.317 202.82 122.377 202.827 122.435 202.838C122.559 202.862 122.684 202.884 122.81 202.903C122.86 202.911 122.909 202.922 122.96 202.929C123.015 202.937 123.071 202.941 123.126 202.948C123.243 202.963 123.361 202.976 123.478 202.987C123.535 202.993 123.591 203.001 123.648 203.006C123.7 203.01 123.753 203.011 123.806 203.015C123.925 203.023 124.044 203.029 124.165 203.034C124.224 203.036 124.284 203.042 124.344 203.044C124.392 203.045 124.441 203.042 124.489 203.043C124.618 203.045 124.747 203.043 124.875 203.041C124.94 203.04 125.005 203.042 125.069 203.04L125.182 203.033C125.342 203.026 125.502 203.014 125.661 203.001C125.725 202.995 125.789 202.994 125.853 202.988L125.912 202.98C126.183 202.952 126.451 202.915 126.716 202.868L126.755 202.862C126.832 202.849 126.907 202.829 126.983 202.813C127.114 202.787 127.245 202.761 127.374 202.73C127.469 202.707 127.56 202.68 127.653 202.655C127.775 202.622 127.897 202.589 128.016 202.552L128.094 202.529C128.138 202.515 128.177 202.496 128.221 202.481C128.41 202.417 128.595 202.347 128.775 202.271C128.843 202.243 128.911 202.215 128.978 202.185C129.208 202.081 129.433 201.97 129.645 201.848L129.731 201.797C129.796 201.758 129.852 201.715 129.914 201.674C130 201.618 130.088 201.563 130.168 201.505C130.238 201.454 130.301 201.401 130.366 201.349C130.44 201.289 130.515 201.23 130.583 201.17L130.627 201.133L130.7 201.055C130.809 200.949 130.909 200.842 131 200.733L131.066 200.662L131.114 200.59C131.175 200.508 131.23 200.426 131.281 200.343L131.35 200.239L131.375 200.186C131.414 200.113 131.447 200.04 131.479 199.966C131.497 199.923 131.523 199.881 131.539 199.837L131.552 199.793C131.576 199.723 131.594 199.654 131.612 199.583C131.624 199.535 131.643 199.488 131.653 199.439L131.658 199.401C131.671 199.327 131.676 199.254 131.683 199.18C131.687 199.131 131.698 199.083 131.699 199.034L131.7 198.972L131.709 195.78C131.709 195.849 131.698 195.918 131.692 195.987Z" fill="#CFD8FF"/>
<path d="M129.62 192.864C132.391 194.464 132.406 197.057 129.652 198.657C126.899 200.256 122.42 200.256 119.649 198.657C116.877 197.057 116.867 194.466 119.62 192.867C122.374 191.267 126.848 191.265 129.62 192.864Z" fill="#CFD8FF"/>
<path d="M64.1589 232.964L59.5578 230.291L59.3711 150.519L63.9722 153.191L64.1589 232.964Z" fill="#CFD8FF"/>
<path d="M63.9761 153.19L59.375 150.517L63.643 148.054L68.2441 150.727L63.9761 153.19Z" fill="#CFD8FF"/>
<path d="M68.2407 150.727L68.4269 230.5L64.1594 232.963L63.9727 153.19L68.2407 150.727Z" fill="#CFD8FF"/>
<path d="M124.655 197.971L120.054 195.298L119.867 115.526L124.468 118.198L124.655 197.971Z" fill="#CFD8FF"/>
<path d="M124.468 118.198L119.867 115.526L124.135 113.062L128.736 115.735L124.468 118.198Z" fill="#CFD8FF"/>
<path d="M128.737 115.735L128.923 195.508L124.655 197.971L124.469 118.198L128.737 115.735Z" fill="#CFD8FF"/>
<path d="M62.7698 176.746L58.1688 174.073L58.1094 153.152L62.7105 155.825L62.7698 176.746Z" fill="#D5920F"/>
<path d="M62.7105 155.824L58.1094 153.151L127.572 113.062L132.173 115.735L62.7105 155.824Z" fill="#E7AF22"/>
<path d="M132.173 115.735L132.233 136.657L62.7703 176.746L62.7109 155.825L132.173 115.735Z" fill="#FFE066"/>
<path d="M131.525 116.494V136.96L63.9023 175.987V155.521L131.525 116.494Z" fill="#FFE066"/>
<path d="M78.0534 147.354L69.5781 172.712L63.9023 175.987V175.274L72.0801 150.801L78.0534 147.354Z" fill="#212D38"/>
<path d="M91.1286 139.808L82.6529 165.166L76.6797 168.613L85.1554 143.255L91.1286 139.808Z" fill="#212D38"/>
<path d="M104.199 132.263L95.7232 157.621L89.75 161.068L98.2252 135.711L104.199 132.263Z" fill="#212D38"/>
<path d="M117.277 124.717L108.801 150.075L102.828 153.522L111.303 128.165L117.277 124.717Z" fill="#212D38"/>
<path d="M130.347 117.173L121.872 142.53L115.898 145.978L124.374 120.62L130.347 117.173Z" fill="#212D38"/>
<path d="M62.7698 204.455L58.1688 201.782L58.1094 180.861L62.7105 183.534L62.7698 204.455Z" fill="#D5920F"/>
<path d="M62.7105 183.534L58.1094 180.861L127.572 140.772L132.173 143.445L62.7105 183.534Z" fill="#E7AF22"/>
<path d="M132.173 143.444L132.233 164.365L62.7703 204.455L62.7109 183.534L132.173 143.444Z" fill="#FFE066"/>
<path d="M131.525 144.202V164.669L63.9023 203.696V183.23L131.525 144.202Z" fill="#FFE066"/>
<path d="M78.0534 175.063L69.5781 200.421L63.9023 203.696V202.983L72.0801 178.51L78.0534 175.063Z" fill="#212D38"/>
<path d="M91.1286 167.518L82.6529 192.876L76.6797 196.323L85.1554 170.965L91.1286 167.518Z" fill="#212D38"/>
<path d="M104.199 159.972L95.7232 185.33L89.75 188.777L98.2252 163.419L104.199 159.972Z" fill="#212D38"/>
<path d="M117.277 152.427L108.801 177.785L102.828 181.232L111.303 155.875L117.277 152.427Z" fill="#212D38"/>
<path d="M130.347 144.882L121.872 170.239L115.898 173.687L124.374 148.329L130.347 144.882Z" fill="#212D38"/>
<path d="M241.052 169.917L241.008 185.251C241.008 185.502 240.991 185.74 240.96 185.969L240.956 185.993C240.926 186.21 240.882 186.417 240.827 186.615L240.817 186.652C240.765 186.833 240.7 187.003 240.628 187.169L240.583 187.272C240.52 187.408 240.447 187.536 240.372 187.662L240.303 187.784C240.24 187.881 240.168 187.969 240.098 188.059C240.047 188.125 240.002 188.195 239.948 188.257C239.871 188.347 239.785 188.428 239.702 188.511C239.647 188.565 239.597 188.624 239.539 188.676C239.443 188.764 239.339 188.842 239.235 188.922C239.184 188.962 239.136 189.006 239.082 189.045C238.923 189.16 238.757 189.266 238.586 189.366L241.935 187.421C242.106 187.321 242.272 187.214 242.431 187.099C242.483 187.062 242.529 187.019 242.579 186.981C242.684 186.899 242.79 186.82 242.888 186.731C242.945 186.679 242.994 186.621 243.048 186.568C243.132 186.484 243.219 186.403 243.297 186.312C243.35 186.25 243.396 186.18 243.446 186.114C243.512 186.029 243.581 185.948 243.64 185.858L243.651 185.839L243.721 185.717C243.783 185.613 243.847 185.51 243.901 185.399L243.932 185.327L243.977 185.223C244.004 185.161 244.033 185.101 244.057 185.036C244.093 184.942 244.125 184.845 244.155 184.746L244.166 184.707L244.175 184.67C244.192 184.61 244.209 184.549 244.224 184.488C244.245 184.399 244.263 184.309 244.279 184.218C244.289 184.162 244.297 184.104 244.305 184.047L244.308 184.024L244.314 183.992C244.323 183.92 244.33 183.848 244.336 183.775C244.343 183.701 244.348 183.626 244.351 183.55C244.354 183.475 244.356 183.398 244.357 183.32V183.306L244.4 167.971L241.052 169.917Z" fill="#9EA6AD"/>
<path d="M222.094 158.976L225.442 157.03L244.399 167.971L241.05 169.916L222.094 158.976Z" fill="#B6BBC1"/>
<path d="M241.05 169.917L241.007 185.251C240.99 191.262 231.974 190.698 231.5 190.668C231.026 190.15 222.034 180.322 222.051 174.311L222.094 158.976L241.05 169.917Z" fill="#C8CCD1"/>
<path d="M236.205 156.456L236.195 156.543L236.177 156.615L236.153 156.698L236.125 156.766L236.084 156.853L236.047 156.914L235.981 157.012L235.936 157.068C235.901 157.111 235.861 157.153 235.818 157.195L235.772 157.24L235.686 157.31L235.609 157.372L235.508 157.439L235.402 157.507C235.319 157.556 235.23 157.599 235.14 157.64L235.06 157.674C234.989 157.704 234.916 157.731 234.841 157.757L234.761 157.784C234.714 157.799 234.665 157.812 234.617 157.825L234.508 157.855C234.457 157.867 234.405 157.877 234.353 157.888L234.249 157.909C234.144 157.927 234.038 157.942 233.931 157.953L233.833 157.961C233.77 157.966 233.707 157.971 233.644 157.974L233.523 157.977C233.472 157.978 233.421 157.979 233.37 157.978L233.242 157.974C233.195 157.973 233.148 157.97 233.101 157.967C233.058 157.964 233.015 157.96 232.972 157.956C232.926 157.952 232.879 157.946 232.833 157.941L232.708 157.923C232.659 157.915 232.61 157.907 232.561 157.897L232.445 157.874C232.386 157.861 232.329 157.847 232.271 157.832L232.176 157.806C232.074 157.776 231.974 157.743 231.877 157.705C231.829 157.686 231.783 157.666 231.737 157.645L231.664 157.614C231.594 157.58 231.526 157.545 231.46 157.507C230.911 157.19 230.636 156.774 230.638 156.358L230.59 163.202C230.589 163.618 230.863 164.034 231.412 164.351C231.478 164.389 231.546 164.425 231.617 164.458L231.689 164.489L231.814 164.544L231.829 164.549C231.926 164.587 232.026 164.62 232.128 164.65L232.153 164.658L232.224 164.675C232.281 164.691 232.339 164.705 232.397 164.718L232.443 164.729L232.513 164.741C232.562 164.751 232.611 164.759 232.66 164.767L232.719 164.777L232.785 164.785C232.831 164.79 232.878 164.796 232.924 164.8L232.991 164.807L233.053 164.811C233.1 164.814 233.147 164.817 233.195 164.818L233.266 164.822L233.322 164.822C233.374 164.823 233.424 164.822 233.476 164.821L233.551 164.821L233.596 164.818C233.659 164.815 233.722 164.81 233.785 164.805L233.861 164.8L233.884 164.797C233.991 164.786 234.096 164.771 234.201 164.753L234.216 164.751L234.307 164.732C234.358 164.721 234.41 164.711 234.46 164.699L234.57 164.669C234.618 164.656 234.666 164.643 234.713 164.628L234.744 164.619L234.794 164.601C234.868 164.575 234.941 164.548 235.012 164.518L235.092 164.484C235.183 164.443 235.271 164.4 235.354 164.351L235.389 164.331L235.46 164.283L235.561 164.216L235.639 164.154L235.724 164.084L235.742 164.07L235.771 164.039C235.813 163.997 235.853 163.955 235.889 163.912L235.914 163.884L235.933 163.856L235.999 163.758L236.027 163.717L236.037 163.697L236.077 163.61L236.101 163.559L236.106 163.542L236.13 163.458L236.146 163.402L236.148 163.387L236.158 163.3L236.164 163.243L236.164 163.218L236.212 156.374L236.205 156.456Z" fill="#9EA6AD"/>
<path d="M235.389 155.225C236.48 155.855 236.487 156.877 235.401 157.508C234.317 158.138 232.551 158.138 231.459 157.508C230.368 156.878 230.362 155.855 231.447 155.225C232.532 154.594 234.297 154.595 235.389 155.225Z" fill="#B6BBC1"/>
<path d="M235.77 111.264L235.761 111.339L235.746 111.399L235.726 111.469L235.702 111.526L235.667 111.6L235.636 111.652L235.581 111.734L235.543 111.782L235.443 111.889L235.404 111.927L235.332 111.986L235.266 112.039L235.181 112.095L235.092 112.153C235.021 112.193 234.947 112.23 234.87 112.265L234.803 112.294C234.742 112.319 234.681 112.342 234.618 112.364L234.55 112.387L234.429 112.421L234.336 112.446C234.293 112.457 234.25 112.465 234.206 112.474L234.118 112.492C234.029 112.507 233.94 112.52 233.85 112.529L233.766 112.536C233.713 112.541 233.66 112.544 233.606 112.547L233.505 112.55C233.461 112.551 233.418 112.551 233.375 112.55L233.268 112.547L233.148 112.541L233.039 112.532L232.922 112.519L232.816 112.504L232.692 112.482L232.594 112.462C232.544 112.451 232.496 112.44 232.447 112.427L232.367 112.405C232.281 112.38 232.196 112.352 232.114 112.32L231.996 112.269L231.935 112.243C231.875 112.214 231.817 112.185 231.762 112.153C231.298 111.885 231.066 111.533 231.068 111.182L231.027 156.104C231.026 156.455 231.258 156.807 231.722 157.075C231.777 157.107 231.835 157.137 231.894 157.165L231.956 157.191L232.061 157.237L232.074 157.242C232.156 157.273 232.24 157.301 232.327 157.327L232.347 157.334L232.407 157.349C232.456 157.361 232.504 157.374 232.553 157.385L232.592 157.394L232.651 157.404L232.776 157.426L232.826 157.434L232.881 157.441L232.999 157.454L233.055 157.46L233.108 157.463L233.227 157.469L233.287 157.472H233.335C233.378 157.473 233.421 157.472 233.464 157.472H233.528L233.566 157.469C233.62 157.467 233.673 157.462 233.726 157.458L233.79 157.454L233.809 157.451C233.899 157.442 233.989 157.43 234.077 157.414L234.09 157.412L234.167 157.396C234.21 157.387 234.253 157.378 234.296 157.368L234.388 157.343L234.51 157.309L234.536 157.301L234.577 157.285C234.641 157.264 234.702 157.241 234.762 157.216L234.829 157.187C234.906 157.152 234.981 157.116 235.051 157.075L235.08 157.058L235.141 157.017L235.226 156.961L235.292 156.909L235.364 156.849L235.378 156.837L235.403 156.811L235.503 156.704L235.524 156.68L235.541 156.656L235.596 156.574L235.619 156.54L235.628 156.522L235.662 156.448L235.682 156.406L235.686 156.391L235.706 156.321L235.72 156.273L235.721 156.26L235.73 156.186L235.735 156.138V156.117L235.776 111.196L235.77 111.264Z" fill="#CB820B"/>
<path d="M235.079 110.227C236.002 110.759 236.007 111.622 235.09 112.154C234.174 112.687 232.683 112.687 231.761 112.154C230.839 111.622 230.834 110.759 231.75 110.227C232.667 109.694 234.158 109.695 235.079 110.227Z" fill="#593100"/>
<path d="M236.205 107.716L236.195 107.804L236.177 107.875L236.153 107.958L236.125 108.026L236.084 108.113L236.047 108.175L235.981 108.272L235.936 108.328C235.901 108.371 235.861 108.414 235.818 108.455L235.772 108.5L235.686 108.571L235.609 108.633L235.508 108.699L235.402 108.768C235.319 108.816 235.23 108.859 235.14 108.901L235.06 108.934C234.989 108.964 234.916 108.992 234.841 109.017L234.761 109.045C234.714 109.06 234.665 109.073 234.617 109.086L234.508 109.115C234.457 109.128 234.405 109.138 234.353 109.148L234.249 109.17C234.144 109.188 234.038 109.202 233.931 109.214L233.833 109.222C233.77 109.227 233.707 109.232 233.644 109.235L233.523 109.238C233.472 109.239 233.421 109.239 233.37 109.238L233.242 109.235C233.195 109.233 233.148 109.231 233.101 109.228C233.058 109.225 233.015 109.221 232.972 109.217C232.926 109.212 232.879 109.207 232.833 109.201L232.708 109.183C232.659 109.176 232.61 109.167 232.561 109.158L232.445 109.134C232.386 109.122 232.329 109.107 232.271 109.092L232.176 109.067C232.074 109.037 231.974 109.003 231.877 108.965C231.829 108.947 231.783 108.926 231.737 108.906L231.664 108.874C231.594 108.841 231.526 108.806 231.46 108.768C230.911 108.451 230.636 108.034 230.638 107.618L230.59 110.997C230.589 111.413 230.863 111.829 231.412 112.146C231.478 112.184 231.546 112.219 231.617 112.252L231.689 112.284L231.814 112.338L231.829 112.344C231.926 112.381 232.026 112.415 232.128 112.445L232.153 112.453L232.224 112.47C232.281 112.485 232.339 112.5 232.397 112.513L232.443 112.524L232.513 112.536C232.562 112.545 232.611 112.554 232.66 112.562L232.719 112.572L232.785 112.579C232.831 112.585 232.878 112.591 232.924 112.595L232.991 112.602L233.053 112.606C233.1 112.609 233.147 112.611 233.195 112.613L233.266 112.617L233.322 112.617C233.374 112.617 233.424 112.617 233.476 112.616L233.551 112.616L233.596 112.613C233.659 112.61 233.722 112.605 233.785 112.6L233.861 112.595L233.884 112.592C233.991 112.581 234.096 112.566 234.201 112.548L234.216 112.545L234.307 112.526C234.358 112.516 234.41 112.506 234.46 112.494L234.57 112.464C234.618 112.451 234.666 112.438 234.713 112.423L234.744 112.414L234.794 112.395C234.868 112.37 234.941 112.343 235.012 112.313L235.092 112.279C235.183 112.238 235.271 112.194 235.354 112.146L235.389 112.126L235.46 112.078L235.561 112.011L235.639 111.949L235.724 111.879L235.742 111.864L235.771 111.834C235.813 111.792 235.853 111.749 235.889 111.706L235.914 111.679L235.933 111.65L235.999 111.553L236.027 111.512L236.037 111.491L236.077 111.405L236.101 111.354L236.106 111.337L236.13 111.253L236.146 111.197L236.148 111.182L236.158 111.094L236.164 111.037L236.164 111.013L236.212 107.635L236.205 107.716Z" fill="#9EA6AD"/>
<path d="M235.389 106.485C236.48 107.115 236.487 108.137 235.401 108.768C234.317 109.398 232.551 109.398 231.459 108.768C230.368 108.138 230.362 107.115 231.447 106.485C232.532 105.854 234.297 105.855 235.389 106.485Z" fill="#B6BBC1"/>
<path d="M230.59 163.878V179.811L233.865 165.768L235.639 164.154L230.593 163.267L230.59 163.878Z" fill="#9EA6AD"/>
<path d="M237.148 111.025C237.174 110.874 237.208 110.722 237.253 110.569L237.266 110.527C237.317 110.361 237.378 110.196 237.448 110.033L237.452 110.025C237.525 109.858 237.608 109.695 237.7 109.535L237.707 109.523C237.797 109.368 237.895 109.219 237.999 109.076L238.028 109.037C238.124 108.908 238.227 108.785 238.334 108.669L238.403 108.596C238.487 108.507 238.577 108.427 238.667 108.349L238.788 108.243C238.915 108.141 239.046 108.048 239.181 107.97C239.27 107.919 239.357 107.877 239.444 107.839L239.526 107.807C239.575 107.787 239.625 107.77 239.673 107.756L239.766 107.73L239.852 107.711L239.962 107.695L240.026 107.688C240.071 107.685 240.116 107.684 240.159 107.686H240.19C240.243 107.689 240.295 107.696 240.345 107.705L240.382 107.714L240.496 107.747L240.532 107.759C240.58 107.778 240.626 107.799 240.669 107.824L228.53 100.734L228.519 100.728L228.414 100.676L228.394 100.669L228.357 100.656L228.303 100.637L228.243 100.624L228.206 100.615L228.186 100.61C228.145 100.603 228.103 100.598 228.06 100.596H228.051L228.02 100.595L227.921 100.594L227.887 100.598L227.823 100.604L227.765 100.61L227.713 100.621L227.627 100.639L227.581 100.649L227.535 100.665C227.486 100.68 227.437 100.697 227.387 100.716L227.335 100.734L227.305 100.749C227.219 100.787 227.131 100.828 227.042 100.88C226.907 100.957 226.776 101.051 226.648 101.152L226.528 101.259C226.466 101.312 226.402 101.362 226.343 101.421L226.264 101.505L226.195 101.579L226.114 101.664C226.056 101.731 225.999 101.8 225.945 101.871L225.889 101.946L225.86 101.986L225.806 102.06C225.764 102.119 225.723 102.179 225.684 102.24C225.647 102.299 225.611 102.358 225.576 102.417L225.568 102.432L225.56 102.446C225.532 102.494 225.505 102.543 225.478 102.593C225.447 102.652 225.417 102.711 225.388 102.771C225.362 102.825 225.338 102.879 225.314 102.934L225.309 102.943L225.305 102.952C225.278 103.014 225.253 103.077 225.228 103.14C225.203 103.205 225.179 103.271 225.158 103.337L225.127 103.437L225.114 103.479L225.092 103.55C225.07 103.63 225.051 103.711 225.034 103.791C225.023 103.839 225.017 103.887 225.009 103.935L224.996 104.01L224.984 104.08C224.966 104.219 224.957 104.356 224.957 104.49C224.959 105.148 225.192 105.612 225.568 105.83L237.706 112.921C237.331 112.703 237.098 112.239 237.096 111.58C237.095 111.424 237.111 111.263 237.135 111.101L237.148 111.025Z" fill="#C8CCD1"/>
<path d="M239.179 107.971C240.334 107.304 241.273 107.838 241.277 109.166C241.281 110.492 240.347 112.11 239.192 112.776C238.038 113.442 237.098 112.907 237.094 111.581C237.09 110.253 238.024 108.637 239.179 107.971Z" fill="#9EA6AD"/>
<path d="M214.785 188.122L220.665 177.614L251.369 194.177L221.081 196.795L214.785 188.122Z" fill="white"/>
<path d="M74.3535 275.093C74.401 274.816 74.4642 274.537 74.5469 274.258L74.5701 274.183C74.6633 273.88 74.774 273.578 74.9042 273.28L74.9117 273.264C75.0453 272.96 75.1968 272.66 75.3645 272.37L75.3759 272.349C75.5394 272.067 75.7195 271.795 75.91 271.533L75.9632 271.461C76.139 271.226 76.3262 271.003 76.52 270.792C76.5623 270.746 76.6046 270.701 76.6474 270.657C76.8023 270.495 76.9648 270.349 77.1291 270.206C77.2023 270.143 77.2726 270.074 77.3472 270.014C77.58 269.829 77.8186 269.659 78.0637 269.518C78.3056 269.378 78.5398 269.276 78.7688 269.192C78.8144 269.176 78.8595 269.16 78.9047 269.146C79.1199 269.077 79.3299 269.029 79.5295 269.009L79.586 269.003C79.8017 268.986 80.0074 268.996 80.2003 269.034L80.2307 269.041C80.4279 269.083 80.6132 269.151 80.7819 269.249L78.0542 267.665L78.0333 267.653C77.9715 267.618 77.9079 267.587 77.8423 267.559C77.7772 267.532 77.7102 267.508 77.6413 267.488C77.5962 267.476 77.5492 267.467 77.5026 267.457L77.4727 267.449L77.4275 267.439C77.3529 267.426 77.276 267.417 77.1976 267.412C77.1154 267.407 77.0313 267.407 76.9453 267.41L76.8588 267.419L76.8023 267.425C76.7552 267.429 76.7087 267.431 76.6607 267.439C76.5509 267.456 76.4388 267.48 76.3243 267.511C76.2758 267.524 76.2255 267.546 76.1765 267.562C76.1319 267.576 76.0872 267.591 76.0421 267.608C75.9855 267.628 75.9309 267.642 75.8739 267.666C75.6981 267.739 75.519 267.828 75.3365 267.933C75.0909 268.075 74.8528 268.244 74.6205 268.43C74.545 268.49 74.4746 268.558 74.4005 268.623C74.2879 268.721 74.172 268.812 74.0637 268.919C74.0142 268.968 73.9682 269.022 73.9197 269.072C73.8769 269.116 73.8351 269.162 73.7928 269.207C73.7444 269.26 73.6931 269.309 73.646 269.364C73.5396 269.486 73.436 269.612 73.3353 269.742C73.3011 269.786 73.2693 269.832 73.236 269.876L73.1823 269.95C73.1486 269.996 73.1139 270.04 73.0811 270.087C73.0046 270.195 72.931 270.305 72.8592 270.417C72.7913 270.524 72.7257 270.632 72.6616 270.741L72.6483 270.765L72.6369 270.785C72.5841 270.877 72.5319 270.969 72.4824 271.062C72.4254 271.17 72.3703 271.278 72.3176 271.387C72.271 271.484 72.2273 271.581 72.1846 271.678L72.176 271.696L72.166 271.719C72.1166 271.832 72.07 271.946 72.0259 272.061C71.9802 272.18 71.937 272.301 71.8966 272.421C71.8771 272.48 71.861 272.539 71.8429 272.598L71.8192 272.675C71.8059 272.72 71.7907 272.765 71.7783 272.81C71.7375 272.955 71.7018 273.101 71.6709 273.247C71.6524 273.334 71.641 273.42 71.6263 273.507C71.6182 273.554 71.6092 273.6 71.6021 273.647L71.5802 273.775C71.5474 274.027 71.5308 274.277 71.5313 274.521C71.5346 275.725 71.9603 276.569 72.6449 276.967L75.3726 278.552C74.688 278.154 74.2623 277.309 74.2589 276.106C74.258 275.82 74.2851 275.527 74.3297 275.23C74.3369 275.185 74.3454 275.139 74.3535 275.093Z" fill="#8AA0FE"/>
<path d="M78.0626 269.518C80.175 268.299 81.8854 269.273 81.8926 271.699C81.8992 274.126 80.2002 277.068 78.0878 278.287C75.9873 279.499 74.2645 278.532 74.2578 276.106C74.2507 273.679 75.9626 270.73 78.0626 269.518Z" fill="#004F58"/>
<path d="M78.0703 271.93C79.0201 271.382 79.7888 271.82 79.7921 272.912C79.795 274.003 79.031 275.325 78.0812 275.873C77.1372 276.419 76.3622 275.984 76.3594 274.893C76.3561 273.802 77.1258 272.476 78.0703 271.93Z" fill="#8AA0FE"/>
<path d="M78.0859 262.003L79.4766 261.195L79.4571 274.017L78.0664 274.825L78.0859 262.003Z" fill="#C1F0F5"/>
<path d="M76.8047 261.265L78.1954 260.457L79.4739 261.195L78.0832 262.003L76.8047 261.265Z" fill="#C1F0F5"/>
<path d="M78.0832 262.003L78.0637 274.825L76.7852 274.087L76.8046 261.265L78.0832 262.003Z" fill="#1B838B"/>
<path d="M76.7846 248.712L79.5123 247.128L79.4733 260.736L76.7461 262.32L76.7846 248.712Z" fill="#C1F0F5"/>
<path d="M74.2773 247.264L77.0045 245.68L79.5127 247.127L76.785 248.712L74.2773 247.264Z" fill="#C1F0F5"/>
<path d="M76.7849 248.712L76.7464 262.32L74.2383 260.873L74.2772 247.265L76.7849 248.712Z" fill="#3BB7C2"/>
<path d="M93.6967 282.85L97.0401 280.463L98.8722 282.039L99.6343 283.862L103.214 284.643L107.373 289.207L106.204 291.024L96.412 287.902L92.9883 283.308L93.6967 282.85Z" fill="#121E29"/>
<path d="M82.6602 271.99C82.6602 271.99 101.55 274.998 103.232 275.397L106.101 282.669L74.4586 302.789L68.6289 297.515L82.0843 286.821L79.3077 286.133L78.1784 278.179L82.6602 271.99Z" fill="#212D38"/>
<path d="M97.0251 276.066L97.8438 276.628C97.8438 276.628 98.4324 279.267 98.9826 279.797C99.5333 280.327 99.558 278.944 99.3366 277.671C100.777 278.663 103.121 279.916 103.505 279.587C103.888 279.259 101.296 277.692 101.296 277.692C101.296 277.692 104.28 279.471 104.589 278.951C104.986 278.282 101.801 276.685 101.801 276.685C101.801 276.685 104.07 277.788 104.413 277.375C104.756 276.962 102.401 275.712 102.401 275.712C102.401 275.712 104.173 276.564 104.35 276.065C104.527 275.565 101.905 274.063 101.385 273.756C100.866 273.448 98.9171 273.054 98.9171 273.054L98.117 272.571L96.3281 275.758L97.0251 276.066Z" fill="#F8DDC8"/>
<path d="M86.1281 270.254L96.3256 275.758L98.1145 272.57L92.2733 264.48L88.5355 253.537L83.0312 252.77L86.1281 270.254Z" fill="#2F4051"/>
<path d="M67.6809 295.619L64.5508 298.279L65.636 300.44L67.2195 301.623L67.1065 305.284L70.5245 310.428L72.5723 309.736L71.9232 299.482L68.2985 295.043L67.6809 295.619Z" fill="#121E29"/>
<path d="M78.2209 286.281L79.0186 286.967L98.338 284.503L103.048 292.877L69.1974 300.102C69.1974 300.102 64.9118 299.1 63.9986 297.814C62.9638 295.902 59.9453 284.591 59.9453 284.591L78.1776 278.178L79.307 286.132L78.2209 286.281Z" fill="#212D38"/>
<path d="M73.0579 249.802L84.2075 248.326L88.5345 253.537L86.3494 264.258L87.4241 278.039C87.4241 278.039 76.5795 285.777 71.7703 285.202C67.7655 284.668 64.2363 282.386 64.2363 282.386L66.5178 268.557L62.9691 259.452C62.8983 257.348 73.0579 249.802 73.0579 249.802Z" fill="white"/>
<path d="M84.529 248.396L81.4844 247.446L85.9496 254.962L84.0239 270.995L84.1683 280.627C84.1683 280.627 88.6112 278.817 89.378 275.754L87.3436 270.435L88.538 253.536L84.529 248.396Z" fill="#2F4051"/>
<path d="M83.9833 238.904C83.9833 238.904 84.5411 240.948 84.5325 241.244C84.524 241.541 84.5639 242.413 84.5639 242.413L84.7297 243.953L83.7191 248.353C83.5595 249.05 83.0506 249.614 82.3745 249.845L81.2114 250.242L76.1932 247.308L75.1641 243.706L76.0901 237.409L83.9833 238.904Z" fill="#A47548"/>
<path d="M75.1437 245.125L73.0508 249.823L78.2287 251.879C79.7652 252.489 81.4814 251.566 81.8177 249.947L82.0962 248.606L75.1437 245.125Z" fill="#A47548"/>
<path d="M76.4573 244.441C76.4573 244.441 75.3688 241.304 74.5122 241.09C73.6555 240.875 73.0806 242.06 73.0364 243.307C72.9927 244.553 74.0793 245.098 74.0793 245.098C74.0793 245.098 74.1316 246.045 74.6751 246.491C75.2191 246.938 76.2768 246.851 76.4711 246.479C76.6649 246.108 76.4573 244.441 76.4573 244.441Z" fill="#A47548"/>
<path d="M84.9479 239.255C83.6142 240.626 79.7576 241.385 77.3283 240.668C77.0822 242.019 76.9663 242.829 76.9663 242.829L76.0731 244.314C76.0731 244.314 75.6478 241.192 74.1659 241.988C72.6845 242.784 73.5924 245.108 74.9394 245.663L74.1773 247.429L70.0195 240.05C70.0195 240.05 71.9523 235.494 77.4058 234.349C85.6529 232.618 85.6092 238.576 84.9479 239.255Z" fill="#212D38"/>
<path d="M73.0577 249.803L78.1762 256.653C78.1762 256.653 78.4076 282.808 76.2961 286.812C76.2961 286.812 63.6365 286.491 59.9453 284.592L65.7176 269.967L62.6763 257.851C62.664 256.727 63.3206 255.702 64.3478 255.244L73.0577 249.803Z" fill="#2F4051"/>
<path d="M80.3094 254.859L80.3493 254.692L81.7315 254.927L81.8279 255.19L81.7742 255.278C81.7742 255.278 86.0784 257.041 85.1077 261.36C83.8576 266.922 76.0809 274.023 74.8351 274.904L74.8341 274.905L70.8906 275.949L72.105 271.996C72.105 271.996 81.1585 265.258 83.3816 261.224C84.8069 258.636 82.4328 256.098 81.6621 255.476L81.5462 255.576L80.3094 254.859Z" fill="#E30072"/>
<path d="M72.9514 283.768C72.0653 284.233 72.1123 285.103 73.0564 285.715L83.9362 292.804C84.8774 293.414 86.3584 293.535 87.2445 293.07L109.411 281.437C110.294 280.974 110.247 280.1 109.305 279.49L98.4255 272.401C97.4814 271.789 96.0009 271.671 95.1177 272.135L72.9514 283.768Z" fill="#3BB7C2"/>
<path d="M113.738 263.613C114.68 263.191 115.307 263.701 115.141 264.752L112.696 280.223C112.53 281.277 111.634 282.47 110.692 282.892L87.1168 293.464C86.1746 293.886 85.5479 293.376 85.7142 292.322L88.1583 276.851C88.3245 275.801 89.2197 274.608 90.1623 274.185L113.738 263.613Z" fill="#76D7E0"/>
<path d="M104.155 278.416C104.468 276.471 103.318 275.524 101.587 276.3C99.8561 277.076 98.1998 279.282 97.8872 281.227C97.5745 283.172 98.7248 284.119 100.456 283.343C102.187 282.567 103.843 280.361 104.155 278.416Z" fill="#C1F0F5"/>
<path d="M79.0268 282.467L80.017 282.548C80.017 282.548 82.1393 280.872 82.901 280.807C83.6626 280.743 82.8093 281.832 81.8338 282.681C83.5775 282.818 86.1883 283.326 86.2786 283.822C86.3689 284.319 83.3675 283.899 83.3675 283.899C83.3675 283.899 86.8069 284.401 86.7186 284.999C86.605 285.769 83.1243 285 83.1243 285C83.1243 285 85.5816 285.575 85.5873 286.111C85.5925 286.648 82.9756 286.133 82.9756 286.133C82.9756 286.133 84.8898 286.589 84.7116 287.088C84.5335 287.587 81.5507 287.099 80.9534 287.01C80.3557 286.921 78.594 285.998 78.594 285.998L77.668 285.868L78.2909 282.267L79.0268 282.467Z" fill="#A47548"/>
<path d="M62.6986 257.497C62.6986 257.497 58.126 278.634 58.538 282.279C58.9499 285.924 77.8398 285.742 77.8398 285.742L79.076 281.729L68.5041 279.233L69.7047 270.22L62.6986 257.497Z" fill="#2F4051"/>
<path d="M102.302 95.3343L105.385 105.876L111.256 113.517L109.982 116.439C109.982 116.439 101.92 111.192 101.135 110.005C100.35 108.818 97.0391 96.3877 97.0391 96.3877L102.302 95.3343Z" fill="#E30072"/>
<path d="M111.258 113.517C111.258 113.517 115.22 114.334 115.591 114.445C115.962 114.556 119.339 118.442 119.339 118.442L117.135 120.637L115.386 119.014L112.658 118.822L109.984 116.44L111.258 113.517Z" fill="#F8DDC8"/>
<path d="M97.0214 172.283L97.2262 175.477L99.0825 175.807L100.56 175.368L102.796 177.145L109.18 177.909L109.701 176.308L101.412 171.433L96.9492 171.629L97.0214 172.283Z" fill="#212D38"/>
<path d="M109.1 165.207L109.295 168.616L111.151 168.945L112.628 168.507L114.874 170.068L120.796 170.58L121.318 168.979L114.41 164.225L109.027 164.553L109.1 165.207Z" fill="#212D38"/>
<path d="M82.384 128.033C82.384 128.033 81.8153 135.433 81.8086 135.896C81.802 136.359 83.1432 139.759 85.3069 140.669C87.4711 141.58 93.8078 145.421 93.8078 145.421L93.652 156.346L97.0135 173.942L103.9 172.082V142.602C103.9 142.602 103.275 140.926 102.176 140.077C101.076 139.228 96.0357 132.164 96.0357 132.164L96.2357 127.907L82.384 128.033Z" fill="#2F4051"/>
<path d="M104.118 127.419C104.118 127.419 112.895 133.934 113.92 135.129C114.946 136.324 115.113 139.175 115.113 139.175L116.293 164.696L108.936 165.687L105.403 147.681L105.93 141.553L88.2656 131.98L92.4139 127.943L104.118 127.419Z" fill="#2F4051"/>
<path d="M88.8587 94.7017L98.1854 91.5874L102.303 95.3343L100.924 116.357L101.267 127.471C101.267 127.471 93.0536 132.125 89.2906 131.82C86.1553 131.524 83.3378 129.851 83.3378 129.851L84.7014 119.012L83.3359 100.045L88.8587 94.7017Z" fill="white"/>
<path d="M88.8594 94.7031C88.8594 94.7031 95.8498 102.352 96.2589 107.253C96.6675 112.155 94.3893 129.757 92.8646 132.939C92.8646 132.939 82.994 133.068 80.0625 131.699L84.121 120.135L83.0605 98.8076C83.0173 97.9323 83.4981 97.1144 84.2844 96.7269L88.8594 94.7031Z" fill="#E30072"/>
<path d="M98.5249 90.7968L96.3047 91.2783C96.3047 91.2783 99.5759 101.854 99.8363 103.412C100.097 104.969 99.87 130.669 99.87 130.669C99.87 130.669 102.989 128.815 103.495 126.405L101.538 108.457L102.302 95.3349L98.5249 90.7968Z" fill="#E30072"/>
<path d="M99.6457 85.8375C99.6457 85.8375 99.9959 87.723 99.9664 87.9894C99.9365 88.2559 99.7065 89.1041 99.7065 89.1041L99.9412 90.4468L98.3847 95.3307L96.297 95.8564L91.9905 92.8353L91.332 89.5093L92.6386 83.8987L99.6457 85.8375Z" fill="#F8DDC8"/>
<path d="M100.081 85.1606L99.6472 85.8379L94.103 86.2938L93.0383 87.4446L92.6724 90.1931L92.1085 90.1252L90.1647 92.7939L89.8896 92.7293L89.7675 90.3494L87.037 88.3613L86.875 83.1074L87.6589 82.6785L92.3441 80.1186C92.3441 80.1186 97.8161 81.6745 99.4681 83.5277L99.5389 83.6061L99.8144 84.3969L100.081 85.1606Z" fill="#7D4600"/>
<path d="M94.103 86.2972L93.0392 87.4446L92.6734 90.1931L92.1085 90.1257L90.1657 92.7939L89.8906 92.7293L88.5892 90.6937L87.038 88.3613L86.875 83.1112L94.103 86.2972Z" fill="#9F5C00"/>
<path d="M91.2093 90.7873L88.8594 94.7028L95.3842 98.5684L97.2196 94.4458L91.2093 90.7873Z" fill="#F8DDC8"/>
<path d="M92.1097 90.1246C92.1097 90.1246 91.5462 87.928 90.9751 87.7337C90.404 87.54 89.946 88.3136 89.8457 89.16C89.745 90.0059 90.4539 90.4371 90.4539 90.4371C90.4539 90.4371 90.4358 91.0854 90.7808 91.4193C91.1262 91.7537 91.8507 91.7546 92.0037 91.5129C92.1567 91.2707 92.1097 90.1246 92.1097 90.1246Z" fill="#F8DDC8"/>
<path d="M86.544 131.002C85.7791 131.429 85.7648 132.137 86.5127 132.585L99.3818 140.307C100.127 140.754 101.351 140.773 102.116 140.346L121.259 129.659C122.021 129.234 122.036 128.523 121.29 128.076L108.421 120.355C107.674 119.906 106.449 119.89 105.687 120.316L86.544 131.002Z" fill="#056D78"/>
<path d="M95.3642 125.147L98.1855 124.85C98.1855 124.85 99.9881 126.004 100.263 126.242C100.538 126.48 101.316 128.347 101.316 128.347L99.082 129.278L97.1583 127.791L95.2554 128.275L94.46 128.252L93.2461 127.136L94.6135 124.887L95.3642 125.147Z" fill="#F8DDC8"/>
<path d="M121.147 113.844C121.912 113.417 122.522 113.776 122.512 114.645L122.365 127.441C122.356 128.312 121.73 129.361 120.965 129.788L101.822 140.474C101.057 140.902 100.447 140.543 100.457 139.671L100.604 126.875C100.614 126.006 101.24 124.957 102.005 124.53L121.147 113.844Z" fill="#1B838B"/>
<path d="M114.761 125.516C114.785 123.908 113.664 123.239 112.258 124.023C110.853 124.808 109.695 126.749 109.672 128.357C109.649 129.966 110.77 130.635 112.175 129.85C113.581 129.065 114.738 127.125 114.761 125.516Z" fill="#3BB7C2"/>
<path d="M82.0147 97.7875C82.0147 97.7875 77.6821 116.86 78.112 119.688C78.542 122.515 93.1991 127.262 93.1991 127.262L94.6458 124.883L85.5553 117.287L85.3961 96.1784L82.0147 97.7875Z" fill="#E30072"/>
<path d="M281.141 317.285H324.814V289.755H281.141V317.285Z" fill="white"/>
<path d="M287.066 221.38L289.661 230.354L284.116 233.951L282.582 231.945L285.743 223.113L286.885 211.715L287.066 221.38Z" fill="#E30072"/>
<path d="M282.582 231.944C282.582 231.944 279.409 233.576 278.957 233.76C278.504 233.943 278.012 234.843 278.012 234.843L281.869 237.197L283.301 235.53L285.429 234.344L282.582 231.944Z" fill="#F7AFA0"/>
<path d="M279.208 234.05C279.208 234.05 278.249 234.455 278.086 234.702C277.924 234.948 277.312 237.185 277.312 237.185C277.312 237.185 278.302 238.075 279.118 236.162L280.015 235.438L281.296 234.652L279.208 234.05Z" fill="#F8DDC8"/>
<path d="M287.18 250.598L287.678 259.846L290.955 294.357H296.786C296.786 294.357 296.805 293.918 296.839 293.173C297 289.45 297.492 278.131 297.492 276.339C297.492 274.876 297.114 273.432 296.869 272.655L296.861 272.627C296.784 272.382 296.723 272.208 296.691 272.125L296.672 272.071L297.283 267.897L299.254 254.461L291.956 251.527L287.18 250.598Z" fill="#354554"/>
<path d="M306.805 301.248C306.805 301.248 307.056 305.616 307.056 306.456C307.056 307.297 304.241 309.648 304.241 309.648H300.922L300.312 306.309L301.804 303.348V301.248H306.805Z" fill="#121E29"/>
<path d="M296.841 293.922L297.008 297.566L294.945 298.17L293.216 297.858L290.903 300.149L285.487 301.044L284.695 299.295L291.758 293.505L296.841 293.172V293.922Z" fill="#121E29"/>
<path d="M291.598 252.92L293.615 256.989L295.707 261.438C295.707 261.438 298.519 275.873 298.701 277.918C298.884 279.963 301.526 302.277 301.526 302.277H306.899C306.899 302.277 308.174 284.705 308.318 283.248C308.46 281.792 306.899 276.511 306.899 276.511C306.899 276.511 307.324 271.041 307.71 266.342C307.944 263.49 308.163 260.921 308.266 260.029C308.539 257.661 307.629 253.559 307.629 253.559L291.598 252.92Z" fill="#354554"/>
<path d="M305.599 215.122C301.432 212.926 291.278 209.756 291.278 209.756L286.859 211.741L287.754 237.937L287.181 250.598C287.181 250.598 296.465 256.034 300.759 255.748C304.336 255.462 307.574 253.602 307.574 253.602L306.197 241.228L308.062 219.636C308.223 217.773 307.254 215.994 305.599 215.122Z" fill="white"/>
<path d="M311.273 255.76C310.464 256.123 309.186 256.382 307.722 256.568C303.135 257.142 296.664 256.964 296.664 256.964C296.106 255.76 295.483 252.743 294.917 249.056C293.76 241.601 292.854 231.372 293.218 227.636C293.76 222.057 303.685 214.124 303.685 214.124L307.034 215.839C307.924 216.292 308.458 217.23 308.393 218.232L307.067 239.03L306.84 242.515L311.273 255.76Z" fill="#E30072"/>
<path d="M290.903 208.849L293.426 209.434C293.426 209.434 289.526 221.433 289.204 223.203C288.882 224.973 288.721 254.264 288.721 254.264C288.721 254.264 285.197 252.1 284.66 249.346L287.183 228.925L286.86 211.741L290.903 208.849Z" fill="#E30072"/>
<path d="M292.599 200.49C292.599 200.49 291.722 202.493 291.686 202.797C291.651 203.101 291.686 204.102 291.686 204.102L291.078 205.532L291.543 211.362L293.726 212.488L299.289 210.253L300.881 206.731V200.159L292.599 200.49Z" fill="#F7AFA0"/>
<path d="M292.289 199.624L292.596 200.489L298.635 202.437L299.519 203.993L299.214 207.141L299.858 207.212L301.326 210.682H301.648L302.4 208.07L305.946 206.572L307.485 200.779L306.725 200.098L302.185 196.036C302.185 196.036 295.707 196.341 293.393 197.97L293.294 198.038L292.783 198.845L292.289 199.624Z" fill="#7D4600"/>
<path d="M298.633 202.442L299.517 203.993L299.212 207.141L299.857 207.213L301.324 210.682H301.646L302.398 208.07L305.944 206.572L307.483 200.783L298.633 202.442Z" fill="#9F5C00"/>
<path d="M300.687 208.182L302.118 213.296L294.891 215.871L293.066 210.682L300.687 208.182Z" fill="#F7AFA0"/>
<path d="M299.86 207.213C299.86 207.213 301.054 204.92 301.738 204.852C302.422 204.785 302.731 205.765 302.623 206.73C302.516 207.696 301.617 207.991 301.617 207.991C301.617 207.991 301.47 208.715 301 208.997C300.53 209.278 299.725 209.091 299.618 208.782C299.511 208.474 299.86 207.213 299.86 207.213Z" fill="#F7AFA0"/>
<path d="M301.039 245.606L285.423 233.553C284.988 233.217 284.276 233.091 283.835 233.272L269.283 239.26C268.841 239.441 268.838 239.861 269.273 240.197L284.889 252.249C285.325 252.586 286.036 252.712 286.477 252.53L301.03 246.543C301.471 246.361 301.475 245.942 301.039 245.606Z" fill="#056D78"/>
<path d="M295.738 241.789L294.601 241.965C294.601 241.965 292.267 240.825 292.044 240.86C291.821 240.894 288.659 240.672 288.659 240.672C288.659 240.672 288.256 241.31 289.038 241.72C289.821 242.128 290.176 242.209 290.176 242.209C290.176 242.209 284.715 243.871 284.854 244.702C285.043 245.835 288.087 244.575 288.087 244.575C288.087 244.575 288.133 245.279 288.948 245.401C288.948 245.401 289.083 246.43 290.032 246.441C290.032 246.441 290.214 247.033 291.311 246.965C292.408 246.897 295.427 245.606 295.427 245.606L296.905 245.198L295.738 241.789Z" fill="#F7AFA0"/>
<path d="M308.19 217.066L313.881 231.013C314.57 232.702 313.952 234.641 312.414 235.621L296.505 245.75L294.164 241.465L304.566 232.374L304.065 218.01L308.19 217.066Z" fill="#E30072"/>
<path d="M268.831 239.898L284.892 252.294C285.397 252.684 285.701 252.309 285.57 251.459L283.545 238.241C283.415 237.39 282.9 236.384 282.395 235.994L266.333 223.598C265.829 223.208 265.525 223.583 265.655 224.434L267.68 237.651C267.811 238.502 268.326 239.508 268.831 239.898Z" fill="#1B838B"/>
</svg>
