<svg width="400" height="400" viewBox="0 0 400 400" fill="none" xmlns="http://www.w3.org/2000/svg">
<g opacity="0.5">
<path opacity="0.5" d="M251.519 41.7246H50.418V315.136H251.519V41.7246Z" fill="url(#paint0_linear_20_594)"/>
</g>
<path d="M247.861 45.4434H53.0391V309.318H247.861V45.4434Z" fill="#F2F2F2"/>
<path d="M135.273 56.5645H68.2344V58.6821H135.273V56.5645Z" fill="#E0E0E0"/>
<path opacity="0.7" d="M135.273 66.1016H68.2344V68.2192H135.273V66.1016Z" fill="#5CC7D0"/>
<path d="M212.25 56.5645H145.211V58.6821H212.25V56.5645Z" fill="#E0E0E0"/>
<path d="M222.73 116.973H155.691V119.09H222.73V116.973Z" fill="#E0E0E0"/>
<path d="M224.293 122.793H157.254V124.911H224.293V122.793Z" fill="#E0E0E0"/>
<path d="M227.441 128.627H160.402V130.745H227.441V128.627Z" fill="#E0E0E0"/>
<path d="M222.73 210.746H155.691V212.864H222.73V210.746Z" fill="#E0E0E0"/>
<path d="M224.293 216.58H157.254V218.698H224.293V216.58Z" fill="#E0E0E0"/>
<path d="M227.441 222.416H160.402V224.534H227.441V222.416Z" fill="#E0E0E0"/>
<g opacity="0.5">
<path opacity="0.5" d="M139.967 95.248H68.7422V168.362H139.967V95.248Z" fill="url(#paint1_linear_20_594)"/>
</g>
<path d="M139.288 96.832H69.1953V166.777H139.288V96.832Z" fill="#F5F5F5"/>
<g opacity="0.5">
<path opacity="0.5" d="M137.056 101.066H71.6758V146.635H137.056V101.066Z" fill="url(#paint2_linear_20_594)"/>
</g>
<path d="M136.606 101.6H72.125V145.584H136.606V101.6Z" fill="white"/>
<path opacity="0.4" d="M66.6516 143.998L82.8997 118.555L89.7059 129.677L104.357 114.32L116.931 129.677L127.938 106.9L156.202 152.469L64.5586 149.285L66.6516 143.998Z" fill="#2F4051"/>
<path opacity="0.4" d="M79.2249 112.721C81.8279 112.721 83.9381 110.586 83.9381 107.952C83.9381 105.319 81.8279 103.184 79.2249 103.184C76.6219 103.184 74.5117 105.319 74.5117 107.952C74.5117 110.586 76.6219 112.721 79.2249 112.721Z" fill="#2F4051"/>
<g opacity="0.5">
<path opacity="0.5" d="M139.967 189.035H68.7422V262.149H139.967V189.035Z" fill="url(#paint3_linear_20_594)"/>
</g>
<path d="M139.288 190.619H69.1953V260.564H139.288V190.619Z" fill="#F5F5F5"/>
<g opacity="0.5">
<path opacity="0.5" d="M137.056 194.855H71.6758V240.424H137.056V194.855Z" fill="url(#paint4_linear_20_594)"/>
</g>
<path d="M136.606 195.389H72.125V239.373H136.606V195.389Z" fill="white"/>
<path opacity="0.4" d="M66.6516 237.772L82.8997 212.344L89.7059 223.466L104.357 208.109L116.931 223.466L127.938 200.689L156.202 246.258L64.5586 243.074L66.6516 237.772Z" fill="#BDBDBD"/>
<path opacity="0.4" d="M79.2249 206.51C81.8279 206.51 83.9381 204.375 83.9381 201.741C83.9381 199.108 81.8279 196.973 79.2249 196.973C76.6219 196.973 74.5117 199.108 74.5117 201.741C74.5117 204.375 76.6219 206.51 79.2249 206.51Z" fill="#BDBDBD"/>
<g opacity="0.5">
<path opacity="0.5" d="M132.611 28.2289L79.9375 296.396L277.181 336.056L329.855 67.8885L132.611 28.2289Z" fill="url(#paint5_linear_20_594)"/>
</g>
<path d="M134.461 32.3723L83.625 291.186L274.71 329.607L325.546 70.7935L134.461 32.3723Z" fill="white"/>
<path d="M146.01 47.1085L145.602 49.1855L281.213 76.4528L281.621 74.3758L146.01 47.1085Z" fill="#E0E0E0"/>
<path d="M107.431 243.571L107.023 245.648L242.635 272.916L243.043 270.839L107.431 243.571Z" fill="#E0E0E0"/>
<path d="M105.084 255.517L104.676 257.594L209.464 278.663L209.872 276.586L105.084 255.517Z" fill="#E0E0E0"/>
<path opacity="0.7" d="M102.728 267.472L102.32 269.549L141.355 277.398L141.763 275.321L102.728 267.472Z" fill="#E30072"/>
<path opacity="0.7" d="M143.658 59.0714L143.25 61.1484L211.056 74.7821L211.464 72.705L143.658 59.0714Z" fill="#E30072"/>
<path d="M141.33 71.0148L140.922 73.0918L263.167 97.6715L263.575 95.5945L141.33 71.0148Z" fill="#E0E0E0"/>
<path opacity="0.7" d="M138.97 82.9738L138.562 85.0508L168.352 91.0405L168.76 88.9635L138.97 82.9738Z" fill="#5CC7D0"/>
<path d="M136.623 94.9132L136.215 96.9902L271.826 124.258L272.234 122.181L136.623 94.9132Z" fill="#E0E0E0"/>
<g opacity="0.5">
<path opacity="0.5" d="M148.578 145.421L134.695 216.102L256.423 240.577L270.306 169.897L148.578 145.421Z" fill="url(#paint6_linear_20_594)"/>
</g>
<path d="M149.269 146.076L135.691 215.203L255.884 239.37L269.461 170.243L149.269 146.076Z" fill="white"/>
<path d="M134.263 106.876L133.855 108.953L269.467 136.22L269.875 134.143L134.263 106.876Z" fill="#E0E0E0"/>
<path d="M160.002 157.972L150.102 208.375L165.004 211.371L174.904 160.969L160.002 157.972Z" fill="#E30072"/>
<path opacity="0.33" d="M206.203 181.961L221.707 185.098L214.622 222.353L199.723 219.357L206.203 181.961Z" fill="#5CC7D0"/>
<path opacity="0.33" d="M229.457 185.098L244.961 188.235L237.876 225.49L222.977 222.494L229.457 185.098Z" fill="#E0E0E0"/>
<path opacity="0.66" d="M183.464 179.962L176.828 213.748L191.731 216.744L198.367 182.958L183.464 179.962Z" fill="#2F4051"/>
<path d="M338.123 206.589C333.472 198.746 324.496 198.338 324.496 198.338C324.496 198.338 315.674 197.193 310.015 209.209C304.728 220.409 297.457 231.169 308.837 233.852L310.899 227.31L312.17 234.338C313.79 234.45 315.415 234.477 317.038 234.416C329.224 234.009 340.837 234.526 340.465 230.071C339.968 224.142 342.527 214.197 338.123 206.589Z" fill="#212D38"/>
<path d="M294.731 248.721L290.715 259.074L270.715 277.976C270.715 277.976 258.7 286.98 264.033 289.678C269.366 292.376 274.266 279.78 274.266 279.78L295.614 266.666L300.064 251.811L294.731 248.721Z" fill="#FCAEB3"/>
<path d="M301.395 363.482L305.395 373.835H311.177L306.294 361.678L301.395 363.482Z" fill="#FCAEB3"/>
<path d="M318.742 367.984L322.742 378.337H328.525L323.626 366.18L318.742 367.984Z" fill="#FCAEB3"/>
<path d="M318.295 369.772L325.861 367.984L316.078 327.921L319.38 297.113C319.38 297.113 324.93 275.294 320.496 269.443C316.062 263.592 293.799 265.851 293.799 265.851C293.799 265.851 285.349 274.4 285.799 293.741C286.248 313.082 285.799 329.741 288.899 337.396C292 345.051 300.899 365.302 300.899 365.302L308.016 364.392L300.465 331.09L299.256 302.149C300.217 313.741 302.155 335.749 303.132 337.396C304.512 339.623 318.295 369.772 318.295 369.772Z" fill="#212D38"/>
<path d="M340.977 258.18L344.078 269.427L357.861 294.635C357.861 294.635 369.877 305.427 364.977 306.776C360.078 308.125 352.574 296.878 352.574 296.878L337.07 274.823L333.07 258.635L340.977 258.18Z" fill="#FCAEB3"/>
<path d="M324.96 226.227C331.099 226.227 336.076 221.191 336.076 214.979C336.076 208.768 331.099 203.732 324.96 203.732C318.821 203.732 313.844 208.768 313.844 214.979C313.844 221.191 318.821 226.227 324.96 226.227Z" fill="#FCAEB3"/>
<path d="M319.179 220.832L316.512 229.381L312.062 239.279L328.528 232.534C328.528 232.534 327.644 225.334 328.528 223.53L319.179 220.832Z" fill="#FCAEB3"/>
<path d="M338.31 238.824L328.078 230.275L316.512 235.294L316.977 227.984L304.574 231.969L302.667 232.596L300 246.541C300 246.541 298.217 247.89 296.434 255.545C295.407 260.039 293.921 264.413 292 268.596C292 268.596 311.116 260.941 320.465 271.294C320.824 271.055 321.101 270.71 321.259 270.306C321.417 269.902 321.448 269.458 321.349 269.035C320.899 267.686 325.349 260.941 325.349 260.941C325.349 260.941 325.349 262.29 327.132 259.592C328.915 256.894 330.233 256.455 330.233 256.455L338.31 238.824Z" fill="#E30072"/>
<path d="M305.427 233.883L303.489 232.314C303.489 232.314 301.938 231.639 300.543 233.883C299.148 236.126 292.527 250.071 292.527 250.071L300.543 254.133L305.427 233.883Z" fill="#E30072"/>
<path d="M332.077 238.432L338.279 238.871C338.279 238.871 341.845 240.675 341.845 243.373C341.845 246.071 342.728 260.471 342.728 260.471L332.945 263.608L328.945 251.059L332.077 238.432Z" fill="#E30072"/>
<path d="M304.108 372.25L296.558 375.387C296.558 375.387 287.658 375.842 288.992 380.344C290.325 384.846 303.674 381.693 303.674 381.693C303.674 381.693 315.674 382.132 315.674 378.995C315.674 375.858 313.891 372.234 312.123 372.234L304.108 372.25Z" fill="#212D38"/>
<path d="M321.006 376.299L313.456 379.436C313.456 379.436 304.557 379.891 305.89 384.393C307.223 388.895 320.572 385.742 320.572 385.742C320.572 385.742 332.572 386.197 332.572 383.044C332.572 379.891 330.805 376.283 329.022 376.283L321.006 376.299Z" fill="#212D38"/>
<path d="M336.095 205.835L327.149 201.051L314.808 203.012L312.25 214.525L318.607 214.274L320.39 210.055V214.212L323.32 214.102L325.025 207.357L326.095 214.525L336.529 214.306L336.095 205.835Z" fill="#212D38"/>
<path d="M276.265 151.184C267.367 143.584 256.477 138.766 244.921 137.314C233.365 135.863 221.642 137.842 211.177 143.01C200.713 148.178 191.959 156.312 185.981 166.422C180.002 176.532 177.058 188.183 177.505 199.956C177.953 211.729 181.773 223.116 188.501 232.732C195.229 242.348 204.575 249.777 215.401 254.117C226.227 258.456 238.066 259.518 249.477 257.173C260.889 254.828 271.381 249.177 279.676 240.909L353.335 303.811C354.457 304.77 355.91 305.238 357.374 305.113C358.838 304.988 360.193 304.28 361.141 303.144C362.089 302.009 362.552 300.538 362.428 299.057C362.305 297.576 361.604 296.205 360.482 295.246L286.823 232.36C295.381 219.933 299.043 204.719 297.09 189.702C295.137 174.685 287.71 160.948 276.265 151.184ZM271.521 226.305C265.782 233.173 258.159 238.166 249.616 240.653C241.073 243.139 231.994 243.008 223.525 240.275C215.056 237.543 207.577 232.331 202.034 225.3C196.492 218.268 193.134 209.732 192.384 200.77C191.635 191.809 193.528 182.823 197.824 174.949C202.121 167.076 208.628 160.667 216.523 156.534C224.418 152.401 233.347 150.728 242.181 151.727C251.015 152.727 259.358 156.353 266.156 162.148C270.676 166.002 274.401 170.719 277.117 176.03C279.834 181.341 281.488 187.142 281.987 193.101C282.485 199.06 281.817 205.06 280.021 210.757C278.225 216.455 275.337 221.738 271.521 226.305Z" fill="#465564"/>
<path d="M247.273 227.388C251.991 227.388 255.816 223.518 255.816 218.745C255.816 213.971 251.991 210.102 247.273 210.102C242.555 210.102 238.73 213.971 238.73 218.745C238.73 223.518 242.555 227.388 247.273 227.388Z" fill="#5CC7D0"/>
<path d="M241.565 209.475C240.381 209.478 239.222 209.133 238.228 208.481C237.234 207.829 236.449 206.899 235.968 205.804L222.403 174.903C221.918 173.909 221.636 172.827 221.575 171.721C221.514 170.616 221.674 169.509 222.047 168.467C222.419 167.425 222.996 166.471 223.742 165.66C224.488 164.85 225.389 164.2 226.389 163.75C227.39 163.301 228.47 163.061 229.564 163.044C230.659 163.027 231.746 163.235 232.759 163.654C233.773 164.073 234.692 164.694 235.462 165.482C236.232 166.269 236.837 167.206 237.24 168.236C237.376 168.535 237.49 168.845 237.581 169.161L247.395 201.475C247.848 203.043 247.679 204.729 246.924 206.173C246.168 207.617 244.885 208.706 243.348 209.208C242.77 209.384 242.169 209.473 241.565 209.475Z" fill="#5CC7D0"/>
<defs>
<linearGradient id="paint0_linear_20_594" x1="150.976" y1="315.136" x2="150.976" y2="41.7246" gradientUnits="userSpaceOnUse">
<stop stop-color="#808080" stop-opacity="0.25"/>
<stop offset="0.54" stop-color="#808080" stop-opacity="0.12"/>
<stop offset="1" stop-color="#808080" stop-opacity="0.1"/>
</linearGradient>
<linearGradient id="paint1_linear_20_594" x1="4862.88" y1="38309.6" x2="4862.88" y2="41717.4" gradientUnits="userSpaceOnUse">
<stop stop-color="#808080" stop-opacity="0.25"/>
<stop offset="0.54" stop-color="#808080" stop-opacity="0.12"/>
<stop offset="1" stop-color="#808080" stop-opacity="0.1"/>
</linearGradient>
<linearGradient id="paint2_linear_20_594" x1="4472.39" y1="24549.5" x2="4472.39" y2="25873.3" gradientUnits="userSpaceOnUse">
<stop stop-color="#808080" stop-opacity="0.25"/>
<stop offset="0.54" stop-color="#808080" stop-opacity="0.12"/>
<stop offset="1" stop-color="#808080" stop-opacity="0.1"/>
</linearGradient>
<linearGradient id="paint3_linear_20_594" x1="4862.88" y1="34031.9" x2="4862.88" y2="37439.7" gradientUnits="userSpaceOnUse">
<stop stop-color="#808080" stop-opacity="0.25"/>
<stop offset="0.54" stop-color="#808080" stop-opacity="0.12"/>
<stop offset="1" stop-color="#808080" stop-opacity="0.1"/>
</linearGradient>
<linearGradient id="paint4_linear_20_594" x1="4472.39" y1="21918.8" x2="4472.39" y2="23242.6" gradientUnits="userSpaceOnUse">
<stop stop-color="#808080" stop-opacity="0.25"/>
<stop offset="0.54" stop-color="#808080" stop-opacity="0.12"/>
<stop offset="1" stop-color="#808080" stop-opacity="0.1"/>
</linearGradient>
<linearGradient id="paint5_linear_20_594" x1="72942.7" y1="-48990.7" x2="79930.4" y2="-83743.5" gradientUnits="userSpaceOnUse">
<stop stop-color="#808080" stop-opacity="0.25"/>
<stop offset="0.54" stop-color="#808080" stop-opacity="0.12"/>
<stop offset="1" stop-color="#808080" stop-opacity="0.1"/>
</linearGradient>
<linearGradient id="paint6_linear_20_594" x1="24865.3" y1="-41378.7" x2="26001.9" y2="-47031.6" gradientUnits="userSpaceOnUse">
<stop stop-color="#808080" stop-opacity="0.25"/>
<stop offset="0.54" stop-color="#808080" stop-opacity="0.12"/>
<stop offset="1" stop-color="#808080" stop-opacity="0.1"/>
</linearGradient>
</defs>
</svg>
