<svg width="85" height="89" viewBox="0 0 85 89" fill="none" xmlns="http://www.w3.org/2000/svg">
<path d="M0 12C0 5.37259 5.37258 0 12 0H73C79.6274 0 85 5.37258 85 12V89H0V12Z" fill="white"/>
<rect x="12" y="19" width="40" height="4" rx="2" fill="#1B838B"/>
<rect x="12" y="29" width="60" height="4" rx="2" fill="#D9D9D9"/>
<rect x="12" y="38" width="56" height="4" rx="2" fill="#D9D9D9"/>
<rect x="13" y="57" width="53" height="4" rx="2" fill="#1B838B"/>
<rect x="13" y="67" width="39" height="4" rx="2" fill="#D9D9D9"/>
<rect x="13" y="76" width="56" height="4" rx="2" fill="#D9D9D9"/>
<path fill-rule="evenodd" clip-rule="evenodd" d="M72.2874 7.83652C73.2279 7.85725 74.1029 7.96626 74.6516 8.04966C75.3706 8.15894 75.9261 8.73056 76.0165 9.45624C76.0781 9.9511 76.1534 10.7056 76.1649 11.5124C76.1761 12.3063 76.1269 13.2116 75.909 13.9811C75.6119 15.0309 74.928 16.0854 74.2809 16.9255C73.6214 17.7817 72.9395 18.4918 72.5719 18.8577C72.5648 18.8648 72.5607 18.8716 72.5586 18.8766C72.5566 18.8813 72.5567 18.8836 72.5567 18.8837V22.1258C72.5567 22.7105 72.2569 23.2539 71.7635 23.5639L68.0367 25.9055C66.9121 26.6121 65.4527 25.7999 65.4527 24.4673V22.6028C64.7926 23.2578 63.7287 23.2552 63.0719 22.5948L62.2347 21.7532C61.5758 21.0909 61.5758 20.0175 62.2347 19.3552L62.307 19.2825L59.2842 18.8484C58.1042 18.6789 57.4657 17.3679 58.0568 16.328L59.9055 13.0757C60.206 12.5469 60.7657 12.2205 61.3718 12.2205H64.5182C64.5185 12.2205 64.5311 12.2201 64.5456 12.202C64.9027 11.7558 65.5865 10.9435 66.4289 10.1552C67.255 9.38209 68.3091 8.5594 69.4094 8.18284C70.2989 7.87843 71.3631 7.81614 72.2874 7.83652ZM72.2504 9.53239C71.3917 9.51346 70.5625 9.5802 69.9539 9.7885C69.1988 10.0469 68.3572 10.6689 67.5799 11.3963C66.8189 12.1084 66.1915 12.8526 65.8617 13.2648C65.5412 13.6654 65.0526 13.9168 64.5182 13.9168L61.3718 13.9168L59.5231 17.1692L62.7947 17.639C63.1296 17.6871 63.4399 17.8431 63.679 18.0834C64.2888 18.6965 64.2888 19.6899 63.679 20.3029L63.4291 20.5542L64.2663 21.3958L64.5441 21.1165C65.1382 20.5192 66.102 20.5192 66.6962 21.1165C66.9812 21.4031 67.1413 21.7916 67.1413 22.1967L67.1413 24.4673L70.8681 22.1258V18.8837C70.8681 18.4101 71.0639 17.9709 71.3833 17.6529C71.7223 17.3154 72.348 16.6631 72.9455 15.8874C73.5554 15.0956 74.0778 14.2487 74.2849 13.5172C74.4358 12.9839 74.4869 12.2722 74.4765 11.5364C74.4666 10.8405 74.4031 10.177 74.3474 9.71908C73.8377 9.64313 73.065 9.55035 72.2504 9.53239Z" fill="#E30072"/>
<path d="M72.7893 12.4978C72.7893 13.2004 72.2223 13.77 71.5229 13.77C70.8235 13.77 70.2565 13.2004 70.2565 12.4978C70.2565 11.7952 70.8235 11.2256 71.5229 11.2256C72.2223 11.2256 72.7893 11.7952 72.7893 12.4978Z" fill="#E30072"/>
</svg>
