<svg width="85" height="89" viewBox="0 0 85 89" fill="none" xmlns="http://www.w3.org/2000/svg">
<path d="M0 12C0 5.37259 5.37258 0 12 0H73C79.6274 0 85 5.37258 85 12V89H0V12Z" fill="white"/>
<rect x="12" y="19" width="40" height="4" rx="2" fill="#1B838B"/>
<rect x="12" y="29" width="60" height="4" rx="2" fill="#D9D9D9"/>
<rect x="12" y="38" width="56" height="4" rx="2" fill="#D9D9D9"/>
<rect x="13" y="57" width="53" height="4" rx="2" fill="#1B838B"/>
<rect x="13" y="67" width="39" height="4" rx="2" fill="#D9D9D9"/>
<rect x="13" y="76" width="56" height="4" rx="2" fill="#D9D9D9"/>
<path fill-rule="evenodd" clip-rule="evenodd" d="M72.7684 6.00383C73.7944 6.02645 74.749 6.14537 75.3475 6.23634C76.132 6.35556 76.7379 6.97915 76.8365 7.7708C76.9037 8.31064 76.9859 9.13372 76.9984 10.0138C77.0106 10.88 76.9569 11.8676 76.7193 12.7071C76.3952 13.8522 75.6491 15.0026 74.9432 15.919C74.2237 16.8531 73.4798 17.6277 73.0788 18.027C73.0711 18.0346 73.0666 18.0421 73.0643 18.0475C73.0621 18.0527 73.0622 18.0552 73.0622 18.0553V21.5921C73.0622 22.2299 72.7352 22.8228 72.1969 23.161L68.1313 25.7154C66.9044 26.4863 65.3124 25.6003 65.3124 24.1466V22.1125C64.5923 22.8271 63.4317 22.8242 62.7151 22.1038L61.8018 21.1857C61.0831 20.4631 61.0831 19.2922 61.8018 18.5696L61.8807 18.4903L58.5831 18.0168C57.2958 17.8319 56.5993 16.4017 57.2441 15.2673L59.2609 11.7193C59.5888 11.1424 60.1993 10.7864 60.8605 10.7864H64.2929C64.2932 10.7864 64.307 10.7859 64.3228 10.7662C64.7123 10.2794 65.4584 9.39329 66.3774 8.53325C67.2786 7.68991 68.4284 6.79243 69.6287 6.38164C70.5991 6.04956 71.7601 5.9816 72.7684 6.00383ZM72.728 7.85387C71.7913 7.83322 70.8868 7.90603 70.2228 8.13327C69.399 8.41518 68.481 9.09367 67.633 9.88725C66.8028 10.6641 66.1184 11.4759 65.7586 11.9255C65.4089 12.3626 64.876 12.6369 64.2929 12.6369L60.8605 12.6369L58.8438 16.1849L62.4128 16.6975C62.7781 16.7499 63.1166 16.9201 63.3775 17.1823C64.0427 17.851 64.0427 18.9348 63.3775 19.6035L63.1048 19.8776L64.0181 20.7958L64.3212 20.4911C64.9693 19.8395 66.0207 19.8395 66.6689 20.4911C66.9798 20.8037 67.1545 21.2276 67.1545 21.6695L67.1545 24.1466L71.2201 21.5921V18.0553C71.2201 17.5386 71.4337 17.0595 71.7822 16.7126C72.152 16.3444 72.8345 15.6328 73.4863 14.7866C74.1517 13.9228 74.7216 12.999 74.9475 12.2009C75.1122 11.6191 75.1678 10.8427 75.1565 10.0401C75.1458 9.28089 75.0765 8.55706 75.0157 8.05754C74.4596 7.97468 73.6167 7.87346 72.728 7.85387Z" fill="#E30072"/>
<path d="M73.316 11.0889C73.316 11.8554 72.6974 12.4767 71.9344 12.4767C71.1714 12.4767 70.5529 11.8554 70.5529 11.0889C70.5529 10.3224 71.1714 9.70099 71.9344 9.70099C72.6974 9.70099 73.316 10.3224 73.316 11.0889Z" fill="#E30072"/>
</svg>
