<svg width="100" height="89" viewBox="0 0 100 89" fill="none" xmlns="http://www.w3.org/2000/svg">
<path d="M0 12C0 5.37259 5.37258 0 12 0H88C94.6274 0 100 5.37258 100 12V89H0V12Z" fill="white"/>
<rect x="76" y="36" width="17" height="44" rx="3" fill="#D9D9D9"/>
<path fill-rule="evenodd" clip-rule="evenodd" d="M82.5978 11.494L83.3378 12.241L78.1558 17.472C77.3388 16.647 76.0128 16.647 75.1948 17.472L82.5978 24.944C83.4148 24.119 83.4148 22.781 82.5978 21.956L87.7788 16.725L88.5198 17.472L89.9998 15.978L84.0778 10L82.5978 11.494ZM86.2987 15.23L81.1167 20.46L79.6367 18.966L84.8187 13.736L86.2987 15.23ZM78.8965 24.197L73.1145 27.811C72.2685 28.34 71.6565 27.673 72.2145 26.83L75.9355 21.207L78.8965 24.197Z" fill="#E30072"/>
<rect x="20" y="38" width="46" height="4" rx="2" fill="#D9D9D9"/>
<circle cx="12" cy="40" r="4" fill="#D9D9D9"/>
<rect x="20" y="50" width="46" height="4" rx="2" fill="#D9D9D9"/>
<circle cx="12" cy="52" r="4" fill="#D9D9D9"/>
<rect x="20" y="62" width="46" height="4" rx="2" fill="#D9D9D9"/>
<circle cx="12" cy="64" r="4" fill="#D9D9D9"/>
<rect x="20" y="74" width="46" height="4" rx="2" fill="#D9D9D9"/>
<circle cx="12" cy="76" r="4" fill="#D9D9D9"/>
<path d="M8 26.7143C8 15.8264 16.8264 7 27.7143 7H46.2857C57.1736 7 66 15.8264 66 26.7143V26.7143C66 28.5289 64.5289 30 62.7143 30H11.2857C9.47106 30 8 28.5289 8 26.7143V26.7143Z" fill="#D2F6FA"/>
</svg>
