<svg width="85" height="89" viewBox="0 0 85 89" fill="none" xmlns="http://www.w3.org/2000/svg">
<path d="M0 12C0 5.37259 5.37258 0 12 0H73C79.6274 0 85 5.37258 85 12V89H0V12Z" fill="white"/>
<rect x="12" y="19" width="40" height="4" rx="2" fill="#D9D9D9"/>
<rect x="12" y="28" width="63" height="19" rx="4" fill="#D9D9D9"/>
<rect x="12" y="63" width="63" height="19" rx="4" fill="#D9D9D9"/>
<rect x="12" y="54" width="43" height="4" rx="2" fill="#D9D9D9"/>
<path fill-rule="evenodd" clip-rule="evenodd" d="M68.5814 14.0609C68.8374 13.7357 68.986 13.3329 68.986 12.9087C68.986 11.8931 68.1341 11 66.9961 11C65.8581 11 65.0062 11.8931 65.0062 12.9087C65.0062 13.3334 65.1551 13.7366 65.4117 14.0621L65.7689 14.412C66.102 14.664 66.5245 14.8174 66.9961 14.8174C67.4672 14.8174 67.8892 14.6644 68.2221 14.413L68.5814 14.0609ZM64.4662 15.9351L64.4442 15.9136C64.2572 15.761 64.0846 15.5919 63.9288 15.4086L60.8261 12.3691C60.4316 11.9826 59.7919 11.9826 59.3974 12.3691L59.3124 12.4523C58.9179 12.8388 58.9179 13.4654 59.3124 13.8519L62.2942 16.773L62.2961 16.7704L63.9222 18.3634V21L70.2247 21V18.2011L71.7799 16.6775C72.0581 17.021 72.2247 17.4586 72.2247 17.9351V21C72.2247 22.1046 71.3293 23 70.2247 23H63.9222C62.8176 23 61.9222 22.1046 61.9222 21V19.2077L57.8838 15.2515C56.7002 14.092 56.7002 12.2122 57.8838 11.0527L57.9687 10.9695C59.1523 9.81001 61.0712 9.81001 62.2548 10.9695L63.1541 11.8505C63.6251 10.2059 65.1669 9 66.9961 9C68.8252 9 70.3669 10.2058 70.838 11.8503L71.7371 10.9695C72.9207 9.81005 74.8396 9.81005 76.0231 10.9695L76.1081 11.0528C77.2917 12.2122 77.2917 14.0921 76.1081 15.2515L72.2254 19.0552V17.9351C72.2254 17.4623 72.0614 17.0278 71.7871 16.6854L74.6794 13.8519C75.0739 13.4655 75.0739 12.8388 74.6794 12.4523L74.5945 12.3691C74.1999 11.9826 73.5603 11.9826 73.1658 12.3691L70.0648 15.407C69.9082 15.5914 69.7345 15.7615 69.5463 15.9149L69.5257 15.9351H69.5415L67.5984 17.8387C67.567 17.8694 67.538 17.9016 67.5113 17.9351H66.4879C66.4675 17.9111 66.4458 17.8879 66.4229 17.8654L64.4524 15.9351H64.4662Z" fill="#E30072"/>
</svg>
