<svg width="150" height="58" viewBox="0 0 150 58" fill="none" xmlns="http://www.w3.org/2000/svg">
<g clip-path="url(#clip0_509_72475)">
<path d="M62.5601 8.2099V10.2499H62.7201V8.2999L66.0101 10.2599L69.4101 8.2099L66.0101 6.1499L62.5601 8.2099Z" fill="#44BACC"/>
<path d="M66.0103 10.26V14.36L69.4103 12.31V8.20996L66.0103 10.26Z" fill="#009CB5"/>
<path d="M65.9702 2.05V4.08H66.1202L66.1302 2.15L69.4102 4.1L72.8202 2.05L69.4102 0L65.9702 2.05Z" fill="#E13F8C"/>
<path d="M69.4102 4.0998V8.2098L72.8202 6.14981V2.0498L69.4102 4.0998Z" fill="#253D5B"/>
<path d="M0 7.12988H1.71V19.9699H0V7.12988Z" fill="#304050"/>
<path d="M10.9699 7.12988H12.5699V19.9699H10.9699V18.3899C10.1699 19.5999 9.01986 20.2099 7.49986 20.2099C6.21986 20.2099 5.11986 19.7399 4.21986 18.8099C3.31986 17.8799 2.85986 16.7299 2.85986 15.3899C2.85986 14.0499 3.30986 12.8999 4.21986 11.9699C5.12986 11.0399 6.21986 10.5699 7.49986 10.5699C9.01986 10.5699 10.1699 11.1799 10.9699 12.3899V7.13988V7.12988ZM7.70986 18.6699C8.63986 18.6699 9.41986 18.3599 10.0399 17.7299C10.6599 17.0999 10.9799 16.3199 10.9799 15.3899C10.9799 14.4599 10.6699 13.6799 10.0399 13.0499C9.41986 12.4199 8.63986 12.1099 7.70986 12.1099C6.77986 12.1099 6.01986 12.4299 5.39986 13.0499C4.77986 13.6799 4.45986 14.4599 4.45986 15.3899C4.45986 16.3199 4.76986 17.0999 5.39986 17.7299C6.01986 18.3599 6.78986 18.6699 7.70986 18.6699Z" fill="#304050"/>
<path d="M15.1898 16.1198C15.3498 16.9398 15.7198 17.5798 16.3198 18.0298C16.9098 18.4798 17.6398 18.7098 18.5098 18.7098C19.7198 18.7098 20.5998 18.2598 21.1498 17.3698L22.5098 18.1398C21.6198 19.5198 20.2698 20.2098 18.4698 20.2098C17.0098 20.2098 15.8298 19.7498 14.9198 18.8398C14.0098 17.9298 13.5498 16.7798 13.5498 15.3798C13.5498 13.9798 13.9998 12.8498 14.8898 11.9298C15.7798 11.0098 16.9398 10.5498 18.3598 10.5498C19.7098 10.5498 20.7998 11.0198 21.6498 11.9698C22.4998 12.9198 22.9298 14.0598 22.9298 15.3898C22.9298 15.6198 22.9098 15.8598 22.8698 16.1098H15.1798L15.1898 16.1198ZM18.3598 12.0598C17.4998 12.0598 16.7898 12.2998 16.2298 12.7798C15.6698 13.2598 15.3198 13.9098 15.1798 14.7198H21.3098C21.1798 13.8498 20.8298 13.1898 20.2798 12.7398C19.7298 12.2898 19.0898 12.0598 18.3498 12.0598H18.3598Z" fill="#304050"/>
<path d="M31.4498 10.7998H33.0498V19.9698H31.4498V18.3898C30.6498 19.5998 29.4998 20.2098 27.9798 20.2098C26.6998 20.2098 25.5998 19.7398 24.6998 18.8098C23.7998 17.8798 23.3398 16.7298 23.3398 15.3898C23.3398 14.0498 23.7898 12.8998 24.6998 11.9698C25.6098 11.0398 26.6998 10.5698 27.9798 10.5698C29.4998 10.5698 30.6498 11.1798 31.4498 12.3898V10.8098V10.7998ZM28.1798 18.6698C29.1098 18.6698 29.8898 18.3598 30.5098 17.7298C31.1298 17.0998 31.4498 16.3198 31.4498 15.3898C31.4498 14.4598 31.1398 13.6798 30.5098 13.0498C29.8898 12.4198 29.1098 12.1098 28.1798 12.1098C27.2498 12.1098 26.4898 12.4298 25.8698 13.0498C25.2498 13.6798 24.9298 14.4598 24.9298 15.3898C24.9298 16.3198 25.2398 17.0998 25.8698 17.7298C26.4898 18.3598 27.2598 18.6698 28.1798 18.6698Z" fill="#304050"/>
<path d="M42.1598 10.7998H43.7398V19.5898C43.7398 20.9498 43.2798 21.9998 42.3598 22.7498C41.4398 23.4998 40.3398 23.8798 39.0598 23.8798C38.0298 23.8798 37.1498 23.6898 36.3998 23.2998C35.6498 22.9098 35.0898 22.3598 34.7098 21.6398L36.0998 20.8498C36.5998 21.8798 37.5998 22.3898 39.0898 22.3898C40.0398 22.3898 40.7898 22.1398 41.3398 21.6398C41.8798 21.1398 42.1598 20.4498 42.1598 19.5898V18.2898C41.3498 19.5098 40.1998 20.1198 38.7098 20.1198C37.3998 20.1198 36.2898 19.6598 35.3898 18.7298C34.4898 17.7998 34.0298 16.6698 34.0298 15.3398C34.0298 14.0098 34.4798 12.8798 35.3898 11.9598C36.2998 11.0398 37.3998 10.5698 38.7098 10.5698C40.2098 10.5698 41.3598 11.1798 42.1598 12.3898V10.8098V10.7998ZM36.5598 17.6598C37.1798 18.2798 37.9598 18.5998 38.8898 18.5998C39.8198 18.5998 40.5998 18.2898 41.2198 17.6598C41.8398 17.0298 42.1598 16.2598 42.1598 15.3298C42.1598 14.3998 41.8498 13.6398 41.2198 13.0198C40.5898 12.3998 39.8198 12.0798 38.8898 12.0798C37.9598 12.0798 37.1798 12.3898 36.5598 13.0198C35.9398 13.6398 35.6198 14.4098 35.6198 15.3298C35.6198 16.2498 35.9298 17.0398 36.5598 17.6598Z" fill="#304050"/>
<path d="M46.3602 16.1198C46.5202 16.9398 46.8902 17.5798 47.4902 18.0298C48.0802 18.4798 48.8102 18.7098 49.6802 18.7098C50.8902 18.7098 51.7702 18.2598 52.3202 17.3698L53.6802 18.1398C52.7902 19.5198 51.4402 20.2098 49.6402 20.2098C48.1802 20.2098 47.0002 19.7498 46.0902 18.8398C45.1802 17.9298 44.7202 16.7798 44.7202 15.3798C44.7202 13.9798 45.1702 12.8498 46.0602 11.9298C46.9502 11.0098 48.1102 10.5498 49.5302 10.5498C50.8802 10.5498 51.9702 11.0198 52.8202 11.9698C53.6702 12.9198 54.1002 14.0598 54.1002 15.3898C54.1002 15.6198 54.0802 15.8598 54.0402 16.1098H46.3502L46.3602 16.1198ZM49.5402 12.0598C48.6802 12.0598 47.9702 12.2998 47.4102 12.7798C46.8502 13.2598 46.5002 13.9098 46.3602 14.7198H52.4902C52.3602 13.8498 52.0102 13.1898 51.4602 12.7398C50.9102 12.2898 50.2702 12.0598 49.5302 12.0598H49.5402Z" fill="#304050"/>
<path d="M59.5898 10.5601C60.6698 10.5601 61.5298 10.9001 62.1798 11.5801C62.8298 12.2601 63.1498 13.1801 63.1498 14.3401V19.9701H61.5498V14.4301C61.5498 13.6801 61.3498 13.1101 60.9398 12.7001C60.5398 12.2901 59.9798 12.0901 59.2698 12.0901C58.4698 12.0901 57.8298 12.3401 57.3398 12.8301C56.8498 13.3201 56.6098 14.0901 56.6098 15.1101V19.9701H55.0098V10.8001H56.6098V12.1201C57.2598 11.0801 58.2498 10.5601 59.5798 10.5601H59.5898Z" fill="#304050"/>
<path d="M62.5601 8.2099V10.2499H62.7201V8.2999L66.0101 10.2599L69.4101 8.2099L66.0101 6.1499L62.5601 8.2099Z" fill="#46BBCE"/>
<path d="M66.0098 10.26V14.36L69.4098 12.31V8.20996L66.0098 10.26Z" fill="#029DB7"/>
<path d="M65.9702 2.05V4.08H66.1202L66.1302 2.15L69.4102 4.1L72.8202 2.05L69.4102 0L65.9702 2.05Z" fill="#E2408E"/>
<path d="M69.4102 4.0998V8.2098L72.8202 6.14981V2.0498L69.4102 4.0998Z" fill="#304050"/>
<path d="M0 7.12988H1.71V19.9699H0V7.12988Z" fill="#304050"/>
<path d="M10.9699 7.12988H12.5699V19.9699H10.9699V18.3899C10.1699 19.5999 9.01986 20.2099 7.49986 20.2099C6.21986 20.2099 5.11986 19.7399 4.21986 18.8099C3.31986 17.8799 2.85986 16.7299 2.85986 15.3899C2.85986 14.0499 3.30986 12.8999 4.21986 11.9699C5.12986 11.0399 6.21986 10.5699 7.49986 10.5699C9.01986 10.5699 10.1699 11.1799 10.9699 12.3899V7.13988V7.12988ZM7.70986 18.6699C8.63986 18.6699 9.41986 18.3599 10.0399 17.7299C10.6599 17.0999 10.9799 16.3199 10.9799 15.3899C10.9799 14.4599 10.6699 13.6799 10.0399 13.0499C9.41986 12.4199 8.63986 12.1099 7.70986 12.1099C6.77986 12.1099 6.01986 12.4299 5.39986 13.0499C4.77986 13.6799 4.45986 14.4599 4.45986 15.3899C4.45986 16.3199 4.76986 17.0999 5.39986 17.7299C6.01986 18.3599 6.78986 18.6699 7.70986 18.6699Z" fill="#304050"/>
<path d="M15.1898 16.1198C15.3498 16.9398 15.7198 17.5798 16.3198 18.0298C16.9098 18.4798 17.6398 18.7098 18.5098 18.7098C19.7198 18.7098 20.5998 18.2598 21.1498 17.3698L22.5098 18.1398C21.6198 19.5198 20.2698 20.2098 18.4698 20.2098C17.0098 20.2098 15.8298 19.7498 14.9198 18.8398C14.0098 17.9298 13.5498 16.7798 13.5498 15.3798C13.5498 13.9798 13.9998 12.8498 14.8898 11.9298C15.7798 11.0098 16.9398 10.5498 18.3598 10.5498C19.7098 10.5498 20.7998 11.0198 21.6498 11.9698C22.4998 12.9198 22.9298 14.0598 22.9298 15.3898C22.9298 15.6198 22.9098 15.8598 22.8698 16.1098H15.1798L15.1898 16.1198ZM18.3598 12.0598C17.4998 12.0598 16.7898 12.2998 16.2298 12.7798C15.6698 13.2598 15.3198 13.9098 15.1798 14.7198H21.3098C21.1798 13.8498 20.8298 13.1898 20.2798 12.7398C19.7298 12.2898 19.0898 12.0598 18.3498 12.0598H18.3598Z" fill="#304050"/>
<path d="M31.4498 10.7998H33.0498V19.9698H31.4498V18.3898C30.6498 19.5998 29.4998 20.2098 27.9798 20.2098C26.6998 20.2098 25.5998 19.7398 24.6998 18.8098C23.7998 17.8798 23.3398 16.7298 23.3398 15.3898C23.3398 14.0498 23.7898 12.8998 24.6998 11.9698C25.6098 11.0398 26.6998 10.5698 27.9798 10.5698C29.4998 10.5698 30.6498 11.1798 31.4498 12.3898V10.8098V10.7998ZM28.1798 18.6698C29.1098 18.6698 29.8898 18.3598 30.5098 17.7298C31.1298 17.0998 31.4498 16.3198 31.4498 15.3898C31.4498 14.4598 31.1398 13.6798 30.5098 13.0498C29.8898 12.4198 29.1098 12.1098 28.1798 12.1098C27.2498 12.1098 26.4898 12.4298 25.8698 13.0498C25.2498 13.6798 24.9298 14.4598 24.9298 15.3898C24.9298 16.3198 25.2398 17.0998 25.8698 17.7298C26.4898 18.3598 27.2598 18.6698 28.1798 18.6698Z" fill="#304050"/>
<path d="M42.1598 10.7998H43.7398V19.5898C43.7398 20.9498 43.2798 21.9998 42.3598 22.7498C41.4398 23.4998 40.3398 23.8798 39.0598 23.8798C38.0298 23.8798 37.1498 23.6898 36.3998 23.2998C35.6498 22.9098 35.0898 22.3598 34.7098 21.6398L36.0998 20.8498C36.5998 21.8798 37.5998 22.3898 39.0898 22.3898C40.0398 22.3898 40.7898 22.1398 41.3398 21.6398C41.8798 21.1398 42.1598 20.4498 42.1598 19.5898V18.2898C41.3498 19.5098 40.1998 20.1198 38.7098 20.1198C37.3998 20.1198 36.2898 19.6598 35.3898 18.7298C34.4898 17.7998 34.0298 16.6698 34.0298 15.3398C34.0298 14.0098 34.4798 12.8798 35.3898 11.9598C36.2998 11.0398 37.3998 10.5698 38.7098 10.5698C40.2098 10.5698 41.3598 11.1798 42.1598 12.3898V10.8098V10.7998ZM36.5598 17.6598C37.1798 18.2798 37.9598 18.5998 38.8898 18.5998C39.8198 18.5998 40.5998 18.2898 41.2198 17.6598C41.8398 17.0298 42.1598 16.2598 42.1598 15.3298C42.1598 14.3998 41.8498 13.6398 41.2198 13.0198C40.5898 12.3998 39.8198 12.0798 38.8898 12.0798C37.9598 12.0798 37.1798 12.3898 36.5598 13.0198C35.9398 13.6398 35.6198 14.4098 35.6198 15.3298C35.6198 16.2498 35.9298 17.0398 36.5598 17.6598Z" fill="#304050"/>
<path d="M46.3602 16.1198C46.5202 16.9398 46.8902 17.5798 47.4902 18.0298C48.0802 18.4798 48.8102 18.7098 49.6802 18.7098C50.8902 18.7098 51.7702 18.2598 52.3202 17.3698L53.6802 18.1398C52.7902 19.5198 51.4402 20.2098 49.6402 20.2098C48.1802 20.2098 47.0002 19.7498 46.0902 18.8398C45.1802 17.9298 44.7202 16.7798 44.7202 15.3798C44.7202 13.9798 45.1702 12.8498 46.0602 11.9298C46.9502 11.0098 48.1102 10.5498 49.5302 10.5498C50.8802 10.5498 51.9702 11.0198 52.8202 11.9698C53.6702 12.9198 54.1002 14.0598 54.1002 15.3898C54.1002 15.6198 54.0802 15.8598 54.0402 16.1098H46.3502L46.3602 16.1198ZM49.5402 12.0598C48.6802 12.0598 47.9702 12.2998 47.4102 12.7798C46.8502 13.2598 46.5002 13.9098 46.3602 14.7198H52.4902C52.3602 13.8498 52.0102 13.1898 51.4602 12.7398C50.9102 12.2898 50.2702 12.0598 49.5302 12.0598H49.5402Z" fill="#304050"/>
<path d="M59.5898 10.5601C60.6698 10.5601 61.5298 10.9001 62.1798 11.5801C62.8298 12.2601 63.1498 13.1801 63.1498 14.3401V19.9701H61.5498V14.4301C61.5498 13.6801 61.3498 13.1101 60.9398 12.7001C60.5398 12.2901 59.9798 12.0901 59.2698 12.0901C58.4698 12.0901 57.8298 12.3401 57.3398 12.8301C56.8498 13.3201 56.6098 14.0901 56.6098 15.1101V19.9701H55.0098V10.8001H56.6098V12.1201C57.2598 11.0801 58.2498 10.5601 59.5798 10.5601H59.5898Z" fill="#304050"/>
<path d="M67.29 34.2797C67.29 34.4297 67.31 34.5697 67.33 34.7097L70.11 31.4297C68.58 31.4297 67.29 32.7497 67.29 34.2797Z" fill="#45BBCE"/>
<path d="M72.9701 34.2797C72.9701 32.7497 71.6901 31.4297 70.1201 31.4297L72.9501 34.5597C72.9501 34.4697 72.9801 34.3797 72.9801 34.2897L72.9701 34.2797Z" fill="#45BBCE"/>
<path d="M70.1101 37.0999C71.5901 37.0999 72.7901 35.9599 72.9401 34.5499L70.1101 31.4199L67.3301 34.6999C67.5401 36.0399 68.7201 37.0899 70.1101 37.0899V37.0999Z" fill="#45BBCE"/>
<path d="M4.92 32.1001H0V57.0801H14.45V52.3701H4.92V32.1001Z" fill="#45BBCE"/>
<path d="M28.6201 48.87C28.6201 51.97 26.9401 53.29 24.6901 53.29C22.6201 53.29 21.1601 52.04 21.1601 49.61V39.23H16.5601V50.18C16.5601 54.93 19.5201 57.57 23.3001 57.57C25.6901 57.57 27.5501 56.68 28.6201 55.07V57.07H33.2201V39.23H28.6201V48.86V48.87Z" fill="#45BBCE"/>
<path d="M52.9902 47.0497C52.9902 44.3697 54.2702 43.0197 56.3102 43.0197C57.6002 43.0197 58.4902 43.6097 58.9502 44.6197L62.1402 40.8397C60.9602 39.4997 59.2402 38.7397 57.1602 38.7397C54.7302 38.7397 52.9502 39.6997 51.8402 41.3097C50.8402 39.6697 49.2002 38.7397 46.9902 38.7397C44.7802 38.7397 43.0302 39.6297 42.0302 41.1297V39.2397H37.4302V57.0797H42.0302V47.0497C42.0302 44.3697 43.4202 43.0197 45.3802 43.0197C47.3402 43.0197 48.3802 44.2997 48.3802 46.4097V57.0797H48.4002L52.9802 51.6597V47.0497H52.9902Z" fill="#45BBCE"/>
<path d="M86.5599 38.7397C84.1699 38.7397 82.3099 39.6297 81.2399 41.2397V39.2397H77.1699L81.9699 44.5497C82.6699 43.4997 83.8099 43.0197 85.1599 43.0197C87.2299 43.0197 88.6899 44.2697 88.6899 46.6997V51.9897L93.2899 57.0797V46.1297C93.2899 41.3797 90.3299 38.7397 86.5499 38.7397H86.5599Z" fill="#45BBCE"/>
<path d="M110.79 41.34C109.51 39.73 107.58 38.73 104.97 38.73C100.22 38.73 96.2998 42.83 96.2998 48.15C96.2998 53.47 100.23 57.57 104.97 57.57C107.57 57.57 109.5 56.57 110.79 54.96V57.07H115.39V39.23H110.79V41.34ZM105.83 53.19C103.01 53.19 100.91 51.16 100.91 48.16C100.91 45.16 103.02 43.13 105.83 43.13C108.64 43.13 110.79 45.16 110.79 48.16C110.79 51.16 108.68 53.19 105.83 53.19Z" fill="#45BBCE"/>
<path d="M125.74 34.2397L121.14 35.6297V39.2297H118.04V43.6497H121.14V51.0697C121.14 55.8897 123.32 57.7797 129.78 57.0597V52.8797C127.14 53.0197 125.75 52.9897 125.75 51.0597V43.6397H129.78V39.2197H125.75V34.2197L125.74 34.2397Z" fill="#45BBCE"/>
<path d="M150 48.1597C150 42.9097 146.25 38.7397 140.97 38.7397C135.37 38.7397 131.55 42.8397 131.55 48.1597C131.55 53.4797 135.33 57.5797 141.33 57.5797C144.76 57.5797 147.43 56.1897 149.11 53.7597L145.4 51.6197C144.62 52.6497 143.19 53.3997 141.4 53.3997C138.97 53.3997 137.01 52.3997 136.37 50.0497H149.82C149.93 49.4397 150 48.8397 150 48.1597ZM136.3 46.4797C136.84 44.1997 138.51 42.8797 140.97 42.8797C142.9 42.8797 144.82 43.9097 145.39 46.4797H136.29H136.3Z" fill="#45BBCE"/>
<path d="M48.3999 57.0802H52.9899V51.6602L48.3999 57.0802Z" fill="#45BBCE"/>
<path d="M62.1402 40.8398L58.9502 44.6198C59.1802 45.1198 59.3002 45.7198 59.3002 46.4098V57.0798H63.9002V46.0898C63.9002 43.9198 63.2602 42.1198 62.1402 40.8398Z" fill="#45BBCE"/>
<path d="M72.4301 39.2397H67.8301V57.0797H72.4301V39.2397Z" fill="#45BBCE"/>
<path d="M88.7002 57.0797H93.3002L88.7002 51.9897V57.0797Z" fill="#45BBCE"/>
<path d="M81.9801 44.5497L77.1801 39.2397H76.6401V57.0797H81.2401V47.4497C81.2401 46.2097 81.5101 45.2597 81.9801 44.5597V44.5497Z" fill="#45BBCE"/>
<path opacity="0.49" d="M58.95 44.6201C59.18 45.1201 59.3 45.7201 59.3 46.4101V57.0801H52.98V51.6601L58.94 44.6101L58.95 44.6201ZM81.98 44.5501C81.51 45.2501 81.24 46.2001 81.24 47.4401V57.0701H88.7V51.9801L81.98 44.5401V44.5501ZM70.11 37.1001C68.72 37.1001 67.55 36.0401 67.33 34.7101L62.14 40.8501C63.26 42.1301 63.9 43.9201 63.9 46.1001V57.0901H67.82V39.2501H72.42V57.0901H76.63V39.2501H77.17L72.93 34.5601C72.79 35.9701 71.58 37.1101 70.1 37.1101L70.11 37.1001Z" fill="url(#paint0_linear_509_72475)"/>
<g filter="url(#filter0_d_509_72475)">
<path d="M70.1398 37.0999C71.7083 37.0999 72.9798 35.8284 72.9798 34.2599C72.9798 32.6914 71.7083 31.4199 70.1398 31.4199C68.5713 31.4199 67.2998 32.6914 67.2998 34.2599C67.2998 35.8284 68.5713 37.0999 70.1398 37.0999Z" fill="#45BBCE"/>
</g>
</g>
<defs>
<filter id="filter0_d_509_72475" x="65.2398" y="29.3599" width="9.80018" height="9.80018" filterUnits="userSpaceOnUse" color-interpolation-filters="sRGB">
<feFlood flood-opacity="0" result="BackgroundImageFix"/>
<feColorMatrix in="SourceAlpha" type="matrix" values="0 0 0 0 0 0 0 0 0 0 0 0 0 0 0 0 0 0 127 0" result="hardAlpha"/>
<feOffset/>
<feGaussianBlur stdDeviation="1.03"/>
<feColorMatrix type="matrix" values="0 0 0 0 0.270588 0 0 0 0 0.733333 0 0 0 0 0.807843 0 0 0 0.85 0"/>
<feBlend mode="normal" in2="BackgroundImageFix" result="effect1_dropShadow_509_72475"/>
<feBlend mode="normal" in="SourceGraphic" in2="effect1_dropShadow_509_72475" result="shape"/>
</filter>
<linearGradient id="paint0_linear_509_72475" x1="70.84" y1="54.6201" x2="70.84" y2="30.2701" gradientUnits="userSpaceOnUse">
<stop stop-color="white" stop-opacity="0"/>
<stop offset="0.13" stop-color="#FBFDFE" stop-opacity="0.02"/>
<stop offset="0.26" stop-color="#EFF9FB" stop-opacity="0.08"/>
<stop offset="0.4" stop-color="#DDF2F6" stop-opacity="0.18"/>
<stop offset="0.54" stop-color="#C2E9EF" stop-opacity="0.32"/>
<stop offset="0.67" stop-color="#A1DCE6" stop-opacity="0.5"/>
<stop offset="0.81" stop-color="#77CDDB" stop-opacity="0.73"/>
<stop offset="0.95" stop-color="#47BBCE" stop-opacity="0.99"/>
<stop offset="0.96" stop-color="#45BBCE"/>
</linearGradient>
<clipPath id="clip0_509_72475">
<rect width="150" height="57.58" fill="white"/>
</clipPath>
</defs>
</svg>
