<?xml version="1.0" encoding="UTF-8"?>
<svg id="Layer_1" data-name="Layer 1" xmlns="http://www.w3.org/2000/svg" xmlns:xlink="http://www.w3.org/1999/xlink" viewBox="0 0 150 57.58">
  <defs>
    <style>
      .cls-1 {
        fill: #e2408e;
      }

      .cls-2 {
        fill: none;
      }

      .cls-3 {
        fill: #029db7;
      }

      .cls-4 {
        fill: #46bbce;
      }

      .cls-5 {
        fill: #44bacc;
      }

      .cls-6 {
        fill: #b62370;
      }

      .cls-7 {
        fill: #45bbce;
      }

      .cls-8 {
        fill: #253d5b;
      }

      .cls-9 {
        fill: url(#linear-gradient);
        opacity: .45;
      }

      .cls-10, .cls-11 {
        fill: #fff;
      }

      .cls-11 {
        filter: url(#outer-glow-3);
      }

      .cls-12 {
        fill: #009cb5;
      }

      .cls-13 {
        fill: #e13f8c;
      }
    </style>
    <linearGradient id="linear-gradient" x1="70.84" y1="54.62" x2="70.84" y2="30.27" gradientUnits="userSpaceOnUse">
      <stop offset="0" stop-color="#fff" stop-opacity="0"/>
      <stop offset=".35" stop-color="#fff" stop-opacity=".34"/>
      <stop offset="1" stop-color="#fff"/>
    </linearGradient>
    <filter id="outer-glow-3" x="63.81" y="27.98" width="12.48" height="12.48" filterUnits="userSpaceOnUse">
      <feOffset dx="0" dy="0"/>
      <feGaussianBlur result="blur" stdDeviation="1.03"/>
      <feFlood flood-color="#fff" flood-opacity=".85"/>
      <feComposite in2="blur" operator="in"/>
      <feComposite in="SourceGraphic"/>
    </filter>
  </defs>
  <g>
    <g id="RGB_-_Full_Colour" data-name="RGB - Full Colour">
      <g>
        <polygon class="cls-5" points="62.56 8.21 62.56 10.25 62.72 10.25 62.72 8.3 66.01 10.26 69.41 8.21 66.01 6.15 62.56 8.21"/>
        <polygon class="cls-12" points="66.01 10.26 66.01 14.36 69.41 12.31 69.41 8.21 66.01 10.26"/>
        <g>
          <polygon class="cls-13" points="65.97 2.05 65.97 4.08 66.12 4.08 66.13 2.15 69.41 4.1 72.82 2.05 69.41 0 65.97 2.05"/>
          <polygon class="cls-8" points="69.41 4.1 69.41 8.21 72.82 6.15 72.82 2.05 69.41 4.1"/>
        </g>
      </g>
      <g>
        <path class="cls-10" d="M0,7.13h1.71v12.84H0V7.13Z"/>
        <path class="cls-10" d="M10.97,7.13h1.6v12.84h-1.6v-1.58c-.8,1.21-1.95,1.82-3.47,1.82-1.28,0-2.38-.47-3.28-1.4s-1.36-2.08-1.36-3.42.45-2.49,1.36-3.42,2-1.4,3.28-1.4c1.52,0,2.67.61,3.47,1.82v-5.25ZM7.71,18.67c.93,0,1.71-.31,2.33-.94.62-.63.94-1.41.94-2.34s-.31-1.71-.94-2.34c-.62-.63-1.4-.94-2.33-.94s-1.69.32-2.31.94c-.62.63-.94,1.41-.94,2.34s.31,1.71.94,2.34c.62.63,1.39.94,2.31.94Z"/>
        <path class="cls-10" d="M15.19,16.12c.16.82.53,1.46,1.13,1.91.59.45,1.32.68,2.19.68,1.21,0,2.09-.45,2.64-1.34l1.36.77c-.89,1.38-2.24,2.07-4.04,2.07-1.46,0-2.64-.46-3.55-1.37-.91-.91-1.37-2.06-1.37-3.46s.45-2.53,1.34-3.45c.89-.92,2.05-1.38,3.47-1.38,1.35,0,2.44.47,3.29,1.42.85.95,1.28,2.09,1.28,3.42,0,.23-.02.47-.06.72h-7.69ZM18.36,12.06c-.86,0-1.57.24-2.13.72-.56.48-.91,1.13-1.05,1.94h6.13c-.13-.87-.48-1.53-1.03-1.98-.55-.45-1.19-.68-1.93-.68Z"/>
        <path class="cls-10" d="M31.45,10.8h1.6v9.17h-1.6v-1.58c-.8,1.21-1.95,1.82-3.47,1.82-1.28,0-2.38-.47-3.28-1.4s-1.36-2.08-1.36-3.42.45-2.49,1.36-3.42,2-1.4,3.28-1.4c1.52,0,2.67.61,3.47,1.82v-1.58ZM28.18,18.67c.93,0,1.71-.31,2.33-.94.62-.63.94-1.41.94-2.34s-.31-1.71-.94-2.34c-.62-.63-1.4-.94-2.33-.94s-1.69.32-2.31.94c-.62.63-.94,1.41-.94,2.34s.31,1.71.94,2.34c.62.63,1.39.94,2.31.94Z"/>
        <path class="cls-10" d="M42.16,10.8h1.58v8.79c0,1.36-.46,2.41-1.38,3.16-.92.75-2.02,1.13-3.3,1.13-1.03,0-1.91-.19-2.66-.58-.75-.39-1.31-.94-1.69-1.66l1.39-.79c.5,1.03,1.5,1.54,2.99,1.54.95,0,1.7-.25,2.25-.75.54-.5.82-1.19.82-2.05v-1.3c-.81,1.22-1.96,1.83-3.45,1.83-1.31,0-2.42-.46-3.32-1.39s-1.36-2.06-1.36-3.39.45-2.46,1.36-3.38,2.01-1.39,3.32-1.39c1.5,0,2.65.61,3.45,1.82v-1.58ZM36.56,17.66c.62.62,1.4.94,2.33.94s1.71-.31,2.33-.94.94-1.4.94-2.33-.31-1.69-.94-2.31-1.4-.94-2.33-.94-1.71.31-2.33.94c-.62.62-.94,1.39-.94,2.31s.31,1.71.94,2.33Z"/>
        <path class="cls-10" d="M46.36,16.12c.16.82.53,1.46,1.13,1.91.59.45,1.32.68,2.19.68,1.21,0,2.09-.45,2.64-1.34l1.36.77c-.89,1.38-2.24,2.07-4.04,2.07-1.46,0-2.64-.46-3.55-1.37-.91-.91-1.37-2.06-1.37-3.46s.45-2.53,1.34-3.45c.89-.92,2.05-1.38,3.47-1.38,1.35,0,2.44.47,3.29,1.42.85.95,1.28,2.09,1.28,3.42,0,.23-.02.47-.06.72h-7.69ZM49.54,12.06c-.86,0-1.57.24-2.13.72-.56.48-.91,1.13-1.05,1.94h6.13c-.13-.87-.48-1.53-1.03-1.98-.55-.45-1.19-.68-1.93-.68Z"/>
        <path class="cls-10" d="M59.59,10.56c1.08,0,1.94.34,2.59,1.02.65.68.97,1.6.97,2.76v5.63h-1.6v-5.54c0-.75-.2-1.32-.61-1.73-.4-.41-.96-.61-1.67-.61-.8,0-1.44.25-1.93.74s-.73,1.26-.73,2.28v4.86h-1.6v-9.17h1.6v1.32c.65-1.04,1.64-1.56,2.97-1.56Z"/>
      </g>
      <polygon class="cls-4" points="62.56 8.21 62.56 10.25 62.72 10.25 62.72 8.3 66.01 10.26 69.41 8.21 66.01 6.15 62.56 8.21"/>
      <polygon class="cls-3" points="66.01 10.26 66.01 14.36 69.41 12.31 69.41 8.21 66.01 10.26"/>
      <polygon class="cls-1" points="65.97 2.05 65.97 4.08 66.12 4.08 66.13 2.15 69.41 4.1 72.82 2.05 69.41 0 65.97 2.05"/>
      <polygon class="cls-6" points="69.41 4.1 69.41 8.21 72.82 6.15 72.82 2.05 69.41 4.1"/>
      <g>
        <path class="cls-10" d="M0,7.13h1.71v12.84H0V7.13Z"/>
        <path class="cls-10" d="M10.97,7.13h1.6v12.84h-1.6v-1.58c-.8,1.21-1.95,1.82-3.47,1.82-1.28,0-2.38-.47-3.28-1.4s-1.36-2.08-1.36-3.42.45-2.49,1.36-3.42,2-1.4,3.28-1.4c1.52,0,2.67.61,3.47,1.82v-5.25ZM7.71,18.67c.93,0,1.71-.31,2.33-.94.62-.63.94-1.41.94-2.34s-.31-1.71-.94-2.34c-.62-.63-1.4-.94-2.33-.94s-1.69.32-2.31.94c-.62.63-.94,1.41-.94,2.34s.31,1.71.94,2.34c.62.63,1.39.94,2.31.94Z"/>
        <path class="cls-10" d="M15.19,16.12c.16.82.53,1.46,1.13,1.91.59.45,1.32.68,2.19.68,1.21,0,2.09-.45,2.64-1.34l1.36.77c-.89,1.38-2.24,2.07-4.04,2.07-1.46,0-2.64-.46-3.55-1.37-.91-.91-1.37-2.06-1.37-3.46s.45-2.53,1.34-3.45c.89-.92,2.05-1.38,3.47-1.38,1.35,0,2.44.47,3.29,1.42.85.95,1.28,2.09,1.28,3.42,0,.23-.02.47-.06.72h-7.69ZM18.36,12.06c-.86,0-1.57.24-2.13.72-.56.48-.91,1.13-1.05,1.94h6.13c-.13-.87-.48-1.53-1.03-1.98-.55-.45-1.19-.68-1.93-.68Z"/>
        <path class="cls-10" d="M31.45,10.8h1.6v9.17h-1.6v-1.58c-.8,1.21-1.95,1.82-3.47,1.82-1.28,0-2.38-.47-3.28-1.4s-1.36-2.08-1.36-3.42.45-2.49,1.36-3.42,2-1.4,3.28-1.4c1.52,0,2.67.61,3.47,1.82v-1.58ZM28.18,18.67c.93,0,1.71-.31,2.33-.94.62-.63.94-1.41.94-2.34s-.31-1.71-.94-2.34c-.62-.63-1.4-.94-2.33-.94s-1.69.32-2.31.94c-.62.63-.94,1.41-.94,2.34s.31,1.71.94,2.34c.62.63,1.39.94,2.31.94Z"/>
        <path class="cls-10" d="M42.16,10.8h1.58v8.79c0,1.36-.46,2.41-1.38,3.16-.92.75-2.02,1.13-3.3,1.13-1.03,0-1.91-.19-2.66-.58-.75-.39-1.31-.94-1.69-1.66l1.39-.79c.5,1.03,1.5,1.54,2.99,1.54.95,0,1.7-.25,2.25-.75.54-.5.82-1.19.82-2.05v-1.3c-.81,1.22-1.96,1.83-3.45,1.83-1.31,0-2.42-.46-3.32-1.39s-1.36-2.06-1.36-3.39.45-2.46,1.36-3.38,2.01-1.39,3.32-1.39c1.5,0,2.65.61,3.45,1.82v-1.58ZM36.56,17.66c.62.62,1.4.94,2.33.94s1.71-.31,2.33-.94.94-1.4.94-2.33-.31-1.69-.94-2.31-1.4-.94-2.33-.94-1.71.31-2.33.94c-.62.62-.94,1.39-.94,2.31s.31,1.71.94,2.33Z"/>
        <path class="cls-10" d="M46.36,16.12c.16.82.53,1.46,1.13,1.91.59.45,1.32.68,2.19.68,1.21,0,2.09-.45,2.64-1.34l1.36.77c-.89,1.38-2.24,2.07-4.04,2.07-1.46,0-2.64-.46-3.55-1.37-.91-.91-1.37-2.06-1.37-3.46s.45-2.53,1.34-3.45c.89-.92,2.05-1.38,3.47-1.38,1.35,0,2.44.47,3.29,1.42.85.95,1.28,2.09,1.28,3.42,0,.23-.02.47-.06.72h-7.69ZM49.54,12.06c-.86,0-1.57.24-2.13.72-.56.48-.91,1.13-1.05,1.94h6.13c-.13-.87-.48-1.53-1.03-1.98-.55-.45-1.19-.68-1.93-.68Z"/>
        <path class="cls-10" d="M59.59,10.56c1.08,0,1.94.34,2.59,1.02.65.68.97,1.6.97,2.76v5.63h-1.6v-5.54c0-.75-.2-1.32-.61-1.73-.4-.41-.96-.61-1.67-.61-.8,0-1.44.25-1.93.74s-.73,1.26-.73,2.28v4.86h-1.6v-9.17h1.6v1.32c.65-1.04,1.64-1.56,2.97-1.56Z"/>
      </g>
    </g>
    <g>
      <g>
        <g>
          <path class="cls-10" d="M67.29,34.28c0,.15.02.29.04.43l2.78-3.28c-1.53,0-2.82,1.32-2.82,2.85Z"/>
          <path class="cls-10" d="M72.97,34.28c0-1.53-1.28-2.85-2.85-2.85l2.83,3.13c0-.09.03-.18.03-.27Z"/>
          <path class="cls-10" d="M70.11,37.1c1.48,0,2.68-1.14,2.83-2.55l-2.83-3.13-2.78,3.28c.21,1.34,1.39,2.39,2.78,2.39Z"/>
        </g>
        <path class="cls-2" d="M105.83,43.13c-2.82,0-4.92,2.03-4.92,5.03s2.11,5.03,4.92,5.03,4.96-2.03,4.96-5.03-2.11-5.03-4.96-5.03Z"/>
        <path class="cls-2" d="M88.7,46.7c0-2.43-1.46-3.68-3.53-3.68-1.35,0-2.49.48-3.19,1.53l6.72,7.44v-5.29Z"/>
        <path class="cls-2" d="M140.97,42.88c-2.46,0-4.14,1.32-4.67,3.6h9.1c-.57-2.57-2.5-3.6-4.42-3.6Z"/>
        <path class="cls-2" d="M56.3,43.02c-2.03,0-3.32,1.36-3.32,4.03v4.61l5.96-7.05c-.46-1.01-1.35-1.6-2.64-1.6Z"/>
        <polygon class="cls-7" points="4.92 32.1 0 32.1 0 57.08 14.45 57.08 14.45 52.37 4.92 52.37 4.92 32.1"/>
        <path class="cls-7" d="M28.62,48.87c0,3.1-1.68,4.42-3.93,4.42-2.07,0-3.53-1.25-3.53-3.68v-10.38h-4.6v10.95c0,4.75,2.96,7.39,6.74,7.39,2.39,0,4.25-.89,5.32-2.5v2h4.6v-17.84h-4.6v9.63Z"/>
        <path class="cls-7" d="M52.99,47.05c0-2.68,1.28-4.03,3.32-4.03,1.29,0,2.18.59,2.64,1.6l3.19-3.78c-1.18-1.34-2.9-2.1-4.98-2.1-2.43,0-4.21.96-5.32,2.57-1-1.64-2.64-2.57-4.85-2.57s-3.96.89-4.96,2.39v-1.89h-4.6v17.84h4.6v-10.03c0-2.68,1.39-4.03,3.35-4.03s3,1.28,3,3.39v10.67h.02l4.58-5.42v-4.61Z"/>
        <path class="cls-7" d="M86.56,38.74c-2.39,0-4.25.89-5.32,2.5v-2h-4.07l4.8,5.31c.7-1.05,1.84-1.53,3.19-1.53,2.07,0,3.53,1.25,3.53,3.68v5.29l4.6,5.09v-10.95c0-4.75-2.96-7.39-6.74-7.39Z"/>
        <path class="cls-7" d="M110.79,41.34c-1.28-1.61-3.21-2.61-5.82-2.61-4.75,0-8.67,4.1-8.67,9.42s3.93,9.42,8.67,9.42c2.6,0,4.53-1,5.82-2.61v2.11h4.6v-17.84h-4.6v2.11ZM105.83,53.19c-2.82,0-4.92-2.03-4.92-5.03s2.11-5.03,4.92-5.03,4.96,2.03,4.96,5.03-2.11,5.03-4.96,5.03Z"/>
        <path class="cls-7" d="M125.74,34.24l-4.6,1.39v3.6h-3.1v4.42h3.1v7.42c0,4.82,2.18,6.71,8.64,5.99v-4.18c-2.64.14-4.03.11-4.03-1.82v-7.42h4.03v-4.42h-4.03v-5Z"/>
        <path class="cls-7" d="M150,48.16c0-5.25-3.75-9.42-9.03-9.42-5.6,0-9.42,4.1-9.42,9.42s3.78,9.42,9.78,9.42c3.43,0,6.1-1.39,7.78-3.82l-3.71-2.14c-.78,1.03-2.21,1.78-4,1.78-2.43,0-4.39-1-5.03-3.35h13.45c.11-.61.18-1.21.18-1.89ZM136.3,46.48c.54-2.28,2.21-3.6,4.67-3.6,1.93,0,3.85,1.03,4.42,3.6h-9.1Z"/>
        <polygon class="cls-10" points="48.4 57.08 52.99 57.08 52.99 51.66 48.4 57.08"/>
        <path class="cls-10" d="M62.14,40.84l-3.19,3.78c.23.5.35,1.1.35,1.79v10.67h4.6v-10.99c0-2.17-.64-3.97-1.76-5.25Z"/>
        <rect class="cls-10" x="67.83" y="39.24" width="4.6" height="17.84"/>
        <polygon class="cls-10" points="88.7 57.08 93.3 57.08 88.7 51.99 88.7 57.08"/>
        <path class="cls-10" d="M81.98,44.55l-4.8-5.31h-.54v17.84h4.6v-9.63c0-1.24.27-2.19.74-2.89Z"/>
      </g>
      <path class="cls-9" d="M58.95,44.62c.23.5.35,1.1.35,1.79v10.67h-6.32v-5.42l5.96-7.05ZM81.98,44.55c-.47.7-.74,1.65-.74,2.89v9.63h7.46v-5.09l-6.72-7.44ZM70.11,37.1c-1.39,0-2.56-1.06-2.78-2.39l-5.19,6.14c1.12,1.28,1.76,3.07,1.76,5.25v10.99h3.92v-17.84h4.6v17.84h4.21v-17.84h.54l-4.24-4.69c-.14,1.41-1.35,2.55-2.83,2.55Z"/>
    </g>
  </g>
  <circle class="cls-11" cx="70.11" cy="34.26" r="2.84"/>
</svg>